#N canvas 0 22 144 137 10;
#X obj 34 20 -~;
#X obj 34 40 abs~;
#X obj 34 60 clip~ 0 1e-38;
#X obj 34 80 /~ 1e-38;
#X obj 49 0 inlet~;
#X obj 6 0 inlet~;
#X obj 34 100 outlet~;
#X connect 0 0 1 0;
#X connect 1 0 2 0;
#X connect 2 0 3 0;
#X connect 3 0 6 0;
#X connect 4 0 0 1;
#X connect 5 0 0 0;
