#N canvas 726 99 450 300 10;
#X obj 77 122 clip~ 0 1e-38;
#X obj 77 142 /~ 1e-38;
#X obj 77 82 -~ 1;
#X obj 167 122 clip~ 0 1e-38;
#X obj 167 142 /~ 1e-38;
#X obj 167 82 -~ 1;
#X obj 127 180 *~;
#X obj 77 42 inlet~;
#X obj 167 42 inlet~;
#X obj 127 202 outlet~;
#X obj 167 62 abs~;
#X obj 77 62 abs~;
#X obj 77 102 +~ 1e-38;
#X obj 167 102 +~ 1e-38;
#X connect 0 0 1 0;
#X connect 1 0 6 0;
#X connect 2 0 12 0;
#X connect 3 0 4 0;
#X connect 4 0 6 1;
#X connect 5 0 13 0;
#X connect 6 0 9 0;
#X connect 7 0 11 0;
#X connect 8 0 10 0;
#X connect 10 0 5 0;
#X connect 11 0 2 0;
#X connect 12 0 0 0;
#X connect 13 0 3 0;
