#N canvas 0 22 161 115 10;
#X obj 49 39 ==~;
#X obj 34 60 ||~;
#X obj 6 8 inlet~;
#X obj 59 8 inlet~;
#X obj 36 82 outlet~;
#X obj 24 39 <~;
#X connect 0 0 1 1;
#X connect 1 0 4 0;
#X connect 2 0 0 0;
#X connect 2 0 5 0;
#X connect 3 0 0 1;
#X connect 3 0 5 1;
#X connect 5 0 1 0;
