#N canvas 436 290 143 190 10;
#X obj 28 22 -~;
#X obj 28 42 abs~;
#X obj 28 62 clip~ 0 1e-38;
#X obj 28 82 /~ 1e-38;
#X obj 28 102 -~ 1;
#X obj 28 122 abs~;
#X obj 43 2 inlet~;
#X obj 0 2 inlet~;
#X obj 28 142 outlet~;
#X connect 0 0 1 0;
#X connect 1 0 2 0;
#X connect 2 0 3 0;
#X connect 3 0 4 0;
#X connect 4 0 5 0;
#X connect 5 0 8 0;
#X connect 6 0 0 1;
#X connect 7 0 0 0;
