#N canvas 541 23 732 829 10;
#X obj 2 -23 inlet METHODS;
#X obj 222 153 bng 15 250 50 0 empty empty empty 17 7 0 10 -262144
-1 -1;
#N canvas 419 342 209 202 check_length==1 0;
#X obj 6 3 inlet;
#X obj 6 176 outlet;
#N canvas 659 278 386 113 warning 0;
#X obj 10 2 inlet;
#X obj 10 24 b;
#X msg 10 48 delete request with multiple items - All but the first
will be ignored;
#X obj 10 80 print ABSTRACTIONS_WARNING;
#X connect 0 0 1 0;
#X connect 1 0 2 0;
#X connect 2 0 3 0;
#X restore 132 127 pd warning;
#X obj 105 107 t a b;
#N canvas 659 278 177 103 error 0;
#X obj 10 2 inlet;
#X obj 10 24 b;
#X obj 10 68 print ABSTRACTIONS_ERROR;
#X msg 10 46 incomplete delete command;
#X connect 0 0 1 0;
#X connect 1 0 3 0;
#X connect 3 0 2 0;
#X restore 99 60 pd error;
#X obj 105 146 list split 1;
#N canvas 967 144 128 157 if 0;
#X obj 10 30 t a a;
#X obj 37 50 list length;
#N canvas 697 159 147 162 ggate 0;
#X obj -249 -112 spigot;
#X obj -301 -136 == 0;
#X obj -267 -221 inlet;
#X obj -334 -220 inlet;
#X obj -249 -89 outlet;
#X obj -334 -90 outlet;
#X obj -334 -113 spigot;
#X obj -267 -156 t f f;
#X obj -334 -186 t a a;
#X obj -240 -135 > 0;
#X obj -247 -200 loadbang;
#X msg -247 -180 0;
#X connect 0 0 4 0;
#X connect 1 0 6 1;
#X connect 2 0 7 0;
#X connect 3 0 8 0;
#X connect 6 0 5 0;
#X connect 7 0 1 0;
#X connect 7 1 9 0;
#X connect 8 0 6 0;
#X connect 8 1 0 0;
#X connect 9 0 0 1;
#X connect 10 0 11 0;
#X connect 11 0 7 0;
#X restore 9 92 pd ggate;
#X obj 8 121 outlet;
#X obj 68 121 outlet;
#X obj 10 10 inlet;
#X obj 70 10 inlet;
#X obj 37 70 > 0;
#X connect 0 0 2 0;
#X connect 0 1 1 0;
#X connect 1 0 7 0;
#X connect 2 0 4 0;
#X connect 2 1 3 0;
#X connect 5 0 0 0;
#X connect 6 0 7 1;
#X connect 7 0 2 1;
#X restore 6 37 pd if length > 0;
#N canvas 967 144 120 155 if 0;
#X obj 10 30 t a a;
#X obj 37 50 list length;
#N canvas 677 172 152 161 ggate 0;
#X obj -249 -112 spigot;
#X obj -301 -136 == 0;
#X obj -267 -221 inlet;
#X obj -334 -220 inlet;
#X obj -249 -89 outlet;
#X obj -334 -90 outlet;
#X obj -334 -113 spigot;
#X obj -267 -156 t f f;
#X obj -334 -186 t a a;
#X obj -240 -135 > 0;
#X obj -247 -200 loadbang;
#X msg -247 -180 0;
#X connect 0 0 4 0;
#X connect 1 0 6 1;
#X connect 2 0 7 0;
#X connect 3 0 8 0;
#X connect 6 0 5 0;
#X connect 7 0 1 0;
#X connect 7 1 9 0;
#X connect 8 0 6 0;
#X connect 8 1 0 0;
#X connect 9 0 0 1;
#X connect 10 0 11 0;
#X connect 11 0 7 0;
#X restore 9 92 pd ggate;
#X obj 8 121 outlet;
#X obj 68 121 outlet;
#X obj 10 10 inlet;
#X obj 70 10 inlet;
#X obj 37 70 == 1;
#X connect 0 0 2 0;
#X connect 0 1 1 0;
#X connect 1 0 7 0;
#X connect 2 0 4 0;
#X connect 2 1 3 0;
#X connect 5 0 0 0;
#X connect 6 0 7 1;
#X connect 7 0 2 1;
#X restore 6 84 pd if length == 1;
#X connect 0 0 6 0;
#X connect 3 0 5 0;
#X connect 3 1 2 0;
#X connect 5 0 1 0;
#X connect 6 0 7 0;
#X connect 6 1 4 0;
#X connect 7 0 1 0;
#X connect 7 1 3 0;
#X restore 35 130 pd check_length==1;
#N canvas 789 140 404 368 help 0;
#X obj 13 7 inlet;
#X obj 13 342 print HELP;
#X obj 13 28 bng 15 250 50 0 empty empty empty 17 7 0 10 -262144 -1
-1;
#X msg 13 47 ----------------------- abstractions.pd -----------------------
\, ------------------------------------------------------------------------
\, --------------- Dynamically store subpatches by name ---------------
\, ---- \, ---- Inlets: \, ---------- 0: [abstractions] methods \,
---- \, ---- Outlets: \, ---------- 0: [abstractions] output (from
the dynamically defined subpatches \, ---- \, ---- Methods (sent to
inlet 0): \, ---------- init <type> <name>: creates or initializes
a subpatch with the given type and name \, ---------- delete <name>:
deletes an abstraction \, ---------- clear: delete all abstractions
\, ---------- reset: same as clear \, ---------- all <message>: send
a message to all abstractions \, ---------- view: view the subpatch
containing all your abstractions \, ---------- print: print all abstraction
names and types \, ---------- test: Run a unit-test to make sure everything's
working \, ---------- help: print help information to the console \,
---------- methods: print all available methods for [abstractions]
\, ------------------------------------------------------------------------
\, ----------------------- abstractions.pd -----------------------
\,;
#X connect 0 0 2 0;
#X connect 2 0 3 0;
#X connect 3 0 1 0;
#X restore 137 52 pd help;
#N canvas 838 181 380 93 methods 0;
#X obj 14 10 inlet;
#X obj 14 64 print ABSTRACTIONS_METHODS;
#X msg 14 30 init delete all clear reset help methods view print test
\, <abstraction_name + abstraction_method>;
#X connect 0 0 2 0;
#X connect 2 0 1 0;
#X restore 171 74 pd methods;
#X obj 2 215 t a a;
#N canvas 646 305 381 202 delete_abstraction 0;
#X obj 13 9 inlet;
#X obj 13 56 symbol;
#X obj 13 177 s pd-\$0-guts;
#X obj 13 31 t a b;
#X obj 71 48 s \$0-count-down;
#X obj 34 97 f \$0;
#X obj 13 117 list;
#X obj 34 76 loadbang;
#X msg 13 138 find \$2-\$1 1 \, cut \, find \$2-\$1-in 1 \, cut \,
find \$2-\$1-out 1 \, cut \, vis 0 \,;
#X connect 0 0 3 0;
#X connect 1 0 6 0;
#X connect 3 0 1 0;
#X connect 3 1 4 0;
#X connect 5 0 6 1;
#X connect 6 0 8 0;
#X connect 7 0 5 0;
#X connect 8 0 2 0;
#X restore 135 451 pd delete_abstraction;
#N canvas 467 42 440 631 create_abstraction 0;
#X obj 2 3 inlet;
#X obj 56 579 s pd-\$0-guts;
#X obj 29 111 symbol;
#X obj 2 601 s \$0-count-up;
#X obj 2 90 t b a;
#X obj 116 50 r \$0-count-down;
#X obj 179 90 r \$0-count-up;
#X obj 29 132 t b a;
#X obj 62 513 f;
#X obj 77 465 * 3;
#X obj 105 491 + 1;
#X obj 62 535 pack 0 0 0;
#X obj 29 484 t b b b;
#X obj 134 491 + 2;
#X obj 90 513 f;
#X obj 119 513 f;
#X obj 83 174 f;
#X obj 133 277 + 25;
#X obj 165 277 + 50;
#X obj 83 195 t f f;
#X obj 56 378 list;
#X obj 56 153 t a b;
#X obj 116 132 s \$0-count;
#X obj 98 153 r \$0-count;
#X obj 77 442 r \$0-count;
#X obj 83 298 pack 0 0 0 0 0;
#X obj 197 277 f \$0;
#X obj 197 257 loadbang;
#X obj 128 70 r \$0-count-reset;
#X obj 83 236 int;
#X obj 119 236 int;
#X obj 83 216 % 3;
#X obj 119 216 / 3;
#X obj 83 256 * 150;
#X obj 119 256 * 80;
#X obj 83 358 list;
#X obj 2 24 list split 1;
#X obj 49 63 s \$0-type;
#X obj 2 69 list;
#X obj 2 46 t b a;
#X obj 104 318 r \$0-type;
#X obj 104 338 symbol;
#X obj 198 431 loadbang;
#X msg 152 448 0;
#N canvas 107 120 592 486 iterator 0;
#X obj 419 23 inlet;
#X obj 401 7 bng 15 250 50 0 empty empty empty 17 7 0 10 -262144 -1
-1;
#X obj 16 7 bng 15 250 50 0 empty empty empty 17 7 0 10 -262144 -1
-1;
#X obj 233 231 + 1;
#X floatatom 188 183 5 0 0 0 - - -;
#X text 423 6 + 1;
#X obj 263 25 inlet;
#X text 258 7 Set Min;
#X obj 326 24 inlet;
#X text 321 6 Set Max;
#X floatatom 46 233 5 0 0 0 - - -;
#X obj 233 382 - 1;
#X obj 161 68 int;
#X floatatom 176 45 5 0 0 0 - - -;
#X obj 176 24 inlet;
#X text 145 7 Set Reset Value;
#X obj 101 25 inlet;
#X text 93 7 Reset;
#X obj 161 92 t f f;
#X obj 36 25 inlet;
#X obj 45 284 outlet;
#X text 42 301 Counter;
#X text 40 8 - 1;
#X floatatom 188 138 5 0 0 0 - - -;
#X msg 423 68 2;
#X msg 43 69 2;
#X msg 314 282 1;
#X obj 233 255 t f f b;
#X obj 233 405 t f f b;
#X msg 320 432 1;
#X obj 84 26 bng 15 250 50 0 empty empty empty 17 7 0 10 -262144 -1
-1;
#X obj 16 47 t a b;
#X obj 396 46 t a b;
#X obj 57 182 r \$0-min;
#X obj 116 182 r \$0-max;
#X obj 276 231 loadbang;
#X obj 321 384 loadbang;
#N canvas 241 411 533 205 gate2 0;
#X obj -33 9 spigot;
#X obj 50 10 spigot;
#X obj 11 -102 sel 1 2;
#X msg -25 -15 0;
#X msg 3 -15 1;
#X msg 70 -14 0;
#X msg 98 -14 1;
#X obj 77 -79 <= 0;
#X obj 77 -59 sel 1;
#X obj -33 34 outlet;
#X obj 50 33 outlet;
#X obj -33 -122 inlet;
#X obj 11 -122 inlet;
#X text 133 -75 The toggle switch activates the spigot;
#X obj 129 -119 cnv 15 365 170 \$0-from_ggate_canvas \$0-to_ggate_canvas
gate2: 6 10 1 18 -204800 -1 0;
#X text 134 -93 Left Inlet - send item through active outlet;
#X text 134 -79 Right Inlet - set active outlet;
#X text 135 17 The [sel] objects filter the input to trigger the proper
messages to be sent to each [spigot] object.;
#X text 134 -58 ggate2 provides a gate for any input. Both outlets
are off when a number < or == 0 is recieved ar the right inlet. 1 turns
on the left outlet \, and 2 or greater turns on the right outlet. Non-numbers
are invalid for right inlet \, any input is valid for left inlet.;
#X connect 0 0 9 0;
#X connect 1 0 10 0;
#X connect 2 0 4 0;
#X connect 2 0 5 0;
#X connect 2 1 3 0;
#X connect 2 1 6 0;
#X connect 2 2 7 0;
#X connect 3 0 0 1;
#X connect 4 0 0 1;
#X connect 5 0 1 1;
#X connect 6 0 1 1;
#X connect 7 0 8 0;
#X connect 8 0 3 0;
#X connect 8 0 5 0;
#X connect 8 1 6 0;
#X connect 8 1 3 0;
#X connect 11 0 1 0;
#X connect 11 0 0 0;
#X connect 12 0 2 0;
#X restore 188 206 pd gate2;
#N canvas 241 411 533 205 gate2 0;
#X obj -33 9 spigot;
#X obj 50 10 spigot;
#X obj 11 -102 sel 1 2;
#X msg -25 -15 0;
#X msg 3 -15 1;
#X msg 70 -14 0;
#X msg 98 -14 1;
#X obj 77 -79 <= 0;
#X obj 77 -59 sel 1;
#X obj -33 34 outlet;
#X obj 50 33 outlet;
#X obj -33 -122 inlet;
#X obj 11 -122 inlet;
#X text 133 -75 The toggle switch activates the spigot;
#X obj 129 -119 cnv 15 365 170 \$0-from_ggate_canvas \$0-to_ggate_canvas
gate2: 6 10 1 18 -204800 -1 0;
#X text 134 -93 Left Inlet - send item through active outlet;
#X text 134 -79 Right Inlet - set active outlet;
#X text 135 17 The [sel] objects filter the input to trigger the proper
messages to be sent to each [spigot] object.;
#X text 134 -58 ggate2 provides a gate for any input. Both outlets
are off when a number < or == 0 is recieved ar the right inlet. 1 turns
on the left outlet \, and 2 or greater turns on the right outlet. Non-numbers
are invalid for right inlet \, any input is valid for left inlet.;
#X connect 0 0 9 0;
#X connect 1 0 10 0;
#X connect 2 0 4 0;
#X connect 2 0 5 0;
#X connect 2 1 3 0;
#X connect 2 1 6 0;
#X connect 2 2 7 0;
#X connect 3 0 0 1;
#X connect 4 0 0 1;
#X connect 5 0 1 1;
#X connect 6 0 1 1;
#X connect 7 0 8 0;
#X connect 8 0 3 0;
#X connect 8 0 5 0;
#X connect 8 1 6 0;
#X connect 8 1 3 0;
#X connect 11 0 1 0;
#X connect 11 0 0 0;
#X connect 12 0 2 0;
#X restore 188 354 pd gate2;
#N canvas 84 23 573 688 number 0;
#X obj 38 -242 inlet;
#X obj 129 -239 inlet;
#X obj 291 -238 inlet;
#X text 123 -257 Set Min;
#X text 288 -254 Set Max;
#X floatatom 39 -217 5 0 0 0 - - -;
#X obj 129 -197 sel none;
#X obj 291 -196 sel none;
#X text 20 -258 Number Thru;
#X obj 432 -237 inlet;
#X text 429 -253 Toggle float(0)/int(1);
#X obj 432 -212 tgl 15 0 empty empty empty 17 7 0 10 -262144 -1 -1
0 1;
#X obj 136 389 outlet;
#X obj 432 -189 s \$0-int;
#X msg 129 -120 0;
#X msg 158 -120 1;
#X msg 170 -239 symbol none;
#X msg 333 -238 symbol none;
#X msg 291 -118 0;
#X msg 320 -118 1;
#X obj 174 -173 t f b;
#X obj 336 -171 t f b;
#X obj 111 -41 <;
#X obj 39 -192 t f f;
#X obj 8 53 f;
#X obj 90 53 f;
#X obj 84 -75 t b f;
#X obj 8 3 b;
#X obj 90 2 b;
#X obj 61 282 f;
#X obj 143 282 f;
#X floatatom 103 310 5 0 0 0 - - -;
#X obj 137 156 t b f;
#X obj 61 239 b;
#X obj 143 238 b;
#X floatatom 49 80 5 0 0 0 - - -;
#X obj 49 99 t f f;
#X obj 164 190 >;
#X floatatom 100 389 5 0 0 0 - - -;
#X obj 163 361 int;
#N canvas 1068 173 450 300 ggate 0;
#X obj -249 -112 spigot;
#X obj -301 -136 == 0;
#X obj -267 -221 inlet;
#X obj -334 -220 inlet;
#X obj -249 -89 outlet;
#X obj -334 -90 outlet;
#X obj -334 -113 spigot;
#X obj -267 -156 t f f;
#X obj -334 -186 t a a;
#X obj -240 -135 > 0;
#X obj -247 -200 loadbang;
#X msg -247 -180 0;
#X connect 0 0 4 0;
#X connect 1 0 6 1;
#X connect 2 0 7 0;
#X connect 3 0 8 0;
#X connect 6 0 5 0;
#X connect 7 0 1 0;
#X connect 7 1 9 0;
#X connect 8 0 6 0;
#X connect 8 1 0 0;
#X connect 9 0 0 1;
#X connect 10 0 11 0;
#X connect 11 0 7 0;
#X restore 39 -97 pd ggate;
#N canvas 1068 173 450 300 ggate 0;
#X obj -249 -112 spigot;
#X obj -301 -136 == 0;
#X obj -267 -221 inlet;
#X obj -334 -220 inlet;
#X obj -249 -89 outlet;
#X obj -334 -90 outlet;
#X obj -334 -113 spigot;
#X obj -267 -156 t f f;
#X obj -334 -186 t a a;
#X obj -240 -135 > 0;
#X obj -247 -200 loadbang;
#X msg -247 -180 0;
#X connect 0 0 4 0;
#X connect 1 0 6 1;
#X connect 2 0 7 0;
#X connect 3 0 8 0;
#X connect 6 0 5 0;
#X connect 7 0 1 0;
#X connect 7 1 9 0;
#X connect 8 0 6 0;
#X connect 8 1 0 0;
#X connect 9 0 0 1;
#X connect 10 0 11 0;
#X connect 11 0 7 0;
#X restore 39 -20 pd ggate;
#N canvas 1068 173 450 300 ggate 0;
#X obj -249 -112 spigot;
#X obj -301 -136 == 0;
#X obj -267 -221 inlet;
#X obj -334 -220 inlet;
#X obj -249 -89 outlet;
#X obj -334 -90 outlet;
#X obj -334 -113 spigot;
#X obj -267 -156 t f f;
#X obj -334 -186 t a a;
#X obj -240 -135 > 0;
#X obj -247 -200 loadbang;
#X msg -247 -180 0;
#X connect 0 0 4 0;
#X connect 1 0 6 1;
#X connect 2 0 7 0;
#X connect 3 0 8 0;
#X connect 6 0 5 0;
#X connect 7 0 1 0;
#X connect 7 1 9 0;
#X connect 8 0 6 0;
#X connect 8 1 0 0;
#X connect 9 0 0 1;
#X connect 10 0 11 0;
#X connect 11 0 7 0;
#X restore 92 127 pd ggate;
#N canvas 1068 173 450 300 ggate 0;
#X obj -249 -112 spigot;
#X obj -301 -136 == 0;
#X obj -267 -221 inlet;
#X obj -334 -220 inlet;
#X obj -249 -89 outlet;
#X obj -334 -90 outlet;
#X obj -334 -113 spigot;
#X obj -267 -156 t f f;
#X obj -334 -186 t a a;
#X obj -240 -135 > 0;
#X obj -247 -200 loadbang;
#X msg -247 -180 0;
#X connect 0 0 4 0;
#X connect 1 0 6 1;
#X connect 2 0 7 0;
#X connect 3 0 8 0;
#X connect 6 0 5 0;
#X connect 7 0 1 0;
#X connect 7 1 9 0;
#X connect 8 0 6 0;
#X connect 8 1 0 0;
#X connect 9 0 0 1;
#X connect 10 0 11 0;
#X connect 11 0 7 0;
#X restore 92 213 pd ggate;
#N canvas 1068 173 450 300 ggate 0;
#X obj -249 -112 spigot;
#X obj -301 -136 == 0;
#X obj -267 -221 inlet;
#X obj -334 -220 inlet;
#X obj -249 -89 outlet;
#X obj -334 -90 outlet;
#X obj -334 -113 spigot;
#X obj -267 -156 t f f;
#X obj -334 -186 t a a;
#X obj -240 -135 > 0;
#X obj -247 -200 loadbang;
#X msg -247 -180 0;
#X connect 0 0 4 0;
#X connect 1 0 6 1;
#X connect 2 0 7 0;
#X connect 3 0 8 0;
#X connect 6 0 5 0;
#X connect 7 0 1 0;
#X connect 7 1 9 0;
#X connect 8 0 6 0;
#X connect 8 1 0 0;
#X connect 9 0 0 1;
#X connect 10 0 11 0;
#X connect 11 0 7 0;
#X restore 118 336 pd ggate;
#X connect 0 0 5 0;
#X connect 1 0 6 0;
#X connect 2 0 7 0;
#X connect 5 0 23 0;
#X connect 6 0 14 0;
#X connect 6 1 20 0;
#X connect 7 0 18 0;
#X connect 7 1 21 0;
#X connect 9 0 11 0;
#X connect 11 0 13 0;
#X connect 11 0 44 1;
#X connect 14 0 40 1;
#X connect 14 0 41 1;
#X connect 15 0 40 1;
#X connect 16 0 6 0;
#X connect 17 0 7 0;
#X connect 18 0 42 1;
#X connect 18 0 43 1;
#X connect 19 0 42 1;
#X connect 20 0 22 1;
#X connect 20 0 25 1;
#X connect 20 1 15 0;
#X connect 21 0 37 1;
#X connect 21 0 30 1;
#X connect 21 1 19 0;
#X connect 22 0 41 1;
#X connect 23 0 40 0;
#X connect 23 1 24 1;
#X connect 24 0 35 0;
#X connect 25 0 35 0;
#X connect 26 0 41 0;
#X connect 26 1 22 0;
#X connect 27 0 24 0;
#X connect 28 0 25 0;
#X connect 29 0 31 0;
#X connect 30 0 31 0;
#X connect 31 0 44 0;
#X connect 32 0 43 0;
#X connect 32 1 37 0;
#X connect 33 0 29 0;
#X connect 34 0 30 0;
#X connect 35 0 36 0;
#X connect 36 0 42 0;
#X connect 36 1 29 1;
#X connect 37 0 43 1;
#X connect 39 0 12 0;
#X connect 39 0 38 0;
#X connect 40 0 41 0;
#X connect 40 1 26 0;
#X connect 41 0 27 0;
#X connect 41 1 28 0;
#X connect 42 0 43 0;
#X connect 42 1 32 0;
#X connect 43 0 33 0;
#X connect 43 1 34 0;
#X connect 44 0 38 0;
#X connect 44 0 12 0;
#X connect 44 1 39 0;
#X restore 46 210 pd number;
#N canvas 84 23 580 660 number 0;
#X obj 38 -242 inlet;
#X obj 129 -239 inlet;
#X obj 291 -238 inlet;
#X text 123 -257 Set Min;
#X text 288 -254 Set Max;
#X floatatom 39 -217 5 0 0 0 - - -;
#X obj 129 -197 sel none;
#X obj 291 -196 sel none;
#X text 20 -258 Number Thru;
#X obj 432 -237 inlet;
#X text 429 -253 Toggle float(0)/int(1);
#X obj 432 -212 tgl 15 0 empty empty empty 17 7 0 10 -262144 -1 -1
0 1;
#X obj 136 389 outlet;
#X obj 432 -189 s \$0-int;
#X msg 129 -120 0;
#X msg 158 -120 1;
#X msg 170 -239 symbol none;
#X msg 333 -238 symbol none;
#X msg 291 -118 0;
#X msg 320 -118 1;
#X obj 174 -173 t f b;
#X obj 336 -171 t f b;
#X obj 111 -41 <;
#X obj 39 -192 t f f;
#X obj 8 53 f;
#X obj 90 53 f;
#X obj 84 -75 t b f;
#X obj 8 3 b;
#X obj 90 2 b;
#X obj 61 282 f;
#X obj 143 282 f;
#X floatatom 103 310 5 0 0 0 - - -;
#X obj 137 156 t b f;
#X obj 61 239 b;
#X obj 143 238 b;
#X floatatom 49 80 5 0 0 0 - - -;
#X obj 49 99 t f f;
#X obj 164 190 >;
#X floatatom 100 389 5 0 0 0 - - -;
#X obj 163 361 int;
#N canvas 1068 173 450 300 ggate 0;
#X obj -249 -112 spigot;
#X obj -301 -136 == 0;
#X obj -267 -221 inlet;
#X obj -334 -220 inlet;
#X obj -249 -89 outlet;
#X obj -334 -90 outlet;
#X obj -334 -113 spigot;
#X obj -267 -156 t f f;
#X obj -334 -186 t a a;
#X obj -240 -135 > 0;
#X obj -247 -200 loadbang;
#X msg -247 -180 0;
#X connect 0 0 4 0;
#X connect 1 0 6 1;
#X connect 2 0 7 0;
#X connect 3 0 8 0;
#X connect 6 0 5 0;
#X connect 7 0 1 0;
#X connect 7 1 9 0;
#X connect 8 0 6 0;
#X connect 8 1 0 0;
#X connect 9 0 0 1;
#X connect 10 0 11 0;
#X connect 11 0 7 0;
#X restore 39 -97 pd ggate;
#N canvas 1068 173 450 300 ggate 0;
#X obj -249 -112 spigot;
#X obj -301 -136 == 0;
#X obj -267 -221 inlet;
#X obj -334 -220 inlet;
#X obj -249 -89 outlet;
#X obj -334 -90 outlet;
#X obj -334 -113 spigot;
#X obj -267 -156 t f f;
#X obj -334 -186 t a a;
#X obj -240 -135 > 0;
#X obj -247 -200 loadbang;
#X msg -247 -180 0;
#X connect 0 0 4 0;
#X connect 1 0 6 1;
#X connect 2 0 7 0;
#X connect 3 0 8 0;
#X connect 6 0 5 0;
#X connect 7 0 1 0;
#X connect 7 1 9 0;
#X connect 8 0 6 0;
#X connect 8 1 0 0;
#X connect 9 0 0 1;
#X connect 10 0 11 0;
#X connect 11 0 7 0;
#X restore 39 -20 pd ggate;
#N canvas 1068 173 450 300 ggate 0;
#X obj -249 -112 spigot;
#X obj -301 -136 == 0;
#X obj -267 -221 inlet;
#X obj -334 -220 inlet;
#X obj -249 -89 outlet;
#X obj -334 -90 outlet;
#X obj -334 -113 spigot;
#X obj -267 -156 t f f;
#X obj -334 -186 t a a;
#X obj -240 -135 > 0;
#X obj -247 -200 loadbang;
#X msg -247 -180 0;
#X connect 0 0 4 0;
#X connect 1 0 6 1;
#X connect 2 0 7 0;
#X connect 3 0 8 0;
#X connect 6 0 5 0;
#X connect 7 0 1 0;
#X connect 7 1 9 0;
#X connect 8 0 6 0;
#X connect 8 1 0 0;
#X connect 9 0 0 1;
#X connect 10 0 11 0;
#X connect 11 0 7 0;
#X restore 92 127 pd ggate;
#N canvas 1068 173 450 300 ggate 0;
#X obj -249 -112 spigot;
#X obj -301 -136 == 0;
#X obj -267 -221 inlet;
#X obj -334 -220 inlet;
#X obj -249 -89 outlet;
#X obj -334 -90 outlet;
#X obj -334 -113 spigot;
#X obj -267 -156 t f f;
#X obj -334 -186 t a a;
#X obj -240 -135 > 0;
#X obj -247 -200 loadbang;
#X msg -247 -180 0;
#X connect 0 0 4 0;
#X connect 1 0 6 1;
#X connect 2 0 7 0;
#X connect 3 0 8 0;
#X connect 6 0 5 0;
#X connect 7 0 1 0;
#X connect 7 1 9 0;
#X connect 8 0 6 0;
#X connect 8 1 0 0;
#X connect 9 0 0 1;
#X connect 10 0 11 0;
#X connect 11 0 7 0;
#X restore 92 213 pd ggate;
#N canvas 1068 173 450 300 ggate 0;
#X obj -249 -112 spigot;
#X obj -301 -136 == 0;
#X obj -267 -221 inlet;
#X obj -334 -220 inlet;
#X obj -249 -89 outlet;
#X obj -334 -90 outlet;
#X obj -334 -113 spigot;
#X obj -267 -156 t f f;
#X obj -334 -186 t a a;
#X obj -240 -135 > 0;
#X obj -247 -200 loadbang;
#X msg -247 -180 0;
#X connect 0 0 4 0;
#X connect 1 0 6 1;
#X connect 2 0 7 0;
#X connect 3 0 8 0;
#X connect 6 0 5 0;
#X connect 7 0 1 0;
#X connect 7 1 9 0;
#X connect 8 0 6 0;
#X connect 8 1 0 0;
#X connect 9 0 0 1;
#X connect 10 0 11 0;
#X connect 11 0 7 0;
#X restore 118 336 pd ggate;
#X connect 0 0 5 0;
#X connect 1 0 6 0;
#X connect 2 0 7 0;
#X connect 5 0 23 0;
#X connect 6 0 14 0;
#X connect 6 1 20 0;
#X connect 7 0 18 0;
#X connect 7 1 21 0;
#X connect 9 0 11 0;
#X connect 11 0 13 0;
#X connect 11 0 44 1;
#X connect 14 0 40 1;
#X connect 14 0 41 1;
#X connect 15 0 40 1;
#X connect 16 0 6 0;
#X connect 17 0 7 0;
#X connect 18 0 42 1;
#X connect 18 0 43 1;
#X connect 19 0 42 1;
#X connect 20 0 22 1;
#X connect 20 0 25 1;
#X connect 20 1 15 0;
#X connect 21 0 37 1;
#X connect 21 0 30 1;
#X connect 21 1 19 0;
#X connect 22 0 41 1;
#X connect 23 0 40 0;
#X connect 23 1 24 1;
#X connect 24 0 35 0;
#X connect 25 0 35 0;
#X connect 26 0 41 0;
#X connect 26 1 22 0;
#X connect 27 0 24 0;
#X connect 28 0 25 0;
#X connect 29 0 31 0;
#X connect 30 0 31 0;
#X connect 31 0 44 0;
#X connect 32 0 43 0;
#X connect 32 1 37 0;
#X connect 33 0 29 0;
#X connect 34 0 30 0;
#X connect 35 0 36 0;
#X connect 36 0 42 0;
#X connect 36 1 29 1;
#X connect 37 0 43 1;
#X connect 39 0 12 0;
#X connect 39 0 38 0;
#X connect 40 0 41 0;
#X connect 40 1 26 0;
#X connect 41 0 27 0;
#X connect 41 1 28 0;
#X connect 42 0 43 0;
#X connect 42 1 32 0;
#X connect 43 0 33 0;
#X connect 43 1 34 0;
#X connect 44 0 38 0;
#X connect 44 0 12 0;
#X connect 44 1 39 0;
#X restore 188 161 pd number;
#X text 264 328 The non-standalone version of this is much cleaner
;
#X connect 0 0 32 0;
#X connect 1 0 32 0;
#X connect 2 0 31 0;
#X connect 3 0 27 0;
#X connect 4 0 37 0;
#X connect 6 0 40 1;
#X connect 8 0 40 2;
#X connect 10 0 20 0;
#X connect 11 0 28 0;
#X connect 12 0 18 0;
#X connect 13 0 12 1;
#X connect 14 0 13 0;
#X connect 16 0 12 0;
#X connect 18 0 39 0;
#X connect 18 1 23 0;
#X connect 19 0 31 0;
#X connect 23 0 40 0;
#X connect 24 0 37 1;
#X connect 25 0 38 1;
#X connect 26 0 37 1;
#X connect 27 0 39 0;
#X connect 27 1 23 0;
#X connect 27 2 26 0;
#X connect 28 0 39 0;
#X connect 28 1 23 0;
#X connect 28 2 29 0;
#X connect 29 0 38 1;
#X connect 30 0 12 0;
#X connect 31 0 23 0;
#X connect 31 1 25 0;
#X connect 32 0 23 0;
#X connect 32 1 24 0;
#X connect 33 0 39 1;
#X connect 34 0 39 2;
#X connect 35 0 26 0;
#X connect 36 0 29 0;
#X connect 37 0 38 0;
#X connect 37 1 3 0;
#X connect 38 1 11 0;
#X connect 39 0 10 0;
#X connect 40 0 4 0;
#X restore 116 111 pd iterator;
#X msg 62 557 connect \$1 0 \$2 0 \, connect \$2 0 \$3 0 \, loadbang
\, vis 0 \,;
#X msg 56 398 vis 0 \, obj \$2 \$3 r \$6-\$1-in \, obj \$2 \$4 \$7
\$6-\$1 \, obj \$2 \$5 s \$6-\$1-out \,;
#X connect 0 0 36 0;
#X connect 2 0 7 0;
#X connect 4 0 3 0;
#X connect 4 1 2 0;
#X connect 5 0 44 0;
#X connect 6 0 44 5;
#X connect 7 0 12 0;
#X connect 7 1 21 0;
#X connect 8 0 11 0;
#X connect 9 0 8 1;
#X connect 9 0 10 0;
#X connect 9 0 13 0;
#X connect 10 0 14 1;
#X connect 11 0 45 0;
#X connect 12 0 8 0;
#X connect 12 1 14 0;
#X connect 12 2 15 0;
#X connect 13 0 15 1;
#X connect 14 0 11 1;
#X connect 15 0 11 2;
#X connect 16 0 19 0;
#X connect 17 0 25 2;
#X connect 18 0 25 3;
#X connect 19 0 31 0;
#X connect 19 1 32 0;
#X connect 20 0 46 0;
#X connect 21 0 20 0;
#X connect 21 1 16 0;
#X connect 23 0 16 1;
#X connect 24 0 9 0;
#X connect 25 0 35 0;
#X connect 26 0 25 4;
#X connect 27 0 26 0;
#X connect 28 0 44 1;
#X connect 29 0 33 0;
#X connect 30 0 34 0;
#X connect 31 0 29 0;
#X connect 32 0 30 0;
#X connect 33 0 25 0;
#X connect 34 0 18 0;
#X connect 34 0 17 0;
#X connect 34 0 25 1;
#X connect 35 0 20 1;
#X connect 36 0 39 0;
#X connect 36 1 38 1;
#X connect 38 0 4 0;
#X connect 39 0 38 0;
#X connect 39 1 37 0;
#X connect 40 0 41 0;
#X connect 41 0 35 1;
#X connect 42 0 43 0;
#X connect 43 0 9 0;
#X connect 44 0 22 0;
#X connect 45 0 1 0;
#X connect 46 0 1 0;
#X restore 2 471 pd create_abstraction;
#X obj 47 343 t a a;
#X obj 2 299 t a a;
#X obj 35 193 t a a;
#N canvas 50 482 419 250 \$0-guts 0;
#X restore 284 -4 pd \$0-guts;
#N canvas 75 238 170 152 check_length==2 0;
#X obj 7 4 inlet;
#X obj 7 119 outlet;
#N canvas 659 278 200 114 error 0;
#X obj 10 2 inlet;
#X obj 10 24 b;
#X obj 10 68 print ABSTRACTIONS_ERROR;
#X msg 10 46 incomplete init command;
#X connect 0 0 1 0;
#X connect 1 0 3 0;
#X connect 3 0 2 0;
#X restore 100 50 pd error;
#N canvas 841 405 367 169 error 0;
#X obj 21 13 inlet;
#X obj 21 35 b;
#X obj 61 13 inlet;
#X obj 21 58 list;
#X obj 21 78 list prepend bad init request (should be "init <type>
<name>"): init;
#X obj 21 112 list trim;
#X obj 21 135 print ABSTRACTIONS_ERROR;
#X connect 0 0 1 0;
#X connect 1 0 3 0;
#X connect 2 0 3 1;
#X connect 3 0 4 0;
#X connect 4 0 5 0;
#X connect 5 0 6 0;
#X restore 106 118 pd error;
#X obj 7 55 t a a;
#N canvas 967 144 128 154 if 0;
#X obj 10 30 t a a;
#X obj 37 50 list length;
#N canvas 719 117 152 161 ggate 0;
#X obj -249 -112 spigot;
#X obj -301 -136 == 0;
#X obj -267 -221 inlet;
#X obj -334 -220 inlet;
#X obj -249 -89 outlet;
#X obj -334 -90 outlet;
#X obj -334 -113 spigot;
#X obj -267 -156 t f f;
#X obj -334 -186 t a a;
#X obj -240 -135 > 0;
#X obj -247 -200 loadbang;
#X msg -247 -180 0;
#X connect 0 0 4 0;
#X connect 1 0 6 1;
#X connect 2 0 7 0;
#X connect 3 0 8 0;
#X connect 6 0 5 0;
#X connect 7 0 1 0;
#X connect 7 1 9 0;
#X connect 8 0 6 0;
#X connect 8 1 0 0;
#X connect 9 0 0 1;
#X connect 10 0 11 0;
#X connect 11 0 7 0;
#X restore 9 92 pd ggate;
#X obj 8 121 outlet;
#X obj 68 121 outlet;
#X obj 10 10 inlet;
#X obj 70 10 inlet;
#X obj 37 70 > 0;
#X connect 0 0 2 0;
#X connect 0 1 1 0;
#X connect 1 0 7 0;
#X connect 2 0 4 0;
#X connect 2 1 3 0;
#X connect 5 0 0 0;
#X connect 6 0 7 1;
#X connect 7 0 2 1;
#X restore 7 28 pd if length > 0;
#N canvas 967 144 121 160 if 0;
#X obj 10 30 t a a;
#X obj 37 50 list length;
#N canvas 566 51 158 168 ggate 0;
#X obj -249 -112 spigot;
#X obj -301 -136 == 0;
#X obj -267 -221 inlet;
#X obj -334 -220 inlet;
#X obj -249 -89 outlet;
#X obj -334 -90 outlet;
#X obj -334 -113 spigot;
#X obj -267 -156 t f f;
#X obj -334 -186 t a a;
#X obj -240 -135 > 0;
#X obj -247 -200 loadbang;
#X msg -247 -180 0;
#X connect 0 0 4 0;
#X connect 1 0 6 1;
#X connect 2 0 7 0;
#X connect 3 0 8 0;
#X connect 6 0 5 0;
#X connect 7 0 1 0;
#X connect 7 1 9 0;
#X connect 8 0 6 0;
#X connect 8 1 0 0;
#X connect 9 0 0 1;
#X connect 10 0 11 0;
#X connect 11 0 7 0;
#X restore 9 92 pd ggate;
#X obj 8 121 outlet;
#X obj 68 121 outlet;
#X obj 10 10 inlet;
#X obj 70 10 inlet;
#X obj 37 70 == 2;
#X connect 0 0 2 0;
#X connect 0 1 1 0;
#X connect 1 0 7 0;
#X connect 2 0 4 0;
#X connect 2 1 3 0;
#X connect 5 0 0 0;
#X connect 6 0 7 1;
#X connect 7 0 2 1;
#X restore 7 92 pd if length == 2;
#X connect 0 0 5 0;
#X connect 4 0 6 0;
#X connect 4 1 3 1;
#X connect 5 0 4 0;
#X connect 5 1 2 0;
#X connect 6 0 1 0;
#X connect 6 1 3 0;
#X restore 2 151 pd check_length==2;
#X obj 74 364 list split 1;
#N canvas 844 512 190 137 init 0;
#X msg 33 57 clear;
#X obj 33 82 s pd-\$0-guts;
#X obj 13 106 outlet;
#X obj 12 31 bng 15 250 50 0 empty empty empty 17 7 0 10 -262144 -1
-1;
#X obj 12 11 inlet;
#X obj 73 58 s \$0-count-reset;
#X obj 73 31 s \$0-init;
#X connect 0 0 1 0;
#X connect 3 0 0 0;
#X connect 3 0 2 0;
#X connect 3 0 5 0;
#X connect 3 0 6 0;
#X connect 4 0 3 0;
#X restore 222 174 pd init;
#X obj 354 408 symbol;
#X obj 279 408 symbol;
#X obj 279 429 select symbol;
#X obj 522 356 list split 1;
#X obj 493 702 s;
#X obj 508 552 list;
#X msg 508 594 symbol \$2-\$1-in;
#X obj 348 535 symbol;
#X obj 279 450 t b b;
#X obj 488 489 spigot;
#X msg 521 467 0;
#X msg 539 467 1;
#X obj 488 242 t a b a b;
#X obj 488 510 list split 1;
#X obj 535 760 outlet;
#X msg 535 615 symbol \$2-\$1-out;
#X obj 508 573 t a a;
#X msg 285 239 0;
#X msg 324 239 1;
#X obj 285 219 t b b b;
#X obj 300 132 r \$0-count;
#X obj 285 153 f;
#X obj 324 339 t b a;
#N canvas 721 426 305 114 error 0;
#X obj 10 8 inlet;
#X obj 10 30 list prepend incomplete message to abstraction:;
#X obj 10 87 print ABSTRACTIONS_ERROR;
#X obj 10 57 list trim;
#X connect 0 0 1 0;
#X connect 1 0 3 0;
#X connect 3 0 2 0;
#X restore 395 68 pd error;
#X obj 285 110 t b a;
#N canvas 127 374 378 119 alert 0;
#X obj 5 8 inlet;
#X obj 5 29 b;
#X msg 5 50 No abstractions exist. Send message "init <pd_object_type>
<abstraction_name>" to create one.;
#X obj 5 88 print ABSTRACTIONS;
#X connect 0 0 1 0;
#X connect 1 0 2 0;
#X connect 2 0 3 0;
#X restore 336 194 pd alert;
#X obj 324 318 list append;
#X obj 354 373 t a a;
#N canvas 950 369 222 106 error 0;
#X obj 10 8 inlet;
#X obj 10 30 list prepend no such abstraction:;
#X obj 10 51 list trim;
#X obj 10 73 print ABSTRACTIONS_ERROR;
#X connect 0 0 1 0;
#X connect 1 0 2 0;
#X connect 2 0 3 0;
#X restore 488 531 pd error;
#X obj 279 666 bng 15 250 50 0 empty empty empty 17 7 0 10 -262144
-1 -1;
#N canvas 583 418 442 229 \$0-tests 0;
#X obj 41 209 outlet;
#X msg 56 183 view;
#X msg 137 185 methods;
#X msg 155 119 init larray test1;
#X msg 61 141 init dictionary test2;
#X msg 78 160 test2 print;
#X msg 71 119 delete test1;
#X msg 96 184 print;
#X msg 192 184 reset;
#X obj 22 7 inlet;
#X obj 22 28 t b b b;
#X obj 168 65 s \$0-test;
#X msg 168 45 1;
#X msg 113 48 0;
#X msg 233 184 init mtof foo;
#X msg 368 184 delete foo;
#X msg 322 184 foo \$1;
#X floatatom 322 161 5 0 0 0 - - -;
#X msg 41 85 reset \, init mtof foo \, delete foo \, init ftom foo
\, init mtof bar \, bar 69 \, delete bar \, reset;
#X connect 1 0 0 0;
#X connect 2 0 0 0;
#X connect 3 0 0 0;
#X connect 4 0 0 0;
#X connect 5 0 0 0;
#X connect 6 0 0 0;
#X connect 7 0 0 0;
#X connect 8 0 0 0;
#X connect 9 0 10 0;
#X connect 10 0 13 0;
#X connect 10 1 18 0;
#X connect 10 2 12 0;
#X connect 12 0 11 0;
#X connect 13 0 11 0;
#X connect 14 0 0 0;
#X connect 15 0 0 0;
#X connect 16 0 0 0;
#X connect 17 0 16 0;
#X connect 18 0 0 0;
#X restore 135 0 pd \$0-tests;
#X obj 329 105 s pd-\$0-guts;
#X msg 329 84 vis 1;
#X obj 108 385 list trim;
#X obj 29 236 list split 1;
#X obj 122 237 list split 1;
#X floatatom 311 154 5 0 0 0 - - -;
#X obj 135 406 t a a;
#N canvas 882 270 412 179 print 0;
#X obj 164 37 list prepend delete;
#X obj 164 58 list trim;
#X obj 24 32 t b b;
#X msg 24 98 print;
#X obj 24 4 inlet;
#X obj 51 158 print ABSTRACTIONS;
#X msg 51 79 -----------Abstraction Contents:---------------;
#X msg 178 119 clear;
#X obj 351 85 r \$0-init;
#X obj 260 102 b;
#N canvas 330 106 81 137 lswap 0;
#X obj 2 -5 inlet;
#X obj 2 14 list split 1;
#X obj 2 52 list;
#X obj 2 33 t b a;
#X obj 2 71 list;
#X obj 2 110 outlet;
#X obj 2 90 list trim;
#X connect 0 0 1 0;
#X connect 1 0 3 0;
#X connect 1 1 2 1;
#X connect 2 0 4 0;
#X connect 3 0 2 0;
#X connect 3 1 4 1;
#X connect 4 0 6 0;
#X connect 6 0 5 0;
#X restore 67 45 pd lswap;
#N canvas 280 79 737 651 dictionary-standalone 0;
#X obj 186 62 t a a;
#X obj 213 82 list length;
#X obj 213 102 > 1;
#X msg 269 201 NULL NULL \,;
#X obj 306 318 route x;
#X obj 346 259 list split 1;
#X obj 346 278 list prepend symbol;
#X obj 345 298 list trim;
#X obj 341 143 bng 15 250 50 0 empty empty empty 17 7 0 10 -262144
-1 -1;
#X obj 341 162 t b b;
#X msg 341 184 addcomma;
#X msg 345 421;
#X msg 345 219 set;
#X obj 306 360 list;
#X obj 306 339 bng 15 250 50 0 empty empty empty 17 7 0 10 -262144
-1 -1;
#X obj 239 374 spigot;
#X msg 265 354 0;
#X msg 274 354 1;
#X obj 239 163 t b a b a a b;
#X obj 239 182 t b b;
#X msg 280 184 set;
#X msg 22 201 NULL NULL \,;
#X obj 69 348 route x;
#X obj 109 289 list split 1;
#X obj 109 308 list prepend symbol;
#X obj 108 328 list trim;
#X obj 54 290 f;
#X obj 78 289 + 1;
#X msg 124 234 0;
#X obj 27 269 t a b;
#X obj 110 420 ==;
#X obj 110 388 f;
#X obj 134 387 + 1;
#X obj 7 179 t b b a b a;
#X obj 108 370 bng 15 250 50 0 empty empty empty 17 7 0 10 -262144
-1 -1;
#X obj 92 440 f;
#X obj 72 401 t b b;
#X obj 92 460 sel 1;
#X msg 178 201 NULL NULL \,;
#X obj 258 37 bng 15 250 50 0 empty empty empty 17 7 0 10 -262144 -1
-1;
#X obj 186 -11 inlet SET_&_GET;
#X obj 360 126 loadbang;
#X msg 226 494 0;
#X msg 251 493 1;
#X obj 290 452 t b b b b b;
#X obj 226 533 list prepend --;
#X msg 372 562 ------ Dictionary Contents ------;
#X msg 359 584 ----------------------------------------;
#X obj 278 429 bng 15 250 50 0 empty empty empty 17 7 0 10 -262144
-1 -1;
#X obj 22 540 list prepend match;
#X obj 22 560 list trim;
#X obj 22 609 outlet;
#X obj 91 583 list trim;
#X obj 91 561 list prepend all;
#X obj 47 520 list trim;
#X obj 47 500 list prepend nomatch;
#X obj 186 15 route set get all clear reset help print methods delete
;
#X obj 513 103 t b a b;
#X msg 541 124 0;
#X msg 553 124 1;
#X obj 552 204 b;
#X msg 552 223 list;
#X msg 431 201 NULL NULL \,;
#X obj 513 82 spigot;
#X obj 513 61 t a a;
#X obj 431 258 select symbol;
#X obj 506 239 symbol;
#X obj 431 239 symbol;
#X obj 483 164 t b a b;
#X msg 605 65 0;
#X msg 578 65 1;
#N canvas 522 311 450 300 ggate 0;
#X obj -249 -112 spigot;
#X obj -301 -136 == 0;
#X obj -267 -221 inlet;
#X obj -334 -220 inlet;
#X obj -249 -89 outlet;
#X obj -334 -90 outlet;
#X obj -334 -113 spigot;
#X obj -267 -156 t f f;
#X obj -334 -186 t a a;
#X obj -240 -135 > 0;
#X obj -233 -200 loadbang;
#X msg -233 -180 0;
#X connect 0 0 4 0;
#X connect 1 0 6 1;
#X connect 2 0 7 0;
#X connect 3 0 8 0;
#X connect 6 0 5 0;
#X connect 7 0 1 0;
#X connect 7 1 9 0;
#X connect 8 0 6 0;
#X connect 8 1 0 0;
#X connect 9 0 0 1;
#X connect 10 0 11 0;
#X connect 11 0 7 0;
#X restore 507 144 pd ggate;
#N canvas 987 135 266 324 liter 0;
#X obj 92 -337 list split 1;
#X obj 92 -501 t a a;
#X obj 119 -480 list length;
#X obj 92 -441 t a a;
#X obj 119 -420 list length;
#X obj 105 -294 list;
#X obj 65 -316 t b a;
#X obj 119 -398 swap;
#X obj 119 -371 -;
#X obj 140 -233 outlet INDEX;
#X obj 46 -233 outlet ELEMENT;
#X obj 92 -521 inlet LIST_TO_ITERATE;
#X obj 140 -308 t a a;
#X obj 140 -266 spigot;
#X obj 167 -286 <;
#X connect 0 0 6 0;
#X connect 0 1 5 1;
#X connect 1 0 3 0;
#X connect 1 1 2 0;
#X connect 2 0 7 1;
#X connect 2 0 14 1;
#X connect 3 0 0 0;
#X connect 3 1 4 0;
#X connect 4 0 7 0;
#X connect 5 0 3 0;
#X connect 6 0 5 0;
#X connect 6 1 10 0;
#X connect 7 0 8 0;
#X connect 7 1 8 1;
#X connect 8 0 12 0;
#X connect 11 0 1 0;
#X connect 12 0 13 0;
#X connect 12 1 14 0;
#X connect 13 0 9 0;
#X connect 14 0 13 1;
#X restore 431 220 pd liter;
#N canvas 958 69 450 300 ggate 0;
#X obj -249 -112 spigot;
#X obj -301 -136 == 0;
#X obj -267 -221 inlet;
#X obj -334 -220 inlet;
#X obj -249 -89 outlet;
#X obj -334 -90 outlet;
#X obj -334 -113 spigot;
#X obj -267 -156 t f f;
#X obj -334 -186 t a a;
#X obj -240 -135 > 0;
#X obj -250 -200 loadbang;
#X msg -250 -180 0;
#X connect 0 0 4 0;
#X connect 1 0 6 1;
#X connect 2 0 7 0;
#X connect 3 0 8 0;
#X connect 6 0 5 0;
#X connect 7 0 1 0;
#X connect 7 1 9 0;
#X connect 8 0 6 0;
#X connect 8 1 0 0;
#X connect 9 0 0 1;
#X connect 10 0 11 0;
#X connect 11 0 7 0;
#X restore 186 124 pd ggate;
#N canvas 493 292 450 300 anything 0;
#X obj 31 22 bng 15 250 50 0 empty empty empty 17 7 0 10 -262144 -1
-1;
#X obj 31 73 outlet;
#X obj 31 -1 inlet BANG;
#X obj 102 0 inlet ANYTHING;
#X msg 31 51 key_one;
#N canvas 604 163 450 300 lset 0;
#X obj 73 217 outlet;
#X obj 100 104 list prepend set;
#X obj 100 125 list trim;
#X obj 16 15 inlet MESSAGE_TO_SET;
#X obj 16 36 route bang;
#X obj 73 81 t b a;
#X obj 73 173 list prepend set;
#X obj 73 194 list trim;
#X msg 73 152 key_one;
#X connect 1 0 2 0;
#X connect 2 0 8 0;
#X connect 3 0 4 0;
#X connect 4 0 8 0;
#X connect 4 1 5 0;
#X connect 5 0 8 0;
#X connect 5 1 1 0;
#X connect 6 0 7 0;
#X connect 7 0 0 0;
#X connect 8 0 6 0;
#X restore 59 23 pd lset;
#X connect 0 0 4 0;
#X connect 2 0 0 0;
#X connect 3 0 5 0;
#X connect 4 0 1 0;
#X connect 5 0 4 0;
#X restore 92 480 pd anything;
#N canvas 958 69 450 300 ggate 0;
#X obj -249 -112 spigot;
#X obj -301 -136 == 0;
#X obj -267 -221 inlet;
#X obj -334 -220 inlet;
#X obj -249 -89 outlet;
#X obj -334 -90 outlet;
#X obj -334 -113 spigot;
#X obj -267 -156 t f f;
#X obj -334 -186 t a a;
#X obj -240 -135 > 0;
#X obj -244 -199 loadbang;
#X msg -244 -179 0;
#X connect 0 0 4 0;
#X connect 1 0 6 1;
#X connect 2 0 7 0;
#X connect 3 0 8 0;
#X connect 6 0 5 0;
#X connect 7 0 1 0;
#X connect 7 1 9 0;
#X connect 8 0 6 0;
#X connect 8 1 0 0;
#X connect 9 0 0 1;
#X connect 10 0 11 0;
#X connect 11 0 7 0;
#X restore 181 513 pd ggate;
#N canvas 611 457 450 300 ladd3 0;
#X obj 30 5 inlet;
#X obj 30 27 t b a;
#X msg 30 49 addcomma;
#X obj 57 69 list prepend add2;
#X obj 57 89 list trim;
#X obj 47 116 outlet;
#X connect 0 0 1 0;
#X connect 1 0 2 0;
#X connect 1 1 3 0;
#X connect 2 0 5 0;
#X connect 3 0 4 0;
#X connect 4 0 5 0;
#X restore 345 395 pd ladd3;
#N canvas 604 163 450 300 lset 0;
#X obj 73 217 outlet;
#X obj 100 104 list prepend set;
#X obj 100 125 list trim;
#X obj 16 15 inlet MESSAGE_TO_SET;
#X obj 16 36 route bang;
#X obj 73 81 t b a;
#X obj 73 173 list prepend set;
#X obj 73 194 list trim;
#X msg 73 152 NULL NULL;
#X connect 1 0 2 0;
#X connect 2 0 8 0;
#X connect 3 0 4 0;
#X connect 4 0 8 0;
#X connect 4 1 5 0;
#X connect 5 0 8 0;
#X connect 5 1 1 0;
#X connect 6 0 7 0;
#X connect 7 0 0 0;
#X connect 8 0 6 0;
#X restore 445 184 pd lset NULL NULL;
#N canvas 611 457 450 300 ladd3 0;
#X obj 30 5 inlet;
#X obj 30 27 t b a;
#X msg 30 49 addcomma;
#X obj 57 69 list prepend add2;
#X obj 57 89 list trim;
#X obj 47 116 outlet;
#X connect 0 0 1 0;
#X connect 1 0 2 0;
#X connect 1 1 3 0;
#X connect 2 0 5 0;
#X connect 3 0 4 0;
#X connect 4 0 5 0;
#X restore 178 184 pd ladd3;
#X obj 226 563 list trim;
#X obj 226 609 print DICTIONARY-\$0;
#N canvas 926 529 353 115 methods 0;
#X obj -293 23 bng 15 250 50 0 empty empty empty 17 7 0 10 -262144
-1 -1;
#X obj -294 -5 inlet;
#X obj -293 78 print DICTIONARY-METHODS;
#X msg -293 44 set get delete all clear reset methods help print <
key value > < key >;
#X connect 0 0 3 0;
#X connect 1 0 0 0;
#X connect 3 0 2 0;
#X restore 440 43 pd methods;
#N canvas 813 486 88 106 help 0;
#X obj 7 5 inlet;
#X obj 7 67 print HELP;
#X obj 7 26 bng 15 250 50 0 empty empty empty 17 7 0 10 -262144 -1
-1;
#N canvas 820 360 450 300 help 0;
#X msg 17 46 ----------------------- dictionary.pd -----------------------
\, ------------------------------------------------------------------------
\, --------------- Store key-value pairs in a subpatch ---------------
\, ---- \, ---- Inlets: \, ---------- 0: Call Method. Input key to
get value or input key-value pair to store value. \, ---- \, ---- Outlets:
\, ---------- 0: Output prepended with "match" "nomatch" or "all".
Use [route] to separate. \, ---- \, ---- Methods (sent to inlet 0):
\, ---------- methods: print all available methods for [dictionary]
\, ---------- set < key > < value >: Set value stored with the key
\, ---------- get < key >: If value exists returns "match < value >"
otherwise "nomatch < key >" \, ---------- all: Output all key-value
pairs prepended by "all" \, ---------- delete < key >: delete a stored
key (does nothing if key is invalid) \, ---------- clear: Clear all
stored key-value pairs \, ---------- reset: Same as clear \, ----------
help: print help information to the console \, ---------- print: print
all key-value pairs to the console \, ------------------------------------------------------------------------
\, ----------------------- dictionary.pd ----------------------- \,
;
#X obj 17 14 inlet;
#X obj 18 230 outlet;
#X connect 0 0 2 0;
#X connect 1 0 0 0;
#X restore 7 45 pd help;
#X connect 0 0 2 0;
#X connect 2 0 3 0;
#X connect 3 0 1 0;
#X restore 440 65 pd help;
#X connect 0 0 73 0;
#X connect 0 1 1 0;
#X connect 1 0 2 0;
#X connect 2 0 73 1;
#X connect 3 0 4 0;
#X connect 4 0 14 0;
#X connect 4 1 76 0;
#X connect 5 0 6 0;
#X connect 6 0 7 0;
#X connect 7 0 4 1;
#X connect 8 0 9 0;
#X connect 9 0 10 0;
#X connect 9 1 12 0;
#X connect 9 1 77 0;
#X connect 10 0 3 0;
#X connect 10 0 21 0;
#X connect 10 0 38 0;
#X connect 10 0 62 0;
#X connect 11 0 78 0;
#X connect 12 0 11 0;
#X connect 13 0 76 0;
#X connect 14 0 13 0;
#X connect 14 0 16 0;
#X connect 15 0 76 0;
#X connect 16 0 15 1;
#X connect 17 0 15 1;
#X connect 18 0 19 0;
#X connect 18 1 15 0;
#X connect 18 2 3 0;
#X connect 18 3 5 0;
#X connect 18 4 71 0;
#X connect 18 5 17 0;
#X connect 18 5 12 0;
#X connect 19 0 11 0;
#X connect 19 1 20 0;
#X connect 20 0 3 0;
#X connect 20 0 21 0;
#X connect 20 0 38 0;
#X connect 20 0 62 0;
#X connect 21 0 29 0;
#X connect 22 0 49 0;
#X connect 22 1 34 0;
#X connect 23 0 24 0;
#X connect 24 0 25 0;
#X connect 25 0 22 1;
#X connect 26 0 27 0;
#X connect 26 0 30 1;
#X connect 27 0 26 1;
#X connect 28 0 26 1;
#X connect 28 0 31 1;
#X connect 29 0 22 0;
#X connect 29 1 26 0;
#X connect 30 0 35 1;
#X connect 31 0 32 0;
#X connect 31 0 30 0;
#X connect 32 0 31 1;
#X connect 33 0 36 0;
#X connect 33 1 21 0;
#X connect 33 2 23 0;
#X connect 33 3 28 0;
#X connect 33 4 74 1;
#X connect 34 0 31 0;
#X connect 35 0 37 0;
#X connect 36 0 35 0;
#X connect 36 1 30 0;
#X connect 37 0 74 0;
#X connect 38 0 75 0;
#X connect 39 0 38 0;
#X connect 40 0 56 0;
#X connect 41 0 8 0;
#X connect 42 0 75 1;
#X connect 43 0 75 1;
#X connect 44 0 47 0;
#X connect 44 1 42 0;
#X connect 44 2 38 0;
#X connect 44 3 43 0;
#X connect 44 4 46 0;
#X connect 45 0 79 0;
#X connect 46 0 80 0;
#X connect 47 0 80 0;
#X connect 48 0 44 0;
#X connect 49 0 50 0;
#X connect 50 0 51 0;
#X connect 52 0 51 0;
#X connect 53 0 52 0;
#X connect 54 0 51 0;
#X connect 55 0 54 0;
#X connect 56 0 0 0;
#X connect 56 1 0 0;
#X connect 56 2 39 0;
#X connect 56 3 8 0;
#X connect 56 4 8 0;
#X connect 56 5 82 0;
#X connect 56 6 44 0;
#X connect 56 7 81 0;
#X connect 56 8 64 0;
#X connect 56 9 0 0;
#X connect 57 0 58 0;
#X connect 57 1 18 0;
#X connect 57 2 59 0;
#X connect 58 0 71 1;
#X connect 59 0 71 1;
#X connect 60 0 61 0;
#X connect 61 0 13 1;
#X connect 62 0 72 0;
#X connect 63 0 57 0;
#X connect 64 0 63 0;
#X connect 64 1 68 0;
#X connect 65 0 70 0;
#X connect 66 0 65 1;
#X connect 67 0 65 0;
#X connect 68 0 62 0;
#X connect 68 1 66 0;
#X connect 68 2 69 0;
#X connect 69 0 63 1;
#X connect 70 0 63 1;
#X connect 71 0 13 1;
#X connect 71 1 60 0;
#X connect 72 0 67 0;
#X connect 73 0 33 0;
#X connect 73 1 18 0;
#X connect 74 0 55 0;
#X connect 75 0 53 0;
#X connect 75 1 45 0;
#X connect 76 0 11 0;
#X connect 77 0 62 0;
#X connect 77 0 38 0;
#X connect 77 0 3 0;
#X connect 77 0 21 0;
#X connect 78 0 21 0;
#X connect 78 0 38 0;
#X connect 78 0 3 0;
#X connect 78 0 62 0;
#X connect 79 0 80 0;
#X restore 67 136 pd dictionary-standalone;
#X obj 67 4 r \$0-add_name;
#X obj 164 4 r \$0-delete_name;
#X connect 0 0 1 0;
#X connect 1 0 11 0;
#X connect 2 0 3 0;
#X connect 2 1 6 0;
#X connect 3 0 11 0;
#X connect 4 0 2 0;
#X connect 6 0 5 0;
#X connect 7 0 11 0;
#X connect 8 0 9 0;
#X connect 9 0 7 0;
#X connect 10 0 11 0;
#X connect 11 0 5 0;
#X connect 12 0 10 0;
#X connect 13 0 0 0;
#X restore 329 63 pd print;
#X obj 135 -18 bng 15 250 50 0 empty empty empty 17 7 0 10 -262144
-1 -1;
#X obj 580 637 r \$0-test;
#X obj 2 17 route init delete clear reset help methods all view print
test;
#X msg 472 0 test;
#X msg 505 0 help;
#N canvas 762 141 125 157 if 0;
#X obj 10 30 t a a;
#X obj 37 50 list length;
#X obj 37 70 < 2;
#N canvas 670 173 157 164 ggate 0;
#X obj -249 -112 spigot;
#X obj -301 -136 == 0;
#X obj -267 -221 inlet;
#X obj -334 -220 inlet;
#X obj -249 -89 outlet;
#X obj -334 -90 outlet;
#X obj -334 -113 spigot;
#X obj -267 -156 t f f;
#X obj -334 -186 t a a;
#X obj -240 -135 > 0;
#X obj -247 -200 loadbang;
#X msg -247 -180 0;
#X connect 0 0 4 0;
#X connect 1 0 6 1;
#X connect 2 0 7 0;
#X connect 3 0 8 0;
#X connect 6 0 5 0;
#X connect 7 0 1 0;
#X connect 7 1 9 0;
#X connect 8 0 6 0;
#X connect 8 1 0 0;
#X connect 9 0 0 1;
#X connect 10 0 11 0;
#X connect 11 0 7 0;
#X restore 9 92 pd ggate;
#X obj 8 121 outlet;
#X obj 68 121 outlet;
#X obj 10 10 inlet;
#X obj 70 10 inlet;
#X connect 0 0 3 0;
#X connect 0 1 1 0;
#X connect 1 0 2 0;
#X connect 2 0 3 1;
#X connect 3 0 5 0;
#X connect 3 1 4 0;
#X connect 6 0 0 0;
#X connect 7 0 2 1;
#X restore 395 47 pd if length < 2;
#X obj 570 535 f \$0;
#X obj 570 514 loadbang;
#N canvas 967 144 117 151 if 0;
#X obj 10 30 t a a;
#N canvas 732 173 155 171 ggate 0;
#X obj -249 -112 spigot;
#X obj -301 -136 == 0;
#X obj -267 -221 inlet;
#X obj -334 -220 inlet;
#X obj -249 -89 outlet;
#X obj -334 -90 outlet;
#X obj -334 -113 spigot;
#X obj -267 -156 t f f;
#X obj -334 -186 t a a;
#X obj -240 -135 > 0;
#X obj -247 -200 loadbang;
#X msg -247 -180 0;
#X connect 0 0 4 0;
#X connect 1 0 6 1;
#X connect 2 0 7 0;
#X connect 3 0 8 0;
#X connect 6 0 5 0;
#X connect 7 0 1 0;
#X connect 7 1 9 0;
#X connect 8 0 6 0;
#X connect 8 1 0 0;
#X connect 9 0 0 1;
#X connect 10 0 11 0;
#X connect 11 0 7 0;
#X restore 9 92 pd ggate;
#X obj 8 121 outlet;
#X obj 68 121 outlet;
#X obj 10 10 inlet;
#X obj 70 10 inlet;
#X obj 37 70 > 0;
#X connect 0 0 1 0;
#X connect 0 1 6 0;
#X connect 1 0 3 0;
#X connect 1 1 2 0;
#X connect 4 0 0 0;
#X connect 5 0 6 1;
#X connect 6 0 1 1;
#X restore 285 174 pd if > 0;
#N canvas 657 105 449 387 name_manager 0;
#X obj 0 14 inlet NAME_EXISTS?;
#X obj 128 15 inlet ADD_NAME;
#X obj 368 13 inlet CLEAR;
#X obj 224 15 inlet ALL;
#X obj 0 111 t b a b;
#X obj 42 173 t b a;
#X obj 117 242 symbol;
#X msg 42 198;
#X obj 42 242 symbol;
#X msg 42 284 1;
#X obj 0 301 f;
#X msg 15 142 0;
#X obj 0 361 outlet;
#X msg 368 181 set;
#X obj 357 165 bng 15 250 50 0 empty empty empty 17 7 0 10 -262144
-1 -1;
#X msg 357 198;
#X obj 42 264 select symbol;
#X obj 145 128 spigot;
#X msg 128 313 0;
#X msg 139 313 1;
#X obj 128 94 t b a a b;
#X obj 197 111 == 0;
#X obj 287 15 inlet DELETE;
#X msg 170 256;
#X obj 262 301 symbol;
#X obj 170 301 symbol;
#X obj 170 323 select symbol;
#X msg 279 181 set;
#X msg 279 198;
#X obj 228 133 t b b a b;
#X msg 335 239 set;
#X obj 308 181 t b b;
#X obj 0 55 route add exists all delete clear reset help methods;
#X obj 368 92 bng 15 250 50 0 empty empty empty 17 7 0 10 -262144 -1
-1;
#N canvas 574 168 415 412 help 0;
#X obj 15 20 inlet;
#X obj 15 381 print HELP;
#X obj 15 40 bng 15 250 50 0 empty empty empty 17 7 0 10 -262144 -1
-1;
#X msg 15 59 ----------------------- name_manager.pd -----------------------
\, ------------------------------------------------------------------------
\, --------------- Keeps track of names you've added or deleted ---------------
\, ---- \, ---- Inlets: \, ---------- 0: [name_manager] method or Name
Exists? Outputs 1 if true or 0 if false \, ---------- 1: Add Name.
Input a name to add it to the internal of names \, ---------- 2: All.
A outputs all names to outlet 1 \, ---------- 3: Delete. Input a name
to deletes it from the internal \, ---------- 4: Clear. A clears the
internal list. \, ---- \, ---- Outlets: \, ---------- 0: Name Exists?
Outputs 1 or 0 when prompted by inlet 0 or the "exists" method \, ----------
1: All. Outputs all names when prompted by inlet 2 or the "all" method
\, ---- \, ---- Methods (sent to inlet 0): \, ---------- add: add a
name to the \, ---------- exists: outputs 1 or 0 \, ---------- all:
outputs all names to outlet 1 \, ---------- delete: delete a name from
the \, ---------- clear: clears the \, ---------- reset: same as clear
\, ---------- help: print help info to the console \, ---------- mehtods:
print all available [name_manager] methods \, ------------------------------------------------------------------------
\, ----------------------- name_manager.pd -----------------------
\,;
#X connect 0 0 2 0;
#X connect 2 0 3 0;
#X connect 3 0 1 0;
#X restore 231 89 pd help;
#N canvas 539 104 312 133 methods 0;
#X msg 12 68 add exists all delete clear reset help methods;
#X obj 12 48 b;
#X obj 12 21 inlet;
#X obj 12 98 print NAME_MANAGER_METHODS;
#X connect 0 0 3 0;
#X connect 1 0 0 0;
#X connect 2 0 1 0;
#X restore 288 92 pd methods;
#X obj 357 354 outlet ALL;
#N canvas 848 97 152 141 liter 0;
#X obj -4 -432 list split 1;
#X obj -3 -392 list;
#X obj -4 -412 t b a;
#X obj 23 -372 outlet ELEMENT;
#X obj -4 -470 inlet LIST_TO_ITERATE;
#X obj -4 -451 t a;
#X connect 0 0 2 0;
#X connect 0 1 1 1;
#X connect 1 0 5 0;
#X connect 2 0 1 0;
#X connect 2 1 3 0;
#X connect 4 0 5 0;
#X connect 5 0 0 0;
#X restore 42 220 pd liter;
#N canvas 688 171 154 165 ggate 0;
#X obj -249 -112 spigot;
#X obj -301 -136 == 0;
#X obj -267 -221 inlet;
#X obj -334 -220 inlet;
#X obj -249 -89 outlet;
#X obj -334 -90 outlet;
#X obj -334 -113 spigot;
#X obj -267 -156 t f f;
#X obj -334 -186 t a a;
#X obj -240 -135 > 0;
#X obj -247 -200 loadbang;
#X msg -247 -180 0;
#X connect 0 0 4 0;
#X connect 1 0 6 1;
#X connect 2 0 7 0;
#X connect 3 0 8 0;
#X connect 6 0 5 0;
#X connect 7 0 1 0;
#X connect 7 1 9 0;
#X connect 8 0 6 0;
#X connect 8 1 0 0;
#X connect 9 0 0 1;
#X connect 10 0 11 0;
#X connect 11 0 7 0;
#X restore 0 330 pd ggate;
#N canvas 848 97 152 141 liter 0;
#X obj -4 -432 list split 1;
#X obj -3 -392 list;
#X obj -4 -412 t b a;
#X obj 23 -372 outlet ELEMENT;
#X obj -4 -470 inlet LIST_TO_ITERATE;
#X obj -4 -451 t a;
#X connect 0 0 2 0;
#X connect 0 1 1 1;
#X connect 1 0 5 0;
#X connect 2 0 1 0;
#X connect 2 1 3 0;
#X connect 4 0 5 0;
#X connect 5 0 0 0;
#X restore 170 279 pd liter;
#X obj 219 219 list prepend set;
#X obj 219 239 list trim;
#X obj 209 181 list trim;
#X obj 209 162 list prepend add2;
#X obj 100 181 list trim;
#X obj 100 162 list prepend add2;
#X connect 0 0 32 0;
#X connect 1 0 20 0;
#X connect 2 0 33 0;
#X connect 3 0 14 0;
#X connect 4 0 10 0;
#X connect 4 1 5 0;
#X connect 4 2 11 0;
#X connect 5 0 7 0;
#X connect 5 1 6 0;
#X connect 6 0 16 1;
#X connect 7 0 37 0;
#X connect 8 0 16 0;
#X connect 9 0 10 1;
#X connect 10 0 38 0;
#X connect 11 0 10 1;
#X connect 13 0 7 0;
#X connect 13 0 15 0;
#X connect 13 0 23 0;
#X connect 13 0 28 0;
#X connect 14 0 15 0;
#X connect 15 0 36 0;
#X connect 16 0 9 0;
#X connect 17 0 45 0;
#X connect 18 0 38 1;
#X connect 19 0 38 1;
#X connect 20 0 18 0;
#X connect 20 1 17 0;
#X connect 20 2 4 0;
#X connect 20 3 19 0;
#X connect 21 0 17 1;
#X connect 22 0 29 0;
#X connect 23 0 39 0;
#X connect 24 0 26 1;
#X connect 25 0 26 0;
#X connect 26 1 43 0;
#X connect 27 0 7 0;
#X connect 27 0 15 0;
#X connect 27 0 28 0;
#X connect 28 0 40 0;
#X connect 29 0 31 0;
#X connect 29 1 23 0;
#X connect 29 2 24 0;
#X connect 29 3 27 0;
#X connect 30 0 23 0;
#X connect 31 0 28 0;
#X connect 31 1 30 0;
#X connect 32 0 20 0;
#X connect 32 1 4 0;
#X connect 32 2 14 0;
#X connect 32 3 29 0;
#X connect 32 4 33 0;
#X connect 32 5 33 0;
#X connect 32 6 34 0;
#X connect 32 7 35 0;
#X connect 32 8 4 0;
#X connect 33 0 13 0;
#X connect 37 0 8 0;
#X connect 38 0 12 0;
#X connect 38 1 21 0;
#X connect 39 0 25 0;
#X connect 40 0 41 0;
#X connect 41 0 23 0;
#X connect 42 0 7 0;
#X connect 42 0 28 0;
#X connect 42 0 15 0;
#X connect 43 0 42 0;
#X connect 44 0 7 0;
#X connect 44 0 23 0;
#X connect 44 0 15 0;
#X connect 45 0 44 0;
#X restore 135 259 pd name_manager;
#N canvas 862 155 158 165 ggate 0;
#X obj -249 -112 spigot;
#X obj -301 -136 == 0;
#X obj -267 -221 inlet;
#X obj -334 -220 inlet;
#X obj -249 -89 outlet;
#X obj -334 -90 outlet;
#X obj -334 -113 spigot;
#X obj -267 -156 t f f;
#X obj -334 -186 t a a;
#X obj -240 -135 > 0;
#X obj -247 -200 loadbang;
#X msg -247 -180 0;
#X connect 0 0 4 0;
#X connect 1 0 6 1;
#X connect 2 0 7 0;
#X connect 3 0 8 0;
#X connect 6 0 5 0;
#X connect 7 0 1 0;
#X connect 7 1 9 0;
#X connect 8 0 6 0;
#X connect 8 1 0 0;
#X connect 9 0 0 1;
#X connect 10 0 11 0;
#X connect 11 0 7 0;
#X restore 279 276 pd ggate;
#N canvas 652 185 156 163 ggate 0;
#X obj -249 -112 spigot;
#X obj -301 -136 == 0;
#X obj -267 -221 inlet;
#X obj -334 -220 inlet;
#X obj -249 -89 outlet;
#X obj -334 -90 outlet;
#X obj -334 -113 spigot;
#X obj -267 -156 t f f;
#X obj -334 -186 t a a;
#X obj -240 -135 > 0;
#X obj -247 -200 loadbang;
#X msg -247 -180 0;
#X connect 0 0 4 0;
#X connect 1 0 6 1;
#X connect 2 0 7 0;
#X connect 3 0 8 0;
#X connect 6 0 5 0;
#X connect 7 0 1 0;
#X connect 7 1 9 0;
#X connect 8 0 6 0;
#X connect 8 1 0 0;
#X connect 9 0 0 1;
#X connect 10 0 11 0;
#X connect 11 0 7 0;
#X restore 2 276 pd ggate;
#N canvas 773 166 158 162 ggate 0;
#X obj -249 -112 spigot;
#X obj -301 -136 == 0;
#X obj -267 -221 inlet;
#X obj -334 -220 inlet;
#X obj -249 -89 outlet;
#X obj -334 -90 outlet;
#X obj -334 -113 spigot;
#X obj -267 -156 t f f;
#X obj -334 -186 t a a;
#X obj -240 -135 > 0;
#X obj -247 -200 loadbang;
#X msg -247 -180 0;
#X connect 0 0 4 0;
#X connect 1 0 6 1;
#X connect 2 0 7 0;
#X connect 3 0 8 0;
#X connect 6 0 5 0;
#X connect 7 0 1 0;
#X connect 7 1 9 0;
#X connect 8 0 6 0;
#X connect 8 1 0 0;
#X connect 9 0 0 1;
#X connect 10 0 11 0;
#X connect 11 0 7 0;
#X restore 535 659 pd ggate;
#N canvas 255 378 174 101 anything 0;
#X obj 11 22 bng 15 250 50 0 empty empty empty 17 7 0 10 -262144 -1
-1;
#X obj 11 73 outlet;
#X obj 11 -1 inlet BANG;
#X obj 82 0 inlet ANYTHING;
#X msg 11 51 3.14;
#N canvas 750 356 200 232 lset 0;
#X obj 63 210 outlet;
#X obj 90 97 list prepend set;
#X obj 90 118 list trim;
#X obj 6 8 inlet MESSAGE_TO_SET;
#X obj 6 29 route bang;
#X obj 63 74 t b a;
#X obj 63 166 list prepend set;
#X obj 63 187 list trim;
#X msg 63 145 3.14;
#X connect 1 0 2 0;
#X connect 2 0 8 0;
#X connect 3 0 4 0;
#X connect 4 0 8 0;
#X connect 4 1 5 0;
#X connect 5 0 8 0;
#X connect 5 1 1 0;
#X connect 6 0 7 0;
#X connect 7 0 0 0;
#X connect 8 0 6 0;
#X restore 30 22 pd lset;
#X connect 0 0 4 0;
#X connect 2 0 0 0;
#X connect 3 0 5 0;
#X connect 4 0 1 0;
#X connect 5 0 4 0;
#X restore 493 681 pd anything;
#N canvas 675 379 398 235 dr 0;
#X text 16 15 Dynamic Receive;
#X obj 21 37 inlet RECEIVER;
#X obj 21 116 outlet FROM_RECEIVER;
#X obj 21 95 r \$0-from_receiver;
#N canvas 710 256 398 135 set_receiver 0;
#X obj 18 -3 inlet;
#X obj 18 59 list;
#X obj 18 17 symbol;
#X msg 18 78 clear \, obj 0 0 r \$1 \, obj 0 20 s \$2-from_receiver
\, connect 0 0 1 0 \, vis 0 \,;
#X obj 39 37 f \$0;
#X obj 67 15 loadbang;
#X obj 18 110 s pd-\$0-dr-guts;
#X connect 0 0 2 0;
#X connect 1 0 3 0;
#X connect 2 0 1 0;
#X connect 3 0 6 0;
#X connect 4 0 1 1;
#X connect 5 0 4 0;
#X restore 21 57 pd set_receiver;
#X text 17 191 https://drive.google.com/open?id=0B3cukQjg0M-oSlpGLWRCVG5xekE&authuser=0
;
#N canvas 985 38 450 300 \$0-dr-guts 0;
#X obj 0 0 r 3851-bar-out;
#X obj 0 20 s 3851-from_receiver;
#X connect 0 0 1 0;
#X restore 33 76 pd \$0-dr-guts;
#X text 17 150 CAUTION: The standalone version uses sending with \$0
\, only one allowed per patch. Download the real .pd file for [dr]
at:;
#X connect 1 0 4 0;
#X connect 3 0 2 0;
#X restore 535 637 pd dr;
#X obj 222 132 loadbang;
#N canvas 455 428 286 265 check_tests 0;
#X obj 18 101 f;
#X obj 77 34 sel 0;
#X obj 117 79 f;
#X obj 132 55 r \$0-count;
#X obj 117 101 == 0;
#X obj 77 56 t b b;
#X obj 102 137 &&;
#X obj 102 156 sel 1;
#X obj 77 6 inlet;
#X obj 33 6 inlet;
#X obj 47 240 print ABSTRACTIONS_TEST;
#X msg 47 209 It Worked!;
#X msg 120 209 One or more tests failed.;
#X obj 120 187 bng 15 250 50 0 empty empty empty 17 7 0 10 -262144
-1 -1;
#X floatatom 160 118 5 0 0 0 - - -;
#X floatatom 18 142 5 0 0 0 - - -;
#X obj 18 120 == 440;
#X connect 0 0 16 0;
#X connect 1 0 5 0;
#X connect 2 0 4 0;
#X connect 3 0 2 1;
#X connect 4 0 6 1;
#X connect 4 0 14 0;
#X connect 5 0 0 0;
#X connect 5 1 2 0;
#X connect 6 0 7 0;
#X connect 7 0 11 0;
#X connect 7 1 13 0;
#X connect 8 0 1 0;
#X connect 9 0 0 1;
#X connect 11 0 10 0;
#X connect 12 0 10 0;
#X connect 13 0 12 0;
#X connect 16 0 6 0;
#X connect 16 0 15 0;
#X restore 580 681 pd check_tests;
#X msg 538 0 methods;
#X obj 122 216 r \$0-add_name;
#X obj 29 322 s \$0-add_name;
#X obj 162 430 s \$0-delete_name;
#X obj 200 194 r \$0-delete_name;
#N canvas 579 185 414 318 check_illegal 0;
#X obj 6 -26 inlet;
#X obj 12 257 outlet;
#X obj 40 79 route init delete clear reset help methods all view print
test;
#X obj 40 136 list;
#X obj 40 156 list prepend illegal binding:;
#X obj 40 117 bng 15 250 50 0 empty empty empty 17 7 0 10 -262144 -1
-1;
#X obj 40 58 t a a;
#X obj 6 -5 t a a;
#X obj 12 217 list;
#X obj 379 154 bng 15 250 50 0 empty empty empty 17 7 0 10 -262144
-1 -1;
#X obj 12 237 list trim;
#X obj 6 16 list split 1;
#X obj 40 176 list trim;
#X obj 40 37 list trim;
#X obj 40 196 print ABSTRACTIONS-ERROR;
#X connect 0 0 7 0;
#X connect 2 0 5 0;
#X connect 2 1 5 0;
#X connect 2 2 5 0;
#X connect 2 3 5 0;
#X connect 2 4 5 0;
#X connect 2 5 5 0;
#X connect 2 6 5 0;
#X connect 2 7 5 0;
#X connect 2 8 5 0;
#X connect 2 9 5 0;
#X connect 2 10 9 0;
#X connect 3 0 4 0;
#X connect 4 0 12 0;
#X connect 5 0 3 0;
#X connect 6 0 2 0;
#X connect 6 1 3 1;
#X connect 7 0 11 0;
#X connect 7 1 8 1;
#X connect 8 0 10 0;
#X connect 9 0 8 0;
#X connect 10 0 1 0;
#X connect 11 1 13 0;
#X connect 12 0 14 0;
#X connect 13 0 6 0;
#X restore 2 172 pd check_illegal;
#N canvas 848 97 152 141 liter 0;
#X obj -4 -432 list split 1;
#X obj -3 -392 list;
#X obj -4 -412 t b a;
#X obj 23 -372 outlet ELEMENT;
#X obj -4 -470 inlet LIST_TO_ITERATE;
#X obj -4 -451 t a;
#X connect 0 0 2 0;
#X connect 0 1 1 1;
#X connect 1 0 5 0;
#X connect 2 0 1 0;
#X connect 2 1 3 0;
#X connect 4 0 5 0;
#X connect 5 0 0 0;
#X restore 279 373 pd liter;
#N canvas 848 97 152 141 liter 0;
#X obj -4 -432 list split 1;
#X obj -3 -392 list;
#X obj -4 -412 t b a;
#X obj 23 -372 outlet ELEMENT;
#X obj -4 -470 inlet LIST_TO_ITERATE;
#X obj -4 -451 t a;
#X connect 0 0 2 0;
#X connect 0 1 1 1;
#X connect 1 0 5 0;
#X connect 2 0 1 0;
#X connect 2 1 3 0;
#X connect 4 0 5 0;
#X connect 5 0 0 0;
#X restore 324 297 pd liter;
#X obj 391 388 s \$0-abstraction;
#X obj 535 720 list prepend;
#X obj 604 701 r \$0-abstraction;
#X obj 535 740 list trim;
#X obj 102 280 spigot;
#X obj 2 -3 list trim;
#X connect 0 0 84 0;
#X connect 1 0 14 0;
#X connect 2 0 10 0;
#X connect 5 0 65 0;
#X connect 5 1 49 0;
#X connect 8 0 7 0;
#X connect 8 1 13 0;
#X connect 9 0 7 0;
#X connect 9 1 73 0;
#X connect 10 0 83 0;
#X connect 10 1 63 0;
#X connect 12 0 76 0;
#X connect 13 1 48 0;
#X connect 14 0 63 4;
#X connect 15 0 17 1;
#X connect 16 0 17 0;
#X connect 17 0 23 0;
#X connect 18 0 42 0;
#X connect 18 1 67 1;
#X connect 20 0 31 0;
#X connect 21 0 19 1;
#X connect 22 0 20 0;
#X connect 23 0 44 0;
#X connect 23 1 25 0;
#X connect 23 1 22 0;
#X connect 24 0 28 0;
#X connect 25 0 24 1;
#X connect 26 0 24 1;
#X connect 27 0 24 0;
#X connect 27 1 63 2;
#X connect 27 2 18 0;
#X connect 27 3 26 0;
#X connect 28 0 43 0;
#X connect 30 0 68 0;
#X connect 31 0 21 0;
#X connect 31 1 30 0;
#X connect 32 0 64 1;
#X connect 33 0 64 1;
#X connect 34 0 32 0;
#X connect 34 1 63 2;
#X connect 34 2 33 0;
#X connect 35 0 36 1;
#X connect 35 0 51 0;
#X connect 36 0 62 0;
#X connect 37 0 23 0;
#X connect 37 1 18 0;
#X connect 39 0 36 0;
#X connect 39 1 41 1;
#X connect 41 0 37 0;
#X connect 42 0 15 0;
#X connect 42 1 22 1;
#X connect 42 1 79 0;
#X connect 44 0 67 0;
#X connect 45 0 56 0;
#X connect 47 0 46 0;
#X connect 48 0 6 0;
#X connect 49 1 63 0;
#X connect 50 1 63 1;
#X connect 52 0 6 0;
#X connect 52 1 74 0;
#X connect 54 0 45 0;
#X connect 55 0 66 1;
#X connect 55 0 70 1;
#X connect 56 0 12 0;
#X connect 56 1 2 0;
#X connect 56 2 1 0;
#X connect 56 3 1 0;
#X connect 56 4 3 0;
#X connect 56 5 4 0;
#X connect 56 6 39 0;
#X connect 56 7 47 0;
#X connect 56 8 53 0;
#X connect 56 9 54 0;
#X connect 56 10 59 0;
#X connect 57 0 56 0;
#X connect 58 0 56 0;
#X connect 59 0 38 0;
#X connect 59 1 27 0;
#X connect 60 0 20 1;
#X connect 61 0 60 0;
#X connect 62 0 34 0;
#X connect 62 1 40 0;
#X connect 63 0 65 1;
#X connect 63 0 83 1;
#X connect 63 1 64 0;
#X connect 64 0 77 0;
#X connect 64 1 78 0;
#X connect 65 0 9 0;
#X connect 65 1 8 0;
#X connect 66 0 80 0;
#X connect 66 1 70 0;
#X connect 67 0 19 0;
#X connect 68 0 66 0;
#X connect 69 0 1 0;
#X connect 71 0 56 0;
#X connect 72 0 50 0;
#X connect 75 0 63 3;
#X connect 76 0 5 0;
#X connect 77 0 16 0;
#X connect 78 0 41 0;
#X connect 80 0 82 0;
#X connect 81 0 80 1;
#X connect 82 0 29 0;
#X connect 83 0 52 0;
#X connect 84 0 56 0;
