#N canvas 103 23 904 804 10;
#X obj 69 -6 inlet METHODS;
#X obj 173 261 name_manager;
#X obj 242 148 bng 15 250 50 0 empty empty empty 17 7 0 10 -262144
-1 -1;
#N canvas 838 181 450 300 methods 0;
#X obj 14 10 inlet;
#X obj 14 64 print ABSTRACTIONS_METHODS;
#X msg 14 30 init delete all clear reset help methods all view print
test \, <abstraction_name + abstraction_method>;
#X connect 0 0 2 0;
#X connect 2 0 1 0;
#X restore 238 88 pd methods;
#X obj 69 208 t a a;
#X obj 69 297 ggate;
#N canvas 646 305 450 300 delete_abstraction 0;
#X obj 13 9 inlet;
#X obj 13 56 symbol;
#X obj 13 177 s pd-\$0-guts;
#X obj 13 31 t a b;
#X obj 71 48 s \$0-count-down;
#X obj 34 97 f \$0;
#X obj 13 117 list;
#X obj 34 76 loadbang;
#X msg 13 138 find \$2-\$1 1 \, cut \, find \$2-\$1-in 1 \, cut \,
find \$2-\$1-out 1 \, cut \, vis 0 \,;
#X connect 0 0 3 0;
#X connect 1 0 6 0;
#X connect 3 0 1 0;
#X connect 3 1 4 0;
#X connect 5 0 6 1;
#X connect 6 0 8 0;
#X connect 7 0 5 0;
#X connect 8 0 2 0;
#X restore 173 422 pd delete_abstraction;
#N canvas 467 42 495 689 create_abstraction 0;
#X obj 55 21 inlet;
#X obj 109 628 s pd-\$0-guts;
#X obj 82 141 symbol;
#X obj 55 650 s \$0-count-up;
#X obj 55 118 t b a;
#X obj 255 91 r \$0-count-down;
#X obj 330 131 r \$0-count-up;
#X obj 82 163 t b a;
#X obj 115 559 f;
#X obj 130 508 * 3;
#X obj 158 533 + 1;
#X obj 115 581 pack 0 0 0;
#X obj 82 530 t b b b;
#X obj 187 533 + 2;
#X obj 143 559 f;
#X obj 172 559 f;
#X obj 203 491 loadfloat 0;
#X obj 136 207 f;
#X obj 186 315 + 25;
#X obj 218 312 + 50;
#X obj 136 231 t f f;
#X obj 109 420 list;
#X obj 109 187 t a b;
#X obj 255 171 s \$0-count;
#X obj 151 187 r \$0-count;
#X obj 130 485 r \$0-count;
#X obj 136 336 pack 0 0 0 0 0;
#X obj 253 311 f \$0;
#X obj 253 287 loadbang;
#X obj 292 111 r \$0-count-reset;
#X obj 136 274 int;
#X obj 172 274 int;
#X msg 115 603 connect \$1 0 \$2 0 \, connect \$2 0 \$3 0 \, loadbang
\, vis 0;
#X obj 136 253 % 3;
#X obj 172 253 / 3;
#X obj 136 295 * 150;
#X obj 172 295 * 80;
#X obj 136 399 list;
#X obj 55 43 list split 1;
#X obj 102 83 s \$0-type;
#X obj 55 97 list;
#X obj 55 66 t b a;
#X obj 157 359 r \$0-type;
#X obj 157 379 symbol;
#X msg 109 447 obj \$2 \$3 r \$6-\$1-in \, obj \$2 \$4 \$7 \$6-\$1
\, obj \$2 \$5 s \$6-\$1-out \,;
#N canvas 737 202 198 172 \$0-counter 0;
#X obj -38 81 f;
#X obj -11 101 + 1;
#X obj -37 102 - 1;
#X obj -11 81 f;
#X msg 33 52 0;
#X obj -38 47 b;
#X obj -11 46 b;
#X obj -38 22 inlet -;
#X obj 10 22 inlet reset;
#X obj 83 22 inlet +;
#X obj -29 124 outlet;
#X connect 0 0 2 0;
#X connect 1 0 0 1;
#X connect 1 0 3 1;
#X connect 1 0 10 0;
#X connect 2 0 0 1;
#X connect 2 0 3 1;
#X connect 2 0 10 0;
#X connect 3 0 1 0;
#X connect 4 0 3 1;
#X connect 4 0 0 1;
#X connect 4 0 10 0;
#X connect 5 0 0 0;
#X connect 6 0 3 0;
#X connect 7 0 5 0;
#X connect 8 0 4 0;
#X connect 9 0 6 0;
#X restore 255 151 pd \$0-counter;
#X connect 0 0 38 0;
#X connect 2 0 7 0;
#X connect 4 0 3 0;
#X connect 4 1 2 0;
#X connect 5 0 45 0;
#X connect 6 0 45 2;
#X connect 7 0 12 0;
#X connect 7 1 22 0;
#X connect 8 0 11 0;
#X connect 9 0 8 1;
#X connect 9 0 10 0;
#X connect 9 0 13 0;
#X connect 10 0 14 1;
#X connect 11 0 32 0;
#X connect 12 0 8 0;
#X connect 12 1 14 0;
#X connect 12 2 15 0;
#X connect 13 0 15 1;
#X connect 14 0 11 1;
#X connect 15 0 11 2;
#X connect 16 0 9 0;
#X connect 17 0 20 0;
#X connect 18 0 26 2;
#X connect 19 0 26 3;
#X connect 20 0 33 0;
#X connect 20 1 34 0;
#X connect 21 0 44 0;
#X connect 22 0 21 0;
#X connect 22 1 17 0;
#X connect 24 0 17 1;
#X connect 25 0 9 0;
#X connect 26 0 37 0;
#X connect 27 0 26 4;
#X connect 28 0 27 0;
#X connect 29 0 45 1;
#X connect 30 0 35 0;
#X connect 31 0 36 0;
#X connect 32 0 1 0;
#X connect 33 0 30 0;
#X connect 34 0 31 0;
#X connect 35 0 26 0;
#X connect 36 0 19 0;
#X connect 36 0 18 0;
#X connect 36 0 26 1;
#X connect 37 0 21 1;
#X connect 38 0 41 0;
#X connect 38 1 40 1;
#X connect 40 0 4 0;
#X connect 41 0 40 0;
#X connect 41 1 39 0;
#X connect 42 0 43 0;
#X connect 43 0 37 1;
#X connect 44 0 1 0;
#X connect 45 0 23 0;
#X restore 69 464 pd create_abstraction;
#X obj 96 319 t a a;
#X obj 69 340 t a a;
#X text -13 297 doesn't exist;
#X text 104 296 exists;
#X obj 156 188 r \$0-add_name;
#X obj 96 444 s \$0-add_name;
#X obj 146 294 ggate;
#X obj 102 190 t a a;
#N canvas 834 248 450 300 error 0;
#X obj 9 11 inlet;
#X obj 9 34 b;
#X msg 9 55 attempted to delete nonexistent abstraction;
#X obj 9 77 print ABSTRACTIONS_ERROR;
#X connect 0 0 1 0;
#X connect 1 0 2 0;
#X connect 2 0 3 0;
#X restore 146 316 pd error;
#N canvas 963 560 450 300 \$0-guts 0;
#X restore 352 14 pd \$0-guts;
#X obj 123 340 list split 1;
#N canvas 844 512 190 137 init 0;
#X msg 33 57 clear;
#X obj 33 82 s pd-\$0-guts;
#X obj 13 106 outlet;
#X obj 12 31 bng 15 250 50 0 empty empty empty 17 7 0 10 -262144 -1
-1;
#X obj 11 11 inlet;
#X obj 73 58 s \$0-count-reset;
#X obj 73 31 s \$0-init;
#X connect 0 0 1 0;
#X connect 3 0 0 0;
#X connect 3 0 2 0;
#X connect 3 0 5 0;
#X connect 3 0 6 0;
#X connect 4 0 3 0;
#X restore 242 167 pd init;
#X obj 415 414 symbol;
#X obj 340 393 liter;
#X obj 340 414 symbol;
#X obj 340 436 select symbol;
#X obj 598 355 list split 1;
#X obj 587 767 s;
#X obj 602 563 list;
#X msg 602 603 symbol \$2-\$1-in;
#X obj 409 546 symbol;
#X obj 587 746 anything;
#X obj 340 457 t b b;
#X obj 654 546 loadfloat \$0;
#X obj 564 496 spigot;
#X msg 597 474 0;
#X msg 615 474 1;
#X obj 564 244 t a b a b;
#X obj 564 517 list split 1;
#X obj 629 726 outlet;
#X obj 629 643 dr;
#X msg 629 623 symbol \$2-\$1-out;
#X obj 602 583 t a a;
#X obj 340 278 ggate;
#X msg 328 237 0;
#X msg 367 237 1;
#X obj 328 194 t b b b;
#X obj 343 111 r \$0-count;
#X obj 328 132 f;
#X obj 367 298 liter;
#X obj 367 338 t b a;
#N canvas 1001 401 450 300 error 0;
#X obj 10 8 inlet;
#X obj 10 30 list prepend incomplete message to abstraction:;
#X obj 10 51 list trim;
#X obj 10 72 print ABSTRACTIONS-ERROR;
#X connect 0 0 1 0;
#X connect 1 0 2 0;
#X connect 2 0 3 0;
#X restore 471 85 pd error;
#X obj 328 78 t b a;
#N canvas 127 374 450 300 alert 0;
#X obj 5 8 inlet;
#X obj 5 29 b;
#X msg 5 50 No abstractions exist. Send message "init <pd_object_type>
<abstraction_name>" to create one.;
#X obj 5 88 print ABSTRACTIONS;
#X connect 0 0 1 0;
#X connect 1 0 2 0;
#X connect 2 0 3 0;
#X restore 380 173 pd alert;
#X obj 367 318 list append;
#X obj 415 372 t a a;
#N canvas 950 369 450 300 error 0;
#X obj 10 8 inlet;
#X obj 10 30 list prepend no such abstraction:;
#X obj 10 51 list trim;
#X obj 10 72 print ABSTRACTIONS-ERROR;
#X connect 0 0 1 0;
#X connect 1 0 2 0;
#X connect 2 0 3 0;
#X restore 564 539 pd error;
#X text 638 582 set receiver;
#X obj 340 731 bng 15 250 50 0 empty empty empty 17 7 0 10 -262144
-1 -1;
#N canvas 7 519 450 300 \$0-tests 0;
#X obj 41 228 outlet;
#X msg 56 202 view;
#X msg 137 204 methods;
#X msg 61 160 init dictionary test2;
#X msg 78 179 test2 print;
#X msg 71 138 delete test1;
#X msg 96 203 print;
#X msg 192 203 reset;
#X obj 22 7 inlet;
#X obj 22 28 t b b b;
#X obj 168 65 s \$0-test;
#X msg 168 45 1;
#X msg 111 45 0;
#X msg 41 84 reset \, init dictionary foo \, delete foo \, init lstack
foo \, init dictionary bar \, bar baz It Worked! \, bar baz \, delete
bar \, delete foo \, init dictionary foo \, reset;
#X connect 1 0 0 0;
#X connect 2 0 0 0;
#X connect 3 0 0 0;
#X connect 4 0 0 0;
#X connect 5 0 0 0;
#X connect 6 0 0 0;
#X connect 7 0 0 0;
#X connect 8 0 9 0;
#X connect 9 0 12 0;
#X connect 9 1 13 0;
#X connect 9 2 11 0;
#X connect 11 0 10 0;
#X connect 12 0 10 0;
#X connect 13 0 0 0;
#X restore 231 17 pd \$0-tests;
#X obj 369 91 s pd-\$0-guts;
#X msg 369 72 vis 1;
#X obj 157 361 list trim;
#X obj 96 228 list split 1;
#X obj 156 207 list split 1;
#X msg 178 228 test1;
#X floatatom 354 132 5 0 0 0 - - -;
#X obj 224 228 r \$0-delete_name;
#X obj 173 382 t a a;
#X obj 200 402 s \$0-delete_name;
#N canvas 882 270 450 300 print 0;
#X obj 98 25 r \$0-add_name;
#X obj 195 17 r \$0-delete_name;
#X obj 98 146 dictionary;
#X obj 98 48 lswap;
#X obj 195 41 list prepend delete;
#X obj 195 61 list trim;
#X obj 55 36 t b b;
#X msg 55 102 print;
#X obj 55 8 inlet;
#X obj 82 168 print ABSTRACTIONS;
#X msg 82 83 -----------Abstraction Contents:---------------;
#X msg 209 129 clear;
#X obj 382 95 r \$0-init;
#X obj 291 112 b;
#X connect 0 0 3 0;
#X connect 1 0 4 0;
#X connect 2 0 9 0;
#X connect 3 0 2 0;
#X connect 4 0 5 0;
#X connect 5 0 2 0;
#X connect 6 0 7 0;
#X connect 6 1 10 0;
#X connect 7 0 2 0;
#X connect 8 0 6 0;
#X connect 10 0 9 0;
#X connect 11 0 2 0;
#X connect 12 0 13 0;
#X connect 13 0 11 0;
#X restore 413 68 pd print;
#X obj 277 -2 bng 15 250 50 0 empty empty empty 17 7 0 10 -262144 -1
-1;
#X obj 656 643 r \$0-test;
#X obj 629 666 ggate;
#X obj 709 683 route match;
#X obj 709 703 print ABSTRACTIONS_TEST;
#X obj 772 723 print TEST_ERROR;
#X obj 69 34 route init delete clear reset help methods all view print
test;
#X msg 158 17 test;
#X msg 191 17 help;
#X obj 69 14 list trim;
#X obj 698 663 r \$0-abstraction;
#X obj 447 392 s \$0-abstraction;
#X obj 629 686 list prepend;
#X obj 629 706 list trim;
#N canvas 419 342 209 202 check_length==1 0;
#X obj 6 3 inlet;
#X obj 6 176 outlet;
#N canvas 659 278 386 113 warning 0;
#X obj 10 2 inlet;
#X obj 10 24 b;
#X msg 10 48 delete request with multiple items - All but the first
will be ignored;
#X obj 10 80 print ABSTRACTIONS_WARNING;
#X connect 0 0 1 0;
#X connect 1 0 2 0;
#X connect 2 0 3 0;
#X restore 132 127 pd warning;
#X obj 105 107 t a b;
#N canvas 659 278 177 103 error 0;
#X obj 10 2 inlet;
#X obj 10 24 b;
#X obj 10 68 print ABSTRACTIONS_ERROR;
#X msg 10 46 incomplete delete command;
#X connect 0 0 1 0;
#X connect 1 0 3 0;
#X connect 3 0 2 0;
#X restore 99 60 pd error;
#X obj 105 146 list split 1;
#N canvas 967 144 128 157 if 0;
#X obj 10 30 t a a;
#X obj 37 50 list length;
#X obj 8 121 outlet;
#X obj 68 121 outlet;
#X obj 10 10 inlet;
#X obj 70 10 inlet;
#X obj 37 70 > 0;
#X obj 9 92 ggate;
#X connect 0 0 7 0;
#X connect 0 1 1 0;
#X connect 1 0 6 0;
#X connect 4 0 0 0;
#X connect 5 0 6 1;
#X connect 6 0 7 1;
#X connect 7 0 3 0;
#X connect 7 1 2 0;
#X restore 6 37 pd if length > 0;
#N canvas 967 144 120 155 if 0;
#X obj 10 30 t a a;
#X obj 37 50 list length;
#X obj 8 121 outlet;
#X obj 68 121 outlet;
#X obj 10 10 inlet;
#X obj 70 10 inlet;
#X obj 37 70 == 1;
#X obj 9 92 ggate;
#X connect 0 0 7 0;
#X connect 0 1 1 0;
#X connect 1 0 6 0;
#X connect 4 0 0 0;
#X connect 5 0 6 1;
#X connect 6 0 7 1;
#X connect 7 0 3 0;
#X connect 7 1 2 0;
#X restore 6 84 pd if length == 1;
#X connect 0 0 6 0;
#X connect 3 0 5 0;
#X connect 3 1 2 0;
#X connect 5 0 1 0;
#X connect 6 0 7 0;
#X connect 6 1 4 0;
#X connect 7 0 1 0;
#X connect 7 1 3 0;
#X restore 102 125 pd check_length==1;
#N canvas 75 238 170 152 check_length==2 0;
#X obj 7 4 inlet;
#X obj 7 119 outlet;
#N canvas 659 278 200 114 error 0;
#X obj 10 2 inlet;
#X obj 10 24 b;
#X obj 10 68 print ABSTRACTIONS_ERROR;
#X msg 10 46 incomplete init command;
#X connect 0 0 1 0;
#X connect 1 0 3 0;
#X connect 3 0 2 0;
#X restore 100 50 pd error;
#N canvas 841 405 367 169 error 0;
#X obj 21 13 inlet;
#X obj 21 35 b;
#X obj 61 13 inlet;
#X obj 21 58 list;
#X obj 21 78 list prepend bad init request (should be "init <type>
<name>"): init;
#X obj 21 112 list trim;
#X obj 21 135 print ABSTRACTIONS_ERROR;
#X connect 0 0 1 0;
#X connect 1 0 3 0;
#X connect 2 0 3 1;
#X connect 3 0 4 0;
#X connect 4 0 5 0;
#X connect 5 0 6 0;
#X restore 106 118 pd error;
#X obj 7 55 t a a;
#N canvas 967 144 128 154 if 0;
#X obj 10 30 t a a;
#X obj 37 50 list length;
#X obj 8 121 outlet;
#X obj 68 121 outlet;
#X obj 10 10 inlet;
#X obj 70 10 inlet;
#X obj 37 70 > 0;
#X obj 9 92 ggate;
#X connect 0 0 7 0;
#X connect 0 1 1 0;
#X connect 1 0 6 0;
#X connect 4 0 0 0;
#X connect 5 0 6 1;
#X connect 6 0 7 1;
#X connect 7 0 3 0;
#X connect 7 1 2 0;
#X restore 7 28 pd if length > 0;
#N canvas 967 144 121 160 if 0;
#X obj 10 30 t a a;
#X obj 37 50 list length;
#X obj 8 121 outlet;
#X obj 68 121 outlet;
#X obj 10 10 inlet;
#X obj 70 10 inlet;
#X obj 37 70 == 2;
#X obj 9 92 ggate;
#X connect 0 0 7 0;
#X connect 0 1 1 0;
#X connect 1 0 6 0;
#X connect 4 0 0 0;
#X connect 5 0 6 1;
#X connect 6 0 7 1;
#X connect 7 0 3 0;
#X connect 7 1 2 0;
#X restore 7 92 pd if length == 2;
#X connect 0 0 5 0;
#X connect 4 0 6 0;
#X connect 4 1 3 1;
#X connect 5 0 4 0;
#X connect 5 1 2 0;
#X connect 6 0 1 0;
#X connect 6 1 3 0;
#X restore 69 146 pd check_length==2;
#N canvas 579 185 414 318 check_illegal 0;
#X obj 6 -26 inlet;
#X obj 12 257 outlet;
#X obj 40 79 route init delete clear reset help methods all view print
test;
#X obj 40 136 list;
#X obj 40 156 list prepend illegal binding:;
#X obj 40 117 bng 15 250 50 0 empty empty empty 17 7 0 10 -262144 -1
-1;
#X obj 40 58 t a a;
#X obj 6 -5 t a a;
#X obj 12 217 list;
#X obj 379 154 bng 15 250 50 0 empty empty empty 17 7 0 10 -262144
-1 -1;
#X obj 12 237 list trim;
#X obj 6 16 list split 1;
#X obj 40 176 list trim;
#X obj 40 37 list trim;
#X obj 40 196 print ABSTRACTIONS-ERROR;
#X connect 0 0 7 0;
#X connect 2 0 5 0;
#X connect 2 1 5 0;
#X connect 2 2 5 0;
#X connect 2 3 5 0;
#X connect 2 4 5 0;
#X connect 2 5 5 0;
#X connect 2 6 5 0;
#X connect 2 7 5 0;
#X connect 2 8 5 0;
#X connect 2 9 5 0;
#X connect 2 10 9 0;
#X connect 3 0 4 0;
#X connect 4 0 12 0;
#X connect 5 0 3 0;
#X connect 6 0 2 0;
#X connect 6 1 3 1;
#X connect 7 0 11 0;
#X connect 7 1 8 1;
#X connect 8 0 10 0;
#X connect 9 0 8 0;
#X connect 10 0 1 0;
#X connect 11 1 13 0;
#X connect 12 0 14 0;
#X connect 13 0 6 0;
#X restore 69 167 pd check_illegal;
#N canvas 762 141 125 157 if 0;
#X obj 10 30 t a a;
#X obj 37 50 list length;
#X obj 37 70 < 2;
#X obj 8 121 outlet;
#X obj 68 121 outlet;
#X obj 10 10 inlet;
#X obj 70 10 inlet;
#X obj 9 92 ggate;
#X connect 0 0 7 0;
#X connect 0 1 1 0;
#X connect 1 0 2 0;
#X connect 2 0 7 1;
#X connect 5 0 0 0;
#X connect 6 0 2 1;
#X connect 7 0 4 0;
#X connect 7 1 3 0;
#X restore 471 64 pd if length < 2;
#N canvas 967 144 117 151 if 0;
#X obj 10 30 t a a;
#N canvas 732 173 155 171 ggate 0;
#X obj -249 -112 spigot;
#X obj -301 -136 == 0;
#X obj -267 -221 inlet;
#X obj -334 -220 inlet;
#X obj -249 -89 outlet;
#X obj -334 -90 outlet;
#X obj -334 -113 spigot;
#X obj -267 -156 t f f;
#X obj -334 -186 t a a;
#X obj -240 -135 > 0;
#X obj -247 -200 loadbang;
#X msg -247 -180 0;
#X connect 0 0 4 0;
#X connect 1 0 6 1;
#X connect 2 0 7 0;
#X connect 3 0 8 0;
#X connect 6 0 5 0;
#X connect 7 0 1 0;
#X connect 7 1 9 0;
#X connect 8 0 6 0;
#X connect 8 1 0 0;
#X connect 9 0 0 1;
#X connect 10 0 11 0;
#X connect 11 0 7 0;
#X restore 9 92 pd ggate;
#X obj 8 121 outlet;
#X obj 68 121 outlet;
#X obj 10 10 inlet;
#X obj 70 10 inlet;
#X obj 37 70 > 0;
#X connect 0 0 1 0;
#X connect 0 1 6 0;
#X connect 1 0 3 0;
#X connect 1 1 2 0;
#X connect 4 0 0 0;
#X connect 5 0 6 1;
#X connect 6 0 1 1;
#X restore 328 152 pd if > 0;
#N canvas 789 140 404 368 help 0;
#X obj 13 7 inlet;
#X obj 13 342 print HELP;
#X obj 13 28 bng 15 250 50 0 empty empty empty 17 7 0 10 -262144 -1
-1;
#X msg 13 47 ----------------------- abstractions.pd -----------------------
\, ------------------------------------------------------------------------
\, --------------- Dynamically store subpatches by name ---------------
\, ---- \, ---- Inlets: \, ---------- 0: [abstractions] methods \,
---- \, ---- Outlets: \, ---------- 0: [abstractions] output (from
the dynamically defined subpatches \, ---- \, ---- Methods (sent to
inlet 0): \, ---------- init <type> <name>: creates or initializes
a subpatch with the given type and name \, ---------- delete <name>:
deletes an abstraction \, ---------- clear: delete all abstractions
\, ---------- reset: same as clear \, ---------- all <message>: send
a message to all abstractions \, ---------- view: view the subpatch
containing all your abstractions \, ---------- print: print all abstraction
names and types \, ---------- test: Run a unit-test to make sure everything's
working \, ---------- help: print help information to the console \,
---------- methods: print all available methods for [abstractions]
\, ------------------------------------------------------------------------
\, ----------------------- abstractions.pd -----------------------
\,;
#X connect 0 0 2 0;
#X connect 2 0 3 0;
#X connect 3 0 1 0;
#X restore 204 67 pd help;
#X connect 0 0 78 0;
#X connect 1 0 5 1;
#X connect 1 0 14 1;
#X connect 1 1 41 0;
#X connect 2 0 19 0;
#X connect 4 0 5 0;
#X connect 4 1 61 0;
#X connect 5 0 9 0;
#X connect 5 1 8 0;
#X connect 8 0 7 0;
#X connect 8 1 18 0;
#X connect 9 0 7 0;
#X connect 9 1 13 0;
#X connect 12 0 62 0;
#X connect 14 0 16 0;
#X connect 14 1 66 0;
#X connect 15 0 14 0;
#X connect 15 1 1 0;
#X connect 18 1 60 0;
#X connect 19 0 1 4;
#X connect 20 0 23 1;
#X connect 21 0 22 0;
#X connect 22 0 23 0;
#X connect 23 0 30 0;
#X connect 24 0 53 0;
#X connect 24 1 29 1;
#X connect 26 0 40 0;
#X connect 27 0 25 1;
#X connect 28 0 26 0;
#X connect 29 0 25 0;
#X connect 30 0 56 0;
#X connect 30 1 28 0;
#X connect 30 1 33 0;
#X connect 31 0 26 1;
#X connect 32 0 36 0;
#X connect 33 0 32 1;
#X connect 34 0 32 1;
#X connect 35 0 32 0;
#X connect 35 1 1 2;
#X connect 35 2 24 0;
#X connect 35 3 34 0;
#X connect 36 0 54 0;
#X connect 38 0 71 0;
#X connect 39 0 38 0;
#X connect 40 0 27 0;
#X connect 40 1 39 0;
#X connect 41 0 21 0;
#X connect 41 1 47 0;
#X connect 42 0 41 1;
#X connect 43 0 41 1;
#X connect 44 0 42 0;
#X connect 44 1 1 2;
#X connect 44 2 43 0;
#X connect 45 0 46 1;
#X connect 45 0 64 0;
#X connect 46 0 87 0;
#X connect 47 0 52 0;
#X connect 48 0 30 0;
#X connect 48 1 24 0;
#X connect 50 0 46 0;
#X connect 50 1 52 1;
#X connect 52 0 48 0;
#X connect 53 0 20 0;
#X connect 53 1 28 1;
#X connect 53 1 80 0;
#X connect 56 0 29 0;
#X connect 57 0 75 0;
#X connect 59 0 58 0;
#X connect 60 0 6 0;
#X connect 61 1 1 0;
#X connect 62 1 1 1;
#X connect 63 0 1 0;
#X connect 65 0 1 3;
#X connect 66 0 6 0;
#X connect 66 1 67 0;
#X connect 69 0 57 0;
#X connect 70 0 71 1;
#X connect 71 0 81 0;
#X connect 71 1 72 0;
#X connect 72 0 73 0;
#X connect 72 1 74 0;
#X connect 75 0 84 0;
#X connect 75 1 83 0;
#X connect 75 2 2 0;
#X connect 75 3 2 0;
#X connect 75 4 88 0;
#X connect 75 5 3 0;
#X connect 75 6 50 0;
#X connect 75 7 59 0;
#X connect 75 8 68 0;
#X connect 75 9 69 0;
#X connect 75 10 86 0;
#X connect 76 0 75 0;
#X connect 77 0 75 0;
#X connect 78 0 75 0;
#X connect 79 0 81 1;
#X connect 81 0 82 0;
#X connect 82 0 37 0;
#X connect 83 0 15 0;
#X connect 84 0 85 0;
#X connect 85 0 4 0;
#X connect 86 0 49 0;
#X connect 86 1 35 0;
#X connect 87 0 44 0;
#X connect 87 1 51 0;
