#N canvas 114 60 703 618 10;
#X obj 367 -66 sel 0;
#X obj 367 48 s \$0-off;
#X obj 399 151 r \$0-off;
#X obj 179 158 t f f;
#X obj 557 170 b;
#X obj 557 192 pack 0 50;
#X obj 10 154 t b b b;
#X obj 367 0 t b b;
#X msg 257 221 0;
#X msg 231 221 1;
#X obj 155 255 spigot;
#X msg 556 -73 note off;
#X msg 573 10 kill note;
#X obj 564 394 tgl 15 0 empty empty empty 17 7 0 10 -262144 -1 -1 0
1;
#X obj 211 101 s \$0-print;
#X obj 589 36 r \$0-print;
#X obj 557 225 t l l;
#X obj 584 250 s \$0-indicate;
#X obj 399 194 t l l;
#X obj 29 237 t l l;
#X obj 202 354 t l l;
#X obj 172 81 s \$0-kill;
#X obj 573 -11 r \$0-kill;
#X obj 202 331 spigot;
#X obj 564 303 r \$0-indicate;
#X obj 394 -22 s \$0-on;
#X obj 556 -94 r \$0-off;
#X obj 565 -53 r \$0-on;
#X obj 556 104 print ADSR-\$0;
#X obj 10 129 r \$0-on;
#X obj 55 21 s \$0-decay;
#X obj 224 260 r \$0-decay;
#X obj 94 41 s \$0-sustain;
#X obj 308 232 r \$0-sustain;
#X obj 133 61 s \$0-release;
#X obj 456 150 r \$0-release;
#X obj 557 147 r \$0-kill;
#X obj 399 239 s \$0-out_gain;
#X obj 402 381 r \$0-out_gain;
#X obj 202 399 s \$0-out_gain;
#X obj 29 278 s \$0-out_gain;
#X obj 56 258 s \$0-indicate;
#X obj 557 271 s \$0-out_gain;
#X obj 426 217 s \$0-indicate;
#X obj 229 378 s \$0-indicate;
#X obj 308 254 t b f b;
#X obj 564 348 == 0;
#X obj 564 369 == 0;
#X obj 394 27 s \$0-kill_decay;
#X obj 257 195 r \$0-kill_decay;
#X msg 308 278 1;
#X text 16 -142 Note on/off command;
#X obj 564 412 change;
#X obj 564 326 line 0 0 1;
#X obj 16 1 s \$0-attack;
#X obj 421 1 s \$0-vol;
#X obj 78 131 r \$0-vol;
#X obj 78 151 / 127;
#X obj 29 195 f;
#X obj 179 134 r \$0-attack;
#X obj 402 405 vline~;
#X msg 347 278 0;
#X obj 394 -43 t f f;
#X msg 565 -32 note on \$1;
#X obj 17 -122 inlet COMMANDS;
#N canvas 567 23 440 339 help 0;
#X obj 13 -95 inlet;
#X obj 13 188 print HELP;
#X msg 13 -74 ----------------------- adsr.pd -----------------------
\, ------------------------------------------------------------------------
\, --------------- ADSR Envelope Generator --------------- \, ----
\, ---- Inlets: \, ---------- 0: velocity or [adsr] method \, ----------
1: ADSR List (attack decay sustain release) \, ---- \, ---- Outlets:
\, ---------- 0: Signal multiplier (between 0 and 1) \, ----------
1: Indicator: 1 if active or 0 if off \, ---- \, ---- Methods (sent
to inlet 0): \, ---------- attack: set attack time (ms) \, ----------
decay: set decay time (ms) \, ---------- sustain: set sustain level
(0-1) \, ---------- release: set release time (ms) \, ---------- kill:
to immediately set envelope to 0 \, ---------- print: print note-on
& note-off commands \, ---------- set: set adsr coefficients with List
\, ---------- help: print help information to the console \, ----------
methods: print available methods to the console \, ------------------------------------------------------------------------
\, ----------------------- adsr.pd ----------------------- \,;
#X connect 0 0 2 0;
#X connect 2 0 1 0;
#X restore 289 -61 pd help;
#X obj 171 -139 inlet ADSR_LIST;
#X msg 171 -118 set \$1 \$2 \$3 \$4;
#X obj 367 -43 b;
#X obj 556 61 t a;
#X obj 556 83 spigot;
#X obj 16 -86 route attack decay sustain release kill print set help
adsr;
#X obj 402 435 outlet~ SIG_MULTIPLIER;
#X obj 564 432 outlet INDICATOR;
#X obj 250 -36 unpack f f f f;
#X obj 29 214 pack 1 2;
#X obj 155 222 delay 2;
#X obj 155 308 pack 1 2;
#X obj 399 172 pack 0 2;
#X connect 0 0 68 0;
#X connect 0 1 62 0;
#X connect 2 0 78 0;
#X connect 3 0 75 1;
#X connect 3 1 76 1;
#X connect 4 0 5 0;
#X connect 5 0 16 0;
#X connect 6 0 76 0;
#X connect 6 1 58 0;
#X connect 6 2 9 0;
#X connect 7 0 1 0;
#X connect 7 1 48 0;
#X connect 8 0 10 1;
#X connect 9 0 10 1;
#X connect 10 0 77 0;
#X connect 11 0 69 0;
#X connect 12 0 69 0;
#X connect 13 0 52 0;
#X connect 15 0 70 1;
#X connect 16 0 42 0;
#X connect 16 1 17 0;
#X connect 18 0 37 0;
#X connect 18 1 43 0;
#X connect 19 0 40 0;
#X connect 19 1 41 0;
#X connect 20 0 39 0;
#X connect 20 1 44 0;
#X connect 22 0 12 0;
#X connect 23 0 20 0;
#X connect 24 0 53 0;
#X connect 26 0 11 0;
#X connect 27 0 63 0;
#X connect 29 0 6 0;
#X connect 31 0 77 1;
#X connect 33 0 45 0;
#X connect 35 0 78 1;
#X connect 36 0 4 0;
#X connect 38 0 60 0;
#X connect 45 0 50 0;
#X connect 45 1 77 0;
#X connect 45 2 61 0;
#X connect 46 0 47 0;
#X connect 47 0 13 0;
#X connect 49 0 8 0;
#X connect 50 0 23 1;
#X connect 52 0 73 0;
#X connect 53 0 46 0;
#X connect 56 0 57 0;
#X connect 57 0 58 1;
#X connect 58 0 75 0;
#X connect 59 0 3 0;
#X connect 60 0 72 0;
#X connect 61 0 23 1;
#X connect 62 0 25 0;
#X connect 62 1 55 0;
#X connect 63 0 69 0;
#X connect 64 0 71 0;
#X connect 66 0 67 0;
#X connect 67 0 71 0;
#X connect 68 0 7 0;
#X connect 69 0 70 0;
#X connect 70 0 28 0;
#X connect 71 0 54 0;
#X connect 71 1 30 0;
#X connect 71 2 32 0;
#X connect 71 3 34 0;
#X connect 71 4 21 0;
#X connect 71 5 14 0;
#X connect 71 6 74 0;
#X connect 71 7 65 0;
#X connect 71 8 67 0;
#X connect 71 9 0 0;
#X connect 74 0 54 0;
#X connect 74 1 30 0;
#X connect 74 2 32 0;
#X connect 74 3 34 0;
#X connect 75 0 19 0;
#X connect 76 0 10 0;
#X connect 77 0 23 0;
#X connect 78 0 18 0;
