#N canvas 568 306 203 203 10;
#X obj 11 98 bng 15 250 50 0 empty empty empty 17 7 0 10 -262144 -1
-1;
#X obj 11 165 outlet;
#X obj 11 15 inlet BANG;
#X obj 82 16 inlet ANYTHING;
#X msg 11 143;
#X obj 33 98 list prepend set;
#X obj 19 121 list trim;
#X obj 11 47 route bang;
#X obj 68 66 t b a;
#X connect 0 0 4 0;
#X connect 2 0 7 0;
#X connect 3 0 5 0;
#X connect 4 0 1 0;
#X connect 5 0 6 0;
#X connect 6 0 4 0;
#X connect 7 0 0 0;
#X connect 7 1 8 0;
#X connect 8 0 0 0;
#X connect 8 1 5 0;
#X coords 0 203 1 202 200 19 0;
