#N canvas 457 109 261 283 10;
#X obj 11 -66 inlet~ SIGNAL;
#X obj 24 -46 inlet FILTER_CENTER;
#X obj 61 -26 inlet FILTER_Q;
#X obj 98 -6 inlet FILTER_GAIN;
#X obj 135 14 inlet FILTER_TYPE;
#X obj 24 112 pack 0 0 0 0 0;
#X obj 24 88 biquad_coefficients;
#X obj 11 179 outlet~;
#X obj 125 154 outlet;
#X obj 24 132 t a a;
#X obj 11 156 biquad~ 0 0 0 0 1;
#X obj 24 34 clip 40 22000;
#X obj 61 54 clip 0.1 1000;
#X connect 0 0 10 0;
#X connect 1 0 11 0;
#X connect 2 0 12 0;
#X connect 3 0 6 2;
#X connect 4 0 6 3;
#X connect 5 0 9 0;
#X connect 6 0 5 0;
#X connect 6 1 5 1;
#X connect 6 2 5 2;
#X connect 6 3 5 3;
#X connect 6 4 5 4;
#X connect 9 0 10 0;
#X connect 9 1 8 0;
#X connect 10 0 7 0;
#X connect 11 0 6 0;
#X connect 12 0 6 1;
