#N canvas 191 51 560 711 10;
#X obj 144 336 route lowpass highpass bandpass notch peak lowshelf
highshelf;
#X msg 338 393 1;
#X msg 349 393 2;
#X msg 360 393 3;
#X msg 371 393 4;
#X msg 382 393 5;
#X msg 393 393 6;
#X msg 403 393 7;
#X msg 413 393 8;
#X obj 16 7 inlet CENTER_FREQUENCY;
#X obj 188 6 inlet Q;
#X obj 272 6 inlet PEAK_GAIN;
#X obj 391 6 inlet FILTER_TYPE;
#X obj 43 228 s \$0-fc;
#X obj 299 202 s \$0-gain;
#X floatatom 16 52 5 0 0 0 - - -;
#X floatatom 188 51 5 0 0 0 - - -;
#X floatatom 272 51 5 0 0 0 - - -;
#X obj 418 95 s \$0-type;
#X obj 144 312 r \$0-type;
#X obj 299 96 t f b f;
#X obj 325 157 pow;
#X msg 318 136 10;
#X obj 347 116 abs;
#X obj 347 136 / 20;
#X obj 325 178 s \$0-V;
#X text 33 662 Algorithms taken from:;
#X text 170 662 http://www.earlevel.com/main/2011/01/02/biquad-formulas/
;
#X obj 60 140 *;
#X obj 77 118 pi;
#X obj 60 164 /;
#X obj 43 97 t f f b b;
#X obj 94 140 samplerate~;
#X obj 60 185 tan;
#X obj 60 207 s \$0-K;
#N canvas 359 23 523 453 LOWPASS 0;
#X obj 142 417 outlet A0;
#X obj 202 417 outlet A1;
#X obj 262 417 outlet A2;
#X obj 22 417 outlet B1;
#X obj 82 417 outlet B2;
#X obj 228 196 r \$0-q;
#X obj 189 149 r \$0-K;
#X obj 174 173 f;
#X obj 174 263 + 1;
#X obj 213 219 /;
#X obj 174 243 +;
#X obj 174 222 *;
#X obj 174 192 t f f f;
#X obj 159 288 /;
#X obj 147 150 t b b;
#X msg 147 263 1;
#X obj 95 305 *;
#X obj 95 278 f;
#X obj 187 75 bng 15 250 50 0 empty empty Calculate_Norm 17 7 0 10
-262144 -1 -1;
#X obj 95 126 bng 15 250 50 0 empty empty Calculate_A 17 7 0 10 -262144
-1 -1;
#X text 118 306 a0;
#X obj 95 344 * 2;
#X text 102 359 a1;
#X obj 202 393 f;
#X obj 142 391 f;
#X obj 262 392 f;
#X obj 215 346 *;
#X obj 215 366 * 2;
#X obj 275 245 f;
#X obj 275 156 bng 15 250 50 0 empty empty Calculate_B 17 7 0 10 -262144
-1 -1;
#X obj 22 392 f;
#X obj 82 391 f;
#X obj 215 319 - 1;
#X text 182 288 norm;
#X obj 275 320 *;
#X obj 275 276 + 1;
#X text 236 220 K/Q;
#X text 299 246 K*K;
#X obj 275 296 -;
#X obj 136 45 t b b b b;
#X obj 20 359 t b b b b b;
#X obj 20 104 bng 15 250 50 0 empty empty Output_Coefficients 17 7
0 10 -262144 -1 -1;
#X text 299 276 (K*K) + 1;
#X text 297 296 ((K*K) + 1) - (K/Q);
#X text 298 319 (((K*K) + 1) - (K/Q)) * norm;
#X obj 136 27 bng 15 250 50 0 empty empty empty 17 7 0 10 -262144 -1
-1;
#X obj 136 8 inlet COMPUTE_COEFFICIENTS;
#X text 308 42 norm = 1 / (1 + K / Q + K * K) \;;
#X text 321 56 a0 = K * K * norm \;;
#X text 321 69 a1 = 2 * a0 \;;
#X text 322 83 a2 = a0 \;;
#X text 323 96 b1 = 2 * (K * K - 1) * norm \;;
#X text 323 110 b2 = (1 - K / Q + K * K) * norm \;;
#X text 364 23 EQUATIONS:;
#X connect 5 0 9 1;
#X connect 6 0 7 1;
#X connect 7 0 12 0;
#X connect 8 0 13 1;
#X connect 9 0 10 1;
#X connect 9 0 38 1;
#X connect 10 0 8 0;
#X connect 11 0 10 0;
#X connect 11 0 17 1;
#X connect 11 0 28 1;
#X connect 12 0 11 0;
#X connect 12 1 11 1;
#X connect 12 2 9 0;
#X connect 13 0 16 1;
#X connect 13 0 26 1;
#X connect 13 0 34 1;
#X connect 14 0 15 0;
#X connect 14 1 7 0;
#X connect 15 0 13 0;
#X connect 16 0 21 0;
#X connect 16 0 24 1;
#X connect 16 0 25 1;
#X connect 17 0 16 0;
#X connect 18 0 14 0;
#X connect 19 0 17 0;
#X connect 21 0 23 1;
#X connect 23 0 1 0;
#X connect 24 0 0 0;
#X connect 25 0 2 0;
#X connect 26 0 27 0;
#X connect 27 0 30 1;
#X connect 28 0 32 0;
#X connect 28 0 35 0;
#X connect 29 0 28 0;
#X connect 30 0 3 0;
#X connect 31 0 4 0;
#X connect 32 0 26 0;
#X connect 34 0 31 1;
#X connect 35 0 38 0;
#X connect 38 0 34 0;
#X connect 39 0 41 0;
#X connect 39 1 29 0;
#X connect 39 2 19 0;
#X connect 39 3 18 0;
#X connect 40 0 30 0;
#X connect 40 1 31 0;
#X connect 40 2 24 0;
#X connect 40 3 23 0;
#X connect 40 4 25 0;
#X connect 41 0 40 0;
#X connect 45 0 39 0;
#X connect 46 0 45 0;
#X restore 23 453 pd LOWPASS;
#X obj 459 397 r \$0-compute;
#X obj 391 116 s \$0-compute;
#X obj 272 75 t b f;
#X obj 272 224 s \$0-compute;
#X obj 188 70 t b f;
#X obj 188 115 s \$0-compute;
#X obj 215 94 s \$0-q;
#X obj 16 72 t b f;
#X obj 16 249 s \$0-compute;
#X obj 391 71 t b a;
#X obj 141 182 loadbang;
#X obj 141 204 f \$0;
#X text 125 163 INITIAL SETTINGS:;
#X obj 124 182 bng 15 250 50 0 empty empty empty 17 7 0 10 -262144
-1 -1;
#N canvas 470 194 523 453 HIGHPASS 0;
#X obj 143 423 outlet A0;
#X obj 203 423 outlet A1;
#X obj 263 423 outlet A2;
#X obj 22 424 outlet B1;
#X obj 82 424 outlet B2;
#X obj 228 196 r \$0-q;
#X obj 189 149 r \$0-K;
#X obj 174 173 f;
#X obj 174 263 + 1;
#X obj 213 219 /;
#X obj 174 243 +;
#X obj 174 222 *;
#X obj 174 192 t f f f;
#X obj 159 288 /;
#X obj 147 150 t b b;
#X msg 147 263 1;
#X obj 95 305 f;
#X obj 187 75 bng 15 250 50 0 empty empty Calculate_Norm 17 7 0 10
-262144 -1 -1;
#X obj 95 126 bng 15 250 50 0 empty empty Calculate_A 17 7 0 10 -262144
-1 -1;
#X text 78 303 a0;
#X text 130 351 a1;
#X obj 203 399 f;
#X obj 143 397 f;
#X obj 263 398 f;
#X obj 215 346 *;
#X obj 215 366 * 2;
#X obj 275 245 f;
#X obj 275 156 bng 15 250 50 0 empty empty Calculate_B 17 7 0 10 -262144
-1 -1;
#X obj 22 399 f;
#X obj 82 398 f;
#X obj 215 319 - 1;
#X text 182 288 norm;
#X obj 275 320 *;
#X obj 275 276 + 1;
#X text 236 220 K/Q;
#X text 299 246 K*K;
#X obj 275 296 -;
#X obj 136 45 t b b b b;
#X obj 20 359 t b b b b b;
#X obj 20 104 bng 15 250 50 0 empty empty Output_Coefficients 17 7
0 10 -262144 -1 -1;
#X text 299 276 (K*K) + 1;
#X text 297 296 ((K*K) + 1) - (K/Q);
#X text 298 319 (((K*K) + 1) - (K/Q)) * norm;
#X obj 136 27 bng 15 250 50 0 empty empty empty 17 7 0 10 -262144 -1
-1;
#X obj 136 8 inlet COMPUTE_COEFFICIENTS;
#X text 308 42 norm = 1 / (1 + K / Q + K * K) \;;
#X text 322 83 a2 = a0 \;;
#X text 323 96 b1 = 2 * (K * K - 1) * norm \;;
#X text 323 110 b2 = (1 - K / Q + K * K) * norm \;;
#X text 364 23 EQUATIONS:;
#X text 321 56 a0 = 1 * norm \;;
#X text 321 69 a1 = -2 * a0 \;;
#X obj 95 350 * -2;
#X connect 5 0 9 1;
#X connect 6 0 7 1;
#X connect 7 0 12 0;
#X connect 8 0 13 1;
#X connect 9 0 10 1;
#X connect 9 0 36 1;
#X connect 10 0 8 0;
#X connect 11 0 10 0;
#X connect 11 0 26 1;
#X connect 12 0 11 0;
#X connect 12 1 11 1;
#X connect 12 2 9 0;
#X connect 13 0 24 1;
#X connect 13 0 32 1;
#X connect 13 0 16 1;
#X connect 14 0 15 0;
#X connect 14 1 7 0;
#X connect 15 0 13 0;
#X connect 16 0 22 1;
#X connect 16 0 23 1;
#X connect 16 0 52 0;
#X connect 17 0 14 0;
#X connect 18 0 16 0;
#X connect 21 0 1 0;
#X connect 22 0 0 0;
#X connect 23 0 2 0;
#X connect 24 0 25 0;
#X connect 25 0 28 1;
#X connect 26 0 30 0;
#X connect 26 0 33 0;
#X connect 27 0 26 0;
#X connect 28 0 3 0;
#X connect 29 0 4 0;
#X connect 30 0 24 0;
#X connect 32 0 29 1;
#X connect 33 0 36 0;
#X connect 36 0 32 0;
#X connect 37 0 39 0;
#X connect 37 1 27 0;
#X connect 37 2 18 0;
#X connect 37 3 17 0;
#X connect 38 0 28 0;
#X connect 38 1 29 0;
#X connect 38 2 22 0;
#X connect 38 3 21 0;
#X connect 38 4 23 0;
#X connect 39 0 38 0;
#X connect 43 0 37 0;
#X connect 44 0 43 0;
#X connect 52 0 21 1;
#X restore 89 453 pd HIGHPASS;
#N canvas 359 23 523 453 BANDPASS 0;
#X obj 140 421 outlet A0;
#X obj 200 421 outlet A1;
#X obj 260 421 outlet A2;
#X obj 20 421 outlet B1;
#X obj 80 421 outlet B2;
#X obj 228 196 r \$0-q;
#X obj 189 149 r \$0-K;
#X obj 174 173 f;
#X obj 174 263 + 1;
#X obj 213 219 /;
#X obj 174 243 +;
#X obj 174 222 *;
#X obj 174 192 t f f f;
#X obj 159 288 /;
#X obj 147 150 t b b;
#X msg 147 263 1;
#X obj 95 305 *;
#X obj 95 278 f;
#X obj 187 75 bng 15 250 50 0 empty empty Calculate_Norm 17 7 0 10
-262144 -1 -1;
#X obj 95 126 bng 15 250 50 0 empty empty Calculate_A 17 7 0 10 -262144
-1 -1;
#X text 118 306 a0;
#X text 118 342 a1;
#X obj 200 397 f;
#X obj 140 395 f;
#X obj 260 396 f;
#X obj 215 346 *;
#X obj 215 366 * 2;
#X obj 275 245 f;
#X obj 275 156 bng 15 250 50 0 empty empty Calculate_B 17 7 0 10 -262144
-1 -1;
#X obj 20 396 f;
#X obj 80 395 f;
#X obj 215 319 - 1;
#X text 182 288 norm;
#X obj 275 320 *;
#X obj 275 276 + 1;
#X text 236 220 K/Q;
#X text 299 246 K*K;
#X obj 275 296 -;
#X obj 136 45 t b b b b;
#X obj 20 359 t b b b b b;
#X obj 20 104 bng 15 250 50 0 empty empty Output_Coefficients 17 7
0 10 -262144 -1 -1;
#X text 299 276 (K*K) + 1;
#X text 297 296 ((K*K) + 1) - (K/Q);
#X text 298 319 (((K*K) + 1) - (K/Q)) * norm;
#X obj 136 27 bng 15 250 50 0 empty empty empty 17 7 0 10 -262144 -1
-1;
#X obj 136 8 inlet COMPUTE_COEFFICIENTS;
#X text 308 42 norm = 1 / (1 + K / Q + K * K) \;;
#X text 323 96 b1 = 2 * (K * K - 1) * norm \;;
#X text 323 110 b2 = (1 - K / Q + K * K) * norm \;;
#X text 364 23 EQUATIONS:;
#X text 321 56 a0 = (K / Q) * norm \;;
#X text 321 69 a1 = 0 \;;
#X text 322 83 a2 = -a0 \;;
#X msg 95 344 0;
#X obj 155 342 * -1;
#X text 140 342 a2;
#X connect 5 0 9 1;
#X connect 6 0 7 1;
#X connect 7 0 12 0;
#X connect 8 0 13 1;
#X connect 9 0 10 1;
#X connect 9 0 37 1;
#X connect 9 0 17 1;
#X connect 10 0 8 0;
#X connect 11 0 10 0;
#X connect 11 0 27 1;
#X connect 12 0 11 0;
#X connect 12 1 11 1;
#X connect 12 2 9 0;
#X connect 13 0 16 1;
#X connect 13 0 25 1;
#X connect 13 0 33 1;
#X connect 14 0 15 0;
#X connect 14 1 7 0;
#X connect 15 0 13 0;
#X connect 16 0 23 1;
#X connect 16 0 53 0;
#X connect 16 0 54 0;
#X connect 17 0 16 0;
#X connect 18 0 14 0;
#X connect 19 0 17 0;
#X connect 22 0 1 0;
#X connect 23 0 0 0;
#X connect 24 0 2 0;
#X connect 25 0 26 0;
#X connect 26 0 29 1;
#X connect 27 0 31 0;
#X connect 27 0 34 0;
#X connect 28 0 27 0;
#X connect 29 0 3 0;
#X connect 30 0 4 0;
#X connect 31 0 25 0;
#X connect 33 0 30 1;
#X connect 34 0 37 0;
#X connect 37 0 33 0;
#X connect 38 0 40 0;
#X connect 38 1 28 0;
#X connect 38 2 19 0;
#X connect 38 3 18 0;
#X connect 39 0 29 0;
#X connect 39 1 30 0;
#X connect 39 2 23 0;
#X connect 39 3 22 0;
#X connect 39 4 24 0;
#X connect 40 0 39 0;
#X connect 44 0 38 0;
#X connect 45 0 44 0;
#X connect 53 0 22 1;
#X connect 54 0 24 1;
#X restore 161 453 pd BANDPASS;
#N canvas 359 23 523 453 NOTCH 0;
#X obj 143 417 outlet A0;
#X obj 203 417 outlet A1;
#X obj 263 417 outlet A2;
#X obj 23 417 outlet B1;
#X obj 83 417 outlet B2;
#X obj 228 196 r \$0-q;
#X obj 189 149 r \$0-K;
#X obj 174 173 f;
#X obj 174 263 + 1;
#X obj 213 219 /;
#X obj 174 243 +;
#X obj 174 222 *;
#X obj 174 192 t f f f;
#X obj 159 288 /;
#X obj 147 150 t b b;
#X msg 147 263 1;
#X obj 35 310 *;
#X obj 35 283 f;
#X obj 187 75 bng 15 250 50 0 empty empty Calculate_Norm 17 7 0 10
-262144 -1 -1;
#X obj 34 159 bng 15 250 50 0 empty empty Calculate_A 17 7 0 10 -262144
-1 -1;
#X text 58 311 a0;
#X obj 203 393 f;
#X obj 143 391 f;
#X obj 263 392 f;
#X obj 275 258 f;
#X obj 275 156 bng 15 250 50 0 empty empty Calculate_B 17 7 0 10 -262144
-1 -1;
#X obj 23 392 f;
#X obj 83 391 f;
#X text 182 288 norm;
#X obj 275 320 *;
#X obj 275 279 + 1;
#X text 236 220 K/Q;
#X text 299 259 K*K;
#X obj 275 299 -;
#X obj 136 45 t b b b b;
#X obj 20 359 t b b b b b;
#X obj 20 104 bng 15 250 50 0 empty empty Output_Coefficients 17 7
0 10 -262144 -1 -1;
#X text 299 279 (K*K) + 1;
#X text 297 299 ((K*K) + 1) - (K/Q);
#X text 298 319 (((K*K) + 1) - (K/Q)) * norm;
#X obj 136 27 bng 15 250 50 0 empty empty empty 17 7 0 10 -262144 -1
-1;
#X obj 136 8 inlet COMPUTE_COEFFICIENTS;
#X text 298 42 norm = 1 / (1 + K / Q + K * K) \;;
#X text 312 83 a2 = a0 \;;
#X text 313 110 b2 = (1 - K / Q + K * K) * norm \;;
#X text 354 23 EQUATIONS:;
#X text 311 56 a0 = (1 + K * K) * norm \;;
#X obj 50 262 + 1;
#X text 311 69 a1 = 2 * (K * K - 1) * norm \;;
#X text 118 335 a1;
#X obj 95 315 *;
#X obj 95 335 * 2;
#X obj 95 287 f;
#X text 313 96 b1 = a1 \;;
#X obj 61 232 r \$0-Ksquared;
#X obj 110 266 - 1;
#X connect 5 0 9 1;
#X connect 6 0 7 1;
#X connect 7 0 12 0;
#X connect 8 0 13 1;
#X connect 9 0 10 1;
#X connect 9 0 33 1;
#X connect 10 0 8 0;
#X connect 11 0 10 0;
#X connect 11 0 24 1;
#X connect 12 0 11 0;
#X connect 12 1 11 1;
#X connect 12 2 9 0;
#X connect 13 0 16 1;
#X connect 13 0 29 1;
#X connect 13 0 50 1;
#X connect 14 0 15 0;
#X connect 14 1 7 0;
#X connect 15 0 13 0;
#X connect 16 0 22 1;
#X connect 16 0 23 1;
#X connect 17 0 16 0;
#X connect 18 0 14 0;
#X connect 19 0 17 0;
#X connect 19 0 52 0;
#X connect 21 0 1 0;
#X connect 22 0 0 0;
#X connect 23 0 2 0;
#X connect 24 0 30 0;
#X connect 25 0 24 0;
#X connect 26 0 3 0;
#X connect 27 0 4 0;
#X connect 29 0 27 1;
#X connect 30 0 33 0;
#X connect 33 0 29 0;
#X connect 34 0 36 0;
#X connect 34 1 25 0;
#X connect 34 2 19 0;
#X connect 34 3 18 0;
#X connect 35 0 26 0;
#X connect 35 1 27 0;
#X connect 35 2 22 0;
#X connect 35 3 21 0;
#X connect 35 4 23 0;
#X connect 36 0 35 0;
#X connect 40 0 34 0;
#X connect 41 0 40 0;
#X connect 47 0 17 1;
#X connect 50 0 51 0;
#X connect 51 0 21 1;
#X connect 51 0 26 1;
#X connect 52 0 50 0;
#X connect 54 0 47 0;
#X connect 54 0 55 0;
#X connect 55 0 52 1;
#X restore 233 454 pd NOTCH;
#N canvas 73 173 823 630 PEAK 0;
#X obj 283 568 outlet A0;
#X obj 343 568 outlet A1;
#X obj 403 568 outlet A2;
#X obj 163 568 outlet B1;
#X obj 223 568 outlet B2;
#X obj 343 544 f;
#X obj 283 544 f;
#X obj 403 544 f;
#X obj 163 544 f;
#X obj 223 544 f;
#X obj 259 28 bng 15 250 50 0 empty empty empty 17 7 0 10 -262144 -1
-1;
#X obj 259 9 inlet COMPUTE_COEFFICIENTS;
#X obj 286 30 r \$0-gain;
#X obj 259 72 ggate;
#X obj 286 51 >= 0;
#X text 296 72 Boost;
#X text 236 72 Cut;
#X obj 531 449 /;
#X msg 519 428 1;
#X obj 546 297 /;
#X msg 546 253 1;
#X obj 561 273 r \$0-q;
#X obj 546 361 *;
#X obj 448 283 r \$0-K;
#X obj 546 407 +;
#X obj 580 360 *;
#X obj 561 338 t f f f;
#X obj 519 229 t b b;
#X text 555 449 norm;
#X obj 546 428 + 1;
#X text 472 10 norm = 1 / (1 + 1/Q * K + K * K) \;;
#X text 485 25 a0 = (1 + V/Q * K + K * K) * norm \;;
#X text 486 40 a1 = 2 * (K * K - 1) * norm \;;
#X text 487 55 a2 = (1 - V/Q * K + K * K) * norm \;;
#X text 487 69 b1 = a1 \;;
#X text 487 82 b2 = (1 - 1/Q * K + K * K) * norm \;;
#X text -40 11 norm = 1 / (1 + V/Q * K + K * K) \;;
#X text -27 25 a0 = (1 + 1/Q * K + K * K) * norm \;;
#X text -26 39 a1 = 2 * (K * K - 1) * norm \;;
#X text -26 53 a2 = (1 - 1/Q * K + K * K) * norm \;;
#X text -26 67 b1 = a1 \;;
#X text -26 80 b2 = (1 - V/Q * K + K * K) * norm \;;
#X obj 350 147 t b b b b;
#X obj 519 164 bng 15 250 50 0 empty empty Compute_Norm 17 7 0 10 -262144
-1 -1;
#X obj 401 360 /;
#X obj 401 424 *;
#X obj 401 446 +;
#X obj 401 467 + 1;
#X obj 410 235 bng 15 250 50 0 empty empty Compute_A 17 7 0 10 -262144
-1 -1;
#X obj 401 490 *;
#X obj 460 486 * 2;
#X obj 460 466 *;
#X obj 460 446 - 1;
#X obj 460 426 f;
#X obj 159 503 t b b b b b;
#X obj 321 382 /;
#X obj 336 358 r \$0-q;
#X obj 321 402 *;
#X obj 321 450 +;
#X obj 321 471 + 1;
#X obj 321 494 *;
#X obj 321 427 * -1;
#X obj 159 474 bng 15 250 50 0 empty empty Output_Coefficients 17 7
0 10 -262144 -1 -1;
#X text 484 487 a1;
#X text 425 489 a0;
#X text 345 494 a2;
#X obj 626 374 /;
#X msg 626 330 1;
#X obj 626 423 * -1;
#X obj 626 444 + 1;
#X obj 626 404 *;
#X obj 626 470 +;
#X obj 626 501 *;
#X obj 626 214 bng 15 250 50 0 empty empty Compute_B 17 7 0 10 -262144
-1 -1;
#X text 649 501 b2;
#X obj 286 94 t b b;
#X obj 248 106 t b b;
#X obj 591 231 lset;
#X obj 274 185 f;
#X obj 299 160 r \$0-V;
#X msg 352 115 1;
#X obj 390 110 f;
#X obj 405 89 r \$0-V;
#X msg 275 135 1;
#X msg 321 322 2.81838;
#X obj 371 300 lset;
#X connect 5 0 1 0;
#X connect 6 0 0 0;
#X connect 7 0 2 0;
#X connect 8 0 3 0;
#X connect 9 0 4 0;
#X connect 10 0 13 0;
#X connect 11 0 10 0;
#X connect 12 0 14 0;
#X connect 13 0 76 0;
#X connect 13 1 75 0;
#X connect 14 0 13 1;
#X connect 17 0 49 1;
#X connect 17 0 51 1;
#X connect 17 0 60 1;
#X connect 17 0 72 1;
#X connect 18 0 17 0;
#X connect 19 0 22 0;
#X connect 20 0 19 0;
#X connect 21 0 19 1;
#X connect 21 0 66 1;
#X connect 21 0 44 1;
#X connect 22 0 24 0;
#X connect 23 0 26 0;
#X connect 23 0 70 1;
#X connect 23 0 45 1;
#X connect 23 0 57 1;
#X connect 24 0 29 0;
#X connect 25 0 24 1;
#X connect 25 0 46 1;
#X connect 25 0 53 1;
#X connect 25 0 58 1;
#X connect 25 0 71 1;
#X connect 26 0 22 1;
#X connect 26 1 25 0;
#X connect 26 2 25 1;
#X connect 27 0 18 0;
#X connect 27 1 20 0;
#X connect 29 0 17 1;
#X connect 42 0 62 0;
#X connect 42 1 73 0;
#X connect 42 2 48 0;
#X connect 42 3 43 0;
#X connect 43 0 27 0;
#X connect 44 0 45 0;
#X connect 45 0 46 0;
#X connect 46 0 47 0;
#X connect 47 0 49 0;
#X connect 48 0 53 0;
#X connect 48 0 84 0;
#X connect 49 0 6 1;
#X connect 50 0 5 1;
#X connect 50 0 8 1;
#X connect 51 0 50 0;
#X connect 52 0 51 0;
#X connect 53 0 52 0;
#X connect 54 0 8 0;
#X connect 54 1 9 0;
#X connect 54 2 6 0;
#X connect 54 3 5 0;
#X connect 54 4 7 0;
#X connect 55 0 57 0;
#X connect 56 0 55 1;
#X connect 57 0 61 0;
#X connect 58 0 59 0;
#X connect 59 0 60 0;
#X connect 60 0 7 1;
#X connect 61 0 58 0;
#X connect 62 0 54 0;
#X connect 66 0 70 0;
#X connect 67 0 66 0;
#X connect 68 0 69 0;
#X connect 69 0 71 0;
#X connect 70 0 68 0;
#X connect 71 0 72 0;
#X connect 72 0 9 1;
#X connect 73 0 67 0;
#X connect 75 0 42 0;
#X connect 75 1 80 0;
#X connect 75 1 81 0;
#X connect 76 0 42 0;
#X connect 76 1 78 0;
#X connect 76 1 83 0;
#X connect 77 0 67 0;
#X connect 77 0 20 0;
#X connect 78 0 77 0;
#X connect 79 0 78 1;
#X connect 80 0 77 0;
#X connect 81 0 85 0;
#X connect 82 0 81 1;
#X connect 83 0 85 0;
#X connect 84 0 44 0;
#X connect 84 0 55 0;
#X connect 85 0 84 0;
#X restore 287 455 pd PEAK;
#X obj 54 72 r \$0-set_fc;
#X obj 121 53 r \$0-set_q;
#X obj 307 52 r \$0-set_gain;
#N canvas 41 120 960 611 LOWSHELF 0;
#X obj 112 574 outlet A0;
#X obj 172 574 outlet A1;
#X obj 232 574 outlet A2;
#X obj -8 574 outlet B1;
#X obj 52 574 outlet B2;
#X obj 172 550 f;
#X obj 112 550 f;
#X obj 232 550 f;
#X obj -8 550 f;
#X obj 52 550 f;
#X obj 352 30 bng 15 250 50 0 empty empty empty 17 7 0 10 -262144 -1
-1;
#X obj 352 11 inlet COMPUTE_COEFFICIENTS;
#X obj 379 32 r \$0-gain;
#X obj 352 74 ggate;
#X obj 379 53 >= 0;
#X text 389 74 Boost;
#X text 329 74 Cut;
#X obj -9 514 t b b b b b;
#X obj -9 306 bng 15 250 50 0 empty empty Output_Coefficients 17 7
0 10 -262144 -1 -1;
#X text 549 11 norm = 1 / (1 + Math.SQRT2 * K + K * K) \;;
#X text 562 26 a0 = (1 + Math.sqrt(2*V) * K + V * K * K) * norm \;
;
#X text 563 41 a1 = 2 * (V * K * K - 1) * norm \;;
#X text 564 56 a2 = (1 - Math.sqrt(2*V) * K + V * K * K) * norm \;
;
#X text 564 70 b1 = 2 * (K * K - 1) * norm \;;
#X text 564 83 b2 = (1 - Math.SQRT2 * K + K * K) * norm \;;
#X text -32 3 norm = 1 / (1 + Math.sqrt(2*V) * K + V * K * K) \;;
#X text -19 17 a0 = (1 + Math.SQRT2 * K + K * K) * norm \;;
#X text -18 31 a1 = 2 * (K * K - 1) * norm \;;
#X text -18 45 a2 = (1 - Math.SQRT2 * K + K * K) * norm \;;
#X text -18 59 b1 = 2 * (V * K * K - 1) * norm \;;
#X text -18 72 b2 = (1 - Math.sqrt(2*V) * K + V * K * K) * norm \;
;
#X obj 379 108 t b b;
#X obj 337 107 t b b;
#X obj 492 289 t b b b b;
#X obj 637 306 bng 15 250 50 0 empty empty Calculate_Norm 17 7 0 10
-262144 -1 -1;
#X obj 434 317 bng 15 250 50 0 empty empty Calculate_A 17 7 0 10 -262144
-1 -1;
#X obj 146 306 bng 15 250 50 0 empty empty Calculate_B 17 7 0 10 -262144
-1 -1;
#X obj 799 465 /;
#X msg 799 442 1;
#X obj 814 420 + 1;
#X obj 814 399 +;
#X msg 785 354 0.254561;
#X obj 785 313 lset;
#X msg 829 377 0.0324007;
#X obj 829 334 lset;
#X obj 473 153 r \$0-K;
#X obj 458 174 *;
#X msg 440 133 2;
#X obj 440 153 sqrt;
#X obj 545 132 r \$0-Ksquared;
#X obj 528 159 *;
#X msg 515 132 1;
#X obj 735 321 t b b b;
#X text 823 465 norm;
#X obj 234 208 r \$0-K;
#X obj 219 229 *;
#X obj 201 208 sqrt;
#X obj 304 188 r \$0-Ksquared;
#X obj 289 208 *;
#X obj 528 178 s \$0-LOWSHELF_2;
#X obj 829 313 r \$0-LOWSHELF_2;
#X obj 785 292 r \$0-LOWSHELF_1;
#X obj 201 188 * 2;
#X obj 231 163 f;
#X obj 246 142 r \$0-V;
#X obj 458 198 s \$0-LOWSHELF_1;
#X obj 289 228 s \$0-LOWSHELF_2;
#X obj 219 249 s \$0-LOWSHELF_1;
#X obj 231 124 bng 15 250 50 0 empty empty empty 17 7 0 10 -262144
-1 -1;
#X obj 617 462 + 1;
#X obj 671 197 r \$0-K;
#X obj 656 218 *;
#X obj 638 197 sqrt;
#X obj 741 177 r \$0-Ksquared;
#X obj 726 197 *;
#X obj 638 177 * 2;
#X obj 662 152 f;
#X obj 683 131 r \$0-V;
#X obj 662 125 bng 15 250 50 0 empty empty empty 17 7 0 10 -262144
-1 -1;
#X obj 656 238 s \$0-LOWSHELF_3;
#X obj 726 218 s \$0-LOWSHELF_4;
#X obj 584 358 lset;
#X msg 584 397 0.254561;
#X msg 634 418 0.0324007;
#X obj 634 376 lset;
#X obj 634 355 r \$0-LOWSHELF_4;
#X obj 584 334 r \$0-LOWSHELF_3;
#X obj 617 440 +;
#X obj 42 144 r \$0-K;
#X obj 27 165 *;
#X msg 9 124 2;
#X obj 9 144 sqrt;
#X obj 114 124 r \$0-Ksquared;
#X obj 97 151 *;
#X msg 84 124 1;
#X obj 617 482 *;
#X text 641 482 a0;
#X obj 543 358 t b b;
#X obj 484 459 * 2;
#X obj 484 482 *;
#X obj 484 436 - 1;
#X msg 484 413 0.0324007;
#X obj 484 357 lset;
#X obj 484 336 r \$0-LOWSHELF_4;
#X text 508 482 a1;
#X obj 320 360 lset;
#X msg 320 398 0.254561;
#X obj 320 336 r \$0-LOWSHELF_3;
#X obj 320 419 * -1;
#X obj 320 439 + 1;
#X obj 320 461 +;
#X msg 386 398 0.0324007;
#X obj 386 377 lset;
#X obj 386 357 r \$0-LOWSHELF_4;
#X obj 281 359 t b b;
#X obj 27 189 s \$0-LOWSHELF_3;
#X obj 97 170 s \$0-LOWSHELF_4;
#X text 344 481 a2;
#X obj 320 482 *;
#X msg 201 425 0.0324007;
#X obj 201 356 lset;
#X obj 201 337 r \$0-LOWSHELF_2;
#X obj 201 444 - 1;
#X obj 201 463 * 2;
#X obj 201 482 *;
#X text 225 483 b1;
#X obj 38 360 lset;
#X msg 38 398 0.254561;
#X obj 38 419 * -1;
#X obj 38 439 + 1;
#X obj 38 461 +;
#X msg 97 398 0.0324007;
#X obj 97 377 lset;
#X obj -1 359 t b b;
#X obj 38 482 *;
#X obj 38 336 r \$0-LOWSHELF_1;
#X obj 97 357 r \$0-LOWSHELF_2;
#X text 62 481 b2;
#X connect 5 0 1 0;
#X connect 6 0 0 0;
#X connect 7 0 2 0;
#X connect 8 0 3 0;
#X connect 9 0 4 0;
#X connect 10 0 13 0;
#X connect 11 0 10 0;
#X connect 12 0 14 0;
#X connect 13 0 32 0;
#X connect 13 1 31 0;
#X connect 14 0 13 1;
#X connect 17 0 8 0;
#X connect 17 1 9 0;
#X connect 17 2 6 0;
#X connect 17 3 5 0;
#X connect 17 4 7 0;
#X connect 18 0 17 0;
#X connect 31 0 33 0;
#X connect 31 1 47 0;
#X connect 31 1 51 0;
#X connect 31 1 78 0;
#X connect 32 0 33 0;
#X connect 32 1 68 0;
#X connect 32 1 94 0;
#X connect 32 1 90 0;
#X connect 33 0 18 0;
#X connect 33 1 36 0;
#X connect 33 2 35 0;
#X connect 33 3 34 0;
#X connect 34 0 52 0;
#X connect 35 0 97 0;
#X connect 35 0 101 0;
#X connect 35 0 114 0;
#X connect 36 0 119 0;
#X connect 36 0 133 0;
#X connect 37 0 95 1;
#X connect 37 0 99 1;
#X connect 37 0 118 1;
#X connect 37 0 124 1;
#X connect 37 0 134 1;
#X connect 38 0 37 0;
#X connect 39 0 37 1;
#X connect 40 0 39 0;
#X connect 41 0 40 0;
#X connect 42 0 41 0;
#X connect 43 0 40 1;
#X connect 44 0 43 0;
#X connect 45 0 46 1;
#X connect 46 0 65 0;
#X connect 47 0 48 0;
#X connect 48 0 46 0;
#X connect 49 0 50 1;
#X connect 50 0 59 0;
#X connect 51 0 50 0;
#X connect 52 0 38 0;
#X connect 52 1 41 0;
#X connect 52 2 43 0;
#X connect 54 0 55 1;
#X connect 55 0 67 0;
#X connect 56 0 55 0;
#X connect 57 0 58 1;
#X connect 58 0 66 0;
#X connect 60 0 44 0;
#X connect 61 0 42 0;
#X connect 62 0 56 0;
#X connect 63 0 62 0;
#X connect 63 0 58 0;
#X connect 64 0 63 1;
#X connect 68 0 63 0;
#X connect 69 0 95 0;
#X connect 70 0 71 1;
#X connect 71 0 79 0;
#X connect 72 0 71 0;
#X connect 73 0 74 1;
#X connect 74 0 80 0;
#X connect 75 0 72 0;
#X connect 76 0 75 0;
#X connect 76 0 74 0;
#X connect 77 0 76 1;
#X connect 78 0 76 0;
#X connect 81 0 82 0;
#X connect 82 0 87 0;
#X connect 83 0 87 1;
#X connect 84 0 83 0;
#X connect 85 0 84 0;
#X connect 86 0 81 0;
#X connect 87 0 69 0;
#X connect 88 0 89 1;
#X connect 89 0 115 0;
#X connect 90 0 91 0;
#X connect 91 0 89 0;
#X connect 92 0 93 1;
#X connect 93 0 116 0;
#X connect 94 0 93 0;
#X connect 95 0 6 1;
#X connect 97 0 82 0;
#X connect 97 1 83 0;
#X connect 98 0 99 0;
#X connect 99 0 5 1;
#X connect 100 0 98 0;
#X connect 101 0 100 0;
#X connect 102 0 101 0;
#X connect 103 0 102 0;
#X connect 105 0 106 0;
#X connect 106 0 108 0;
#X connect 107 0 105 0;
#X connect 108 0 109 0;
#X connect 109 0 110 0;
#X connect 110 0 118 0;
#X connect 111 0 110 1;
#X connect 112 0 111 0;
#X connect 113 0 112 0;
#X connect 114 0 106 0;
#X connect 114 1 111 0;
#X connect 118 0 7 1;
#X connect 119 0 122 0;
#X connect 120 0 119 0;
#X connect 121 0 120 0;
#X connect 122 0 123 0;
#X connect 123 0 124 0;
#X connect 124 0 8 1;
#X connect 126 0 127 0;
#X connect 127 0 128 0;
#X connect 128 0 129 0;
#X connect 129 0 130 0;
#X connect 130 0 134 0;
#X connect 131 0 130 1;
#X connect 132 0 131 0;
#X connect 133 0 127 0;
#X connect 133 1 131 0;
#X connect 134 0 9 1;
#X connect 135 0 126 0;
#X connect 136 0 132 0;
#X restore 335 456 pd LOWSHELF;
#X obj 26 307 *;
#X obj 26 286 t f f;
#X obj 26 331 s \$0-Ksquared;
#X msg 397 51 lowshelf;
#N canvas 177 145 1134 610 HIGHSHELF 0;
#X obj 111 567 outlet A0;
#X obj 171 567 outlet A1;
#X obj 231 567 outlet A2;
#X obj -9 568 outlet B1;
#X obj 51 568 outlet B2;
#X obj 171 543 f;
#X obj 111 543 f;
#X obj 231 543 f;
#X obj -9 544 f;
#X obj 51 544 f;
#X obj 352 30 bng 15 250 50 0 empty empty empty 17 7 0 10 -262144 -1
-1;
#X obj 352 11 inlet COMPUTE_COEFFICIENTS;
#X obj 379 32 r \$0-gain;
#X obj 352 74 ggate;
#X obj 379 53 >= 0;
#X text 389 74 Boost;
#X text 329 74 Cut;
#X obj -9 514 t b b b b b;
#X obj -9 306 bng 15 250 50 0 empty empty Output_Coefficients 17 7
0 10 -262144 -1 -1;
#X obj 379 108 t b b;
#X obj 337 107 t b b;
#X obj 492 289 t b b b b;
#X obj 614 306 bng 15 250 50 0 empty empty Calculate_Norm 17 7 0 10
-262144 -1 -1;
#X obj 388 306 bng 15 250 50 0 empty empty Calculate_A 17 7 0 10 -262144
-1 -1;
#X obj 169 306 bng 15 250 50 0 empty empty Calculate_B 17 7 0 10 -262144
-1 -1;
#X obj 880 465 /;
#X msg 880 442 1;
#X obj 895 420 + 1;
#X obj 895 399 +;
#X msg 841 354 1.22142;
#X obj 866 321 lset;
#X obj 473 153 r \$0-K;
#X obj 458 174 *;
#X msg 440 133 2;
#X obj 440 153 sqrt;
#X obj 545 132 r \$0-Ksquared;
#X obj 528 159 *;
#X msg 515 132 1;
#X text 904 465 norm;
#X obj 234 208 r \$0-K;
#X obj 219 229 *;
#X obj 201 208 sqrt;
#X obj 304 188 r \$0-Ksquared;
#X obj 289 208 *;
#X obj 201 188 * 2;
#X obj 231 163 f;
#X obj 246 142 r \$0-V;
#X obj 231 124 bng 15 250 50 0 empty empty empty 17 7 0 10 -262144
-1 -1;
#X obj 662 463 + 1;
#X obj 671 197 r \$0-K;
#X obj 656 218 *;
#X obj 638 197 sqrt;
#X obj 741 177 r \$0-Ksquared;
#X obj 726 197 *;
#X obj 638 177 * 2;
#X obj 662 152 f;
#X obj 683 131 r \$0-V;
#X obj 662 125 bng 15 250 50 0 empty empty empty 17 7 0 10 -262144
-1 -1;
#X obj 629 359 lset;
#X msg 642 409 2.05052;
#X obj 662 441 +;
#X obj 42 144 r \$0-K;
#X obj 27 165 *;
#X msg 9 124 2;
#X obj 9 144 sqrt;
#X obj 114 124 r \$0-Ksquared;
#X obj 97 151 *;
#X msg 84 124 1;
#X obj 662 483 *;
#X text 686 483 a0;
#X obj 484 459 * 2;
#X obj 484 482 *;
#X obj 484 436 - 1;
#X text 508 482 a1;
#X obj 320 360 lset;
#X msg 320 398 2.05052;
#X obj 320 419 * -1;
#X obj 320 439 + 1;
#X obj 320 461 +;
#X text 344 481 a2;
#X obj 320 482 *;
#X obj 201 444 - 1;
#X obj 201 463 * 2;
#X obj 201 482 *;
#X text 225 483 b1;
#X obj 38 360 lset;
#X msg 38 398 1.22142;
#X obj 38 419 * -1;
#X obj 38 439 + 1;
#X obj 38 461 +;
#X obj 38 482 *;
#X text 62 481 b2;
#X obj 27 189 s \$0-HIGHSHELF_3;
#X obj 219 249 s \$0-HIGHSHELF_1;
#X obj 458 198 s \$0-HIGHSHELF_1;
#X obj 656 238 s \$0-HIGHSHELF_3;
#X obj 528 178 s \$0-HIGHSHELF_2;
#X obj 726 218 s \$0-HIGHSHELF_4;
#X obj 97 170 s \$0-HIGHSHELF_4;
#X obj 289 228 s \$0-HIGHSHELF_2;
#X text 549 11 norm = 1 / (1 + Math.SQRT2 * K + K * K) \;;
#X text 562 26 a0 = (V + Math.sqrt(2*V) * K + K * K) * norm \;;
#X text 563 41 a1 = 2 * (K * K - V) * norm \;;
#X text 564 56 a2 = (V - Math.sqrt(2*V) * K + K * K) * norm \;;
#X text 564 70 b1 = 2 * (K * K - 1) * norm \;;
#X text 564 84 b2 = (1 - Math.SQRT2 * K + K * K) * norm \;;
#X obj 866 300 r \$0-HIGHSHELF_1;
#X obj 629 335 r \$0-HIGHSHELF_3;
#X obj 320 336 r \$0-HIGHSHELF_3;
#X obj 38 336 r \$0-HIGHSHELF_1;
#X msg 961 400 1;
#X obj 961 362 lset;
#X obj 961 341 r \$0-HIGHSHELF_5;
#X obj 802 321 t b b b b;
#X msg 741 125 1;
#X obj 741 145 s \$0-HIGHSHELF_5;
#X obj 12 241 s \$0-HIGHSHELF_5;
#X obj 554 260 s \$0-HIGHSHELF_6;
#X obj 37 214 s \$0-HIGHSHELF_6;
#X msg 741 441 2.81838;
#X obj 741 403 lset;
#X obj 579 359 t b b b;
#X msg 530 461 2.81838;
#X obj 530 441 lset;
#X obj 741 382 r \$0-HIGHSHELF_6;
#X obj 530 420 r \$0-HIGHSHELF_6;
#X msg 368 460 2.81838;
#X obj 368 440 lset;
#X obj 368 419 r \$0-HIGHSHELF_6;
#X obj 447 379 t b b;
#X obj 263 371 t b b b;
#X msg 152 365 1;
#X obj 152 346 lset;
#X obj 152 327 r \$0-HIGHSHELF_5;
#X obj 225 389 t b b;
#X msg 98 457 1;
#X obj 98 438 lset;
#X obj 98 419 r \$0-HIGHSHELF_5;
#X obj -15 359 t b b b;
#X text 6 11 norm = 1 / (V + Math.sqrt(2*V) * K + K * K) \;;
#X text 19 25 a0 = (1 + Math.SQRT2 * K + K * K) * norm \;;
#X text 20 39 a1 = 2 * (K * K - 1) * norm \;;
#X text 20 53 a2 = (1 - Math.SQRT2 * K + K * K) * norm \;;
#X text 20 67 b1 = 2 * (K * K - V) * norm \;;
#X text 20 80 b2 = (V - Math.sqrt(2*V) * K + K * K) * norm \;;
#X obj 95 391 r \$0-Ksquared;
#X obj 202 418 f;
#X obj 187 347 r \$0-Ksquared;
#X obj 909 322 r \$0-Ksquared;
#X obj 693 357 r \$0-Ksquared;
#X obj 486 405 f;
#X obj 499 384 r \$0-Ksquared;
#X obj 375 379 f;
#X obj 388 358 r \$0-Ksquared;
#X connect 5 0 1 0;
#X connect 6 0 0 0;
#X connect 7 0 2 0;
#X connect 8 0 3 0;
#X connect 9 0 4 0;
#X connect 10 0 13 0;
#X connect 11 0 10 0;
#X connect 12 0 14 0;
#X connect 13 0 20 0;
#X connect 13 1 19 0;
#X connect 14 0 13 1;
#X connect 17 0 8 0;
#X connect 17 1 9 0;
#X connect 17 2 6 0;
#X connect 17 3 5 0;
#X connect 17 4 7 0;
#X connect 18 0 17 0;
#X connect 19 0 21 0;
#X connect 19 1 33 0;
#X connect 19 1 37 0;
#X connect 19 1 57 0;
#X connect 19 1 114 0;
#X connect 20 0 21 0;
#X connect 20 1 47 0;
#X connect 20 1 67 0;
#X connect 20 1 63 0;
#X connect 21 0 18 0;
#X connect 21 1 24 0;
#X connect 21 2 23 0;
#X connect 21 3 22 0;
#X connect 22 0 113 0;
#X connect 23 0 121 0;
#X connect 23 0 129 0;
#X connect 23 0 130 0;
#X connect 24 0 134 0;
#X connect 24 0 138 0;
#X connect 25 0 68 1;
#X connect 25 0 71 1;
#X connect 25 0 80 1;
#X connect 25 0 83 1;
#X connect 25 0 90 1;
#X connect 26 0 25 0;
#X connect 27 0 25 1;
#X connect 28 0 27 0;
#X connect 29 0 28 0;
#X connect 30 0 29 0;
#X connect 31 0 32 1;
#X connect 32 0 94 0;
#X connect 33 0 34 0;
#X connect 34 0 32 0;
#X connect 35 0 36 1;
#X connect 36 0 96 0;
#X connect 37 0 36 0;
#X connect 39 0 40 1;
#X connect 40 0 93 0;
#X connect 41 0 40 0;
#X connect 42 0 43 1;
#X connect 43 0 99 0;
#X connect 44 0 41 0;
#X connect 45 0 44 0;
#X connect 45 0 43 0;
#X connect 45 0 116 0;
#X connect 46 0 45 1;
#X connect 47 0 45 0;
#X connect 48 0 68 0;
#X connect 49 0 50 1;
#X connect 50 0 95 0;
#X connect 51 0 50 0;
#X connect 52 0 53 1;
#X connect 53 0 97 0;
#X connect 54 0 51 0;
#X connect 55 0 54 0;
#X connect 55 0 53 0;
#X connect 55 0 117 0;
#X connect 56 0 55 1;
#X connect 57 0 55 0;
#X connect 58 0 59 0;
#X connect 59 0 60 0;
#X connect 60 0 48 0;
#X connect 61 0 62 1;
#X connect 62 0 92 0;
#X connect 63 0 64 0;
#X connect 64 0 62 0;
#X connect 65 0 66 1;
#X connect 66 0 98 0;
#X connect 67 0 66 0;
#X connect 67 0 118 0;
#X connect 68 0 6 1;
#X connect 70 0 71 0;
#X connect 71 0 5 1;
#X connect 72 0 70 0;
#X connect 74 0 75 0;
#X connect 75 0 76 0;
#X connect 76 0 77 0;
#X connect 77 0 78 0;
#X connect 78 0 80 0;
#X connect 80 0 7 1;
#X connect 81 0 82 0;
#X connect 82 0 83 0;
#X connect 83 0 8 1;
#X connect 85 0 86 0;
#X connect 86 0 87 0;
#X connect 87 0 88 0;
#X connect 88 0 89 0;
#X connect 89 0 90 0;
#X connect 90 0 9 1;
#X connect 106 0 30 0;
#X connect 107 0 58 0;
#X connect 108 0 74 0;
#X connect 109 0 85 0;
#X connect 110 0 27 1;
#X connect 111 0 110 0;
#X connect 112 0 111 0;
#X connect 113 0 26 0;
#X connect 113 1 29 0;
#X connect 113 3 110 0;
#X connect 114 0 115 0;
#X connect 119 0 48 1;
#X connect 120 0 119 0;
#X connect 121 0 59 0;
#X connect 121 2 119 0;
#X connect 122 0 72 1;
#X connect 123 0 122 0;
#X connect 124 0 120 0;
#X connect 125 0 123 0;
#X connect 126 0 77 1;
#X connect 127 0 126 0;
#X connect 128 0 127 0;
#X connect 129 0 150 0;
#X connect 129 1 122 0;
#X connect 130 0 75 0;
#X connect 130 1 152 0;
#X connect 130 2 126 0;
#X connect 131 0 81 1;
#X connect 132 0 131 0;
#X connect 133 0 132 0;
#X connect 134 0 146 0;
#X connect 134 1 131 0;
#X connect 135 0 88 1;
#X connect 136 0 135 0;
#X connect 137 0 136 0;
#X connect 138 0 86 0;
#X connect 138 2 135 0;
#X connect 145 0 89 1;
#X connect 146 0 81 0;
#X connect 147 0 146 1;
#X connect 148 0 28 1;
#X connect 149 0 60 1;
#X connect 150 0 72 0;
#X connect 151 0 150 1;
#X connect 152 0 78 1;
#X connect 153 0 152 1;
#X restore 407 456 pd HIGHSHELF;
#X obj 211 577 outlet A0;
#X obj 271 577 outlet A1;
#X obj 331 577 outlet A2;
#X obj 90 555 * -1;
#X obj 150 555 * -1;
#X obj 90 577 outlet B0;
#X obj 150 577 outlet B1;
#X text 90 617 Pure Data's [biquad~] objects reverses the sign of the
feedback coefficients compared to the website below.;
#X obj 16 30 clip 10 22050;
#X obj 188 28 clip 0 1e+06;
#X msg 141 226 \; \$1-type lowpass \; \$1-set_gain 2 \; \$1-set_q 1
\; \$1-set_fc 2500 \;;
#X obj 333 422 gate8;
#X connect 0 0 1 0;
#X connect 0 1 2 0;
#X connect 0 2 3 0;
#X connect 0 3 4 0;
#X connect 0 4 5 0;
#X connect 0 5 6 0;
#X connect 0 6 7 0;
#X connect 1 0 74 0;
#X connect 2 0 74 0;
#X connect 3 0 74 0;
#X connect 4 0 74 0;
#X connect 5 0 74 0;
#X connect 6 0 74 0;
#X connect 7 0 74 0;
#X connect 8 0 74 0;
#X connect 9 0 71 0;
#X connect 10 0 72 0;
#X connect 11 0 17 0;
#X connect 12 0 45 0;
#X connect 15 0 43 0;
#X connect 16 0 40 0;
#X connect 17 0 38 0;
#X connect 19 0 0 0;
#X connect 20 0 14 0;
#X connect 20 1 22 0;
#X connect 20 2 23 0;
#X connect 21 0 25 0;
#X connect 22 0 21 0;
#X connect 23 0 24 0;
#X connect 24 0 21 1;
#X connect 28 0 30 0;
#X connect 29 0 28 1;
#X connect 30 0 33 0;
#X connect 31 0 13 0;
#X connect 31 1 28 0;
#X connect 31 2 29 0;
#X connect 31 3 32 0;
#X connect 32 0 30 1;
#X connect 33 0 34 0;
#X connect 33 0 59 0;
#X connect 35 0 66 0;
#X connect 35 1 67 0;
#X connect 35 2 63 0;
#X connect 35 3 64 0;
#X connect 35 4 65 0;
#X connect 36 0 74 1;
#X connect 38 0 39 0;
#X connect 38 1 20 0;
#X connect 40 0 41 0;
#X connect 40 1 42 0;
#X connect 43 0 44 0;
#X connect 43 1 31 0;
#X connect 45 0 37 0;
#X connect 45 1 18 0;
#X connect 46 0 47 0;
#X connect 47 0 73 0;
#X connect 49 0 47 0;
#X connect 50 0 66 0;
#X connect 50 1 67 0;
#X connect 50 2 63 0;
#X connect 50 3 64 0;
#X connect 50 4 65 0;
#X connect 51 0 66 0;
#X connect 51 1 67 0;
#X connect 51 2 63 0;
#X connect 51 3 64 0;
#X connect 51 4 65 0;
#X connect 52 0 66 0;
#X connect 52 1 67 0;
#X connect 52 2 63 0;
#X connect 52 3 64 0;
#X connect 52 4 65 0;
#X connect 53 0 66 0;
#X connect 53 1 67 0;
#X connect 53 2 63 0;
#X connect 53 3 64 0;
#X connect 53 4 65 0;
#X connect 54 0 31 0;
#X connect 55 0 42 0;
#X connect 56 0 20 0;
#X connect 57 0 66 0;
#X connect 57 1 67 0;
#X connect 57 2 63 0;
#X connect 57 3 64 0;
#X connect 57 4 65 0;
#X connect 58 0 60 0;
#X connect 59 0 58 0;
#X connect 59 1 58 1;
#X connect 61 0 45 0;
#X connect 62 0 66 0;
#X connect 62 1 67 0;
#X connect 62 2 63 0;
#X connect 62 3 64 0;
#X connect 62 4 65 0;
#X connect 66 0 68 0;
#X connect 67 0 69 0;
#X connect 71 0 15 0;
#X connect 72 0 16 0;
#X connect 74 0 35 0;
#X connect 74 1 50 0;
#X connect 74 2 51 0;
#X connect 74 3 52 0;
#X connect 74 4 53 0;
#X connect 74 5 57 0;
#X connect 74 6 62 0;
