#N canvas 364 452 450 300 10;
#X text 404 3 pdx;
#X obj 184 148 cadd~;
#X obj 141 262 csub~;
#X obj 179 262 cmult~;
#X obj 225 262 cdiv~;
#X obj 263 262 cexp~;
#X obj 301 262 cconj~;
#X text 45 59 complex arithmetic - Left is real \, right is imaginary
;
#X obj 66 102 number~;
#X obj 143 102 number~;
#X obj 216 102 number~;
#X obj 293 102 number~;
#X text 4 1 [cadd~] - Complex signal addition;
#X text 180 231 See also:;
#X obj 137 177 view~;
#X obj 220 177 view~;
#X connect 1 0 14 0;
#X connect 1 1 15 0;
#X connect 8 0 1 0;
#X connect 9 0 1 1;
#X connect 10 0 1 2;
#X connect 11 0 1 3;
