#N canvas 181 403 279 329 10;
#X obj 2 4 inlet COMPLEX_NUMBER;
#X obj 2 150 unpack 0 0;
#X obj 129 4 inlet COMPLEX_NUMBER;
#X obj 129 148 unpack 0 0;
#X obj 57 242 pack 0 0;
#X obj 57 286 outlet;
#X obj 43 196 + \$1;
#X obj 99 196 + \$2;
#X obj 2 29 route bang;
#X obj 129 51 t a a;
#X obj 9 54 t a a;
#X obj 69 53 t b b;
#X obj 156 73 list prepend set;
#X obj 156 94 list trim;
#X obj 29 79 list prepend set;
#X obj 29 100 list trim;
#X msg 26 123 0 0;
#X msg 146 120 0 0;
#X connect 0 0 8 0;
#X connect 1 0 6 0;
#X connect 1 1 7 0;
#X connect 2 0 9 0;
#X connect 3 0 6 1;
#X connect 3 1 7 1;
#X connect 4 0 5 0;
#X connect 6 0 4 0;
#X connect 7 0 4 1;
#X connect 8 0 11 0;
#X connect 8 1 10 0;
#X connect 9 0 3 0;
#X connect 9 1 12 0;
#X connect 10 0 1 0;
#X connect 10 1 14 0;
#X connect 11 0 16 0;
#X connect 11 1 17 0;
#X connect 12 0 13 0;
#X connect 13 0 17 0;
#X connect 14 0 15 0;
#X connect 15 0 16 0;
#X connect 16 0 1 0;
#X connect 17 0 3 0;
