#N canvas 395 325 368 473 10;
#X obj 22 8 inlet NUMERATOR;
#X obj 22 195 unpack 0 0;
#X obj 156 206 unpack 0 0;
#X obj 156 19 inlet DENOMINATOR;
#X obj 28 380 pack 0 0;
#X text 8 194 a;
#X text 88 195 b;
#X text 147 206 c;
#X text 221 205 d;
#X obj 156 266 *;
#X obj 156 246 t f f;
#X obj 213 266 *;
#X obj 213 246 t f f;
#X obj 178 292 +;
#X obj 22 245 *;
#X obj 22 269 +;
#X obj 50 244 *;
#X obj 22 324 /;
#X obj 87 265 *;
#X obj 87 289 +;
#X obj 115 264 *;
#X obj 87 246 * -1;
#X obj 87 322 /;
#X obj 22 217 t f f;
#X obj 28 400 outlet;
#X text 89 384 _________ + i *_________;
#X text 184 380 bc - ad;
#X text 92 378 ac + bd;
#X text 90 397 c^2 + d^2;
#X text 179 396 c^2 + d^2;
#X obj 252 272 loadbang;
#X obj 279 341 unpack 0 0;
#X obj 252 296 t b b;
#X msg 252 361 0;
#X text 118 288 Spaghetti;
#X obj 279 321 list \$1 \$2;
#X obj 171 76 t a a;
#X obj 49 61 t a a;
#X obj 27 33 route bang;
#X obj 106 60 t b b;
#X msg 66 160 0 0;
#X msg 188 171 0 0;
#X obj 198 108 list prepend set;
#X obj 198 129 list trim;
#X obj 65 103 list prepend set;
#X obj 65 124 list trim;
#X connect 0 0 38 0;
#X connect 1 0 23 0;
#X connect 1 1 16 0;
#X connect 1 1 20 0;
#X connect 2 0 10 0;
#X connect 2 0 14 1;
#X connect 2 0 20 1;
#X connect 2 1 12 0;
#X connect 2 1 16 1;
#X connect 2 1 18 1;
#X connect 3 0 36 0;
#X connect 4 0 24 0;
#X connect 9 0 13 0;
#X connect 10 0 9 0;
#X connect 10 1 9 1;
#X connect 11 0 13 1;
#X connect 12 0 11 0;
#X connect 12 1 11 1;
#X connect 13 0 17 1;
#X connect 13 0 22 1;
#X connect 14 0 15 0;
#X connect 15 0 17 0;
#X connect 16 0 15 1;
#X connect 17 0 4 0;
#X connect 18 0 19 0;
#X connect 19 0 22 0;
#X connect 20 0 19 1;
#X connect 21 0 18 0;
#X connect 22 0 4 1;
#X connect 23 0 14 0;
#X connect 23 1 21 0;
#X connect 30 0 32 0;
#X connect 31 0 10 0;
#X connect 31 0 20 1;
#X connect 31 0 14 1;
#X connect 31 1 12 0;
#X connect 31 1 18 1;
#X connect 31 1 16 1;
#X connect 32 0 33 0;
#X connect 32 1 35 0;
#X connect 33 0 21 0;
#X connect 33 0 16 0;
#X connect 33 0 20 0;
#X connect 35 0 31 0;
#X connect 36 0 2 0;
#X connect 36 1 42 0;
#X connect 37 0 1 0;
#X connect 37 1 44 0;
#X connect 38 0 39 0;
#X connect 38 1 37 0;
#X connect 39 0 40 0;
#X connect 39 1 41 0;
#X connect 40 0 1 0;
#X connect 41 0 2 0;
#X connect 42 0 43 0;
#X connect 43 0 41 0;
#X connect 44 0 45 0;
#X connect 45 0 40 0;
