#N canvas 657 455 241 127 10;
#X obj 10 8 inlet W;
#X text 58 30 e^(j * W) = cos(W) + sin(W);
#X obj 10 80 pack 0 0;
#X obj 10 57 cos;
#X obj 55 57 sin;
#X obj 10 32 t f f;
#X obj 10 106 outlet COMPLEX_EXP;
#X connect 0 0 5 0;
#X connect 2 0 6 0;
#X connect 3 0 2 0;
#X connect 4 0 2 1;
#X connect 5 0 3 0;
#X connect 5 1 4 0;
