#N canvas 930 435 470 337 10;
#X text 435 -1 pdx;
#X obj 114 188 lset;
#X obj 196 172 unpack 0 0;
#X floatatom 196 192 5 0 0 0 - - -;
#X floatatom 253 192 5 0 0 0 - - -;
#X obj 312 162 print COMPLEX;
#N canvas 51 243 403 221 META 0;
#X text 12 25 LICENSE SIBSD;
#X text 12 5 KEYWORDS complex math;
#X text 13 82 OUTLET list;
#X text 13 122 AUTHOR;
#X text 13 142 WEBSITE http://www.intrinsic-audio.com;
#X text 13 162 RELEASE_DATE 2015;
#X text 13 182 HELP_PATCH_AUTHORS . This help patch was created for
the pdx framework.;
#X text 12 45 DESCRIPTION complex exponential;
#X text 12 65 INLET_0 float;
#X text 13 102 LIBRARY pdx;
#X restore 400 301 pd META;
#X text 28 278 Related Patches:;
#X obj 164 298 cexp;
#X obj 194 298 cmag;
#X obj 224 298 csymbol;
#X obj 272 298 complex;
#X text 158 278 Complex Arithematic;
#X obj 67 298 csub;
#X obj 36 298 cadd;
#X obj 98 298 cmult;
#X obj 134 298 cdiv;
#X text 5 2 [cexp] - Complex exponential: e;
#X text 191 -4 ix;
#X text 206 2 =;
#X text 216 3 cos(x) + i * sin(x);
#X text 34 32 Complex exponential: Calculates the complex exponential
of a real number \, given by Euler's equation.;
#X obj 145 145 cexp;
#X obj 50 99 pi;
#X obj 50 81 bng 15 250 50 0 empty empty empty 17 7 0 10 -262144 -1
-1;
#X floatatom 145 122 5 0 0 0 - - -;
#X text 75 98 <- due to 32 bit precision \, this won't be exactly -1
+ 0i;
#X obj 29 124 cexp;
#X floatatom 29 169 5 0 0 0 - - -;
#X text 20 193 e;
#X text 26 185 iπ;
#X text 38 193 + 1 = 0;
#X msg 114 212;
#X obj 320 298 cconj;
#X obj 29 146 cadd 1;
#X obj 114 168 csymbol;
#X connect 1 0 32 0;
#X connect 2 0 3 0;
#X connect 2 1 4 0;
#X connect 22 0 2 0;
#X connect 22 0 5 0;
#X connect 22 0 35 0;
#X connect 23 0 22 0;
#X connect 23 0 27 0;
#X connect 24 0 23 0;
#X connect 25 0 22 0;
#X connect 27 0 34 0;
#X connect 34 0 28 0;
#X connect 35 0 1 0;
