#N canvas 519 49 350 281 10;
#N canvas 871 268 136 78 \$0-guts 0;
#X obj 5 45 outlet~;
#X obj 68 45 outlet~;
#N canvas 1058 207 428 139 \$0-shell 0;
#X obj 0 100 outlet~ L;
#X obj 100 100 outlet~ R;
#X restore 5 5 pd \$0-shell;
#X connect 2 0 0 0;
#X connect 2 1 1 0;
#X restore -15 215 pd \$0-guts;
#X obj -15 245 outlet~;
#X obj 42 245 outlet~;
#X obj 67 47 bng 15 250 50 0 empty empty empty 17 7 0 10 -262144 -1
-1;
#X obj -15 -15 inlet MESSAGES;
#N canvas 744 370 339 344 \$0-delete() 0;
#X obj -5 -2 r \$0-delete();
#X text 79 -3 <channel#>;
#X obj -5 188 spigot;
#X obj 28 138 == 0;
#X obj 40 188 spigot;
#X obj 73 138 == 1;
#X obj 28 38 t b f;
#X obj 55 58 s \$0-manager;
#X obj 28 98 f;
#X obj 55 78 r _\$0-manager;
#X obj 28 118 t f f;
#X obj 67 228 s \$0-delete_channel;
#X obj 40 248 pack 0 \$0;
#X obj -5 308 print ERROR - attempted to delete nonexistent channel
;
#X obj 40 288 s pd-\$0-shell;
#X obj -5 18 t f f;
#X obj -5 158 t f f;
#X obj 40 208 t f f;
#X msg 40 268 find \$2-ch\$1 1 \, cut \, vis 0;
#X connect 0 0 15 0;
#X connect 2 0 13 0;
#X connect 3 0 2 1;
#X connect 4 0 17 0;
#X connect 5 0 4 1;
#X connect 6 0 8 0;
#X connect 6 1 7 0;
#X connect 8 0 10 0;
#X connect 9 0 8 1;
#X connect 10 0 3 0;
#X connect 10 1 5 0;
#X connect 12 0 18 0;
#X connect 15 0 16 0;
#X connect 15 1 6 0;
#X connect 16 0 2 0;
#X connect 16 1 4 0;
#X connect 17 0 12 0;
#X connect 17 1 11 0;
#X connect 18 0 14 0;
#X restore -15 145 pd \$0-delete();
#N canvas 346 353 399 441 \$0-create() 0;
#X obj -38 -1 r \$0-create();
#X obj -7 379 s;
#X obj 26 419 s pd-\$0-shell;
#X obj 26 299 list;
#X obj 26 219 t f f;
#X text 47 -1 <channel#> <mono/stereo> <type> <args...>;
#X obj -38 19 list split 1;
#X obj -4 39 list split 1;
#X obj 26 319 list trim;
#N canvas 392 404 396 298 \$0-make_channel 0;
#X msg 14 154 obj 0 80 osc~ 220;
#X obj -33 114 t b b b b a;
#X msg -2 174 obj 0 125 outlet~ \, obj 100 125 outlet~ \, connect 0
0 1 0 \, connect 1 0 2 0 \, connect 2 0 3 0 \,;
#X msg -18 214 connect 2 0 4 0;
#X obj -33 74 inlet;
#X obj 30 254 outlet;
#X obj 14 74 list trim;
#X obj 14 54 list prepend set obj 0 80;
#X obj -18 -6 r \$0-stereo;
#X msg -18 14 set connect 2 \$1 4 0;
#X obj 14 34 r \$0-type;
#X msg -33 234 loadbang \, vis 0;
#X obj -33 94 pack 0 \$0;
#X msg 30 134 obj 0 0 r \$2-channel\$1 \, obj 0 25 list trim \,;
#X connect 0 0 5 0;
#X connect 1 0 11 0;
#X connect 1 1 3 0;
#X connect 1 2 2 0;
#X connect 1 3 0 0;
#X connect 1 4 13 0;
#X connect 2 0 5 0;
#X connect 3 0 5 0;
#X connect 4 0 12 0;
#X connect 6 0 0 0;
#X connect 7 0 6 0;
#X connect 8 0 9 0;
#X connect 9 0 3 0;
#X connect 10 0 7 0;
#X connect 11 0 5 0;
#X connect 12 0 1 0;
#X connect 13 0 5 0;
#X restore -7 339 pd \$0-make_channel;
#X obj -4 99 s \$0-stereo;
#X obj 30 119 s \$0-type;
#X obj -38 199 t b b f f f;
#X obj -38 259 f;
#X obj -61 179 r \$0-reset;
#X obj -98 159 r \$0-delete_channel;
#N canvas 392 236 198 151 \$0-counter 0;
#X obj -1 61 f;
#X obj 26 81 + 1;
#X obj 0 82 - 1;
#X obj 26 61 f;
#X msg 70 32 0;
#X obj -1 27 b;
#X obj 26 26 b;
#X obj -1 2 inlet -;
#X obj 47 2 inlet reset;
#X obj 120 2 inlet +;
#X obj 8 104 outlet;
#X connect 0 0 2 0;
#X connect 1 0 0 1;
#X connect 1 0 3 1;
#X connect 1 0 10 0;
#X connect 2 0 0 1;
#X connect 2 0 3 1;
#X connect 2 0 10 0;
#X connect 3 0 1 0;
#X connect 4 0 3 1;
#X connect 4 0 0 1;
#X connect 5 0 0 0;
#X connect 6 0 3 0;
#X connect 7 0 5 0;
#X connect 8 0 4 0;
#X connect 9 0 6 0;
#X restore -98 219 pd \$0-counter;
#X obj -38 279 + 1;
#X obj -4 59 sel stereo mono;
#X msg -4 79 1;
#X msg 39 79 0;
#X obj 83 99 print ERROR - invalid syntax;
#X obj 83 79 list trim;
#X msg -38 399 connect \$1 0 0 0 \, connect \$1 1 1 0 \,;
#X obj -11 139 s \$0-add_channel;
#X obj 26 239 * 80;
#X msg 26 259 obj \$1 0 pd;
#X obj -38 119 t f f;
#X obj 9 359 makefilename pd-\$0-ch%s;
#X obj 53 279 makefilename \$0-ch%s;
#X connect 0 0 6 0;
#X connect 3 0 8 0;
#X connect 4 0 25 0;
#X connect 4 1 29 0;
#X connect 6 0 27 0;
#X connect 6 1 7 0;
#X connect 7 0 18 0;
#X connect 7 1 11 0;
#X connect 8 0 2 0;
#X connect 9 0 1 0;
#X connect 12 0 13 0;
#X connect 12 1 16 2;
#X connect 12 2 9 0;
#X connect 12 3 28 0;
#X connect 12 4 4 0;
#X connect 13 0 17 0;
#X connect 14 0 16 1;
#X connect 15 0 16 0;
#X connect 16 0 13 1;
#X connect 17 0 23 0;
#X connect 18 0 19 0;
#X connect 18 1 20 0;
#X connect 18 2 22 0;
#X connect 19 0 10 0;
#X connect 20 0 10 0;
#X connect 22 0 21 0;
#X connect 23 0 2 0;
#X connect 25 0 26 0;
#X connect 26 0 3 0;
#X connect 27 0 12 0;
#X connect 27 1 24 0;
#X connect 28 0 1 1;
#X connect 29 0 3 1;
#X restore -15 125 pd \$0-create();
#X obj 67 85 s \$0-reset();
#X obj 26 65 s \$0-delete();
#N canvas 886 23 549 163 tests 0;
#X obj 5 133 outlet;
#X msg 5 1 reset;
#X msg 100 101 delete 0;
#X msg 160 101 delete 1;
#X msg 67 21 init 0 mono phasor~;
#X msg 11 25 view;
#X obj 365 59 hsl 128 15 0 127 0 0 empty empty empty -2 -8 0 10 -262144
-1 -1 0 1;
#X obj 405 41 hsl 128 15 0 127 0 0 empty empty empty -2 -8 0 10 -262144
-1 -1 0 1;
#X msg 362 103 0 \$1;
#X obj 402 81 mtof;
#X obj 362 82 mtof;
#X msg 86 61 init 2.4 mono phasor~;
#X msg 94 81 init 3.7 stereo adc~;
#X msg 57 1 init 0 mono osc~ 220;
#X msg 224 101 delete 2.4;
#X msg 402 103 2.4 \$1;
#X msg 295 101 delete 3.7;
#X msg 76 41 init 1 stereo adc~;
#X connect 1 0 0 0;
#X connect 2 0 0 0;
#X connect 3 0 0 0;
#X connect 4 0 0 0;
#X connect 5 0 0 0;
#X connect 6 0 10 0;
#X connect 7 0 9 0;
#X connect 8 0 0 0;
#X connect 9 0 15 0;
#X connect 10 0 8 0;
#X connect 11 0 0 0;
#X connect 12 0 0 0;
#X connect 13 0 0 0;
#X connect 14 0 0 0;
#X connect 15 0 0 0;
#X connect 16 0 0 0;
#X connect 17 0 0 0;
#X restore 168 -12 pd tests;
#N canvas 1087 556 191 163 \$0-manager 0;
#X obj 23 22 r \$0-add_channel;
#X obj 67 42 r \$0-delete_channel;
#X obj 123 105 r \$0-reset;
#X obj 2 2 r \$0-manager;
#X obj 2 142 s _\$0-manager;
#N canvas 648 116 546 345 name_manager 0;
#X obj 10 0 inlet NAME_EXISTS?;
#X obj 128 0 inlet ADD_NAME;
#X obj 431 0 inlet CLEAR;
#X obj 253 0 inlet ALL;
#X obj 10 81 t b a b;
#X obj 29 113 t b a;
#X obj 104 180 symbol;
#X obj 29 182 symbol;
#X msg 25 224 1;
#X obj 10 261 f;
#X msg 49 244 0;
#X obj 10 311 outlet;
#X msg 431 111 set;
#X obj 253 25 bng 15 250 50 0 empty empty empty 17 7 0 10 -262144 -1
-1;
#X msg 253 138;
#X obj 29 204 select symbol;
#X obj 145 68 spigot;
#X msg 128 273 0;
#X msg 179 273 1;
#X obj 128 23 t b a a b;
#X obj 178 45 == 0;
#X obj 344 0 inlet DELETE;
#X msg 361 226;
#X obj 378 291 symbol;
#X obj 361 271 symbol;
#X obj 361 313 select symbol;
#X msg 395 111 set;
#X msg 335 138;
#X obj 344 23 t b b a b;
#X msg 371 199 set;
#X obj 344 111 t b b;
#X obj 431 26 bng 15 250 50 0 empty empty empty 17 7 0 10 -262144 -1
-1;
#X obj 253 294 outlet ALL;
#N canvas 848 97 152 141 liter 0;
#X obj -4 -432 list split 1;
#X obj -3 -392 list;
#X obj -4 -412 t b a;
#X obj 23 -372 outlet ELEMENT;
#X obj -4 -470 inlet LIST_TO_ITERATE;
#X obj -4 -451 t a;
#X connect 0 0 2 0;
#X connect 0 1 1 1;
#X connect 1 0 5 0;
#X connect 2 0 1 0;
#X connect 2 1 3 0;
#X connect 4 0 5 0;
#X connect 5 0 0 0;
#X restore 29 160 pd liter;
#N canvas 688 171 154 165 ggate 0;
#X obj -249 -112 spigot;
#X obj -301 -136 == 0;
#X obj -267 -221 inlet;
#X obj -334 -220 inlet;
#X obj -249 -89 outlet;
#X obj -334 -90 outlet;
#X obj -334 -113 spigot;
#X obj -267 -156 t f f;
#X obj -334 -186 t a a;
#X obj -240 -135 > 0;
#X obj -247 -200 loadbang;
#X msg -247 -180 0;
#X connect 0 0 4 0;
#X connect 1 0 6 1;
#X connect 2 0 7 0;
#X connect 3 0 8 0;
#X connect 6 0 5 0;
#X connect 7 0 1 0;
#X connect 7 1 9 0;
#X connect 8 0 6 0;
#X connect 8 1 0 0;
#X connect 9 0 0 1;
#X connect 10 0 11 0;
#X connect 11 0 7 0;
#X restore 10 290 pd ggate;
#N canvas 848 97 152 141 liter 0;
#X obj -4 -432 list split 1;
#X obj -3 -392 list;
#X obj -4 -412 t b a;
#X obj 23 -372 outlet ELEMENT;
#X obj -4 -470 inlet LIST_TO_ITERATE;
#X obj -4 -451 t a;
#X connect 0 0 2 0;
#X connect 0 1 1 1;
#X connect 1 0 5 0;
#X connect 2 0 1 0;
#X connect 2 1 3 0;
#X connect 4 0 5 0;
#X connect 5 0 0 0;
#X restore 361 249 pd liter;
#X obj 335 159 list prepend set;
#X obj 335 179 list trim;
#X obj 261 111 list trim;
#X obj 261 90 list prepend add2;
#X obj 145 111 list trim;
#X obj 145 92 list prepend add2;
#X msg 29 138;
#X obj 404 71 makefilename;
#X connect 0 0 4 0;
#X connect 1 0 19 0;
#X connect 2 0 31 0;
#X connect 3 0 13 0;
#X connect 4 0 9 0;
#X connect 4 1 5 0;
#X connect 4 2 10 0;
#X connect 5 0 42 0;
#X connect 5 1 6 0;
#X connect 6 0 15 1;
#X connect 7 0 15 0;
#X connect 8 0 9 1;
#X connect 9 0 34 0;
#X connect 10 0 9 1;
#X connect 12 0 42 0;
#X connect 12 0 14 0;
#X connect 12 0 22 0;
#X connect 12 0 27 0;
#X connect 13 0 14 0;
#X connect 14 0 32 0;
#X connect 15 0 8 0;
#X connect 16 0 41 0;
#X connect 17 0 34 1;
#X connect 18 0 34 1;
#X connect 19 0 17 0;
#X connect 19 1 16 0;
#X connect 19 2 4 0;
#X connect 19 3 18 0;
#X connect 20 0 16 1;
#X connect 21 0 28 0;
#X connect 22 0 35 0;
#X connect 23 0 25 1;
#X connect 24 0 25 0;
#X connect 25 1 39 0;
#X connect 26 0 42 0;
#X connect 26 0 14 0;
#X connect 26 0 27 0;
#X connect 27 0 36 0;
#X connect 28 0 30 0;
#X connect 28 1 22 0;
#X connect 28 2 23 0;
#X connect 28 3 26 0;
#X connect 29 0 22 0;
#X connect 30 0 27 0;
#X connect 30 1 29 0;
#X connect 31 0 12 0;
#X connect 33 0 7 0;
#X connect 34 0 11 0;
#X connect 34 1 20 0;
#X connect 35 0 24 0;
#X connect 36 0 37 0;
#X connect 37 0 22 0;
#X connect 38 0 42 0;
#X connect 38 0 27 0;
#X connect 38 0 14 0;
#X connect 39 0 38 0;
#X connect 40 0 42 0;
#X connect 40 0 22 0;
#X connect 40 0 14 0;
#X connect 41 0 40 0;
#X connect 42 0 33 0;
#X restore 2 122 pd name_manager;
#X obj 2 102 makefilename ch-%s;
#X obj 23 82 makefilename ch-%s;
#X obj 67 62 makefilename ch-%s;
#X connect 0 0 7 0;
#X connect 1 0 8 0;
#X connect 2 0 5 4;
#X connect 3 0 6 0;
#X connect 5 0 4 0;
#X connect 6 0 5 0;
#X connect 7 0 5 1;
#X connect 8 0 5 3;
#X restore -15 185 pd \$0-manager;
#X obj 150 145 list split 1;
#X obj 150 245 s;
#X obj 150 185 list;
#X obj 150 205 list trim;
#N canvas 1087 369 353 164 \$0-reset() 0;
#X obj 44 76 s pd-\$0-shell;
#X obj 24 116 s pd-\$0-guts;
#X msg 24 96 connect 2 0 0 0 \, connect 2 1 1 0 \,;
#X obj 5 16 t b b b;
#X obj 44 36 f \$0;
#X obj 5 136 s \$0-reset;
#X obj 5 -4 r \$0-reset();
#X msg 44 56 clear \, obj 0 100 outlet~ L \, obj 100 100 outlet~ R
;
#X connect 2 0 1 0;
#X connect 3 0 5 0;
#X connect 3 1 2 0;
#X connect 3 2 4 0;
#X connect 4 0 7 0;
#X connect 6 0 3 0;
#X connect 7 0 0 0;
#X restore -15 165 pd \$0-reset();
#X obj 248 -16 cnv 15 83 36 empty empty empty 20 12 0 14 -224695 -66577
0;
#N canvas 592 149 392 503 README 0;
#X text 44 232 delete <channel#>;
#X text 44 250 reset;
#X text 6 0 channels~.pd - mono/stereo channel manager;
#X text 22 60 You can specify the type and arguments of each channel.
There can be any number of channels at one time \, so long as the CPU
can handle it.;
#X text 23 108 For projects with many patches open at once \, this
can be more efficient than independently opening each patch.;
#X text 24 289 More info on each:;
#N canvas 61 426 366 165 delete 0;
#X text 7 62 Examples:;
#X msg 33 83 delete 3;
#X msg 33 103 delete 1;
#X msg 33 123 delete -1;
#X text 98 82 Delete Channel 3;
#X text 99 102 Delete Channel 1;
#X text 99 122 Delete Channel -1;
#X text 7 8 "delete" removes a channel. Trying to delete a nonexistent
channel will print an error (but won't really do anything else).;
#X restore 75 314 pd delete;
#N canvas 431 469 377 110 reset 0;
#X text 15 7 "reset" deletes all objects and resets [channels~] to
the initial configuration.;
#X text 20 51 Examples:;
#X msg 49 72 reset;
#X restore 136 314 pd reset;
#X text 22 25 With [channels~] \, you can dynamically create or delete
patches & objects as independent channels.;
#X text 5 344 SENDING MESSAGES TO CHANNELS:;
#X msg 116 415 4 60 127;
#X msg 175 415 4 60 0;
#X text 44 214 init <channel#> <mono/stereo> <type> <args>;
#N canvas 54 84 583 313 init 0;
#X text 28 32 channel #;
#X text 15 170 Examples:;
#X text 202 198 Set channel 3 to mono with [osc~ 300] as the audio
source;
#X text 202 222 Set channel 2 to mono with [phasor~] as the audio source
;
#X text 17 87 Useful info:;
#X text 32 128 Re-declaring a channel will result in an overwrite -
the old patch at that channel will be deleted first.;
#X text 201 246 Set channel -1 to stereo with [your_patch] as the source
;
#X text 203 270 Reset channel -1 to mono with [other_patch] as the
source;
#X text 29 47 mono/stereo;
#X msg 35 198 init 3 mono osc~ 300;
#X msg 35 222 init 2 mono phasor~;
#X msg 34 246 init -1 stereo your_patch;
#X msg 34 270 init -1 mono other_patch;
#X text 10 12 "init" takes the following arguments:;
#X text 31 107 The channel # can be any number \, including negatives
and;
#X text 373 107 decimals.;
#X text 29 63 type & object (or patch) arguments;
#X msg 34 291 init -44.193 stereo adc~;
#X text 203 291 Set channel -44.193 to stereo with [adc~] as the source
;
#X restore 26 314 pd init;
#X text 22 440 There is also a receiver called "\$0-channel#" for each
channel that can be used if you know the \$0 value for the [channels~]
instance.;
#X text 23 194 There are 4 commands - init \, delete \, reset \, &
view:;
#X text 45 268 view;
#N canvas 815 469 389 109 view 0;
#X text 7 7 "view" shows the subpatch containing each channel and can
be useful for debugging.;
#X text 20 51 Examples:;
#X msg 49 72 view;
#X restore 191 314 pd view;
#X text 22 144 You specify whether each channel is stereo or mono when
it is created. The output is always stereo - mono channels send the
same signal to each outlet.;
#X text 23 363 To send messages to individual channels \, send the
message prepended with the channel#. The following would send a note-on
& note-off to channel 4:;
#X restore 259 -7 pd README;
#X obj 168 68 loadbang;
#X obj -15 45 s \$0-init();
#N canvas 14 470 328 332 \$0-init() 0;
#X obj 2 173 spigot;
#X obj 35 123 == 0;
#X obj 47 173 spigot;
#X obj 80 123 == 1;
#X text 75 -37 <channel#> <mono/stereo> <type> <args...>;
#X obj 47 193 t a a;
#X obj 2 -17 t a a;
#X obj 74 233 s \$0-delete();
#X obj 47 253 s \$0-create();
#X obj 2 273 s \$0-create();
#X obj 35 3 list split 1;
#X obj 74 213 list split 1;
#X obj 35 23 t b f;
#X obj 62 43 s \$0-manager;
#X obj 35 83 f;
#X obj 62 63 r _\$0-manager;
#X obj 2 143 t a a;
#X obj 35 103 t f f;
#X obj 2 -37 r \$0-init();
#X connect 0 0 9 0;
#X connect 1 0 0 1;
#X connect 2 0 5 0;
#X connect 3 0 2 1;
#X connect 5 0 8 0;
#X connect 5 1 11 0;
#X connect 6 0 16 0;
#X connect 6 1 10 0;
#X connect 10 0 12 0;
#X connect 11 0 7 0;
#X connect 12 0 14 0;
#X connect 12 1 13 0;
#X connect 14 0 17 0;
#X connect 15 0 14 1;
#X connect 16 0 0 0;
#X connect 16 1 2 0;
#X connect 17 0 1 0;
#X connect 17 1 3 0;
#X connect 18 0 6 0;
#X restore -15 105 pd \$0-init();
#X obj -15 25 route init delete reset view;
#X msg 108 105 vis 1;
#X obj 108 125 s pd-\$0-shell;
#X obj -15 5 list trim;
#X obj 177 225 makefilename \$0-channel%s;
#X obj 150 165 t b f;
#X connect 0 0 1 0;
#X connect 0 1 2 0;
#X connect 3 0 7 0;
#X connect 4 0 24 0;
#X connect 9 0 24 0;
#X connect 11 0 26 0;
#X connect 11 1 13 1;
#X connect 13 0 14 0;
#X connect 14 0 12 0;
#X connect 18 0 7 0;
#X connect 21 0 19 0;
#X connect 21 1 8 0;
#X connect 21 2 3 0;
#X connect 21 3 22 0;
#X connect 21 4 11 0;
#X connect 22 0 23 0;
#X connect 24 0 21 0;
#X connect 25 0 12 1;
#X connect 26 0 13 0;
#X connect 26 1 25 0;
