#N canvas 61 187 469 409 10;
#N canvas 651 23 171 195 lop~ 0;
#X obj 64 10 inlet;
#X obj 13 50 lop~ 1000;
#X obj 13 70 lop~ 1000;
#X obj 13 90 lop~ 1000;
#X obj 13 110 lop~ 1000;
#X obj 13 10 inlet~;
#X obj 13 130 outlet~;
#N canvas 384 23 516 300 expscale 0;
#X obj 14 18 inlet;
#X obj 14 39 / 127;
#X obj 14 106 outlet;
#X obj 14 62 pow 2.5;
#X obj 14 84 * 10000;
#X connect 0 0 1 0;
#X connect 1 0 3 0;
#X connect 3 0 4 0;
#X connect 4 0 2 0;
#X restore 64 30 pd expscale;
#X connect 0 0 7 0;
#X connect 1 0 2 0;
#X connect 2 0 3 0;
#X connect 3 0 4 0;
#X connect 4 0 6 0;
#X connect 5 0 1 0;
#X connect 7 0 1 1;
#X restore 29 228 pd lop~;
#X obj 71 210 hsl 128 15 0 127 0 0 empty empty empty -2 -8 0 10 -262144
-1 -1 0 1;
#X obj 29 191 phasor~;
#X obj 32 153 hsl 128 15 0 127 0 0 empty empty empty -2 -8 0 10 -262144
-1 -1 0 1;
#X obj 29 171 mtof;
#X obj 170 43 vsl 15 128 0 127 0 0 empty empty empty 0 -9 0 10 -262144
-1 -1 0 1;
#X obj 232 40 vsl 15 128 0 12 0 0 empty empty empty 0 -9 0 10 -262144
-1 -1 0 1;
#X obj 289 38 vsl 15 128 0 1 0 0 empty empty empty 0 -9 0 10 -262144
-1 -1 0 1;
#X text 63 -22 all parameters are from 0-127;
#X text 63 0 auto automatically configures the settings for simplicity
;
#X obj 118 314 dac~;
#X obj 118 288 *~ 0.3;
#X text 21 -46 [chorus~] - audio rate chorus effect;
#X obj 118 264 chorus~;
#X obj 268 243 tgl 15 0 empty empty empty 17 7 0 10 -262144 -1 -1 0
1;
#X obj 126 235 line~;
#X text 287 241 On;
#X obj 165 236 line~;
#X text 136 48 rate;
#X text 196 47 depth;
#X text 261 43 mix;
#X obj 207 237 line~;
#X obj 138 188 expscale 50 4;
#X text 431 -41 pdx;
#X connect 0 0 13 0;
#X connect 1 0 0 1;
#X connect 2 0 0 0;
#X connect 3 0 4 0;
#X connect 4 0 2 0;
#X connect 5 0 22 0;
#X connect 6 0 17 0;
#X connect 7 0 21 0;
#X connect 11 0 10 0;
#X connect 11 0 10 1;
#X connect 13 0 11 0;
#X connect 15 0 13 1;
#X connect 22 0 15 0;
