#N canvas 542 460 276 234 10;
#X obj 106 -6 inlet L;
#X obj 155 -6 inlet R;
#X obj -4 95 list;
#X obj -4 115 list split 1;
#X obj 181 54 list length;
#X obj 76 95 list;
#X obj 154 34 t a a;
#X obj 181 74 - 1;
#X obj 76 115 list split;
#X obj 76 155 list prepend;
#X obj 9 165 list;
#X obj -4 135 t b a;
#X obj 9 185 list append;
#X obj -4 34 b;
#X obj 45 34 b;
#X obj 9 205 outlet;
#X obj -3 -6 inlet SET/RESET;
#X obj 97 14 route bang;
#X obj 78 51 list;
#X connect 0 0 13 0;
#X connect 1 0 14 0;
#X connect 2 0 3 0;
#X connect 3 0 11 0;
#X connect 3 1 10 1;
#X connect 4 0 7 0;
#X connect 5 0 8 0;
#X connect 6 0 5 1;
#X connect 6 0 2 1;
#X connect 6 0 18 1;
#X connect 6 0 15 0;
#X connect 6 1 4 0;
#X connect 7 0 8 1;
#X connect 8 0 9 0;
#X connect 8 1 9 1;
#X connect 9 0 2 1;
#X connect 9 0 5 1;
#X connect 9 0 15 0;
#X connect 10 0 12 0;
#X connect 11 0 10 0;
#X connect 11 1 12 1;
#X connect 12 0 2 1;
#X connect 12 0 5 1;
#X connect 12 0 15 0;
#X connect 13 0 2 0;
#X connect 14 0 5 0;
#X connect 16 0 17 0;
#X connect 17 0 18 0;
#X connect 17 1 6 0;
#X connect 18 0 5 1;
#X connect 18 0 2 1;
#X connect 18 0 15 0;
