#N canvas 657 341 189 206 10;
#X obj 8 75 unpack 0 0;
#X obj 8 97 t f f;
#X obj 8 121 *;
#X obj 65 98 t f f;
#X obj 65 122 *;
#X obj 39 145 +;
#X obj 8 10 inlet COMPLEX_NUMBER;
#X obj 39 184 outlet MAGNITUDE;
#X obj 39 165 sqrt;
#X connect 0 0 1 0;
#X connect 0 1 3 0;
#X connect 1 0 2 0;
#X connect 1 1 2 1;
#X connect 2 0 5 0;
#X connect 3 0 4 0;
#X connect 3 1 4 1;
#X connect 4 0 5 1;
#X connect 5 0 8 0;
#X connect 6 0 0 0;
#X connect 8 0 7 0;
