#N canvas 0 22 430 409 10;
#X obj 14 205 unpack 0 0;
#X obj 14 8 inlet COMPLEX_NUMBER;
#X obj 146 8 inlet COMPLEX_NUMBER;
#X obj 146 207 unpack 0 0;
#X obj 14 272 *;
#X text 148 331 (ac - bd) + i(ad + bc);
#X text 3 203 a;
#X text 137 205 c;
#X text 80 204 b;
#X text 213 206 d;
#X obj 71 271 *;
#X obj 43 305 -;
#X obj 14 227 t f f;
#X obj 136 268 *;
#X obj 193 267 *;
#X obj 166 303 +;
#X obj 89 329 pack 0 0;
#X obj 89 352 outlet COMPLEX_PRODUCT;
#X obj 307 168 loadbang;
#X obj 307 190 t b b;
#X msg 307 214 0;
#X obj 335 229 unpack 0 0;
#X obj 336 209 list \$1 \$2;
#X obj 163 75 t a a;
#X obj 41 64 t a a;
#X obj 19 36 route bang;
#X obj 98 63 t b b;
#X msg 58 163 0 0;
#X msg 180 174 0 0;
#X obj 196 113 list prepend set;
#X obj 196 134 list trim;
#X obj 56 103 list prepend set;
#X obj 56 124 list trim;
#X connect 0 0 12 0;
#X connect 0 1 10 0;
#X connect 0 1 14 0;
#X connect 1 0 25 0;
#X connect 2 0 23 0;
#X connect 3 0 4 1;
#X connect 3 0 14 1;
#X connect 3 1 10 1;
#X connect 3 1 13 1;
#X connect 4 0 11 0;
#X connect 10 0 11 1;
#X connect 11 0 16 0;
#X connect 12 0 4 0;
#X connect 12 1 13 0;
#X connect 13 0 15 0;
#X connect 14 0 15 1;
#X connect 15 0 16 1;
#X connect 16 0 17 0;
#X connect 18 0 19 0;
#X connect 19 0 20 0;
#X connect 19 1 22 0;
#X connect 20 0 10 0;
#X connect 20 0 13 0;
#X connect 21 0 4 1;
#X connect 21 0 14 1;
#X connect 21 1 10 1;
#X connect 21 1 13 1;
#X connect 22 0 21 0;
#X connect 23 0 3 0;
#X connect 23 1 29 0;
#X connect 24 0 0 0;
#X connect 24 1 31 0;
#X connect 25 0 26 0;
#X connect 25 1 24 0;
#X connect 26 0 27 0;
#X connect 26 1 28 0;
#X connect 27 0 0 0;
#X connect 28 0 3 0;
#X connect 29 0 30 0;
#X connect 30 0 28 0;
#X connect 31 0 32 0;
#X connect 32 0 27 0;
