#N canvas 0 22 219 236 10;
#X obj 53 61 exp~;
#X obj 99 75 exp~;
#X obj 98 56 *~ -1;
#X obj 67 137 /~ 2;
#X obj 51 32 inlet~;
#X obj 66 161 outlet~;
#X obj 67 102 +~;
#X connect 0 0 6 0;
#X connect 1 0 6 1;
#X connect 2 0 1 0;
#X connect 3 0 5 0;
#X connect 4 0 0 0;
#X connect 4 0 2 0;
#X connect 6 0 3 0;
