#N canvas 0 22 450 300 10;
#X obj 120 42 inlet;
#X obj 120 62 t b f;
#X msg 114 98 1;
#X obj 147 100 tan;
#X obj 131 132 /;
#X obj 134 158 outlet;
#X connect 0 0 1 0;
#X connect 1 0 2 0;
#X connect 1 1 3 0;
#X connect 2 0 4 0;
#X connect 3 0 4 1;
#X connect 4 0 5 0;
