#N canvas 0 22 450 300 10;
#X obj 164 67 inlet;
#N canvas 967 500 450 300 tanh 0;
#X obj 131 47 inlet;
#X obj 129 71 t f f;
#X obj 135 129 /;
#N canvas 872 502 450 300 cosh 0;
#X obj 88 94 exp;
#X obj 118 94 exp;
#X obj 99 132 +;
#X obj 99 153 / 2;
#X obj 117 71 * -1;
#X obj 89 20 inlet;
#X obj 90 41 t f f;
#X obj 98 178 outlet;
#X connect 0 0 2 0;
#X connect 1 0 2 1;
#X connect 2 0 3 0;
#X connect 3 0 7 0;
#X connect 4 0 1 0;
#X connect 5 0 6 0;
#X connect 6 0 0 0;
#X connect 6 1 4 0;
#X restore 161 100 pd cosh;
#N canvas 931 499 450 300 sinh 0;
#X obj 149 64 inlet;
#X obj 152 91 t f f;
#X obj 177 123 * -1;
#X obj 180 147 exp;
#X obj 149 123 exp;
#X obj 158 178 -;
#X obj 158 202 / 2;
#X obj 158 226 outlet;
#X connect 0 0 1 0;
#X connect 1 0 4 0;
#X connect 1 1 2 0;
#X connect 2 0 3 0;
#X connect 3 0 5 1;
#X connect 4 0 5 0;
#X connect 5 0 6 0;
#X connect 6 0 7 0;
#X restore 87 102 pd sinh;
#X obj 136 159 outlet;
#X connect 0 0 1 0;
#X connect 1 0 4 0;
#X connect 1 1 3 0;
#X connect 2 0 5 0;
#X connect 3 0 2 1;
#X connect 4 0 2 0;
#X restore 164 89 pd tanh;
#X obj 164 112 swap 1;
#X obj 164 137 /;
#X obj 165 163 outlet;
#X connect 0 0 1 0;
#X connect 1 0 2 0;
#X connect 2 0 3 0;
#X connect 2 1 3 1;
#X connect 3 0 4 0;
