#N canvas 0 22 450 300 10;
#X obj 163 41 inlet~;
#X obj 121 75 sig~ 1;
#X obj 160 104 /~;
#X obj 163 145 outlet~;
#X obj 175 77 tan~;
#X connect 0 0 4 0;
#X connect 1 0 2 0;
#X connect 2 0 3 0;
#X connect 4 0 2 1;
