#N canvas 1036 591 715 366 10;
#X obj 22 19 inlet inc/dec;
#X obj 127 19 inlet reverse;
#N canvas 777 323 582 538 iterator 0;
#X obj 419 23 inlet;
#X obj 401 7 bng 15 250 50 0 empty empty empty 17 7 0 10 -262144 -1
-1;
#X obj 16 7 bng 15 250 50 0 empty empty empty 17 7 0 10 -262144 -1
-1;
#X obj 215 251 + 1;
#X floatatom 188 183 5 0 0 0 - - -;
#X text 423 6 + 1;
#X obj 263 25 inlet;
#X text 258 7 Set Min;
#X obj 326 24 inlet;
#X text 321 6 Set Max;
#X floatatom 46 233 5 0 0 0 - - -;
#X obj 215 422 - 1;
#X obj 161 68 int;
#X floatatom 176 45 5 0 0 0 - - -;
#X obj 176 24 inlet;
#X text 145 7 Set Reset Value;
#X obj 101 25 inlet;
#X text 93 7 Reset;
#X obj 161 92 t f f;
#X obj 36 25 inlet;
#X obj 45 284 outlet;
#X text 42 301 Counter;
#X text 40 8 - 1;
#X floatatom 193 129 5 0 0 0 - - -;
#X msg 423 68 2;
#X msg 43 69 2;
#X msg 296 302 1;
#X obj 215 275 t f f b;
#X obj 215 445 t f f b;
#X msg 302 472 1;
#X obj 84 26 bng 15 250 50 0 empty empty empty 17 7 0 10 -262144 -1
-1;
#X obj 16 47 t a b;
#X obj 396 46 t a b;
#X obj 262 69 s \$0-min;
#X obj 326 69 s \$0-max;
#X obj 201 92 r \$0-num;
#X obj 234 301 s \$0-num;
#X obj 234 471 s \$0-num;
#X obj 215 352 r \$0-d-gate;
#X obj 302 496 s \$0-d-gate;
#X obj 43 91 s \$0-d-gate;
#X obj 224 183 r \$0-u-gate;
#X obj 423 90 s \$0-u-gate;
#X obj 296 327 s \$0-u-gate;
#X obj 16 116 s \$0-num;
#X obj 396 112 s \$0-num;
#X obj 46 159 r \$0-output;
#X obj 215 496 s \$0-output;
#X obj 215 327 s \$0-output;
#X obj 115 117 s \$0-output;
#X obj 57 182 r \$0-min;
#X obj 116 182 r \$0-max;
#X obj 282 260 loadbang;
#X obj 303 424 loadbang;
#X obj 222 207 - 1;
#X obj 213 375 - 1;
#X obj 188 398 spigot;
#X obj 177 229 ggate;
#N canvas 623 68 658 815 number 0;
#X obj -62 -192 inlet;
#X obj 29 -189 inlet;
#X obj 191 -188 inlet;
#X text 23 -207 Set Min;
#X text 188 -204 Set Max;
#X floatatom -61 -167 5 0 0 0 - - -;
#X obj 29 -147 sel none;
#X obj 191 -146 sel none;
#X text -80 -208 Number Thru;
#X obj 332 -187 inlet;
#X text 329 -203 Toggle float(0)/int(1);
#X obj 332 -162 tgl 15 0 empty empty empty 17 7 0 10 -262144 -1 -1
0 1;
#X obj 36 540 outlet;
#X msg 29 -70 0;
#X msg 58 -70 1;
#X msg 70 -189 symbol none;
#X msg 233 -188 symbol none;
#X msg 191 -68 0;
#X msg 220 -68 1;
#X obj 74 -123 t f b;
#X obj 236 -121 t f b;
#X obj -7 64 <;
#X obj -61 -142 t f f;
#X obj -92 171 f;
#X obj -10 171 f;
#X obj -34 30 t b f;
#X obj -92 121 b;
#X obj -10 120 b;
#X text 0 -10 <- Toggles min on/off;
#X text 73 486 <-- Toggles int/float;
#X obj -39 429 f;
#X obj 43 429 f;
#X floatatom 3 457 5 0 0 0 - - -;
#X obj 19 288 t b f;
#X obj -39 379 b;
#X obj 43 378 b;
#X text 33 248 <- Toggles max on/off;
#X floatatom -51 198 5 0 0 0 - - -;
#X obj -51 217 t f f;
#X text -19 94 <- Decides if < min;
#X text 34 352 <- Decides if > max;
#X obj 46 322 >;
#X obj 63 512 int;
#N canvas 839 22 450 300 ggate 0;
#X obj -249 -112 spigot;
#X obj -301 -136 == 0;
#X obj -267 -221 inlet;
#X obj -334 -220 inlet;
#X obj -249 -89 outlet;
#X obj -334 -90 outlet;
#X obj -334 -113 spigot;
#X obj -267 -156 t f f;
#X obj -334 -186 t a a;
#X obj -240 -135 > 0;
#X obj -255 -200 loadbang;
#X msg -259 -178 0;
#X connect 0 0 4 0;
#X connect 1 0 6 1;
#X connect 2 0 7 0;
#X connect 3 0 8 0;
#X connect 6 0 5 0;
#X connect 7 0 1 0;
#X connect 7 1 9 0;
#X connect 8 0 6 0;
#X connect 8 1 0 0;
#X connect 9 0 0 1;
#X connect 10 0 11 0;
#X connect 11 0 7 0;
#X restore -61 -7 pd ggate;
#N canvas 839 22 450 300 ggate 0;
#X obj -249 -112 spigot;
#X obj -301 -136 == 0;
#X obj -267 -221 inlet;
#X obj -334 -220 inlet;
#X obj -249 -89 outlet;
#X obj -334 -90 outlet;
#X obj -334 -113 spigot;
#X obj -267 -156 t f f;
#X obj -334 -186 t a a;
#X obj -240 -135 > 0;
#X obj -255 -200 loadbang;
#X msg -259 -178 0;
#X connect 0 0 4 0;
#X connect 1 0 6 1;
#X connect 2 0 7 0;
#X connect 3 0 8 0;
#X connect 6 0 5 0;
#X connect 7 0 1 0;
#X connect 7 1 9 0;
#X connect 8 0 6 0;
#X connect 8 1 0 0;
#X connect 9 0 0 1;
#X connect 10 0 11 0;
#X connect 11 0 7 0;
#X restore -74 94 pd ggate;
#N canvas 839 22 310 253 ggate 0;
#X obj -249 -112 spigot;
#X obj -301 -136 == 0;
#X obj -267 -221 inlet;
#X obj -334 -220 inlet;
#X obj -249 -89 outlet;
#X obj -334 -90 outlet;
#X obj -334 -113 spigot;
#X obj -267 -156 t f f;
#X obj -334 -186 t a a;
#X obj -240 -135 > 0;
#X obj -255 -200 loadbang;
#X msg -259 -178 0;
#X connect 0 0 4 0;
#X connect 1 0 6 1;
#X connect 2 0 7 0;
#X connect 3 0 8 0;
#X connect 6 0 5 0;
#X connect 7 0 1 0;
#X connect 7 1 9 0;
#X connect 8 0 6 0;
#X connect 8 1 0 0;
#X connect 9 0 0 1;
#X connect 10 0 11 0;
#X connect 11 0 7 0;
#X restore -20 249 pd ggate;
#N canvas 839 22 292 167 ggate 0;
#X obj -249 -112 spigot;
#X obj -301 -136 == 0;
#X obj -267 -221 inlet;
#X obj -334 -220 inlet;
#X obj -249 -89 outlet;
#X obj -334 -90 outlet;
#X obj -334 -113 spigot;
#X obj -267 -156 t f f;
#X obj -334 -186 t a a;
#X obj -240 -135 > 0;
#X obj -255 -200 loadbang;
#X msg -259 -178 0;
#X connect 0 0 4 0;
#X connect 1 0 6 1;
#X connect 2 0 7 0;
#X connect 3 0 8 0;
#X connect 6 0 5 0;
#X connect 7 0 1 0;
#X connect 7 1 9 0;
#X connect 8 0 6 0;
#X connect 8 1 0 0;
#X connect 9 0 0 1;
#X connect 10 0 11 0;
#X connect 11 0 7 0;
#X restore -22 352 pd ggate;
#N canvas 839 22 186 188 ggate 0;
#X obj -249 -112 spigot;
#X obj -301 -136 == 0;
#X obj -267 -221 inlet;
#X obj -334 -220 inlet;
#X obj -249 -89 outlet;
#X obj -334 -90 outlet;
#X obj -334 -113 spigot;
#X obj -267 -156 t f f;
#X obj -334 -186 t a a;
#X obj -240 -135 > 0;
#X obj -255 -200 loadbang;
#X msg -259 -178 0;
#X connect 0 0 4 0;
#X connect 1 0 6 1;
#X connect 2 0 7 0;
#X connect 3 0 8 0;
#X connect 6 0 5 0;
#X connect 7 0 1 0;
#X connect 7 1 9 0;
#X connect 8 0 6 0;
#X connect 8 1 0 0;
#X connect 9 0 0 1;
#X connect 10 0 11 0;
#X connect 11 0 7 0;
#X restore 12 485 pd ggate;
#X obj -34 -117 s \$0-num1;
#X obj -77 143 r \$0-num1;
#X obj 5 143 r \$0-min1;
#X obj 8 37 r \$0-min1;
#X obj 74 -98 s \$0-min1;
#X obj 236 -96 s \$0-max1;
#X obj 332 -139 s \$0-int1;
#X obj 61 288 r \$0-max1;
#X obj 58 403 r \$0-max1;
#X obj 63 463 r \$0-int1;
#X connect 0 0 5 0;
#X connect 1 0 6 0;
#X connect 2 0 7 0;
#X connect 5 0 22 0;
#X connect 6 0 13 0;
#X connect 6 1 19 0;
#X connect 7 0 17 0;
#X connect 7 1 20 0;
#X connect 9 0 11 0;
#X connect 11 0 54 0;
#X connect 13 0 43 1;
#X connect 13 0 44 1;
#X connect 14 0 43 1;
#X connect 15 0 6 0;
#X connect 16 0 7 0;
#X connect 17 0 45 1;
#X connect 17 0 46 1;
#X connect 18 0 45 1;
#X connect 19 0 52 0;
#X connect 19 1 14 0;
#X connect 20 0 53 0;
#X connect 20 1 18 0;
#X connect 21 0 44 1;
#X connect 22 0 43 0;
#X connect 22 1 48 0;
#X connect 23 0 37 0;
#X connect 24 0 37 0;
#X connect 25 0 44 0;
#X connect 25 1 21 0;
#X connect 26 0 23 0;
#X connect 27 0 24 0;
#X connect 30 0 32 0;
#X connect 31 0 32 0;
#X connect 32 0 47 0;
#X connect 33 0 46 0;
#X connect 33 1 41 0;
#X connect 34 0 30 0;
#X connect 35 0 31 0;
#X connect 37 0 38 0;
#X connect 38 0 45 0;
#X connect 38 1 30 1;
#X connect 41 0 46 1;
#X connect 42 0 12 0;
#X connect 43 0 44 0;
#X connect 43 1 25 0;
#X connect 44 0 26 0;
#X connect 44 1 27 0;
#X connect 45 0 46 0;
#X connect 45 1 33 0;
#X connect 46 0 34 0;
#X connect 46 1 35 0;
#X connect 47 0 12 0;
#X connect 47 1 42 0;
#X connect 49 0 23 1;
#X connect 50 0 24 1;
#X connect 51 0 21 1;
#X connect 55 0 41 1;
#X connect 56 0 31 1;
#X connect 57 0 47 1;
#X restore 47 211 pd number;
#X obj 228 129 r \$0-min;
#X obj 287 129 r \$0-max;
#N canvas 705 23 677 1000 number 0;
#X obj -52 -182 inlet;
#X obj 39 -179 inlet;
#X obj 201 -178 inlet;
#X text 33 -197 Set Min;
#X text 198 -194 Set Max;
#X floatatom -51 -157 5 0 0 0 - - -;
#X obj 39 -137 sel none;
#X obj 201 -136 sel none;
#X text -70 -198 Number Thru;
#X obj 342 -177 inlet;
#X text 339 -193 Toggle float(0)/int(1);
#X obj 342 -152 tgl 15 0 empty empty empty 17 7 0 10 -262144 -1 -1
0 1;
#X obj 46 550 outlet;
#X msg 39 -60 0;
#X msg 68 -60 1;
#X msg 80 -179 symbol none;
#X msg 243 -178 symbol none;
#X msg 201 -58 0;
#X msg 230 -58 1;
#X obj 84 -113 t f b;
#X obj 246 -111 t f b;
#X obj 3 74 <;
#X obj -51 -132 t f f;
#X obj -82 181 f;
#X obj 0 181 f;
#X obj -24 40 t b f;
#X obj -82 131 b;
#X obj 0 130 b;
#X text 10 0 <- Toggles min on/off;
#X text 83 496 <-- Toggles int/float;
#X obj -29 439 f;
#X obj 53 439 f;
#X floatatom 13 467 5 0 0 0 - - -;
#X obj 29 298 t b f;
#X obj -29 389 b;
#X obj 53 388 b;
#X text 43 258 <- Toggles max on/off;
#X floatatom -41 208 5 0 0 0 - - -;
#X obj -41 227 t f f;
#X text -9 104 <- Decides if < min;
#X text 44 362 <- Decides if > max;
#X obj 56 332 >;
#X obj 73 522 int;
#N canvas 839 22 450 300 ggate 0;
#X obj -249 -112 spigot;
#X obj -301 -136 == 0;
#X obj -267 -221 inlet;
#X obj -334 -220 inlet;
#X obj -249 -89 outlet;
#X obj -334 -90 outlet;
#X obj -334 -113 spigot;
#X obj -267 -156 t f f;
#X obj -334 -186 t a a;
#X obj -240 -135 > 0;
#X obj -255 -200 loadbang;
#X msg -259 -178 0;
#X connect 0 0 4 0;
#X connect 1 0 6 1;
#X connect 2 0 7 0;
#X connect 3 0 8 0;
#X connect 6 0 5 0;
#X connect 7 0 1 0;
#X connect 7 1 9 0;
#X connect 8 0 6 0;
#X connect 8 1 0 0;
#X connect 9 0 0 1;
#X connect 10 0 11 0;
#X connect 11 0 7 0;
#X restore -51 3 pd ggate;
#N canvas 839 22 450 300 ggate 0;
#X obj -249 -112 spigot;
#X obj -301 -136 == 0;
#X obj -267 -221 inlet;
#X obj -334 -220 inlet;
#X obj -249 -89 outlet;
#X obj -334 -90 outlet;
#X obj -334 -113 spigot;
#X obj -267 -156 t f f;
#X obj -334 -186 t a a;
#X obj -240 -135 > 0;
#X obj -255 -200 loadbang;
#X msg -259 -178 0;
#X connect 0 0 4 0;
#X connect 1 0 6 1;
#X connect 2 0 7 0;
#X connect 3 0 8 0;
#X connect 6 0 5 0;
#X connect 7 0 1 0;
#X connect 7 1 9 0;
#X connect 8 0 6 0;
#X connect 8 1 0 0;
#X connect 9 0 0 1;
#X connect 10 0 11 0;
#X connect 11 0 7 0;
#X restore -64 104 pd ggate;
#N canvas 839 22 310 253 ggate 0;
#X obj -249 -112 spigot;
#X obj -301 -136 == 0;
#X obj -267 -221 inlet;
#X obj -334 -220 inlet;
#X obj -249 -89 outlet;
#X obj -334 -90 outlet;
#X obj -334 -113 spigot;
#X obj -267 -156 t f f;
#X obj -334 -186 t a a;
#X obj -240 -135 > 0;
#X obj -255 -200 loadbang;
#X msg -259 -178 0;
#X connect 0 0 4 0;
#X connect 1 0 6 1;
#X connect 2 0 7 0;
#X connect 3 0 8 0;
#X connect 6 0 5 0;
#X connect 7 0 1 0;
#X connect 7 1 9 0;
#X connect 8 0 6 0;
#X connect 8 1 0 0;
#X connect 9 0 0 1;
#X connect 10 0 11 0;
#X connect 11 0 7 0;
#X restore -10 259 pd ggate;
#N canvas 839 22 292 167 ggate 0;
#X obj -249 -112 spigot;
#X obj -301 -136 == 0;
#X obj -267 -221 inlet;
#X obj -334 -220 inlet;
#X obj -249 -89 outlet;
#X obj -334 -90 outlet;
#X obj -334 -113 spigot;
#X obj -267 -156 t f f;
#X obj -334 -186 t a a;
#X obj -240 -135 > 0;
#X obj -255 -200 loadbang;
#X msg -259 -178 0;
#X connect 0 0 4 0;
#X connect 1 0 6 1;
#X connect 2 0 7 0;
#X connect 3 0 8 0;
#X connect 6 0 5 0;
#X connect 7 0 1 0;
#X connect 7 1 9 0;
#X connect 8 0 6 0;
#X connect 8 1 0 0;
#X connect 9 0 0 1;
#X connect 10 0 11 0;
#X connect 11 0 7 0;
#X restore -12 362 pd ggate;
#N canvas 839 22 186 188 ggate 0;
#X obj -249 -112 spigot;
#X obj -301 -136 == 0;
#X obj -267 -221 inlet;
#X obj -334 -220 inlet;
#X obj -249 -89 outlet;
#X obj -334 -90 outlet;
#X obj -334 -113 spigot;
#X obj -267 -156 t f f;
#X obj -334 -186 t a a;
#X obj -240 -135 > 0;
#X obj -255 -200 loadbang;
#X msg -259 -178 0;
#X connect 0 0 4 0;
#X connect 1 0 6 1;
#X connect 2 0 7 0;
#X connect 3 0 8 0;
#X connect 6 0 5 0;
#X connect 7 0 1 0;
#X connect 7 1 9 0;
#X connect 8 0 6 0;
#X connect 8 1 0 0;
#X connect 9 0 0 1;
#X connect 10 0 11 0;
#X connect 11 0 7 0;
#X restore 22 495 pd ggate;
#X obj 342 -129 s \$0-int2;
#X obj 246 -86 s \$0-max2;
#X obj 84 -88 s \$0-min2;
#X obj -24 -107 s \$0-num2;
#X obj 18 47 r \$0-min2;
#X obj 15 153 r \$0-min2;
#X obj -67 153 r \$0-num2;
#X obj 71 298 r \$0-max2;
#X obj 68 413 r \$0-max2;
#X obj 73 473 r \$0-int2;
#X connect 0 0 5 0;
#X connect 1 0 6 0;
#X connect 2 0 7 0;
#X connect 5 0 22 0;
#X connect 6 0 13 0;
#X connect 6 1 19 0;
#X connect 7 0 17 0;
#X connect 7 1 20 0;
#X connect 9 0 11 0;
#X connect 11 0 48 0;
#X connect 13 0 43 1;
#X connect 13 0 44 1;
#X connect 14 0 43 1;
#X connect 15 0 6 0;
#X connect 16 0 7 0;
#X connect 17 0 45 1;
#X connect 17 0 46 1;
#X connect 18 0 45 1;
#X connect 19 0 50 0;
#X connect 19 1 14 0;
#X connect 20 0 49 0;
#X connect 20 1 18 0;
#X connect 21 0 44 1;
#X connect 22 0 43 0;
#X connect 22 1 51 0;
#X connect 23 0 37 0;
#X connect 24 0 37 0;
#X connect 25 0 44 0;
#X connect 25 1 21 0;
#X connect 26 0 23 0;
#X connect 27 0 24 0;
#X connect 30 0 32 0;
#X connect 31 0 32 0;
#X connect 32 0 47 0;
#X connect 33 0 46 0;
#X connect 33 1 41 0;
#X connect 34 0 30 0;
#X connect 35 0 31 0;
#X connect 37 0 38 0;
#X connect 38 0 45 0;
#X connect 38 1 30 1;
#X connect 41 0 46 1;
#X connect 42 0 12 0;
#X connect 43 0 44 0;
#X connect 43 1 25 0;
#X connect 44 0 26 0;
#X connect 44 1 27 0;
#X connect 45 0 46 0;
#X connect 45 1 33 0;
#X connect 46 0 34 0;
#X connect 46 1 35 0;
#X connect 47 0 12 0;
#X connect 47 1 42 0;
#X connect 52 0 21 1;
#X connect 53 0 24 1;
#X connect 54 0 23 1;
#X connect 55 0 41 1;
#X connect 56 0 31 1;
#X connect 57 0 47 1;
#X restore 218 158 pd number;
#X connect 0 0 32 0;
#X connect 1 0 32 0;
#X connect 2 0 31 0;
#X connect 3 0 27 0;
#X connect 4 0 57 0;
#X connect 6 0 33 0;
#X connect 8 0 34 0;
#X connect 10 0 20 0;
#X connect 11 0 28 0;
#X connect 12 0 18 0;
#X connect 13 0 12 1;
#X connect 14 0 13 0;
#X connect 16 0 12 0;
#X connect 18 0 49 0;
#X connect 18 1 23 0;
#X connect 19 0 31 0;
#X connect 23 0 61 0;
#X connect 24 0 42 0;
#X connect 25 0 40 0;
#X connect 26 0 43 0;
#X connect 27 0 48 0;
#X connect 27 1 36 0;
#X connect 27 2 26 0;
#X connect 28 0 47 0;
#X connect 28 1 37 0;
#X connect 28 2 29 0;
#X connect 29 0 39 0;
#X connect 30 0 12 0;
#X connect 31 0 44 0;
#X connect 31 1 25 0;
#X connect 32 0 45 0;
#X connect 32 1 24 0;
#X connect 35 0 23 0;
#X connect 38 0 55 0;
#X connect 41 0 54 0;
#X connect 46 0 58 0;
#X connect 50 0 58 1;
#X connect 51 0 58 2;
#X connect 52 0 26 0;
#X connect 53 0 29 0;
#X connect 54 0 57 1;
#X connect 55 0 56 1;
#X connect 56 0 11 0;
#X connect 57 0 56 0;
#X connect 57 1 3 0;
#X connect 58 0 10 0;
#X connect 59 0 61 1;
#X connect 60 0 61 2;
#X connect 61 0 4 0;
#X restore 203 241 pd iterator;
#X obj 217 17 inlet reset_to_min_no_output;
#X obj 393 18 inlet reset_&_output;
#X obj 524 20 inlet reset_to_max_no_output;
#N canvas 1137 678 450 300 ggate 0;
#X obj 171 35 inlet;
#X obj 38 35 inlet;
#X obj 38 102 spigot;
#X obj 38 127 outlet;
#X obj 138 102 spigot;
#X obj 138 127 outlet;
#X obj 71 77 == 0;
#X obj 171 77 == 1;
#X obj 98 32 loadbang;
#X msg 98 52 0;
#X connect 0 0 6 0;
#X connect 0 0 7 0;
#X connect 1 0 2 0;
#X connect 1 0 4 0;
#X connect 2 0 3 0;
#X connect 4 0 5 0;
#X connect 6 0 2 1;
#X connect 7 0 4 1;
#X connect 8 0 9 0;
#X connect 9 0 6 0;
#X connect 9 0 7 0;
#X restore 148 156 pd ggate;
#X obj 193 131 tgl 15 0 empty empty empty 17 7 0 10 -262144 -1 -1 0
1;
#X obj 144 197 t b b;
#X obj 198 184 t b b;
#X obj 178 268 f;
#X obj 30 116 bng 15 250 50 0 empty empty empty 17 7 0 10 -262144 -1
-1;
#X obj 53 97 bng 15 250 50 0 empty empty empty 17 7 0 10 -262144 -1
-1;
#X msg 83 95 0;
#X msg 114 92 1;
#X obj 230 47 route float bang;
#X obj 257 166 f;
#X obj 473 59 route float bang;
#X obj 521 179 f;
#X obj 347 56 route float bang;
#X floatatom 178 291 5 0 0 0 - - -;
#X obj 180 314 outlet;
#X obj 22 68 route dec inc up down min max goto set jam;
#X obj 225 128 + 1;
#X obj 318 134 t b b;
#X obj 289 87 t b f;
#X connect 0 0 22 0;
#X connect 1 0 7 0;
#X connect 2 0 10 1;
#X connect 3 0 15 0;
#X connect 4 0 19 0;
#X connect 5 0 17 0;
#X connect 6 0 8 0;
#X connect 6 1 9 0;
#X connect 7 0 6 1;
#X connect 8 0 10 0;
#X connect 8 1 2 5;
#X connect 9 0 10 0;
#X connect 9 1 2 0;
#X connect 10 0 20 0;
#X connect 11 0 8 0;
#X connect 12 0 9 0;
#X connect 13 0 7 0;
#X connect 14 0 7 0;
#X connect 15 0 16 1;
#X connect 15 0 2 3;
#X connect 15 1 16 0;
#X connect 16 0 2 0;
#X connect 17 0 18 1;
#X connect 17 0 2 4;
#X connect 17 1 18 0;
#X connect 18 0 2 5;
#X connect 19 0 25 0;
#X connect 19 1 24 0;
#X connect 20 0 21 0;
#X connect 22 0 11 0;
#X connect 22 1 12 0;
#X connect 22 2 13 0;
#X connect 22 3 14 0;
#X connect 22 4 16 1;
#X connect 22 4 2 3;
#X connect 22 5 2 4;
#X connect 22 5 18 1;
#X connect 22 6 23 0;
#X connect 22 7 23 0;
#X connect 22 8 23 0;
#X connect 22 9 6 0;
#X connect 23 0 2 0;
#X connect 24 0 10 0;
#X connect 24 1 16 0;
#X connect 25 0 10 0;
#X connect 25 1 16 1;
#X connect 25 1 2 3;
#X connect 25 1 23 0;
