#N canvas -26 23 450 300 10;
#X obj 140 62 inlet;
#X obj 140 82 t b f;
#X msg 134 118 1;
#X obj 151 152 /;
#X obj 154 178 outlet;
#X obj 167 120 sin;
#X connect 0 0 1 0;
#X connect 1 0 2 0;
#X connect 1 1 5 0;
#X connect 2 0 3 0;
#X connect 3 0 4 0;
#X connect 5 0 3 1;
