#N canvas 0 22 450 300 10;
#X obj 160 62 inlet~;
#X obj 164 146 outlet~;
#X obj 126 92 sig~ 1;
#X obj 156 117 /~;
#X obj 171 92 sinh~;
#X connect 0 0 4 0;
#X connect 2 0 3 0;
#X connect 3 0 1 0;
#X connect 4 0 3 1;
