#N canvas 315 294 450 300 10;
#N canvas 931 499 450 300 sinh 0;
#X obj 149 64 inlet;
#X obj 152 91 t f f;
#X obj 177 123 * -1;
#X obj 180 147 exp;
#X obj 149 123 exp;
#X obj 158 178 -;
#X obj 158 202 / 2;
#X obj 158 226 outlet;
#X connect 0 0 1 0;
#X connect 1 0 4 0;
#X connect 1 1 2 0;
#X connect 2 0 3 0;
#X connect 3 0 5 1;
#X connect 4 0 5 0;
#X connect 5 0 6 0;
#X connect 6 0 7 0;
#X restore 99 59 pd sinh;
#X obj 99 33 inlet;
#X obj 99 82 swap 1;
#X obj 98 106 /;
#X obj 97 130 outlet;
#X connect 0 0 2 0;
#X connect 1 0 0 0;
#X connect 2 0 3 0;
#X connect 2 1 3 1;
#X connect 3 0 4 0;
