#N canvas 204 229 275 362 10;
#X obj 8 8 inlet COMPLEX_NUMBER;
#X obj 8 214 unpack 0 0;
#X obj 135 8 inlet COMPLEX_NUMBER;
#X obj 135 212 unpack 0 0;
#X obj 63 306 pack 0 0;
#X obj 64 330 outlet;
#X obj 49 260 - \$1;
#X obj 105 260 - \$2;
#X obj 164 72 t a a;
#X obj 42 61 t a a;
#X obj 20 33 route bang;
#X obj 99 60 t b b;
#X msg 59 180 0 0;
#X msg 181 191 0 0;
#X obj 163 115 list prepend set;
#X obj 163 136 list trim;
#X obj 56 103 list prepend set;
#X obj 56 124 list trim;
#X connect 0 0 10 0;
#X connect 1 0 6 0;
#X connect 1 1 7 0;
#X connect 2 0 8 0;
#X connect 3 0 6 1;
#X connect 3 1 7 1;
#X connect 4 0 5 0;
#X connect 6 0 4 0;
#X connect 7 0 4 1;
#X connect 8 0 3 0;
#X connect 8 1 14 0;
#X connect 9 0 1 0;
#X connect 9 1 16 0;
#X connect 10 0 11 0;
#X connect 10 1 9 0;
#X connect 11 0 12 0;
#X connect 11 1 13 0;
#X connect 12 0 1 0;
#X connect 13 0 3 0;
#X connect 14 0 15 0;
#X connect 15 0 13 0;
#X connect 16 0 17 0;
#X connect 17 0 12 0;
