#N canvas 190 23 843 693 10;
#X obj 176 52 t a a;
#X obj 176 112 ggate;
#X obj 203 72 list length;
#X obj 203 92 > 1;
#X msg 297 189 NULL NULL \,;
#X obj 296 308 route x;
#X obj 336 249 list split 1;
#X obj 336 268 list prepend symbol;
#X obj 335 288 list trim;
#X obj 441 58 bng 15 250 50 0 empty empty empty 17 7 0 10 -262144 -1
-1;
#X obj 436 90 t b b;
#X msg 436 128 addcomma;
#X obj 335 386 ladd3;
#X msg 335 411;
#X msg 416 318 set;
#X obj 296 350 list;
#X obj 296 329 bng 15 250 50 0 empty empty empty 17 7 0 10 -262144
-1 -1;
#X obj 225 350 spigot;
#X msg 251 330 0;
#X msg 260 330 1;
#X obj 242 134 t b a b a a b;
#X obj 229 172 t b b;
#X msg 256 193 set;
#X obj 198 234 ladd3;
#X msg 15 240 NULL NULL \,;
#X obj 99 279 list split 1;
#X obj 44 281 f;
#X obj 75 279 + 1;
#X msg 115 162 0;
#X obj 17 259 t a b;
#X obj 100 410 ==;
#X obj 100 378 f;
#X obj 124 377 + 1;
#X obj 68 136 t b b a b a;
#X obj 86 477 anything;
#X obj 98 360 bng 15 250 50 0 empty empty empty 17 7 0 10 -262144 -1
-1;
#X obj 82 430 f;
#X obj 68 391 t b b;
#X obj 82 452 sel 1;
#X msg 171 383 NULL NULL \,;
#X obj 335 97 bng 15 250 50 0 empty empty empty 17 7 0 10 -262144 -1
-1;
#X obj 176 -21 inlet SET_&_GET;
#X obj 171 516 ggate;
#X msg 216 498 0;
#X msg 241 497 1;
#X obj 359 65 t b b b b b;
#X obj 198 542 list prepend --;
#X msg 344 572 ------ Dictionary Contents ------;
#X obj 512 305 print HELP;
#X obj 512 256 bng 15 250 50 0 empty empty empty 17 7 0 10 -262144
-1 -1;
#X msg 331 593 ----------------------------------------;
#X obj 328 45 bng 15 250 50 0 empty empty empty 17 7 0 10 -262144 -1
-1;
#X obj 12 552 list prepend match;
#X obj 12 574 list trim;
#X obj 81 611 list trim;
#X obj 81 589 list prepend all;
#X obj 37 526 list trim;
#X obj 37 504 list prepend nomatch;
#X obj 585 22 t b a b;
#X obj 607 74 ggate;
#X msg 622 53 0;
#X msg 634 53 1;
#X obj 634 94 b;
#X msg 634 113 list;
#X msg 673 131 NULL NULL \,;
#X obj 540 19 spigot;
#X obj 645 -3 t a a;
#X obj 673 169 liter;
#X obj 676 218 select symbol;
#X obj 755 196 symbol;
#X obj 674 197 symbol;
#X obj 674 36 t b a b;
#X msg 619 208 0;
#X msg 592 208 1;
#N canvas 778 327 421 384 help 0;
#X msg 18 48 ----------------------- dictionary.pd -----------------------
\, ------------------------------------------------------------------------
\, --------------- Store key-value pairs in a subpatch ---------------
\, ---- \, ---- Inlets: \, ---------- 0: Call Method. Input key to
get value or input key-value pair to store value. \, ---- \, ---- Outlets:
\, ---------- 0: Output prepended with "match" "nomatch" or "all".
Use [route] to separate. \, ---- \, ---- Methods (sent to inlet 0):
\, ---------- methods: print all available methods for [dictionary]
\, ---------- set < key > < value >: Set value stored with the key
\, ---------- get < key >: If value exists returns "match < value >"
otherwise "nomatch < key >" \, ---------- all: Output all key-value
pairs prepended by "all" \, ---------- delete < key >: delete a stored
key (does nothing if key is invalid) \, ---------- clear: Clear all
stored key-value pairs \, ---------- reset: Same as clear \, ----------
help: print help information to the console \, ---------- print: print
all key-value pairs to the console \, ------------------------------------------------------------------------
\, ----------------------- dictionary.pd ----------------------- \,
;
#X obj 18 16 inlet;
#X obj 18 342 outlet;
#X connect 0 0 2 0;
#X connect 1 0 0 0;
#X restore 512 280 pd help;
#X obj 203 609 list trim;
#X obj 208 635 print DICTIONARY-\$0;
#X obj 357 152 list trim;
#X obj 176 5 route set get all clear reset help print delete;
#X obj 99 314 symbol;
#X obj 59 338 route symbol;
#X obj 457 147 list prepend set NULL NULL;
#X obj 12 637 outlet;
#X connect 0 0 1 0;
#X connect 0 1 2 0;
#X connect 1 0 33 0;
#X connect 1 1 20 0;
#X connect 2 0 3 0;
#X connect 3 0 1 1;
#X connect 4 0 5 0;
#X connect 5 0 16 0;
#X connect 5 1 12 0;
#X connect 6 0 7 0;
#X connect 7 0 8 0;
#X connect 8 0 5 1;
#X connect 9 0 10 0;
#X connect 10 0 11 0;
#X connect 10 1 14 0;
#X connect 10 1 81 0;
#X connect 11 0 4 0;
#X connect 11 0 24 0;
#X connect 11 0 39 0;
#X connect 11 0 64 0;
#X connect 12 0 13 0;
#X connect 13 0 23 0;
#X connect 14 0 13 0;
#X connect 15 0 12 0;
#X connect 16 0 15 0;
#X connect 16 0 18 0;
#X connect 17 0 12 0;
#X connect 18 0 17 1;
#X connect 19 0 17 1;
#X connect 20 0 21 0;
#X connect 20 1 17 0;
#X connect 20 2 4 0;
#X connect 20 3 6 0;
#X connect 20 4 59 0;
#X connect 20 5 19 0;
#X connect 20 5 14 0;
#X connect 21 0 13 0;
#X connect 21 1 22 0;
#X connect 22 0 4 0;
#X connect 22 0 24 0;
#X connect 22 0 39 0;
#X connect 22 0 64 0;
#X connect 23 0 4 0;
#X connect 23 0 24 0;
#X connect 23 0 39 0;
#X connect 23 0 64 0;
#X connect 24 0 29 0;
#X connect 25 0 79 0;
#X connect 26 0 27 0;
#X connect 26 0 30 1;
#X connect 27 0 26 1;
#X connect 28 0 26 1;
#X connect 28 0 31 1;
#X connect 29 0 80 0;
#X connect 29 1 26 0;
#X connect 30 0 36 1;
#X connect 31 0 32 0;
#X connect 31 0 30 0;
#X connect 32 0 31 1;
#X connect 33 0 37 0;
#X connect 33 1 24 0;
#X connect 33 2 25 0;
#X connect 33 3 28 0;
#X connect 33 4 34 1;
#X connect 34 0 57 0;
#X connect 35 0 31 0;
#X connect 36 0 38 0;
#X connect 37 0 36 0;
#X connect 37 1 30 0;
#X connect 38 0 34 0;
#X connect 39 0 42 0;
#X connect 40 0 39 0;
#X connect 41 0 78 0;
#X connect 42 0 55 0;
#X connect 42 1 46 0;
#X connect 43 0 42 1;
#X connect 44 0 42 1;
#X connect 45 0 50 0;
#X connect 45 1 43 0;
#X connect 45 2 39 0;
#X connect 45 3 44 0;
#X connect 45 4 47 0;
#X connect 46 0 75 0;
#X connect 47 0 75 0;
#X connect 49 0 74 0;
#X connect 50 0 75 0;
#X connect 51 0 45 0;
#X connect 52 0 53 0;
#X connect 53 0 82 0;
#X connect 54 0 82 0;
#X connect 55 0 54 0;
#X connect 56 0 82 0;
#X connect 57 0 56 0;
#X connect 58 0 60 0;
#X connect 58 1 20 0;
#X connect 58 2 61 0;
#X connect 59 0 15 1;
#X connect 59 1 62 0;
#X connect 60 0 59 1;
#X connect 61 0 59 1;
#X connect 62 0 63 0;
#X connect 63 0 15 1;
#X connect 64 0 67 0;
#X connect 65 0 58 0;
#X connect 66 0 65 0;
#X connect 66 1 71 0;
#X connect 67 0 70 0;
#X connect 68 0 73 0;
#X connect 69 0 68 1;
#X connect 70 0 68 0;
#X connect 71 0 64 0;
#X connect 71 1 69 0;
#X connect 71 2 72 0;
#X connect 72 0 65 1;
#X connect 73 0 65 1;
#X connect 74 0 48 0;
#X connect 75 0 76 0;
#X connect 77 0 4 0;
#X connect 77 0 24 0;
#X connect 77 0 39 0;
#X connect 77 0 64 0;
#X connect 78 0 0 0;
#X connect 78 1 0 0;
#X connect 78 2 40 0;
#X connect 78 3 9 0;
#X connect 78 4 9 0;
#X connect 78 5 49 0;
#X connect 78 6 45 0;
#X connect 78 7 66 0;
#X connect 78 8 0 0;
#X connect 79 0 80 1;
#X connect 80 0 52 0;
#X connect 80 1 35 0;
#X connect 81 0 77 0;
