#N canvas 0 22 582 251 10;
#X obj 14 -5 inlet;
#X obj 157 -6 inlet;
#X obj 157 15 t b b f;
#X obj 14 35 outlet;
#X floatatom 203 -3 5 0 0 0 - - -;
#X msg 196 35 clear \, obj 0 0 inlet \, obj 0 20 poly \$1 1 \, obj
0 40 outlet \, obj 100 40 outlet \, obj 200 40 outlet;
#X msg 176 68 connect 0 0 1 0 \, connect 1 0 2 0 \, connect 1 1 3 0
\, connect 1 2 4 0;
#X msg 157 122 connect 0 0 1 0 \, connect 1 0 2 0 \, connect 1 1 3
0 \, connect 1 2 4 0;
#X obj 60 36 outlet;
#X obj 107 36 outlet;
#X obj 157 155 s pd-\$0-shell;
#X obj 196 101 s pd-\$0-guts;
#N canvas 499 272 200 97 \$0-shell 0;
#X obj 3 3 inlet;
#N canvas 508 333 450 300 \$0-guts 0;
#X obj 0 0 inlet;
#X obj 0 20 poly 8 1;
#X obj 0 40 outlet;
#X obj 100 40 outlet;
#X obj 200 40 outlet;
#X connect 0 0 1 0;
#X connect 1 0 2 0;
#X connect 1 1 3 0;
#X connect 1 2 4 0;
#X restore 3 28 pd \$0-guts;
#X obj 3 52 outlet;
#X obj 48 52 outlet;
#X obj 93 52 outlet;
#X connect 0 0 1 0;
#X connect 1 0 2 0;
#X connect 1 1 3 0;
#X connect 1 2 4 0;
#X restore 14 15 pd \$0-shell;
#X obj 270 -27 loadbang;
#X obj 270 -6 f \$1;
#X connect 0 0 12 0;
#X connect 1 0 2 0;
#X connect 2 0 7 0;
#X connect 2 1 6 0;
#X connect 2 2 5 0;
#X connect 4 0 2 0;
#X connect 5 0 11 0;
#X connect 6 0 11 0;
#X connect 7 0 10 0;
#X connect 12 0 3 0;
#X connect 12 1 8 0;
#X connect 12 2 9 0;
#X connect 13 0 14 0;
#X connect 14 0 2 0;
