#N canvas 939 116 183 178 10;
#X obj 23 16 inlet;
#X obj -21 -57 r \$0-dynamicpd;
#N canvas 1262 23 285 131 abstractions 0;
#N canvas 592 23 293 132 environments 0;
#N canvas 710 264 237 132 obj 0;
#X obj -10 30 outlet;
#X obj -10 10 list prepend;
#X obj 59 -50 r \$0-environments.active;
#X obj 59 -30 symbol;
#X obj -10 -10 r \$0-obj;
#X obj 59 -10 makefilename %s.obj;
#N canvas 5 23 450 300 readme 0;
#X text 29 25 \$0-obj.new() - takes <key> <type> <args...>;
#X text 120 39 returns compiled obj creation code;
#X text 29 105 \$0-obj.get_count() - takes <obj_name>;
#X text 155 118 returns count ID for environment;
#X text 4 5 obj methods:;
#X text 29 65 \$0-obj.store() - takes <key> <type> <args...>;
#X text 120 79 stores obj info \, returns \$0-obj.y and \$0-obj.x;
#X text 29 165 Object storage:;
#X text 66 184 <name> <count> <x> <y>;
#X restore -8 -50 pd readme;
#X connect 1 0 0 0;
#X connect 2 0 3 0;
#X connect 3 0 5 0;
#X connect 4 0 1 0;
#X connect 5 0 1 1;
#X restore -139 -60 pd obj;
#N canvas 914 376 243 138 data 0;
#X obj 6 69 outlet;
#X obj 6 48 list prepend;
#X obj 75 -13 r \$0-environments.active;
#X obj 75 7 symbol;
#X obj 75 27 makefilename %s.data;
#X obj 6 -43 r \$0-env.data;
#X connect 1 0 0 0;
#X connect 2 0 3 0;
#X connect 3 0 4 0;
#X connect 4 0 1 1;
#X connect 5 0 1 0;
#X restore -96 -60 pd data;
#X obj -161 -100 r \$0-environments;
#X obj -149 -30 list prepend environments;
#X obj -149 -10 list trim;
#X obj -149 10 outlet;
#N canvas 739 89 414 201 readme 0;
#X text 8 5 Environments:;
#X text 19 72 Environments have the following properties:;
#X text 44 127 .data - [dictionary] - extra data for environment;
#X text 46 165 .manager - [name_manager] - keeps track of created objects
;
#X text 44 92 .obj - [dictionary] - object declarations;
#X text 94 142 obj.count \, obj.id;
#X text 18 22 Each subpatch/compilation target exists in its own environment.
This environment contains object bindings as well as data about the
environment.;
#X text 96 107 <name> <Creation ID> <x-position> <y-position>;
#X restore -52 -100 pd readme;
#N canvas 891 354 932 410 environments.methods 0;
#X obj 43 333 outlet;
#X obj 26 -42 r \$0-environments.init();
#X obj 234 -38 r \$0-environments.set_active();
#X obj 234 -11 t a a;
#X obj 234 41 ggate;
#X obj 261 87 s \$0-environments.active;
#X obj 425 -38 r \$0-environments.delete();
#X obj 425 40 ggate;
#X obj 425 -12 t a a;
#X obj 425 86 print ERROR - unable to delete nonexistent environment
;
#X obj 330 -12 r \$0-reset;
#X obj 486 226 list trim;
#X obj 469 166 list trim;
#X obj 469 126 makefilename %s.data;
#X obj 469 146 list prepend delete;
#X obj 486 206 list prepend delete;
#X text 469 -12 Environment properties:;
#X text 505 3 .user - [dictionary] - obj & var declarations;
#X text 505 17 .data - [dictionary] - environment data;
#X obj 26 -22 symbol;
#X obj 43 78 list prepend init dictionary;
#X obj 43 98 list trim;
#X obj 62 158 list trim;
#X obj 62 138 list prepend init dictionary;
#X obj 62 118 makefilename %s.data;
#X obj 60 18 s \$0-environments.set_active();
#X obj 43 58 makefilename %s.obj;
#X obj 486 186 makefilename %s.obj;
#X obj 26 -2 t b a a a;
#X obj -62 323 s \$0-env.data;
#X obj -62 199 t b b;
#X msg -62 302 obj.id 0;
#X msg -35 282 obj.count 0;
#X obj 234 62 s \$0-environments.init();
#X obj 82 218 list trim;
#X obj 82 178 makefilename %s.manager;
#X obj 82 198 list prepend init name_manager;
#X obj 503 286 list trim;
#X obj 503 266 list prepend delete;
#X obj 503 246 makefilename %s.manager;
#X text 505 31 .manager - [name_manager] - keep track of declarations
;
#X obj 261 15 name_manager;
#X obj 43 38 t a a a;
#X obj 452 106 t a a a a;
#X connect 1 0 19 0;
#X connect 2 0 3 0;
#X connect 3 0 4 0;
#X connect 3 1 41 0;
#X connect 4 0 33 0;
#X connect 4 1 5 0;
#X connect 6 0 8 0;
#X connect 7 0 9 0;
#X connect 7 1 43 0;
#X connect 8 0 7 0;
#X connect 8 1 41 0;
#X connect 10 0 41 4;
#X connect 11 0 0 0;
#X connect 12 0 0 0;
#X connect 13 0 14 0;
#X connect 14 0 12 0;
#X connect 15 0 11 0;
#X connect 19 0 28 0;
#X connect 20 0 21 0;
#X connect 21 0 0 0;
#X connect 22 0 0 0;
#X connect 23 0 22 0;
#X connect 24 0 23 0;
#X connect 26 0 20 0;
#X connect 27 0 15 0;
#X connect 28 0 30 0;
#X connect 28 1 42 0;
#X connect 28 2 25 0;
#X connect 28 3 41 1;
#X connect 30 0 31 0;
#X connect 30 1 32 0;
#X connect 31 0 29 0;
#X connect 32 0 29 0;
#X connect 34 0 0 0;
#X connect 35 0 36 0;
#X connect 36 0 34 0;
#X connect 37 0 0 0;
#X connect 38 0 37 0;
#X connect 39 0 38 0;
#X connect 41 0 4 1;
#X connect 41 0 7 1;
#X connect 42 0 26 0;
#X connect 42 1 24 0;
#X connect 42 2 35 0;
#X connect 43 0 41 3;
#X connect 43 1 13 0;
#X connect 43 2 27 0;
#X connect 43 3 39 0;
#X restore -149 -80 pd environments.methods;
#N canvas 918 420 252 108 manager 0;
#X obj 1 31 outlet;
#X obj 1 10 list prepend;
#X obj 70 -51 r \$0-environments.active;
#X obj 70 -31 symbol;
#X obj 70 -11 makefilename %s.manager;
#X obj 1 -51 r \$0-manager;
#X connect 1 0 0 0;
#X connect 2 0 3 0;
#X connect 3 0 4 0;
#X connect 4 0 1 1;
#X connect 5 0 1 0;
#X restore -47 -60 pd manager;
#N canvas 1285 188 252 100 obj.methods 0;
#N canvas 1163 114 197 649 obj.store() 0;
#X obj -7 118 s \$0-env.data;
#X obj -19 138 r _\$0-env.data;
#X obj -34 158 f;
#X obj -34 98 t b a;
#X obj 5 198 + 1;
#X obj 5 238 s \$0-env.data;
#X obj -34 338 int;
#X obj -34 438 s \$0-env.data;
#X obj -46 458 r _\$0-env.data;
#X obj -61 478 f;
#X obj -61 418 t b a;
#X obj -34 519 + 1;
#X obj -34 559 s \$0-env.data;
#X obj -61 58 t b b;
#X obj -34 318 / 10;
#X obj -15 258 % 10;
#X obj -61 498 t f f;
#X obj -88 619 s \$0-obj;
#X msg -34 78 obj.id;
#X msg -61 398 obj.count;
#X msg 5 218 obj.id \$1;
#X msg -34 539 obj.count \$1;
#X obj -33 358 * 450;
#X obj -4 278 * 150;
#X obj -88 -2 r \$0-obj.store();
#X obj -34 178 t f f f;
#X obj -88 18 t a b;
#X obj -61 579 pack 0 0 0;
#X obj -24 378 s \$0-obj.x;
#X obj -4 318 s \$0-obj.y;
#X obj -88 599 list;
#X obj -88 38 list split 1;
#X obj -4 298 + 200;
#X connect 1 0 2 1;
#X connect 2 0 25 0;
#X connect 3 0 2 0;
#X connect 3 1 0 0;
#X connect 4 0 20 0;
#X connect 6 0 22 0;
#X connect 8 0 9 1;
#X connect 9 0 16 0;
#X connect 10 0 9 0;
#X connect 10 1 7 0;
#X connect 11 0 21 0;
#X connect 13 0 19 0;
#X connect 13 1 18 0;
#X connect 14 0 6 0;
#X connect 15 0 23 0;
#X connect 16 0 27 0;
#X connect 16 1 11 0;
#X connect 18 0 3 0;
#X connect 19 0 10 0;
#X connect 20 0 5 0;
#X connect 21 0 12 0;
#X connect 22 0 28 0;
#X connect 22 0 27 1;
#X connect 23 0 32 0;
#X connect 24 0 26 0;
#X connect 25 0 14 0;
#X connect 25 1 15 0;
#X connect 25 2 4 0;
#X connect 26 0 31 0;
#X connect 26 1 13 0;
#X connect 27 0 30 1;
#X connect 30 0 17 0;
#X connect 31 0 30 0;
#X connect 32 0 29 0;
#X connect 32 0 27 2;
#X restore -195 -89 pd obj.store();
#N canvas 686 302 185 188 obj.get_count() 0;
#X obj 24 -59 s \$0-obj;
#X obj 18 -39 r _\$0-obj;
#X text 50 -80 <obj_name>;
#X obj -3 -99 r \$0-obj.get_count();
#X obj -3 41 s _\$0-obj.get_count();
#X obj -3 -79 t b a;
#X obj -3 -19 list;
#X obj -3 1 list split 1;
#X obj -3 21 list trim;
#X connect 1 0 6 1;
#X connect 3 0 5 0;
#X connect 5 0 6 0;
#X connect 5 1 0 0;
#X connect 6 0 7 0;
#X connect 7 0 8 0;
#X connect 8 0 4 0;
#X restore -195 -69 pd obj.get_count();
#N canvas 709 408 982 452 obj.new() 0;
#X obj -126 -101 r \$0-obj.new();
#X text -91 -42 <key> <type> <args>;
#X obj -126 205 list;
#X obj -126 165 list split 1;
#X obj -126 245 list;
#X obj -126 185 b;
#X obj -126 265 list prepend obj;
#X text -27 284 Compiled obj command;
#X obj -126 285 s _\$0-obj.new();
#X obj -47 165 r \$0-obj.x;
#X obj 20 165 r \$0-obj.y;
#X obj -72 145 s \$0-obj.store();
#X obj -126 -41 t a a;
#X obj -48 39 s \$0-manager;
#X obj -99 -1 list prepend exists;
#X obj -99 -21 list split 1;
#X obj -60 59 r _\$0-manager;
#X obj -75 79 f;
#X obj -75 19 t b a;
#X obj -126 99 ggate;
#X obj -68 116 print ERROR - attempted to overwrite existing object
;
#X obj -126 128 t a a a;
#X obj 89 165 list prepend add;
#X obj 89 185 s \$0-manager;
#X obj 89 145 list split 1;
#X obj -47 188 pack 0 0;
#X obj -35 -101 r \$0-msg.new();
#X obj 56 -101 r \$0-floatatom.new();
#X obj 183 -101 r \$0-symbolatom.new();
#X obj 415 -101 r \$0-array.new();
#X msg -99 224 obj;
#X obj -35 -81 t a b;
#X msg -8 221 msg;
#X obj 56 -81 t a b;
#X obj 183 -81 t a b;
#X msg 83 219 floatatom;
#X msg 210 218 symbolatom;
#X obj 415 268 list prepend array;
#X obj -126 -81 t a b;
#X obj 415 248 list append float 1;
#X obj 434 228 s \$0-obj.store();
#X obj 415 -81 t a a;
#X obj 493 39 s \$0-manager;
#X obj 442 -1 list prepend exists;
#X obj 442 -21 list split 1;
#X obj 481 59 r _\$0-manager;
#X obj 466 79 f;
#X obj 466 19 t b a;
#X obj 415 99 ggate;
#X obj 473 116 print ERROR - attempted to overwrite existing object
;
#X obj 415 138 t a a a;
#X obj 454 188 list prepend add;
#X obj 454 208 s \$0-manager;
#X obj 454 168 list split 1;
#X obj 317 -101 r \$0-text.new();
#X obj 317 -81 t a b;
#X msg 344 219 text;
#X connect 0 0 38 0;
#X connect 2 0 4 0;
#X connect 3 0 5 0;
#X connect 3 1 4 1;
#X connect 4 0 6 0;
#X connect 5 0 2 0;
#X connect 6 0 8 0;
#X connect 9 0 25 0;
#X connect 10 0 25 1;
#X connect 12 0 19 0;
#X connect 12 1 15 0;
#X connect 14 0 18 0;
#X connect 15 0 14 0;
#X connect 16 0 17 1;
#X connect 17 0 19 1;
#X connect 18 0 17 0;
#X connect 18 1 13 0;
#X connect 19 0 21 0;
#X connect 19 1 20 0;
#X connect 21 0 3 0;
#X connect 21 1 11 0;
#X connect 21 2 24 0;
#X connect 22 0 23 0;
#X connect 24 0 22 0;
#X connect 25 0 2 1;
#X connect 26 0 31 0;
#X connect 27 0 33 0;
#X connect 28 0 34 0;
#X connect 29 0 41 0;
#X connect 30 0 6 1;
#X connect 31 0 12 0;
#X connect 31 1 32 0;
#X connect 32 0 6 1;
#X connect 33 0 12 0;
#X connect 33 1 35 0;
#X connect 34 0 12 0;
#X connect 34 1 36 0;
#X connect 35 0 6 1;
#X connect 36 0 6 1;
#X connect 37 0 8 0;
#X connect 38 0 12 0;
#X connect 38 1 30 0;
#X connect 39 0 37 0;
#X connect 41 0 48 0;
#X connect 41 1 44 0;
#X connect 43 0 47 0;
#X connect 44 0 43 0;
#X connect 45 0 46 1;
#X connect 46 0 48 1;
#X connect 47 0 46 0;
#X connect 47 1 42 0;
#X connect 48 0 50 0;
#X connect 48 1 49 0;
#X connect 50 0 39 0;
#X connect 50 1 40 0;
#X connect 50 2 53 0;
#X connect 51 0 52 0;
#X connect 53 0 51 0;
#X connect 54 0 55 0;
#X connect 55 0 12 0;
#X connect 55 1 56 0;
#X connect 56 0 6 1;
#X restore -194 -109 pd obj.new();
#N canvas 1119 293 504 820 obj.delete() 0;
#X obj 20 -62 r \$0-obj.delete();
#X text 131 -61 <key>;
#X obj 20 -42 t a a;
#X obj 74 18 s \$0-manager;
#X obj 47 -22 list prepend exists;
#X obj 62 38 r _\$0-manager;
#X obj 47 58 f;
#X obj 47 -2 t b a;
#X obj 20 98 ggate;
#X obj 47 78 == 0;
#X obj 83 115 print ERROR - attempted to delete nonexistent object
;
#X obj 73 322 s _\$0-obj.delete();
#X obj 194 159 s \$0-manager;
#X obj 194 139 list prepend delete;
#X obj 73 242 t f f;
#X obj 100 262 + 5;
#X obj 73 262 - 5;
#X obj 73 282 pack 0 0 0 0;
#X obj 126 242 t f f;
#X obj 153 262 + 5;
#X obj 126 262 - 5;
#X msg 73 302 editmode 1 \, mouse \$1 \$2 0 0 \, mouseup \$3 \$4 0
\, cut;
#X text 109 241 x;
#X text 162 242 y;
#X obj 66 162 s \$0-obj;
#X obj 60 182 r _\$0-obj;
#X obj 39 142 t b a;
#X obj 39 202 list;
#X obj 39 222 unpack f f f;
#X obj -37 267 spigot;
#X obj -20 207 s \$0-obj;
#X obj -37 227 r _\$0-obj;
#X msg -39 247 0;
#X msg -5 247 1;
#X msg -20 187 all;
#X obj -3 342 unpack f f f;
#X obj -37 307 list split 1;
#X obj 24 382 >;
#X obj 3 459 pack 0 0 0;
#X obj -37 399 spigot;
#X obj -3 362 t f f;
#X obj -3 439 spigot;
#X obj -3 419 - 1;
#X obj -37 479 list;
#X obj -37 287 route NULL;
#X obj 20 122 t a a a;
#X obj -39 167 t b b b a;
#X obj 12 539 list prepend delete;
#X obj 12 559 s \$0-obj;
#X obj 12 519 t a b;
#X obj 66 619 s \$0-env.data;
#X obj 54 639 r _\$0-env.data;
#X obj 39 659 f;
#X obj 39 599 t b a;
#X obj 39 719 s \$0-env.data;
#X msg 39 579 obj.count;
#X msg 39 699 obj.count \$1;
#X obj 39 679 - 1;
#X obj -37 499 ladd3;
#X msg -66 518;
#X msg 0 499 set;
#X obj -66 187 t b b;
#X obj -66 543 s \$0-obj;
#X connect 0 0 2 0;
#X connect 2 0 8 0;
#X connect 2 1 4 0;
#X connect 4 0 7 0;
#X connect 5 0 6 1;
#X connect 6 0 9 0;
#X connect 7 0 6 0;
#X connect 7 1 3 0;
#X connect 8 0 45 0;
#X connect 8 1 10 0;
#X connect 9 0 8 1;
#X connect 13 0 12 0;
#X connect 14 0 16 0;
#X connect 14 1 15 0;
#X connect 15 0 17 2;
#X connect 16 0 17 0;
#X connect 17 0 21 0;
#X connect 18 0 20 0;
#X connect 18 1 19 0;
#X connect 19 0 17 3;
#X connect 20 0 17 1;
#X connect 21 0 11 0;
#X connect 25 0 27 1;
#X connect 26 0 27 0;
#X connect 26 1 24 0;
#X connect 27 0 28 0;
#X connect 28 0 37 1;
#X connect 28 1 14 0;
#X connect 28 2 18 0;
#X connect 29 0 44 0;
#X connect 31 0 29 0;
#X connect 32 0 29 1;
#X connect 33 0 29 1;
#X connect 34 0 30 0;
#X connect 35 0 40 0;
#X connect 35 1 38 1;
#X connect 35 2 38 2;
#X connect 36 0 39 0;
#X connect 36 1 35 0;
#X connect 37 0 39 1;
#X connect 37 0 41 1;
#X connect 38 0 43 1;
#X connect 39 0 43 0;
#X connect 40 0 42 0;
#X connect 40 1 37 0;
#X connect 41 0 38 0;
#X connect 42 0 41 0;
#X connect 43 0 58 0;
#X connect 44 1 36 0;
#X connect 45 0 46 0;
#X connect 45 1 26 0;
#X connect 45 2 13 0;
#X connect 46 0 61 0;
#X connect 46 1 34 0;
#X connect 46 2 33 0;
#X connect 46 2 60 0;
#X connect 46 3 49 0;
#X connect 47 0 48 0;
#X connect 49 0 47 0;
#X connect 49 1 55 0;
#X connect 51 0 52 1;
#X connect 52 0 57 0;
#X connect 53 0 52 0;
#X connect 53 1 50 0;
#X connect 55 0 53 0;
#X connect 56 0 54 0;
#X connect 57 0 56 0;
#X connect 58 0 59 0;
#X connect 59 0 62 0;
#X connect 60 0 59 0;
#X connect 61 0 59 0;
#X connect 61 1 32 0;
#X restore -195 -49 pd obj.delete();
#N canvas 1390 376 166 240 obj.set_count() 0;
#X obj 24 -29 s \$0-obj;
#X obj 18 -9 r _\$0-obj;
#X obj -3 -89 r \$0-obj.set_count();
#X text 33 -70 <obj_name> <count>;
#X obj -3 11 list;
#X obj 24 -49 list split 1;
#X obj -3 71 f;
#X obj -3 31 list split 1;
#X obj -3 51 b;
#X obj 10 91 list;
#X obj -3 -69 t b a;
#X obj 10 111 s \$0-obj;
#X connect 1 0 4 1;
#X connect 2 0 10 0;
#X connect 4 0 7 0;
#X connect 5 0 0 0;
#X connect 5 1 6 1;
#X connect 6 0 9 0;
#X connect 7 0 8 0;
#X connect 7 1 9 1;
#X connect 8 0 6 0;
#X connect 9 0 11 0;
#X connect 10 0 4 0;
#X connect 10 1 5 0;
#X restore -79 -69 pd obj.set_count();
#X restore 20 -60 pd obj.methods;
#N canvas 924 179 340 297 connection.methods 0;
#N canvas 729 436 237 284 connection_unit 0;
#X obj 23 -11 inlet;
#X obj -1 229 outlet;
#X obj 111 79 route float;
#X obj 77 39 list split 1;
#X obj 16 147 f;
#X obj 91 146 f;
#X msg 50 119 0;
#X obj 144 99 == 0;
#X obj 111 119 spigot;
#X obj 153 119 spigot;
#X obj 37 146 anything;
#X obj -1 76 t a b b b;
#X obj 37 168 list;
#X obj 16 188 list;
#X obj -1 208 list;
#X obj 23 9 t a b;
#X obj 186 99 > 0;
#X obj 111 59 liter;
#X connect 0 0 15 0;
#X connect 2 0 8 0;
#X connect 2 0 9 0;
#X connect 2 1 10 1;
#X connect 3 0 11 0;
#X connect 3 1 17 0;
#X connect 4 0 13 0;
#X connect 5 0 12 1;
#X connect 6 0 5 1;
#X connect 6 0 4 1;
#X connect 7 0 8 1;
#X connect 8 0 4 1;
#X connect 9 0 5 0;
#X connect 10 0 12 0;
#X connect 11 0 14 0;
#X connect 11 1 4 0;
#X connect 11 2 10 0;
#X connect 11 3 5 0;
#X connect 12 0 13 1;
#X connect 13 0 14 1;
#X connect 14 0 1 0;
#X connect 15 0 3 0;
#X connect 15 1 6 0;
#X connect 16 0 9 1;
#X connect 17 0 2 0;
#X connect 17 1 7 0;
#X connect 17 1 16 0;
#X restore -9 31 pd connection_unit;
#X obj -9 -9 r \$0-connect();
#X obj -9 131 s _\$0-connect();
#X obj 108 131 s _\$0-disconnect();
#X obj 108 -9 r \$0-disconnect();
#X obj -9 111 ggate;
#N canvas 1053 298 248 404 compile 0;
#X obj 29 26 list split 1;
#X obj 63 46 list split 1;
#X obj 97 66 list split 1;
#X obj 76 166 list;
#X obj 29 186 list;
#X obj 22 226 s \$0-obj.get_count();
#X obj 10 246 r _\$0-obj.get_count();
#X obj -5 286 list;
#X obj -5 326 list trim;
#X obj -5 266 f;
#X obj -5 206 t b a;
#X obj 90 106 s \$0-obj.get_count();
#X obj 78 126 r _\$0-obj.get_count();
#X obj 63 146 f;
#X obj 63 86 t b a;
#X obj -5 347 outlet;
#X obj -5 -14 inlet;
#X obj -5 6 list split 1;
#X obj -5 306 list prepend;
#X obj 64 -14 inlet;
#X connect 0 0 4 0;
#X connect 0 1 1 0;
#X connect 1 0 14 0;
#X connect 1 1 2 0;
#X connect 2 0 3 1;
#X connect 3 0 4 1;
#X connect 4 0 7 1;
#X connect 6 0 9 1;
#X connect 7 0 18 0;
#X connect 8 0 15 0;
#X connect 9 0 7 0;
#X connect 10 0 9 0;
#X connect 10 1 5 0;
#X connect 12 0 13 1;
#X connect 13 0 3 0;
#X connect 14 0 13 0;
#X connect 14 1 11 0;
#X connect 16 0 17 0;
#X connect 17 0 10 0;
#X connect 17 1 0 0;
#X connect 18 0 8 0;
#X connect 19 0 18 1;
#X restore -9 71 pd compile;
#X obj 108 13 t a b b;
#X obj -9 11 t a b b;
#X msg 10 51 connect;
#X msg 127 51 disconnect;
#X msg 30 91 0;
#X msg 147 91 1;
#X connect 0 0 6 0;
#X connect 1 0 8 0;
#X connect 4 0 7 0;
#X connect 5 0 2 0;
#X connect 5 1 3 0;
#X connect 6 0 5 0;
#X connect 7 0 0 0;
#X connect 7 1 10 0;
#X connect 7 2 12 0;
#X connect 8 0 0 0;
#X connect 8 1 9 0;
#X connect 8 2 11 0;
#X connect 9 0 6 1;
#X connect 10 0 6 1;
#X connect 11 0 5 1;
#X connect 12 0 5 1;
#X restore -4 -80 pd connection.methods;
#X connect 0 0 3 0;
#X connect 1 0 3 0;
#X connect 2 0 3 0;
#X connect 3 0 4 0;
#X connect 4 0 5 0;
#X connect 7 0 3 0;
#X connect 8 0 3 0;
#X restore 12 24 pd environments;
#X obj 0 4 r \$0-abstractions;
#N canvas 862 449 530 501 _environments 0;
#X obj -16 213 s _\$0-obj;
#X obj 65 173 t a b;
#X obj 65 213 dprint;
#X obj 53 27 symbol;
#X obj 53 7 r \$0-environments.active;
#X obj 122 235 makefilename %s.data;
#X obj 53 255 route symbol;
#X obj -16 115 route symbol;
#X obj -16 -45 inlet;
#X obj 53 75 makefilename %s.obj;
#X obj 140 296 t a b;
#X obj 140 356 dprint;
#X msg 98 153 ERROR - reference to undefined obj in environment \$1
;
#X msg 173 336 ERROR - reference to undefined data in environment \$1
;
#X obj 53 336 s _\$0-env.data;
#X msg 5 190 undefined;
#X msg 66 313 undefined;
#X obj -16 -25 route environments;
#X obj 53 47 t s s s s s s;
#X obj 122 378 route symbol;
#X obj 191 358 makefilename %s.manager;
#X obj 122 398 s _\$0-manager;
#X obj 167 316 s \$0-error;
#X obj 92 193 s \$0-error;
#X obj -16 135 route match nomatch all;
#X obj 53 275 route match nomatch all;
#X connect 1 0 2 0;
#X connect 1 1 15 0;
#X connect 1 1 23 0;
#X connect 3 0 18 0;
#X connect 4 0 3 0;
#X connect 5 0 6 1;
#X connect 6 0 25 0;
#X connect 6 1 19 0;
#X connect 7 0 24 0;
#X connect 7 1 6 0;
#X connect 8 0 17 0;
#X connect 9 0 7 1;
#X connect 10 0 11 0;
#X connect 10 1 16 0;
#X connect 10 1 22 0;
#X connect 12 0 2 1;
#X connect 13 0 11 1;
#X connect 15 0 0 0;
#X connect 16 0 14 0;
#X connect 17 0 7 0;
#X connect 18 0 9 0;
#X connect 18 1 5 0;
#X connect 18 3 13 0;
#X connect 18 3 12 0;
#X connect 18 4 20 0;
#X connect 19 0 21 0;
#X connect 20 0 19 1;
#X connect 24 0 0 0;
#X connect 24 1 1 0;
#X connect 24 2 0 0;
#X connect 25 0 14 0;
#X connect 25 1 10 0;
#X connect 25 2 14 0;
#X restore 12 104 pd _environments;
#X obj 42 44 r \$0-reset;
#X msg 42 64 reset \, init abstractions environments;
#X obj 12 84 abstractions;
#X connect 0 0 5 0;
#X connect 1 0 5 0;
#X connect 3 0 4 0;
#X connect 4 0 5 0;
#X connect 5 0 2 0;
#X restore 23 -4 pd abstractions;
#N canvas 1147 23 283 851 \$0-sandbox 0;
#X restore 23 76 pd \$0-sandbox;
#N canvas 411 311 1213 748 parse 0;
#X obj 2 23 list trim;
#X obj 404 283 route connect;
#X obj 479 343 route disconnect;
#X obj 572 403 route delete;
#X obj 641 463 route target;
#X obj 2 43 route obj;
#X obj 710 503 route init;
#X obj 767 543 route loadbang;
#X obj 2 63 s \$0-obj.new();
#X obj 2 263 r _\$0-obj.new();
#X obj 404 303 s \$0-connect();
#X obj 479 363 s \$0-disconnect();
#X obj 404 323 r _\$0-connect();
#X obj 479 383 r _\$0-disconnect();
#X obj 572 423 s \$0-obj.delete();
#X obj 572 443 r _\$0-obj.delete();
#X obj 641 483 s \$0-environments.set_active();
#X msg 767 563 loadbang;
#X obj 1025 643 print ERROR - invalid syntax;
#X obj 2 660 list trim;
#X obj 2 680 outlet;
#X obj 2 3 inlet;
#X obj 848 563 route send;
#X obj 848 643 s;
#X obj 848 603 t b a;
#X obj 848 583 list split 1;
#X obj 53 83 route msg;
#X obj 53 103 s \$0-msg.new();
#X obj 104 123 route floatatom;
#X obj 191 163 route symbolatom;
#X obj 104 143 s \$0-floatatom.new();
#X obj 191 183 s \$0-symbolatom.new();
#X obj 284 203 route array;
#X obj 284 223 s \$0-array.new();
#X obj 905 603 route clear;
#X obj 905 623 b;
#X obj 968 623 route view;
#X msg 968 643 vis 1;
#X obj 905 687 anything;
#X obj 950 667 r \$0-environments.active;
#X msg 905 643 clear;
#X obj 905 707 s \$0-environments.init();
#X obj 710 523 s \$0-init();
#X obj 347 243 route text;
#X obj 347 263 s \$0-text.new();
#X obj 848 623 anything;
#X text 346 80 Takes PdScript syntax and converts it to Pd's native
dynamic patching syntax.;
#X connect 0 0 5 0;
#X connect 1 0 10 0;
#X connect 1 1 2 0;
#X connect 2 0 11 0;
#X connect 2 1 3 0;
#X connect 3 0 14 0;
#X connect 3 1 4 0;
#X connect 4 0 16 0;
#X connect 4 1 6 0;
#X connect 5 0 8 0;
#X connect 5 1 26 0;
#X connect 6 0 42 0;
#X connect 6 1 7 0;
#X connect 7 0 17 0;
#X connect 7 1 22 0;
#X connect 9 0 19 0;
#X connect 12 0 19 0;
#X connect 13 0 19 0;
#X connect 15 0 19 0;
#X connect 17 0 19 0;
#X connect 19 0 20 0;
#X connect 21 0 0 0;
#X connect 22 0 25 0;
#X connect 22 1 34 0;
#X connect 24 0 45 0;
#X connect 24 1 23 1;
#X connect 25 0 24 0;
#X connect 25 1 45 1;
#X connect 26 0 27 0;
#X connect 26 1 28 0;
#X connect 28 0 30 0;
#X connect 28 1 29 0;
#X connect 29 0 31 0;
#X connect 29 1 32 0;
#X connect 32 0 33 0;
#X connect 32 1 43 0;
#X connect 34 0 35 0;
#X connect 34 1 36 0;
#X connect 35 0 38 0;
#X connect 35 0 40 0;
#X connect 36 0 37 0;
#X connect 36 1 18 0;
#X connect 37 0 19 0;
#X connect 38 0 41 0;
#X connect 39 0 38 1;
#X connect 40 0 19 0;
#X connect 43 0 44 0;
#X connect 43 1 1 0;
#X connect 45 0 23 0;
#X restore 23 36 pd parse;
#N canvas 1265 285 407 208 output 0;
#X obj -146 145 s;
#X obj -131 85 r \$0-environments.active;
#X obj -131 125 makefilename pd-%s;
#X obj -46 5 r \$0-error;
#X obj -136 65 r \$0-output;
#X obj -146 -35 inlet;
#X obj -46 45 print DYNAMICPD-ERROR has been thrown;
#X obj -146 45 spigot;
#X obj -113 -14 r \$0-reset;
#X msg -113 25 1;
#X msg -86 25 0;
#X msg -46 25 send "init" to reset to initial configuration;
#X obj -131 105 symbol;
#X obj -47 -15 loadbang;
#X obj 27 82 print PdScript-Output;
#X connect 1 0 12 0;
#X connect 2 0 0 1;
#X connect 3 0 11 0;
#X connect 3 0 10 0;
#X connect 4 0 0 0;
#X connect 4 0 14 0;
#X connect 5 0 7 0;
#X connect 7 0 0 0;
#X connect 7 0 14 0;
#X connect 8 0 9 0;
#X connect 9 0 7 1;
#X connect 10 0 7 1;
#X connect 11 0 6 0;
#X connect 12 0 2 0;
#X connect 13 0 9 0;
#X restore 23 56 pd output;
#N canvas 577 101 343 338 init 0;
#X obj -47 12 b;
#X msg -35 263 clear;
#X obj -20 223 s \$0-reset;
#X obj -4 203 s \$0-environments.init();
#X obj -4 163 f \$0;
#X msg -4 183 \$1-sandbox;
#X obj -35 283 s pd-\$0-sandbox;
#X obj 64 283 s \$0-output;
#X obj -35 143 sel 1 2 3 4;
#X obj -4 243 print Dynamic Pd INIT;
#X obj 1 12 bng 15 250 50 0 empty empty empty 17 7 0 10 -262144 -1
-1;
#X obj -47 -11 r \$0-init();
#X obj -47 103 until;
#X obj -47 63 t f b;
#X obj -35 123 f;
#X obj -10 123 + 1;
#X msg -20 83 1;
#X msg -47 43 4;
#X text 9 72 <- Could be replaced by [uzi] \,;
#X text 26 88 but I wanted to make it vanilla-compatible;
#X connect 0 0 17 0;
#X connect 1 0 6 0;
#X connect 1 0 7 0;
#X connect 4 0 5 0;
#X connect 5 0 3 0;
#X connect 5 0 9 0;
#X connect 8 0 1 0;
#X connect 8 1 2 0;
#X connect 8 2 4 0;
#X connect 10 0 17 0;
#X connect 11 0 0 0;
#X connect 12 0 14 0;
#X connect 13 0 12 0;
#X connect 13 1 16 0;
#X connect 14 0 15 0;
#X connect 14 0 8 0;
#X connect 15 0 14 1;
#X connect 16 0 14 1;
#X connect 17 0 13 0;
#X restore 23 -24 pd init;
#N canvas 229 521 685 336 \$0-tests 0;
#X msg 15 21 init;
#X msg 39 93 connect foo bar;
#X msg 45 113 loadbang;
#X msg 51 153 delete foo;
#X msg 48 133 disconnect foo bar;
#X msg 58 173 delete bar;
#X obj 13 250 s \$0-dynamicpd;
#X msg 129 214 array test 515;
#X msg 204 252 environments view;
#X obj 204 277 s \$0-abstractions;
#X msg 29 53 obj foo loadbang;
#X msg 33 73 obj bar print;
#X msg 143 167 connect foo baz;
#X msg 167 90 msg baz fot wop;
#X msg 174 109 floatatom num 10;
#X text 46 19 <- always call separately;
#N canvas 924 23 438 851 test_subpatch 0;
#X restore 286 20 pd test_subpatch;
#X msg 144 188 connect baz bar;
#X msg 179 131 obj the_toggle tgl;
#X msg 286 41 target test_subpatch \, clear \, obj methods r methods
\, obj router route 0 1 2 3 4 \, msg message There will be coffee!
\, obj printer print Hello World! \, connect methods router \, connect
router 3 message \, connect message printer \, send methods 3;
#X msg 131 231 view;
#X msg 258 189 text foo bar;
#X msg 109 270 clear;
#X connect 0 0 6 0;
#X connect 1 0 6 0;
#X connect 2 0 6 0;
#X connect 3 0 6 0;
#X connect 4 0 6 0;
#X connect 5 0 6 0;
#X connect 7 0 6 0;
#X connect 8 0 9 0;
#X connect 10 0 6 0;
#X connect 11 0 6 0;
#X connect 12 0 6 0;
#X connect 13 0 6 0;
#X connect 14 0 6 0;
#X connect 17 0 6 0;
#X connect 18 0 6 0;
#X connect 19 0 6 0;
#X connect 20 0 6 0;
#X connect 21 0 6 0;
#X connect 22 0 6 0;
#X restore 60 16 pd \$0-tests;
#X connect 0 0 4 0;
#X connect 1 0 4 0;
#X connect 4 0 5 0;
