#N canvas 98 32 584 405 10;
#X obj -6 0 inlet;
#N canvas 159 86 1018 625 evaluate 0;
#X obj 7 156 inlet;
#X obj 505 296 f;
#X obj 225 380 +;
#X obj 249 380 -;
#X obj 273 380 *;
#X obj 297 380 /;
#X obj 321 380 pow;
#X obj 345 380 max;
#X obj 369 380 min;
#X obj 393 380 atan2;
#X msg 8 55 1;
#X msg 21 55 2;
#X msg 35 55 3;
#X msg 48 55 4;
#X msg 75 55 5;
#X msg 89 55 6;
#X msg 102 55 7;
#X msg 116 55 8;
#X obj 200 517 log;
#X obj 224 517 exp;
#X obj 248 517 abs;
#X obj 170 517 sqrt;
#X obj 272 517 sin;
#X obj 296 517 cos;
#X obj 320 517 tan;
#X obj 344 517 atan;
#X msg 411 518 seed \$1;
#X obj 504 544 random 100;
#X obj 374 517 t b f;
#X msg 395 92 1;
#X msg 408 92 2;
#X msg 422 92 3;
#X msg 436 92 4;
#X msg 450 92 5;
#X msg 464 92 6;
#X msg 478 92 7;
#X msg 492 92 8;
#X msg 506 92 9;
#X msg 519 92 10;
#X obj 773 457 t a b;
#X obj 728 279 t b a;
#N canvas 848 97 272 322 liter 0;
#X obj 92 -355 list split 1;
#X obj 92 -501 t a a;
#X obj 119 -480 list length;
#X obj 92 -441 t a a;
#X obj 119 -420 list length;
#X obj 105 -312 list;
#X obj 65 -334 t b a;
#X obj 119 -398 swap;
#X obj 119 -377 -;
#X obj 140 -233 outlet INDEX;
#X obj 46 -233 outlet ELEMENT;
#X obj 92 -521 inlet LIST_TO_ITERATE;
#X obj 140 -326 t a a;
#X obj 140 -284 spigot;
#X obj 167 -304 <;
#X obj 46 -271 list trim;
#X connect 0 0 6 0;
#X connect 0 1 5 1;
#X connect 1 0 3 0;
#X connect 1 1 2 0;
#X connect 2 0 7 1;
#X connect 2 0 14 1;
#X connect 3 0 0 0;
#X connect 3 1 4 0;
#X connect 4 0 7 0;
#X connect 5 0 3 0;
#X connect 6 0 5 0;
#X connect 6 1 15 0;
#X connect 7 0 8 0;
#X connect 7 1 8 1;
#X connect 8 0 12 0;
#X connect 11 0 1 0;
#X connect 12 0 13 0;
#X connect 12 1 14 0;
#X connect 13 0 9 0;
#X connect 14 0 13 1;
#X connect 15 0 10 0;
#X restore 22 330 pd liter;
#X obj 67 350 == 0;
#N canvas 47 166 176 183 ggate 0;
#X obj -249 -112 spigot;
#X obj -301 -136 == 0;
#X obj -267 -221 inlet;
#X obj -334 -220 inlet;
#X obj -249 -89 outlet;
#X obj -334 -90 outlet;
#X obj -334 -113 spigot;
#X obj -267 -156 t f f;
#X obj -334 -186 t a a;
#X obj -240 -135 > 0;
#X obj -255 -200 loadbang;
#X msg -259 -178 0;
#X connect 0 0 4 0;
#X connect 1 0 6 1;
#X connect 2 0 7 0;
#X connect 3 0 8 0;
#X connect 6 0 5 0;
#X connect 7 0 1 0;
#X connect 7 1 9 0;
#X connect 8 0 6 0;
#X connect 8 1 0 0;
#X connect 9 0 0 1;
#X connect 10 0 11 0;
#X connect 11 0 7 0;
#X restore 22 371 pd ggate;
#X obj 67 391 t a a;
#X msg 116 461 1;
#X msg 54 249 +;
#X msg 38 289 0;
#X obj 7 541 f;
#N canvas 567 214 202 144 ggate 0;
#X obj 141 5 inlet;
#X obj 8 5 inlet;
#X obj 8 72 spigot;
#X obj 8 97 outlet;
#X obj 108 72 spigot;
#X obj 108 97 outlet;
#X obj 41 47 == 0;
#X obj 141 47 == 1;
#X obj 68 2 loadbang;
#X msg 68 22 0;
#X connect 0 0 6 0;
#X connect 0 0 7 0;
#X connect 1 0 2 0;
#X connect 1 0 4 0;
#X connect 2 0 3 0;
#X connect 4 0 5 0;
#X connect 6 0 2 1;
#X connect 7 0 4 1;
#X connect 8 0 9 0;
#X connect 9 0 6 0;
#X connect 9 0 7 0;
#X restore 728 257 pd ggate;
#X msg 773 237 0;
#X msg 785 237 1;
#N canvas 373 71 421 384 tests 0;
#X obj 4 293 outlet;
#X msg 4 -50 rand 8;
#X msg 53 -50 seed 50 rand 6;
#X msg 16 127 1 + 5;
#X msg 142 127 4 5 -10 -100 abs -1;
#X msg 60 127 sqrt 4 foo 1;
#X obj 4 -22 s \$0-evaluate.tests;
#X obj 19 179 s \$0-evaluate.tests;
#X obj 4 269 r \$0-evaluate.tests;
#X connect 1 0 6 0;
#X connect 2 0 6 0;
#X connect 3 0 7 0;
#X connect 4 0 7 0;
#X connect 5 0 7 0;
#X connect 8 0 0 0;
#X restore 46 156 pd tests;
#X msg 152 461 1e+37;
#X obj 116 440 b;
#X obj 728 112 route float;
#X obj 152 440 b;
#X obj 192 440 b;
#X msg 192 461 -1e+37;
#X obj 7 581 outlet;
#X obj 54 269 s \$0-evaluate.top;
#X obj 38 309 s \$0-evaluate.store;
#X obj 116 481 s \$0-evaluate.store;
#X obj 22 521 r \$0-evaluate.store;
#X obj 22 501 s \$0-evaluate.top;
#X obj 8 -12 r \$0-evaluate.top;
#X obj 154 97 s \$0-evaluate.binop;
#X obj 519 137 s \$0-evaluate.monop;
#X obj 761 172 r \$0-evaluate.close_monop;
#X obj 773 192 r \$0-evaluate.binop;
#X obj 785 212 r \$0-evaluate.monop;
#X obj 520 276 r \$0-evaluate.store;
#X obj 232 296 r \$0-evaluate.binop;
#X obj 449 416 s \$0-evaluate.store;
#X obj 446 456 r \$0-evaluate.monop;
#X obj 800 477 s \$0-evaluate.close_monop;
#X obj 524 571 s \$0-evaluate.top;
#X obj 547 300 r \$0-evaluate.binop;
#N canvas 924 223 515 279 f> 0;
#X obj 33 16 inlet;
#X obj 33 36 t a a;
#X obj 33 93 outlet;
#X obj 33 73 spigot;
#X obj 113 75 sel 0;
#X obj 78 53 >= 0;
#X msg 113 95 Pure Data Bug: [pow] will not work with negative bases.
;
#X obj 113 115 print EVALUATE-WARNING;
#X connect 0 0 1 0;
#X connect 1 0 3 0;
#X connect 1 1 5 0;
#X connect 3 0 2 0;
#X connect 4 0 6 0;
#X connect 5 0 3 1;
#X connect 5 0 4 0;
#X connect 6 0 7 0;
#X restore 294 360 pd f> 0;
#X obj 429 380 >;
#X obj 453 380 >=;
#X obj 477 380 ==;
#X obj 525 380 <=;
#X obj 549 380 <;
#X obj 501 380 !=;
#X obj 573 380 mod;
#X obj 597 380 div;
#X obj 621 380 &;
#X obj 645 380 |;
#X obj 717 380 &&;
#X obj 741 380 ||;
#X obj 669 380 <<;
#X obj 693 380 >>;
#X obj 765 380 %;
#X msg 129 55 9;
#X msg 143 55 10;
#X msg 156 55 11;
#X msg 170 55 12;
#X msg 183 55 13;
#X msg 197 55 14;
#X msg 210 55 15;
#X msg 237 55 16;
#X msg 251 55 17;
#X msg 264 55 18;
#X msg 278 55 19;
#X msg 291 55 20;
#X msg 305 55 21;
#X msg 318 55 22;
#X msg 332 55 23;
#X msg 533 92 11;
#X msg 547 92 12;
#X msg 561 92 13;
#N canvas 880 499 450 300 cot 0;
#X obj 130 52 inlet;
#X obj 130 72 t b f;
#X msg 124 108 1;
#X obj 157 110 tan;
#X obj 141 142 /;
#X obj 144 168 outlet;
#X connect 0 0 1 0;
#X connect 1 0 2 0;
#X connect 1 1 3 0;
#X connect 2 0 4 0;
#X connect 3 0 4 1;
#X connect 4 0 5 0;
#X restore 461 518 pd cot;
#N canvas 922 494 450 300 sec 0;
#X obj 140 62 inlet;
#X obj 140 82 t b f;
#X msg 134 118 1;
#X obj 151 152 /;
#X obj 154 178 outlet;
#X obj 167 120 cos;
#X connect 0 0 1 0;
#X connect 1 0 2 0;
#X connect 1 1 5 0;
#X connect 2 0 3 0;
#X connect 3 0 4 0;
#X connect 5 0 3 1;
#X restore 503 518 pd sec;
#N canvas 854 563 450 300 csc 0;
#X obj 150 72 inlet;
#X obj 150 92 t b f;
#X msg 144 128 1;
#X obj 161 162 /;
#X obj 164 188 outlet;
#X obj 177 130 sin;
#X connect 0 0 1 0;
#X connect 1 0 2 0;
#X connect 1 1 5 0;
#X connect 2 0 3 0;
#X connect 3 0 4 0;
#X connect 5 0 3 1;
#X restore 545 518 pd csc;
#N canvas 872 502 450 300 cosh 0;
#X obj 88 94 exp;
#X obj 118 94 exp;
#X obj 99 132 +;
#X obj 99 153 / 2;
#X obj 117 71 * -1;
#X obj 89 20 inlet;
#X obj 90 41 t f f;
#X obj 98 178 outlet;
#X connect 0 0 2 0;
#X connect 1 0 2 1;
#X connect 2 0 3 0;
#X connect 3 0 7 0;
#X connect 4 0 1 0;
#X connect 5 0 6 0;
#X connect 6 0 0 0;
#X connect 6 1 4 0;
#X restore 587 518 pd cosh;
#N canvas 931 499 450 300 sinh 0;
#X obj 149 64 inlet;
#X obj 152 91 t f f;
#X obj 177 123 * -1;
#X obj 180 147 exp;
#X obj 149 123 exp;
#X obj 158 178 -;
#X obj 158 202 / 2;
#X obj 158 226 outlet;
#X connect 0 0 1 0;
#X connect 1 0 4 0;
#X connect 1 1 2 0;
#X connect 2 0 3 0;
#X connect 3 0 5 1;
#X connect 4 0 5 0;
#X connect 5 0 6 0;
#X connect 6 0 7 0;
#X restore 635 518 pd sinh;
#N canvas 967 500 450 300 tanh 0;
#X obj 131 47 inlet;
#X obj 129 71 t f f;
#X obj 135 129 /;
#N canvas 872 502 450 300 cosh 0;
#X obj 88 94 exp;
#X obj 118 94 exp;
#X obj 99 132 +;
#X obj 99 153 / 2;
#X obj 117 71 * -1;
#X obj 89 20 inlet;
#X obj 90 41 t f f;
#X obj 98 178 outlet;
#X connect 0 0 2 0;
#X connect 1 0 2 1;
#X connect 2 0 3 0;
#X connect 3 0 7 0;
#X connect 4 0 1 0;
#X connect 5 0 6 0;
#X connect 6 0 0 0;
#X connect 6 1 4 0;
#X restore 161 100 pd cosh;
#N canvas 931 499 450 300 sinh 0;
#X obj 149 64 inlet;
#X obj 152 91 t f f;
#X obj 177 123 * -1;
#X obj 180 147 exp;
#X obj 149 123 exp;
#X obj 158 178 -;
#X obj 158 202 / 2;
#X obj 158 226 outlet;
#X connect 0 0 1 0;
#X connect 1 0 4 0;
#X connect 1 1 2 0;
#X connect 2 0 3 0;
#X connect 3 0 5 1;
#X connect 4 0 5 0;
#X connect 5 0 6 0;
#X connect 6 0 7 0;
#X restore 87 102 pd sinh;
#X obj 136 159 outlet;
#X connect 0 0 1 0;
#X connect 1 0 4 0;
#X connect 1 1 3 0;
#X connect 2 0 5 0;
#X connect 3 0 2 1;
#X connect 4 0 2 0;
#X restore 683 518 pd tanh;
#N canvas 894 548 450 300 sech 0;
#X obj 176 101 swap 1;
#X obj 176 46 inlet;
#X obj 175 133 /;
#N canvas 872 502 450 300 cosh 0;
#X obj 88 94 exp;
#X obj 118 94 exp;
#X obj 99 132 +;
#X obj 99 153 / 2;
#X obj 117 71 * -1;
#X obj 89 20 inlet;
#X obj 90 41 t f f;
#X obj 98 178 outlet;
#X connect 0 0 2 0;
#X connect 1 0 2 1;
#X connect 2 0 3 0;
#X connect 3 0 7 0;
#X connect 4 0 1 0;
#X connect 5 0 6 0;
#X connect 6 0 0 0;
#X connect 6 1 4 0;
#X restore 176 74 pd cosh;
#X obj 175 160 outlet;
#X connect 0 0 2 0;
#X connect 0 1 2 1;
#X connect 1 0 3 0;
#X connect 2 0 4 0;
#X connect 3 0 0 0;
#X restore 731 518 pd sech;
#N canvas 829 541 450 300 coth 0;
#X obj 174 77 inlet;
#N canvas 967 500 450 300 tanh 0;
#X obj 131 47 inlet;
#X obj 129 71 t f f;
#X obj 135 129 /;
#N canvas 872 502 450 300 cosh 0;
#X obj 88 94 exp;
#X obj 118 94 exp;
#X obj 99 132 +;
#X obj 99 153 / 2;
#X obj 117 71 * -1;
#X obj 89 20 inlet;
#X obj 90 41 t f f;
#X obj 98 178 outlet;
#X connect 0 0 2 0;
#X connect 1 0 2 1;
#X connect 2 0 3 0;
#X connect 3 0 7 0;
#X connect 4 0 1 0;
#X connect 5 0 6 0;
#X connect 6 0 0 0;
#X connect 6 1 4 0;
#X restore 161 100 pd cosh;
#N canvas 931 499 450 300 sinh 0;
#X obj 149 64 inlet;
#X obj 152 91 t f f;
#X obj 177 123 * -1;
#X obj 180 147 exp;
#X obj 149 123 exp;
#X obj 158 178 -;
#X obj 158 202 / 2;
#X obj 158 226 outlet;
#X connect 0 0 1 0;
#X connect 1 0 4 0;
#X connect 1 1 2 0;
#X connect 2 0 3 0;
#X connect 3 0 5 1;
#X connect 4 0 5 0;
#X connect 5 0 6 0;
#X connect 6 0 7 0;
#X restore 87 102 pd sinh;
#X obj 136 159 outlet;
#X connect 0 0 1 0;
#X connect 1 0 4 0;
#X connect 1 1 3 0;
#X connect 2 0 5 0;
#X connect 3 0 2 1;
#X connect 4 0 2 0;
#X restore 174 99 pd tanh;
#X obj 174 122 swap 1;
#X obj 174 147 /;
#X obj 175 173 outlet;
#X connect 0 0 1 0;
#X connect 1 0 2 0;
#X connect 2 0 3 0;
#X connect 2 1 3 1;
#X connect 3 0 4 0;
#X restore 827 518 pd coth;
#N canvas 752 557 450 300 csch 0;
#N canvas 931 499 450 300 sinh 0;
#X obj 149 64 inlet;
#X obj 152 91 t f f;
#X obj 177 123 * -1;
#X obj 180 147 exp;
#X obj 149 123 exp;
#X obj 158 178 -;
#X obj 158 202 / 2;
#X obj 158 226 outlet;
#X connect 0 0 1 0;
#X connect 1 0 4 0;
#X connect 1 1 2 0;
#X connect 2 0 3 0;
#X connect 3 0 5 1;
#X connect 4 0 5 0;
#X connect 5 0 6 0;
#X connect 6 0 7 0;
#X restore 109 69 pd sinh;
#X obj 109 43 inlet;
#X obj 109 92 swap 1;
#X obj 108 116 /;
#X obj 107 140 outlet;
#X connect 0 0 2 0;
#X connect 1 0 0 0;
#X connect 2 0 3 0;
#X connect 2 1 3 1;
#X connect 3 0 4 0;
#X restore 779 518 pd csch;
#X msg 575 92 14;
#X msg 589 92 15;
#X msg 603 92 16;
#X msg 617 92 17;
#X msg 630 92 18;
#X msg 644 92 19;
#N canvas 424 211 450 300 round 0;
#X obj 17 -10 t f f;
#X obj 17 68 -;
#X obj 47 112 >= 0.5;
#X obj 32 44 t f f;
#X obj 48 155 + 1;
#X obj 17 -34 inlet;
#X obj 34 180 outlet;
#X obj 32 18 int;
#X obj 19 91 t b f;
#X obj 21 111 f;
#N canvas 127 230 450 300 ggate 0;
#X obj 171 35 inlet;
#X obj 38 35 inlet;
#X obj 38 102 spigot;
#X obj 38 127 outlet;
#X obj 138 102 spigot;
#X obj 138 127 outlet;
#X obj 71 77 == 0;
#X obj 171 77 == 1;
#X obj 98 32 loadbang;
#X msg 98 52 0;
#X connect 0 0 6 0;
#X connect 0 0 7 0;
#X connect 1 0 2 0;
#X connect 1 0 4 0;
#X connect 2 0 3 0;
#X connect 4 0 5 0;
#X connect 6 0 2 1;
#X connect 7 0 4 1;
#X connect 8 0 9 0;
#X connect 9 0 6 0;
#X connect 9 0 7 0;
#X restore 21 132 pd ggate;
#X connect 0 0 1 0;
#X connect 0 1 7 0;
#X connect 1 0 8 0;
#X connect 2 0 10 1;
#X connect 3 0 1 1;
#X connect 3 1 9 1;
#X connect 4 0 6 0;
#X connect 5 0 0 0;
#X connect 7 0 3 0;
#X connect 8 0 9 0;
#X connect 8 1 2 0;
#X connect 9 0 10 0;
#X connect 10 0 6 0;
#X connect 10 1 4 0;
#X restore 875 518 pd round;
#X obj 929 518 int;
#N canvas 505 194 450 300 ceil 0;
#X obj 37 10 t f f;
#X obj 37 88 -;
#X obj 52 64 t f f;
#X obj 68 175 + 1;
#X obj 37 -14 inlet;
#X obj 54 200 outlet;
#X obj 52 38 int;
#X obj 39 111 t b f;
#X obj 41 131 f;
#N canvas 127 230 450 300 ggate 0;
#X obj 171 35 inlet;
#X obj 38 35 inlet;
#X obj 38 102 spigot;
#X obj 38 127 outlet;
#X obj 138 102 spigot;
#X obj 138 127 outlet;
#X obj 71 77 == 0;
#X obj 171 77 == 1;
#X obj 98 32 loadbang;
#X msg 98 52 0;
#X connect 0 0 6 0;
#X connect 0 0 7 0;
#X connect 1 0 2 0;
#X connect 1 0 4 0;
#X connect 2 0 3 0;
#X connect 4 0 5 0;
#X connect 6 0 2 1;
#X connect 7 0 4 1;
#X connect 8 0 9 0;
#X connect 9 0 6 0;
#X connect 9 0 7 0;
#X restore 41 152 pd ggate;
#X obj 67 132 > 0;
#X connect 0 0 1 0;
#X connect 0 1 6 0;
#X connect 1 0 7 0;
#X connect 2 0 1 1;
#X connect 2 1 8 1;
#X connect 3 0 5 0;
#X connect 4 0 0 0;
#X connect 6 0 2 0;
#X connect 7 0 8 0;
#X connect 7 1 10 0;
#X connect 8 0 9 0;
#X connect 9 0 5 0;
#X connect 9 1 3 0;
#X connect 10 0 9 1;
#X restore 953 518 pd ceil;
#X obj 395 39 route sqrt ln exp abs sin cos tan atan rand seed cot
sec csc cosh sinh tanh sech csch coth round floor ceil log10 log2;
#X msg 658 92 20;
#X msg 672 92 21;
#X msg 686 92 22;
#X msg 700 92 23;
#X msg 714 92 24;
#X obj 8 9 route + - * / pow ^ max min atan2 > >= == != <= < mod %
div & | << >> && || %% logn;
#X msg 345 55 24;
#N canvas 85 183 1357 319 gate24 0;
#X obj 56 58 inlet;
#X obj 127 58 inlet;
#X obj 47 170 == 1;
#X obj 20 195 spigot;
#X obj 20 220 outlet;
#X obj 147 170 == 2;
#X obj 120 195 spigot;
#X obj 120 220 outlet;
#X obj 247 170 == 3;
#X obj 220 195 spigot;
#X obj 220 220 outlet;
#X obj 347 170 == 4;
#X obj 320 195 spigot;
#X obj 320 220 outlet;
#X obj 447 170 == 5;
#X obj 420 195 spigot;
#X obj 420 220 outlet;
#X obj 547 170 == 6;
#X obj 520 195 spigot;
#X obj 520 220 outlet;
#X obj 647 170 == 7;
#X obj 620 195 spigot;
#X obj 620 220 outlet;
#X obj 747 170 == 8;
#X obj 720 195 spigot;
#X obj 720 220 outlet;
#X obj 847 170 == 9;
#X obj 820 195 spigot;
#X obj 820 220 outlet;
#X obj 947 170 == 10;
#X obj 920 195 spigot;
#X obj 920 220 outlet;
#X obj 1047 170 == 11;
#X obj 1020 195 spigot;
#X obj 1020 220 outlet;
#X obj 1147 170 == 12;
#X obj 1120 195 spigot;
#X obj 1120 220 outlet;
#X obj 1247 170 == 13;
#X obj 1220 195 spigot;
#X obj 1220 220 outlet;
#X obj 1347 170 == 14;
#X obj 1320 195 spigot;
#X obj 1320 220 outlet;
#X obj 1447 170 == 15;
#X obj 1420 195 spigot;
#X obj 1420 220 outlet;
#X obj 1547 170 == 16;
#X obj 1520 195 spigot;
#X obj 1520 220 outlet;
#X obj 1647 170 == 17;
#X obj 1620 195 spigot;
#X obj 1620 220 outlet;
#X obj 1747 170 == 18;
#X obj 1720 195 spigot;
#X obj 1720 220 outlet;
#X obj 1847 170 == 19;
#X obj 1820 195 spigot;
#X obj 1820 220 outlet;
#X obj 1947 170 == 20;
#X obj 1920 195 spigot;
#X obj 1920 220 outlet;
#X obj 2047 170 == 21;
#X obj 2020 195 spigot;
#X obj 2020 220 outlet;
#X obj 2147 170 == 22;
#X obj 2120 195 spigot;
#X obj 2120 220 outlet;
#X obj 2247 170 == 23;
#X obj 2220 195 spigot;
#X obj 2220 220 outlet;
#X obj 2347 170 >= 24;
#X obj 2320 195 spigot;
#X obj 2320 220 outlet;
#X connect 0 0 2 0;
#X connect 0 0 5 0;
#X connect 0 0 8 0;
#X connect 0 0 11 0;
#X connect 0 0 14 0;
#X connect 0 0 17 0;
#X connect 0 0 20 0;
#X connect 0 0 23 0;
#X connect 0 0 26 0;
#X connect 0 0 29 0;
#X connect 0 0 32 0;
#X connect 0 0 35 0;
#X connect 0 0 38 0;
#X connect 0 0 41 0;
#X connect 0 0 44 0;
#X connect 0 0 47 0;
#X connect 0 0 50 0;
#X connect 0 0 53 0;
#X connect 0 0 56 0;
#X connect 0 0 59 0;
#X connect 0 0 62 0;
#X connect 0 0 65 0;
#X connect 0 0 68 0;
#X connect 0 0 71 0;
#X connect 1 0 3 0;
#X connect 1 0 6 0;
#X connect 1 0 9 0;
#X connect 1 0 12 0;
#X connect 1 0 15 0;
#X connect 1 0 18 0;
#X connect 1 0 21 0;
#X connect 1 0 24 0;
#X connect 1 0 27 0;
#X connect 1 0 30 0;
#X connect 1 0 33 0;
#X connect 1 0 36 0;
#X connect 1 0 39 0;
#X connect 1 0 42 0;
#X connect 1 0 45 0;
#X connect 1 0 48 0;
#X connect 1 0 51 0;
#X connect 1 0 54 0;
#X connect 1 0 57 0;
#X connect 1 0 60 0;
#X connect 1 0 63 0;
#X connect 1 0 66 0;
#X connect 1 0 69 0;
#X connect 1 0 72 0;
#X connect 2 0 3 1;
#X connect 3 0 4 0;
#X connect 5 0 6 1;
#X connect 6 0 7 0;
#X connect 8 0 9 1;
#X connect 9 0 10 0;
#X connect 11 0 12 1;
#X connect 12 0 13 0;
#X connect 14 0 15 1;
#X connect 15 0 16 0;
#X connect 17 0 18 1;
#X connect 18 0 19 0;
#X connect 20 0 21 1;
#X connect 21 0 22 0;
#X connect 23 0 24 1;
#X connect 24 0 25 0;
#X connect 26 0 27 1;
#X connect 27 0 28 0;
#X connect 29 0 30 1;
#X connect 30 0 31 0;
#X connect 32 0 33 1;
#X connect 33 0 34 0;
#X connect 35 0 36 1;
#X connect 36 0 37 0;
#X connect 38 0 39 1;
#X connect 39 0 40 0;
#X connect 41 0 42 1;
#X connect 42 0 43 0;
#X connect 44 0 45 1;
#X connect 45 0 46 0;
#X connect 47 0 48 1;
#X connect 48 0 49 0;
#X connect 50 0 51 1;
#X connect 51 0 52 0;
#X connect 53 0 54 1;
#X connect 54 0 55 0;
#X connect 56 0 57 1;
#X connect 57 0 58 0;
#X connect 59 0 60 1;
#X connect 60 0 61 0;
#X connect 62 0 63 1;
#X connect 63 0 64 0;
#X connect 65 0 66 1;
#X connect 66 0 67 0;
#X connect 68 0 69 1;
#X connect 69 0 70 0;
#X connect 71 0 72 1;
#X connect 72 0 73 0;
#X restore 232 318 pd gate24 ____________________________________;
#N canvas 884 441 450 300 logn 0;
#X obj 17 11 inlet;
#X obj 140 9 inlet;
#X obj 89 101 log;
#X obj 66 144 /;
#X obj 57 87 log;
#X obj 68 174 outlet;
#X obj 45 113 f;
#X obj 37 52 t b f;
#X connect 0 0 7 0;
#X connect 1 0 4 0;
#X connect 2 0 3 1;
#X connect 3 0 5 0;
#X connect 4 0 6 1;
#X connect 6 0 3 0;
#X connect 7 0 6 0;
#X connect 7 1 2 0;
#X restore 789 380 pd logn;
#N canvas 448 191 450 300 gate24 0;
#X obj 56 58 inlet;
#X obj 127 58 inlet;
#X obj 47 170 == 1;
#X obj 20 195 spigot;
#X obj 20 220 outlet;
#X obj 147 170 == 2;
#X obj 120 195 spigot;
#X obj 120 220 outlet;
#X obj 247 170 == 3;
#X obj 220 195 spigot;
#X obj 220 220 outlet;
#X obj 347 170 == 4;
#X obj 320 195 spigot;
#X obj 320 220 outlet;
#X obj 447 170 == 5;
#X obj 420 195 spigot;
#X obj 420 220 outlet;
#X obj 547 170 == 6;
#X obj 520 195 spigot;
#X obj 520 220 outlet;
#X obj 647 170 == 7;
#X obj 620 195 spigot;
#X obj 620 220 outlet;
#X obj 747 170 == 8;
#X obj 720 195 spigot;
#X obj 720 220 outlet;
#X obj 847 170 == 9;
#X obj 820 195 spigot;
#X obj 820 220 outlet;
#X obj 947 170 == 10;
#X obj 920 195 spigot;
#X obj 920 220 outlet;
#X obj 1047 170 == 11;
#X obj 1020 195 spigot;
#X obj 1020 220 outlet;
#X obj 1147 170 == 12;
#X obj 1120 195 spigot;
#X obj 1120 220 outlet;
#X obj 1247 170 == 13;
#X obj 1220 195 spigot;
#X obj 1220 220 outlet;
#X obj 1347 170 == 14;
#X obj 1320 195 spigot;
#X obj 1320 220 outlet;
#X obj 1447 170 == 15;
#X obj 1420 195 spigot;
#X obj 1420 220 outlet;
#X obj 1547 170 == 16;
#X obj 1520 195 spigot;
#X obj 1520 220 outlet;
#X obj 1647 170 == 17;
#X obj 1620 195 spigot;
#X obj 1620 220 outlet;
#X obj 1747 170 == 18;
#X obj 1720 195 spigot;
#X obj 1720 220 outlet;
#X obj 1847 170 == 19;
#X obj 1820 195 spigot;
#X obj 1820 220 outlet;
#X obj 1947 170 == 20;
#X obj 1920 195 spigot;
#X obj 1920 220 outlet;
#X obj 2047 170 == 21;
#X obj 2020 195 spigot;
#X obj 2020 220 outlet;
#X obj 2147 170 == 22;
#X obj 2120 195 spigot;
#X obj 2120 220 outlet;
#X obj 2247 170 == 23;
#X obj 2220 195 spigot;
#X obj 2220 220 outlet;
#X obj 2357 180 >= 24;
#X obj 2330 205 spigot;
#X obj 2330 230 outlet;
#X connect 0 0 2 0;
#X connect 0 0 5 0;
#X connect 0 0 8 0;
#X connect 0 0 11 0;
#X connect 0 0 14 0;
#X connect 0 0 17 0;
#X connect 0 0 20 0;
#X connect 0 0 23 0;
#X connect 0 0 26 0;
#X connect 0 0 29 0;
#X connect 0 0 32 0;
#X connect 0 0 35 0;
#X connect 0 0 38 0;
#X connect 0 0 41 0;
#X connect 0 0 44 0;
#X connect 0 0 47 0;
#X connect 0 0 50 0;
#X connect 0 0 53 0;
#X connect 0 0 56 0;
#X connect 0 0 59 0;
#X connect 0 0 62 0;
#X connect 0 0 65 0;
#X connect 0 0 68 0;
#X connect 0 0 71 0;
#X connect 1 0 3 0;
#X connect 1 0 6 0;
#X connect 1 0 9 0;
#X connect 1 0 12 0;
#X connect 1 0 15 0;
#X connect 1 0 18 0;
#X connect 1 0 21 0;
#X connect 1 0 24 0;
#X connect 1 0 27 0;
#X connect 1 0 30 0;
#X connect 1 0 33 0;
#X connect 1 0 36 0;
#X connect 1 0 39 0;
#X connect 1 0 42 0;
#X connect 1 0 45 0;
#X connect 1 0 48 0;
#X connect 1 0 51 0;
#X connect 1 0 54 0;
#X connect 1 0 57 0;
#X connect 1 0 60 0;
#X connect 1 0 63 0;
#X connect 1 0 66 0;
#X connect 1 0 69 0;
#X connect 1 0 72 0;
#X connect 2 0 3 1;
#X connect 3 0 4 0;
#X connect 5 0 6 1;
#X connect 6 0 7 0;
#X connect 8 0 9 1;
#X connect 9 0 10 0;
#X connect 11 0 12 1;
#X connect 12 0 13 0;
#X connect 14 0 15 1;
#X connect 15 0 16 0;
#X connect 17 0 18 1;
#X connect 18 0 19 0;
#X connect 20 0 21 1;
#X connect 21 0 22 0;
#X connect 23 0 24 1;
#X connect 24 0 25 0;
#X connect 26 0 27 1;
#X connect 27 0 28 0;
#X connect 29 0 30 1;
#X connect 30 0 31 0;
#X connect 32 0 33 1;
#X connect 33 0 34 0;
#X connect 35 0 36 1;
#X connect 36 0 37 0;
#X connect 38 0 39 1;
#X connect 39 0 40 0;
#X connect 41 0 42 1;
#X connect 42 0 43 0;
#X connect 44 0 45 1;
#X connect 45 0 46 0;
#X connect 47 0 48 1;
#X connect 48 0 49 0;
#X connect 50 0 51 1;
#X connect 51 0 52 0;
#X connect 53 0 54 1;
#X connect 54 0 55 0;
#X connect 56 0 57 1;
#X connect 57 0 58 0;
#X connect 59 0 60 1;
#X connect 60 0 61 0;
#X connect 62 0 63 1;
#X connect 63 0 64 0;
#X connect 65 0 66 1;
#X connect 66 0 67 0;
#X connect 68 0 69 1;
#X connect 69 0 70 0;
#X connect 71 0 72 1;
#X connect 72 0 73 0;
#X restore 547 320 pd gate24 ____________________________________;
#N canvas 489 492 450 300 gate24 0;
#X obj 56 58 inlet;
#X obj 127 58 inlet;
#X obj 47 170 == 1;
#X obj 20 195 spigot;
#X obj 20 220 outlet;
#X obj 147 170 == 2;
#X obj 120 195 spigot;
#X obj 120 220 outlet;
#X obj 247 170 == 3;
#X obj 220 195 spigot;
#X obj 220 220 outlet;
#X obj 347 170 == 4;
#X obj 320 195 spigot;
#X obj 320 220 outlet;
#X obj 447 170 == 5;
#X obj 420 195 spigot;
#X obj 420 220 outlet;
#X obj 547 170 == 6;
#X obj 520 195 spigot;
#X obj 520 220 outlet;
#X obj 647 170 == 7;
#X obj 620 195 spigot;
#X obj 620 220 outlet;
#X obj 747 170 == 8;
#X obj 720 195 spigot;
#X obj 720 220 outlet;
#X obj 847 170 == 9;
#X obj 820 195 spigot;
#X obj 820 220 outlet;
#X obj 947 170 == 10;
#X obj 920 195 spigot;
#X obj 920 220 outlet;
#X obj 1047 170 == 11;
#X obj 1020 195 spigot;
#X obj 1020 220 outlet;
#X obj 1147 170 == 12;
#X obj 1120 195 spigot;
#X obj 1120 220 outlet;
#X obj 1247 170 == 13;
#X obj 1220 195 spigot;
#X obj 1220 220 outlet;
#X obj 1347 170 == 14;
#X obj 1320 195 spigot;
#X obj 1320 220 outlet;
#X obj 1447 170 == 15;
#X obj 1420 195 spigot;
#X obj 1420 220 outlet;
#X obj 1547 170 == 16;
#X obj 1520 195 spigot;
#X obj 1520 220 outlet;
#X obj 1647 170 == 17;
#X obj 1620 195 spigot;
#X obj 1620 220 outlet;
#X obj 1747 170 == 18;
#X obj 1720 195 spigot;
#X obj 1720 220 outlet;
#X obj 1847 170 == 19;
#X obj 1820 195 spigot;
#X obj 1820 220 outlet;
#X obj 1947 170 == 20;
#X obj 1920 195 spigot;
#X obj 1920 220 outlet;
#X obj 2047 170 == 21;
#X obj 2020 195 spigot;
#X obj 2020 220 outlet;
#X obj 2147 170 >= 22;
#X obj 2120 195 spigot;
#X obj 2120 220 outlet;
#X obj 2247 170 == 23;
#X obj 2220 195 spigot;
#X obj 2220 220 outlet;
#X obj 2347 170 >= 24;
#X obj 2320 195 spigot;
#X obj 2320 220 outlet;
#X connect 0 0 2 0;
#X connect 0 0 5 0;
#X connect 0 0 8 0;
#X connect 0 0 11 0;
#X connect 0 0 14 0;
#X connect 0 0 17 0;
#X connect 0 0 20 0;
#X connect 0 0 23 0;
#X connect 0 0 26 0;
#X connect 0 0 29 0;
#X connect 0 0 32 0;
#X connect 0 0 35 0;
#X connect 0 0 38 0;
#X connect 0 0 41 0;
#X connect 0 0 44 0;
#X connect 0 0 47 0;
#X connect 0 0 50 0;
#X connect 0 0 53 0;
#X connect 0 0 56 0;
#X connect 0 0 59 0;
#X connect 0 0 62 0;
#X connect 0 0 65 0;
#X connect 0 0 68 0;
#X connect 0 0 71 0;
#X connect 1 0 3 0;
#X connect 1 0 6 0;
#X connect 1 0 9 0;
#X connect 1 0 12 0;
#X connect 1 0 15 0;
#X connect 1 0 18 0;
#X connect 1 0 21 0;
#X connect 1 0 24 0;
#X connect 1 0 27 0;
#X connect 1 0 30 0;
#X connect 1 0 33 0;
#X connect 1 0 36 0;
#X connect 1 0 39 0;
#X connect 1 0 42 0;
#X connect 1 0 45 0;
#X connect 1 0 48 0;
#X connect 1 0 51 0;
#X connect 1 0 54 0;
#X connect 1 0 57 0;
#X connect 1 0 60 0;
#X connect 1 0 63 0;
#X connect 1 0 66 0;
#X connect 1 0 69 0;
#X connect 1 0 72 0;
#X connect 2 0 3 1;
#X connect 3 0 4 0;
#X connect 5 0 6 1;
#X connect 6 0 7 0;
#X connect 8 0 9 1;
#X connect 9 0 10 0;
#X connect 11 0 12 1;
#X connect 12 0 13 0;
#X connect 14 0 15 1;
#X connect 15 0 16 0;
#X connect 17 0 18 1;
#X connect 18 0 19 0;
#X connect 20 0 21 1;
#X connect 21 0 22 0;
#X connect 23 0 24 1;
#X connect 24 0 25 0;
#X connect 26 0 27 1;
#X connect 27 0 28 0;
#X connect 29 0 30 1;
#X connect 30 0 31 0;
#X connect 32 0 33 1;
#X connect 33 0 34 0;
#X connect 35 0 36 1;
#X connect 36 0 37 0;
#X connect 38 0 39 1;
#X connect 39 0 40 0;
#X connect 41 0 42 1;
#X connect 42 0 43 0;
#X connect 44 0 45 1;
#X connect 45 0 46 0;
#X connect 47 0 48 1;
#X connect 48 0 49 0;
#X connect 50 0 51 1;
#X connect 51 0 52 0;
#X connect 53 0 54 1;
#X connect 54 0 55 0;
#X connect 56 0 57 1;
#X connect 57 0 58 0;
#X connect 59 0 60 1;
#X connect 60 0 61 0;
#X connect 62 0 63 1;
#X connect 63 0 64 0;
#X connect 65 0 66 1;
#X connect 66 0 67 0;
#X connect 68 0 69 1;
#X connect 69 0 70 0;
#X connect 71 0 72 1;
#X connect 72 0 73 0;
#X restore 446 478 pd gate24 _____________________________________________
;
#N canvas 850 121 450 300 constants 0;
#X obj 7 12 inlet;
#X obj 7 36 route pi e;
#X obj 8 130 outlet;
#X obj 83 127 outlet;
#X obj 60 78 exp;
#X msg 60 59 1;
#X msg 8 104 3.14159;
#X connect 0 0 1 0;
#X connect 1 0 6 0;
#X connect 1 1 5 0;
#X connect 1 2 3 0;
#X connect 4 0 2 0;
#X connect 5 0 4 0;
#X connect 6 0 2 0;
#X restore 761 132 pd constants;
#X obj 94 411 route * / ^ min max logn;
#X msg 236 460 2;
#X obj 7 561 spigot;
#X obj 40 541 r \$0-evaluate.spigot;
#X obj 7 179 t b a b b b;
#X obj 70 229 s \$0-evaluate.spigot;
#X msg 70 209 1;
#N canvas 1050 187 450 300 \$0-evaluate.invalid_syntax 0;
#X obj 17 57 print EVALUATE ERROR - invalid syntax;
#X obj 113 101 s \$0-evaluate.spigot;
#X msg 113 81 1;
#X obj 17 15 inlet;
#X connect 2 0 1 0;
#X connect 3 0 0 0;
#X connect 3 0 2 0;
#X restore 830 152 pd \$0-evaluate.invalid_syntax;
#X connect 0 0 147 0;
#X connect 1 0 138 1;
#X connect 2 0 73 0;
#X connect 3 0 73 0;
#X connect 4 0 73 0;
#X connect 5 0 73 0;
#X connect 6 0 73 0;
#X connect 7 0 73 0;
#X connect 8 0 73 0;
#X connect 9 0 73 0;
#X connect 10 0 66 0;
#X connect 11 0 66 0;
#X connect 12 0 66 0;
#X connect 13 0 66 0;
#X connect 14 0 66 0;
#X connect 15 0 66 0;
#X connect 16 0 66 0;
#X connect 17 0 66 0;
#X connect 18 0 76 0;
#X connect 19 0 76 0;
#X connect 20 0 76 0;
#X connect 21 0 76 0;
#X connect 22 0 76 0;
#X connect 23 0 76 0;
#X connect 24 0 76 0;
#X connect 25 0 76 0;
#X connect 26 0 27 0;
#X connect 27 0 76 0;
#X connect 28 0 27 0;
#X connect 28 1 27 1;
#X connect 29 0 67 0;
#X connect 30 0 67 0;
#X connect 31 0 67 0;
#X connect 32 0 67 0;
#X connect 33 0 67 0;
#X connect 34 0 67 0;
#X connect 35 0 67 0;
#X connect 36 0 67 0;
#X connect 37 0 67 0;
#X connect 38 0 67 0;
#X connect 39 0 141 1;
#X connect 39 1 75 0;
#X connect 40 0 1 0;
#X connect 40 1 140 1;
#X connect 41 0 43 0;
#X connect 41 1 42 0;
#X connect 42 0 43 1;
#X connect 43 0 64 0;
#X connect 43 1 44 0;
#X connect 44 0 64 0;
#X connect 44 1 143 0;
#X connect 45 0 62 0;
#X connect 46 0 60 0;
#X connect 47 0 61 0;
#X connect 48 0 145 0;
#X connect 49 0 40 0;
#X connect 49 1 39 0;
#X connect 50 0 49 1;
#X connect 51 0 49 1;
#X connect 52 0 147 0;
#X connect 53 0 62 0;
#X connect 54 0 45 0;
#X connect 55 0 49 0;
#X connect 55 1 142 0;
#X connect 56 0 53 0;
#X connect 57 0 58 0;
#X connect 58 0 62 0;
#X connect 63 0 48 1;
#X connect 65 0 136 0;
#X connect 68 0 50 0;
#X connect 69 0 50 0;
#X connect 70 0 51 0;
#X connect 71 0 1 1;
#X connect 72 0 138 0;
#X connect 74 0 141 0;
#X connect 77 0 140 0;
#X connect 78 0 6 0;
#X connect 79 0 73 0;
#X connect 80 0 73 0;
#X connect 81 0 73 0;
#X connect 82 0 73 0;
#X connect 83 0 73 0;
#X connect 84 0 73 0;
#X connect 85 0 73 0;
#X connect 86 0 73 0;
#X connect 87 0 73 0;
#X connect 88 0 73 0;
#X connect 89 0 73 0;
#X connect 90 0 73 0;
#X connect 91 0 73 0;
#X connect 92 0 73 0;
#X connect 93 0 73 0;
#X connect 94 0 66 0;
#X connect 95 0 66 0;
#X connect 96 0 66 0;
#X connect 97 0 66 0;
#X connect 98 0 66 0;
#X connect 99 0 66 0;
#X connect 100 0 66 0;
#X connect 101 0 66 0;
#X connect 102 0 66 0;
#X connect 103 0 66 0;
#X connect 104 0 66 0;
#X connect 105 0 66 0;
#X connect 106 0 66 0;
#X connect 107 0 66 0;
#X connect 108 0 66 0;
#X connect 109 0 67 0;
#X connect 110 0 67 0;
#X connect 111 0 67 0;
#X connect 112 0 76 0;
#X connect 113 0 76 0;
#X connect 114 0 76 0;
#X connect 115 0 76 0;
#X connect 116 0 76 0;
#X connect 117 0 76 0;
#X connect 118 0 76 0;
#X connect 119 0 76 0;
#X connect 120 0 76 0;
#X connect 121 0 67 0;
#X connect 122 0 67 0;
#X connect 123 0 67 0;
#X connect 124 0 67 0;
#X connect 125 0 67 0;
#X connect 126 0 67 0;
#X connect 127 0 76 0;
#X connect 128 0 76 0;
#X connect 129 0 76 0;
#X connect 130 0 29 0;
#X connect 130 1 30 0;
#X connect 130 2 31 0;
#X connect 130 3 32 0;
#X connect 130 4 33 0;
#X connect 130 5 34 0;
#X connect 130 6 35 0;
#X connect 130 7 36 0;
#X connect 130 8 37 0;
#X connect 130 9 38 0;
#X connect 130 10 109 0;
#X connect 130 11 110 0;
#X connect 130 12 111 0;
#X connect 130 13 121 0;
#X connect 130 14 122 0;
#X connect 130 15 123 0;
#X connect 130 16 124 0;
#X connect 130 17 125 0;
#X connect 130 18 126 0;
#X connect 130 19 131 0;
#X connect 130 20 132 0;
#X connect 130 21 133 0;
#X connect 130 22 134 0;
#X connect 130 23 135 0;
#X connect 130 24 55 0;
#X connect 131 0 67 0;
#X connect 132 0 67 0;
#X connect 133 0 67 0;
#X connect 134 0 67 0;
#X connect 135 0 67 0;
#X connect 136 0 10 0;
#X connect 136 1 11 0;
#X connect 136 2 12 0;
#X connect 136 3 13 0;
#X connect 136 4 14 0;
#X connect 136 5 14 0;
#X connect 136 6 15 0;
#X connect 136 7 16 0;
#X connect 136 8 17 0;
#X connect 136 9 94 0;
#X connect 136 10 95 0;
#X connect 136 11 96 0;
#X connect 136 12 97 0;
#X connect 136 13 98 0;
#X connect 136 14 99 0;
#X connect 136 15 100 0;
#X connect 136 16 100 0;
#X connect 136 17 101 0;
#X connect 136 18 102 0;
#X connect 136 19 103 0;
#X connect 136 20 104 0;
#X connect 136 21 105 0;
#X connect 136 22 106 0;
#X connect 136 23 107 0;
#X connect 136 24 108 0;
#X connect 136 25 137 0;
#X connect 136 26 130 0;
#X connect 137 0 66 0;
#X connect 138 0 2 0;
#X connect 138 1 3 0;
#X connect 138 2 4 0;
#X connect 138 3 5 0;
#X connect 138 4 78 0;
#X connect 138 5 7 0;
#X connect 138 6 8 0;
#X connect 138 7 9 0;
#X connect 138 8 79 0;
#X connect 138 9 80 0;
#X connect 138 10 81 0;
#X connect 138 11 84 0;
#X connect 138 12 82 0;
#X connect 138 13 83 0;
#X connect 138 14 85 0;
#X connect 138 15 86 0;
#X connect 138 16 87 0;
#X connect 138 17 88 0;
#X connect 138 18 91 0;
#X connect 138 19 92 0;
#X connect 138 20 89 0;
#X connect 138 21 90 0;
#X connect 138 22 93 0;
#X connect 138 23 139 0;
#X connect 139 0 73 0;
#X connect 140 0 2 1;
#X connect 140 1 3 1;
#X connect 140 2 4 1;
#X connect 140 3 5 1;
#X connect 140 4 6 1;
#X connect 140 5 7 1;
#X connect 140 6 8 1;
#X connect 140 7 9 1;
#X connect 140 8 79 1;
#X connect 140 9 80 1;
#X connect 140 10 81 1;
#X connect 140 11 84 1;
#X connect 140 12 82 1;
#X connect 140 13 83 1;
#X connect 140 14 85 1;
#X connect 140 15 86 1;
#X connect 140 16 87 1;
#X connect 140 17 88 1;
#X connect 140 18 91 1;
#X connect 140 19 92 1;
#X connect 140 20 89 1;
#X connect 140 21 90 1;
#X connect 140 22 93 1;
#X connect 140 23 139 1;
#X connect 141 0 21 0;
#X connect 141 1 18 0;
#X connect 141 2 19 0;
#X connect 141 3 20 0;
#X connect 141 4 22 0;
#X connect 141 5 23 0;
#X connect 141 6 24 0;
#X connect 141 7 25 0;
#X connect 141 8 28 0;
#X connect 141 9 26 0;
#X connect 141 10 112 0;
#X connect 141 11 113 0;
#X connect 141 12 114 0;
#X connect 141 13 115 0;
#X connect 141 14 116 0;
#X connect 141 15 117 0;
#X connect 141 16 118 0;
#X connect 141 17 120 0;
#X connect 141 18 119 0;
#X connect 141 19 127 0;
#X connect 141 20 128 0;
#X connect 141 21 129 0;
#X connect 142 0 49 0;
#X connect 142 1 150 0;
#X connect 143 0 54 0;
#X connect 143 1 54 0;
#X connect 143 2 54 0;
#X connect 143 3 56 0;
#X connect 143 4 57 0;
#X connect 143 5 144 0;
#X connect 144 0 62 0;
#X connect 145 0 59 0;
#X connect 146 0 145 1;
#X connect 147 0 48 0;
#X connect 147 1 41 0;
#X connect 147 2 47 0;
#X connect 147 3 46 0;
#X connect 147 4 149 0;
#X connect 149 0 148 0;
#X restore 213 230 pd evaluate;
#X obj 213 370 outlet;
#N canvas 18 293 161 152 liter 0;
#X obj 16 -432 list split 1;
#X obj -3 -392 list;
#X obj 26 -412 t b a;
#X obj 53 -352 outlet ELEMENT;
#X obj -4 -470 inlet LIST_TO_ITERATE;
#X obj 6 -451 t a;
#X obj 53 -372 list trim;
#X connect 0 0 2 0;
#X connect 0 1 1 1;
#X connect 1 0 5 0;
#X connect 2 0 1 0;
#X connect 2 1 6 0;
#X connect 4 0 5 0;
#X connect 5 0 0 0;
#X connect 6 0 3 0;
#X restore 13 130 pd liter;
#N canvas 309 124 451 394 check() 0;
#N canvas 848 97 152 141 liter 0;
#X obj -4 -432 list split 1;
#X obj -3 -392 list;
#X obj -4 -412 t b a;
#X obj 23 -352 outlet ELEMENT;
#X obj -4 -470 inlet LIST_TO_ITERATE;
#X obj -4 -451 t a;
#X obj 23 -373 list trim;
#X connect 0 0 2 0;
#X connect 0 1 1 1;
#X connect 1 0 5 0;
#X connect 2 0 1 0;
#X connect 2 1 6 0;
#X connect 4 0 5 0;
#X connect 5 0 0 0;
#X connect 6 0 3 0;
#X restore 48 62 pd liter;
#X obj 29 40 t b a b;
#X obj 44 85 route ( );
#X obj 44 127 b;
#X obj 114 127 b;
#X obj 29 196 f;
#X obj 56 196 f;
#X obj 29 167 t b b;
#X obj 35 216 ==;
#X obj 2 236 spigot;
#X obj 71 233 sel 0;
#N canvas 500 245 204 177 counter 0;
#X obj -11 101 + 1;
#X obj -11 81 f;
#X msg 33 44 0;
#X obj -11 46 b;
#X obj 10 22 inlet reset;
#X obj -39 23 inlet +;
#X obj -29 124 outlet;
#X obj 33 65 t f f;
#X connect 0 0 1 1;
#X connect 0 0 6 0;
#X connect 1 0 0 0;
#X connect 2 0 7 0;
#X connect 3 0 1 0;
#X connect 4 0 2 0;
#X connect 5 0 3 0;
#X connect 7 0 1 1;
#X connect 7 1 6 0;
#X restore 44 147 pd counter;
#N canvas 500 245 204 177 counter 0;
#X obj -11 101 + 1;
#X obj -11 81 f;
#X msg 33 44 0;
#X obj -11 46 b;
#X obj 10 22 inlet reset;
#X obj -39 23 inlet +;
#X obj -29 124 outlet;
#X obj 33 65 t f f;
#X connect 0 0 1 1;
#X connect 0 0 6 0;
#X connect 1 0 0 0;
#X connect 2 0 7 0;
#X connect 3 0 1 0;
#X connect 4 0 2 0;
#X connect 5 0 3 0;
#X connect 7 0 1 1;
#X connect 7 1 6 0;
#X restore 114 147 pd counter;
#X obj 2 -2 inlet;
#X obj 2 258 outlet;
#X obj 2 20 t a a a;
#X obj 190 37 list prepend set;
#X obj 190 236 list trim;
#X msg 71 253 0 + ( 6 * 4 - ( 2 * 5 9 + ( 1 + 1 ) ) );
#X obj 71 273 list split 2;
#X obj 105 313 print EVALUATE ERROR - Parentheses do not match;
#X obj 105 293 list trim;
#X connect 0 0 2 0;
#X connect 1 0 7 0;
#X connect 1 1 0 0;
#X connect 1 2 11 1;
#X connect 1 2 12 1;
#X connect 2 0 3 0;
#X connect 2 1 4 0;
#X connect 3 0 11 0;
#X connect 4 0 12 0;
#X connect 5 0 8 0;
#X connect 6 0 8 1;
#X connect 7 0 5 0;
#X connect 7 1 6 0;
#X connect 8 0 9 1;
#X connect 8 0 10 0;
#X connect 9 0 14 0;
#X connect 10 0 18 0;
#X connect 11 0 5 1;
#X connect 12 0 6 1;
#X connect 13 0 15 0;
#X connect 15 0 9 0;
#X connect 15 1 1 0;
#X connect 15 2 16 0;
#X connect 16 0 17 0;
#X connect 17 0 18 0;
#X connect 18 0 19 0;
#X connect 19 1 21 0;
#X connect 21 0 20 0;
#X restore -6 70 pd check();
#X obj -6 90 t b a b;
#X obj 33 110 s \$0-init;
#X obj -6 230 s \$0-output;
#X msg 213 140;
#X obj 213 60 list prepend add2;
#X obj 213 80 list trim;
#X obj 213 40 r \$0-buffer.write;
#X obj 13 150 route ( );
#X obj 64 170 s \$0-buffer.write;
#N canvas 567 214 202 144 ggate 0;
#X obj 141 5 inlet;
#X obj 8 5 inlet;
#X obj 8 72 spigot;
#X obj 8 97 outlet;
#X obj 108 72 spigot;
#X obj 108 97 outlet;
#X obj 41 47 == 0;
#X obj 141 47 == 1;
#X obj 68 2 loadbang;
#X msg 68 22 0;
#X connect 0 0 6 0;
#X connect 0 0 7 0;
#X connect 1 0 2 0;
#X connect 1 0 4 0;
#X connect 2 0 3 0;
#X connect 4 0 5 0;
#X connect 6 0 2 1;
#X connect 7 0 4 1;
#X connect 8 0 9 0;
#X connect 9 0 6 0;
#X connect 9 0 7 0;
#X restore 213 184 pd ggate;
#X msg 404 144 0;
#X msg 325 144 1;
#X obj 274 83 r \$0-buffer.push;
#X obj 122 100 r \$0-init;
#X msg 122 120 set;
#X obj 13 210 s \$0-buffer.push;
#X obj 38 190 s \$0-buffer.combine;
#N canvas 567 214 202 144 ggate 0;
#X obj 141 5 inlet;
#X obj 8 5 inlet;
#X obj 8 72 spigot;
#X obj 8 97 outlet;
#X obj 108 72 spigot;
#X obj 108 97 outlet;
#X obj 41 47 == 0;
#X obj 141 47 == 1;
#X obj 68 2 loadbang;
#X msg 68 22 0;
#X connect 0 0 6 0;
#X connect 0 0 7 0;
#X connect 1 0 2 0;
#X connect 1 0 4 0;
#X connect 2 0 3 0;
#X connect 4 0 5 0;
#X connect 6 0 2 1;
#X connect 7 0 4 1;
#X connect 8 0 9 0;
#X connect 9 0 6 0;
#X connect 9 0 7 0;
#X restore 213 270 pd ggate;
#X msg 525 253 0;
#X msg 498 253 1;
#X obj 377 83 r \$0-buffer.combine;
#X obj 377 103 t b b;
#X obj 258 290 t b b a b;
#X obj 258 320 list;
#X obj 290 320 list;
#X obj 258 350 list;
#X obj 330 181 r \$0-init;
#X obj 152 40 list trim;
#X obj 152 0 r \$0-buffer.set;
#X obj 152 20 list prepend set;
#X obj 258 370 s \$0-buffer.set;
#X obj 498 103 t b b;
#X obj 498 83 r \$0-output;
#N canvas 866 559 450 300 lstack 0;
#N canvas 618 399 471 374 lqueue 0;
#X obj 21 16 inlet PUSH;
#X obj 137 17 inlet POP;
#X obj 251 15 inlet CLEAR;
#X msg 108 174;
#N canvas 739 367 450 300 ladd3 0;
#X obj 30 5 inlet;
#X obj 30 27 t b a;
#X msg 30 49 addcomma;
#X obj 57 69 list prepend add2;
#X obj 57 89 list trim;
#X obj 47 116 outlet;
#X connect 0 0 1 0;
#X connect 1 0 2 0;
#X connect 1 1 3 0;
#X connect 2 0 5 0;
#X connect 3 0 4 0;
#X connect 4 0 5 0;
#X restore 21 38 pd ladd3;
#X msg 88 16 foo bar;
#X msg 230 63 set;
#N canvas 832 498 450 300 ggate 0;
#X obj -128 -161 inlet;
#X obj -261 -161 inlet;
#X obj -261 -94 spigot;
#X obj -261 -69 outlet;
#X obj -161 -94 spigot;
#X obj -161 -69 outlet;
#X obj -228 -119 == 0;
#X obj -128 -119 == 1;
#X obj -201 -164 loadbang;
#X msg -201 -144 0;
#X connect 0 0 6 0;
#X connect 0 0 7 0;
#X connect 1 0 2 0;
#X connect 1 0 4 0;
#X connect 2 0 3 0;
#X connect 4 0 5 0;
#X connect 6 0 2 1;
#X connect 7 0 4 1;
#X connect 8 0 9 0;
#X connect 9 0 6 0;
#X connect 9 0 7 0;
#X restore 108 244 pd ggate;
#X msg 142 223 0;
#X msg 153 223 1;
#N canvas 739 367 450 300 ladd3 0;
#X obj 30 5 inlet;
#X obj 30 27 t b a;
#X msg 30 49 addcomma;
#X obj 57 69 list prepend add2;
#X obj 57 89 list trim;
#X obj 47 116 outlet;
#X connect 0 0 1 0;
#X connect 1 0 2 0;
#X connect 1 1 3 0;
#X connect 2 0 5 0;
#X connect 3 0 4 0;
#X connect 4 0 5 0;
#X restore 222 91 pd ladd3;
#X msg 225 118;
#X msg 88 35 baz fgao;
#X obj 163 44 bng 15 250 50 0 empty empty empty 17 7 0 10 -262144 -1
-1;
#X msg 176 95 set;
#N canvas 898 544 450 300 counter2 0;
#X obj -38 81 f;
#X obj -11 101 + 1;
#X obj -37 102 - 1;
#X obj -11 81 f;
#X msg 33 44 0;
#X obj -38 47 b;
#X obj -11 46 b;
#X obj -38 22 inlet -;
#X obj 10 22 inlet reset;
#X obj 83 22 inlet +;
#X obj -29 124 outlet;
#X obj 33 65 t f f;
#X connect 0 0 2 0;
#X connect 1 0 0 1;
#X connect 1 0 3 1;
#X connect 1 0 10 0;
#X connect 2 0 0 1;
#X connect 2 0 3 1;
#X connect 2 0 10 0;
#X connect 3 0 1 0;
#X connect 4 0 11 0;
#X connect 5 0 0 0;
#X connect 6 0 3 0;
#X connect 7 0 5 0;
#X connect 8 0 4 0;
#X connect 9 0 6 0;
#X connect 11 0 3 1;
#X connect 11 0 0 1;
#X connect 11 1 10 0;
#X restore 51 219 pd counter2;
#X obj 110 195 t b a;
#X obj 121 68 t b b b b;
#X obj 57 245 f;
#X obj 58 268 sel 1;
#X msg 73 66 4 5 3;
#X obj 354 92 t b b;
#X msg 255 164 set;
#N canvas 739 367 450 300 ladd3 0;
#X obj 30 5 inlet;
#X obj 30 27 t b a;
#X msg 30 49 addcomma;
#X obj 57 69 list prepend add2;
#X obj 57 89 list trim;
#X obj 47 116 outlet;
#X connect 0 0 1 0;
#X connect 1 0 2 0;
#X connect 1 1 3 0;
#X connect 2 0 5 0;
#X connect 3 0 4 0;
#X connect 4 0 5 0;
#X restore 219 184 pd ladd3;
#X msg 172 198 foo bar;
#X obj 153 265 t a b;
#X obj 156 290 outlet;
#X obj 326 15 inlet ALL;
#N canvas 898 544 450 300 counter2 0;
#X obj -38 111 f;
#X obj -11 131 + 1;
#X obj -37 132 - 1;
#X obj -11 111 f;
#X msg 33 74 0;
#X obj -38 47 b;
#X obj -11 46 b;
#X obj -38 22 inlet -;
#X obj 10 22 inlet reset;
#X obj 83 22 inlet +;
#X obj -29 154 outlet;
#X obj 33 95 t f f;
#X obj 30 53 b;
#X connect 0 0 2 0;
#X connect 1 0 0 1;
#X connect 1 0 3 1;
#X connect 1 0 10 0;
#X connect 2 0 0 1;
#X connect 2 0 3 1;
#X connect 2 0 10 0;
#X connect 3 0 1 0;
#X connect 4 0 11 0;
#X connect 5 0 0 0;
#X connect 6 0 3 0;
#X connect 7 0 5 0;
#X connect 8 0 12 0;
#X connect 9 0 6 0;
#X connect 11 0 3 1;
#X connect 11 0 0 1;
#X connect 11 1 10 0;
#X connect 12 0 4 0;
#X restore 6 148 pd counter2;
#N canvas 653 197 450 300 uzi 0;
#N canvas 214 258 450 300 countup 0;
#X obj 139 133 + 1;
#X obj 110 73 inlet;
#X obj 163 71 inlet;
#X obj 110 101 b;
#X obj 110 168 outlet;
#X msg 163 92 1;
#X obj 110 132 f 1;
#X connect 0 0 6 1;
#X connect 1 0 3 0;
#X connect 2 0 5 0;
#X connect 3 0 6 0;
#X connect 5 0 6 1;
#X connect 6 0 0 0;
#X connect 6 0 4 0;
#X restore 102 313 pd countup;
#X obj 473 126 inlet;
#X obj 102 61 inlet;
#X obj 102 276 until;
#X obj 102 251 max 0;
#X obj 366 467 outlet;
#X obj 102 431 -;
#X obj 98 551 outlet;
#X obj 153 553 outlet;
#X obj 153 515 select 0;
#X text 230 516 send last bang when we reach 0;
#X text 421 468 nr. of bangs;
#X obj 207 243 b;
#X obj 102 456 t a b a;
#X obj 259 148 b;
#X obj 102 154 t a b;
#X obj 102 95 route bang pause break continue resume;
#X obj 102 337 t float float;
#X text 164 456 store remainder above;
#X obj 102 226 f;
#X text 353 324 from purepd;
#X obj 102 129 f;
#X obj 102 397 swap;
#X connect 0 0 17 0;
#X connect 1 0 21 1;
#X connect 1 0 22 1;
#X connect 2 0 16 0;
#X connect 3 0 0 0;
#X connect 4 0 3 0;
#X connect 6 0 13 0;
#X connect 9 0 8 0;
#X connect 12 0 3 1;
#X connect 13 0 9 0;
#X connect 13 1 7 0;
#X connect 13 2 19 1;
#X connect 14 0 19 0;
#X connect 15 0 19 0;
#X connect 15 1 0 1;
#X connect 16 0 21 0;
#X connect 16 1 12 0;
#X connect 16 2 12 0;
#X connect 16 3 14 0;
#X connect 16 4 14 0;
#X connect 17 0 22 0;
#X connect 17 1 5 0;
#X connect 19 0 4 0;
#X connect 21 0 15 0;
#X connect 22 0 6 0;
#X connect 22 1 6 1;
#X restore 17 181 pd uzi;
#X obj 17 85 bng 15 250 50 0 empty empty empty 17 7 0 10 -262144 -1
-1;
#X connect 0 0 4 0;
#X connect 1 0 17 0;
#X connect 1 0 28 0;
#X connect 2 0 6 0;
#X connect 3 0 16 0;
#X connect 4 0 3 0;
#X connect 4 0 28 2;
#X connect 5 0 4 0;
#X connect 6 0 11 0;
#X connect 6 0 3 0;
#X connect 6 0 28 1;
#X connect 7 0 10 0;
#X connect 7 1 25 0;
#X connect 8 0 7 1;
#X connect 9 0 7 1;
#X connect 10 0 11 0;
#X connect 11 0 23 0;
#X connect 12 0 4 0;
#X connect 13 0 17 0;
#X connect 14 0 11 0;
#X connect 15 0 18 1;
#X connect 16 0 15 2;
#X connect 16 1 7 0;
#X connect 17 0 18 0;
#X connect 17 1 21 0;
#X connect 17 2 3 0;
#X connect 17 3 14 0;
#X connect 17 3 15 1;
#X connect 17 3 9 0;
#X connect 18 0 19 0;
#X connect 19 0 6 0;
#X connect 20 0 4 0;
#X connect 21 0 11 0;
#X connect 21 1 22 0;
#X connect 22 0 3 0;
#X connect 23 0 3 0;
#X connect 24 0 7 0;
#X connect 25 0 26 0;
#X connect 25 1 8 0;
#X connect 27 0 29 0;
#X connect 28 0 29 1;
#X connect 29 0 13 0;
#X connect 30 0 29 0;
#X restore 235 219 pd lqueue;
#X obj 26 25 inlet PUSH;
#X obj 137 25 inlet POP;
#X obj 246 23 inlet CLEAR;
#N canvas 820 55 471 374 lqueue 0;
#X obj 21 16 inlet PUSH;
#X obj 137 17 inlet POP;
#X obj 251 15 inlet CLEAR;
#X msg 108 174;
#N canvas 739 367 450 300 ladd3 0;
#X obj 30 5 inlet;
#X obj 30 27 t b a;
#X msg 30 49 addcomma;
#X obj 57 69 list prepend add2;
#X obj 57 89 list trim;
#X obj 47 116 outlet;
#X connect 0 0 1 0;
#X connect 1 0 2 0;
#X connect 1 1 3 0;
#X connect 2 0 5 0;
#X connect 3 0 4 0;
#X connect 4 0 5 0;
#X restore 21 38 pd ladd3;
#X msg 88 16 foo bar;
#X msg 230 63 set;
#N canvas 832 498 450 300 ggate 0;
#X obj -128 -161 inlet;
#X obj -261 -161 inlet;
#X obj -261 -94 spigot;
#X obj -261 -69 outlet;
#X obj -161 -94 spigot;
#X obj -161 -69 outlet;
#X obj -228 -119 == 0;
#X obj -128 -119 == 1;
#X obj -201 -164 loadbang;
#X msg -201 -144 0;
#X connect 0 0 6 0;
#X connect 0 0 7 0;
#X connect 1 0 2 0;
#X connect 1 0 4 0;
#X connect 2 0 3 0;
#X connect 4 0 5 0;
#X connect 6 0 2 1;
#X connect 7 0 4 1;
#X connect 8 0 9 0;
#X connect 9 0 6 0;
#X connect 9 0 7 0;
#X restore 108 244 pd ggate;
#X msg 142 223 0;
#X msg 153 223 1;
#N canvas 739 367 450 300 ladd3 0;
#X obj 30 5 inlet;
#X obj 30 27 t b a;
#X msg 30 49 addcomma;
#X obj 57 69 list prepend add2;
#X obj 57 89 list trim;
#X obj 47 116 outlet;
#X connect 0 0 1 0;
#X connect 1 0 2 0;
#X connect 1 1 3 0;
#X connect 2 0 5 0;
#X connect 3 0 4 0;
#X connect 4 0 5 0;
#X restore 222 91 pd ladd3;
#X msg 225 118;
#X msg 88 35 baz fgao;
#X obj 163 44 bng 15 250 50 0 empty empty empty 17 7 0 10 -262144 -1
-1;
#X msg 176 95 set;
#N canvas 898 544 450 300 counter2 0;
#X obj -38 81 f;
#X obj -11 101 + 1;
#X obj -37 102 - 1;
#X obj -11 81 f;
#X msg 33 44 0;
#X obj -38 47 b;
#X obj -11 46 b;
#X obj -38 22 inlet -;
#X obj 10 22 inlet reset;
#X obj 83 22 inlet +;
#X obj -29 124 outlet;
#X obj 33 65 t f f;
#X connect 0 0 2 0;
#X connect 1 0 0 1;
#X connect 1 0 3 1;
#X connect 1 0 10 0;
#X connect 2 0 0 1;
#X connect 2 0 3 1;
#X connect 2 0 10 0;
#X connect 3 0 1 0;
#X connect 4 0 11 0;
#X connect 5 0 0 0;
#X connect 6 0 3 0;
#X connect 7 0 5 0;
#X connect 8 0 4 0;
#X connect 9 0 6 0;
#X connect 11 0 3 1;
#X connect 11 0 0 1;
#X connect 11 1 10 0;
#X restore 51 219 pd counter2;
#X obj 110 195 t b a;
#X obj 121 68 t b b b b;
#X obj 57 245 f;
#X obj 58 268 sel 1;
#X msg 73 66 4 5 3;
#X obj 354 92 t b b;
#X msg 255 164 set;
#N canvas 739 367 450 300 ladd3 0;
#X obj 30 5 inlet;
#X obj 30 27 t b a;
#X msg 30 49 addcomma;
#X obj 57 69 list prepend add2;
#X obj 57 89 list trim;
#X obj 47 116 outlet;
#X connect 0 0 1 0;
#X connect 1 0 2 0;
#X connect 1 1 3 0;
#X connect 2 0 5 0;
#X connect 3 0 4 0;
#X connect 4 0 5 0;
#X restore 219 184 pd ladd3;
#X msg 172 198 foo bar;
#X obj 153 265 t a b;
#X obj 156 290 outlet;
#X obj 326 15 inlet ALL;
#N canvas 898 544 450 300 counter2 0;
#X obj -38 111 f;
#X obj -11 131 + 1;
#X obj -37 132 - 1;
#X obj -11 111 f;
#X msg 33 74 0;
#X obj -38 47 b;
#X obj -11 46 b;
#X obj -38 22 inlet -;
#X obj 10 22 inlet reset;
#X obj 83 22 inlet +;
#X obj -29 154 outlet;
#X obj 33 95 t f f;
#X obj 30 53 b;
#X connect 0 0 2 0;
#X connect 1 0 0 1;
#X connect 1 0 3 1;
#X connect 1 0 10 0;
#X connect 2 0 0 1;
#X connect 2 0 3 1;
#X connect 2 0 10 0;
#X connect 3 0 1 0;
#X connect 4 0 11 0;
#X connect 5 0 0 0;
#X connect 6 0 3 0;
#X connect 7 0 5 0;
#X connect 8 0 12 0;
#X connect 9 0 6 0;
#X connect 11 0 3 1;
#X connect 11 0 0 1;
#X connect 11 1 10 0;
#X connect 12 0 4 0;
#X restore 6 148 pd counter2;
#N canvas 433 117 450 300 uzi 0;
#N canvas 214 258 450 300 countup 0;
#X obj 139 133 + 1;
#X obj 110 73 inlet;
#X obj 163 71 inlet;
#X obj 110 101 b;
#X obj 110 168 outlet;
#X msg 163 92 1;
#X obj 110 132 f 1;
#X connect 0 0 6 1;
#X connect 1 0 3 0;
#X connect 2 0 5 0;
#X connect 3 0 6 0;
#X connect 5 0 6 1;
#X connect 6 0 0 0;
#X connect 6 0 4 0;
#X restore 102 313 pd countup;
#X obj 473 126 inlet;
#X obj 102 61 inlet;
#X obj 102 276 until;
#X obj 102 251 max 0;
#X obj 366 467 outlet;
#X obj 102 431 -;
#X obj 98 551 outlet;
#X obj 153 553 outlet;
#X obj 153 515 select 0;
#X text 230 516 send last bang when we reach 0;
#X text 421 468 nr. of bangs;
#X obj 207 243 b;
#X obj 102 456 t a b a;
#X obj 259 148 b;
#X obj 102 154 t a b;
#X obj 102 95 route bang pause break continue resume;
#X obj 102 337 t float float;
#X text 164 456 store remainder above;
#X obj 102 226 f;
#X text 353 324 from purepd;
#X obj 102 129 f;
#X obj 102 397 swap;
#X connect 0 0 17 0;
#X connect 1 0 21 1;
#X connect 1 0 22 1;
#X connect 2 0 16 0;
#X connect 3 0 0 0;
#X connect 4 0 3 0;
#X connect 6 0 13 0;
#X connect 9 0 8 0;
#X connect 12 0 3 1;
#X connect 13 0 9 0;
#X connect 13 1 7 0;
#X connect 13 2 19 1;
#X connect 14 0 19 0;
#X connect 15 0 19 0;
#X connect 15 1 0 1;
#X connect 16 0 21 0;
#X connect 16 1 12 0;
#X connect 16 2 12 0;
#X connect 16 3 14 0;
#X connect 16 4 14 0;
#X connect 17 0 22 0;
#X connect 17 1 5 0;
#X connect 19 0 4 0;
#X connect 21 0 15 0;
#X connect 22 0 6 0;
#X connect 22 1 6 1;
#X restore 17 181 pd uzi;
#X obj 17 85 bng 15 250 50 0 empty empty empty 17 7 0 10 -262144 -1
-1;
#X connect 0 0 4 0;
#X connect 1 0 17 0;
#X connect 1 0 28 0;
#X connect 2 0 6 0;
#X connect 3 0 16 0;
#X connect 4 0 3 0;
#X connect 4 0 28 2;
#X connect 5 0 4 0;
#X connect 6 0 11 0;
#X connect 6 0 3 0;
#X connect 6 0 28 1;
#X connect 7 0 10 0;
#X connect 7 1 25 0;
#X connect 8 0 7 1;
#X connect 9 0 7 1;
#X connect 10 0 11 0;
#X connect 11 0 23 0;
#X connect 12 0 4 0;
#X connect 13 0 17 0;
#X connect 14 0 11 0;
#X connect 15 0 18 1;
#X connect 16 0 15 2;
#X connect 16 1 7 0;
#X connect 17 0 18 0;
#X connect 17 1 21 0;
#X connect 17 2 3 0;
#X connect 17 3 14 0;
#X connect 17 3 15 1;
#X connect 17 3 9 0;
#X connect 18 0 19 0;
#X connect 19 0 6 0;
#X connect 20 0 4 0;
#X connect 21 0 11 0;
#X connect 21 1 22 0;
#X connect 22 0 3 0;
#X connect 23 0 3 0;
#X connect 24 0 7 0;
#X connect 25 0 26 0;
#X connect 25 1 8 0;
#X connect 27 0 29 0;
#X connect 28 0 29 1;
#X connect 29 0 13 0;
#X connect 30 0 29 0;
#X restore 190 147 pd lqueue;
#N canvas 898 544 450 300 counter2 0;
#X obj -38 111 f;
#X obj -11 131 + 1;
#X obj -37 132 - 1;
#X obj -11 111 f;
#X msg 33 74 0;
#X obj -38 47 b;
#X obj -11 46 b;
#X obj -38 22 inlet -;
#X obj 10 22 inlet reset;
#X obj 83 22 inlet +;
#X obj -29 154 outlet;
#X obj 33 95 t f f;
#X obj 30 53 b;
#X connect 0 0 2 0;
#X connect 1 0 0 1;
#X connect 1 0 3 1;
#X connect 1 0 10 0;
#X connect 2 0 0 1;
#X connect 2 0 3 1;
#X connect 2 0 10 0;
#X connect 3 0 1 0;
#X connect 4 0 11 0;
#X connect 5 0 0 0;
#X connect 6 0 3 0;
#X connect 7 0 5 0;
#X connect 8 0 12 0;
#X connect 9 0 6 0;
#X connect 11 0 3 1;
#X connect 11 0 0 1;
#X connect 11 1 10 0;
#X connect 12 0 4 0;
#X restore 46 89 pd counter2;
#N canvas 579 154 450 300 uzi 0;
#N canvas 214 258 450 300 countup 0;
#X obj 139 133 + 1;
#X obj 110 73 inlet;
#X obj 163 71 inlet;
#X obj 110 101 b;
#X obj 110 168 outlet;
#X msg 163 92 1;
#X obj 110 132 f 1;
#X connect 0 0 6 1;
#X connect 1 0 3 0;
#X connect 2 0 5 0;
#X connect 3 0 6 0;
#X connect 5 0 6 1;
#X connect 6 0 0 0;
#X connect 6 0 4 0;
#X restore 102 313 pd countup;
#X obj 473 126 inlet;
#X obj 102 61 inlet;
#X obj 102 276 until;
#X obj 102 251 max 0;
#X obj 366 467 outlet;
#X obj 102 431 -;
#X obj 98 551 outlet;
#X obj 153 553 outlet;
#X obj 153 515 select 0;
#X text 230 516 send last bang when we reach 0;
#X text 421 468 nr. of bangs;
#X obj 207 243 b;
#X obj 102 456 t a b a;
#X obj 259 148 b;
#X obj 102 154 t a b;
#X obj 102 95 route bang pause break continue resume;
#X obj 102 337 t float float;
#X text 164 456 store remainder above;
#X obj 102 226 f;
#X text 353 324 from purepd;
#X obj 102 129 f;
#X obj 102 397 swap;
#X connect 0 0 17 0;
#X connect 1 0 21 1;
#X connect 1 0 22 1;
#X connect 2 0 16 0;
#X connect 3 0 0 0;
#X connect 4 0 3 0;
#X connect 6 0 13 0;
#X connect 9 0 8 0;
#X connect 12 0 3 1;
#X connect 13 0 9 0;
#X connect 13 1 7 0;
#X connect 13 2 19 1;
#X connect 14 0 19 0;
#X connect 15 0 19 0;
#X connect 15 1 0 1;
#X connect 16 0 21 0;
#X connect 16 1 12 0;
#X connect 16 2 12 0;
#X connect 16 3 14 0;
#X connect 16 4 14 0;
#X connect 17 0 22 0;
#X connect 17 1 5 0;
#X connect 19 0 4 0;
#X connect 21 0 15 0;
#X connect 22 0 6 0;
#X connect 22 1 6 1;
#X restore 32 119 pd uzi;
#N canvas 832 498 450 300 ggate 0;
#X obj -128 -161 inlet;
#X obj -261 -161 inlet;
#X obj -261 -94 spigot;
#X obj -261 -69 outlet;
#X obj -161 -94 spigot;
#X obj -161 -69 outlet;
#X obj -228 -119 == 0;
#X obj -128 -119 == 1;
#X obj -201 -164 loadbang;
#X msg -201 -144 0;
#X connect 0 0 6 0;
#X connect 0 0 7 0;
#X connect 1 0 2 0;
#X connect 1 0 4 0;
#X connect 2 0 3 0;
#X connect 4 0 5 0;
#X connect 6 0 2 1;
#X connect 7 0 4 1;
#X connect 8 0 9 0;
#X connect 9 0 6 0;
#X connect 9 0 7 0;
#X restore 190 196 pd ggate;
#X msg 224 175 0;
#X msg 235 175 1;
#X msg 325 27 foo bar;
#X msg 375 26 baz bop;
#X msg 401 48 3 2 1;
#X obj 90 51 t b a;
#X obj 252 47 bng 15 250 50 0 empty empty empty 17 7 0 10 -262144 -1
-1;
#X obj 141 51 t b b b b;
#X obj 133 105 t b b b;
#X obj 205 24 bng 15 250 50 0 empty empty empty 17 7 0 10 -262144 -1
-1;
#X obj 138 239 outlet;
#X connect 0 0 4 0;
#X connect 1 0 13 0;
#X connect 2 0 15 0;
#X connect 3 0 14 0;
#X connect 4 0 7 0;
#X connect 5 0 6 1;
#X connect 6 0 4 1;
#X connect 7 0 18 0;
#X connect 7 1 0 0;
#X connect 8 0 7 1;
#X connect 9 0 7 1;
#X connect 10 0 13 0;
#X connect 11 0 13 0;
#X connect 12 0 13 0;
#X connect 13 0 5 2;
#X connect 13 1 4 0;
#X connect 14 0 5 1;
#X connect 14 0 4 2;
#X connect 14 0 0 2;
#X connect 15 0 16 0;
#X connect 15 1 6 0;
#X connect 15 2 5 0;
#X connect 15 3 9 0;
#X connect 16 0 0 3;
#X connect 16 1 4 1;
#X connect 16 2 8 0;
#X connect 17 0 15 0;
#X restore 279 201 pd lstack;
#X obj -6 50 list trim;
#N canvas 547 445 450 300 tests 0;
#X text 96 0 == -19;
#X obj 8 265 outlet;
#X text 229 24 == -96;
#X msg 10 0 1 - (4 * 5);
#X msg 18 25 (6 * 4 - (2 * 59 + (1 + 1 )));
#X connect 3 0 1 0;
#X connect 4 0 1 0;
#X restore 32 0 pd tests;
#X obj 345 280 r \$0-init;
#X msg 335 303 list;
#X obj 274 103 t b b b b;
#X obj -6 30 list prepend 0 +;
#X msg 235 100 0 +;
#X connect 0 0 44 0;
#X connect 1 0 22 0;
#X connect 3 0 12 0;
#X connect 4 0 5 0;
#X connect 5 0 7 0;
#X connect 5 1 3 0;
#X connect 5 2 6 0;
#X connect 8 0 14 0;
#X connect 9 0 10 0;
#X connect 10 0 8 0;
#X connect 11 0 9 0;
#X connect 12 0 20 0;
#X connect 12 1 21 0;
#X connect 12 2 13 0;
#X connect 14 0 1 0;
#X connect 14 1 38 0;
#X connect 15 0 14 1;
#X connect 16 0 14 1;
#X connect 17 0 43 0;
#X connect 18 0 19 0;
#X connect 19 0 8 0;
#X connect 22 0 2 0;
#X connect 22 1 27 0;
#X connect 23 0 22 1;
#X connect 24 0 22 1;
#X connect 25 0 26 0;
#X connect 26 0 8 0;
#X connect 26 1 15 0;
#X connect 26 1 24 0;
#X connect 26 1 42 0;
#X connect 27 0 28 0;
#X connect 27 1 29 0;
#X connect 27 2 29 1;
#X connect 27 3 38 1;
#X connect 28 0 30 0;
#X connect 29 0 30 1;
#X connect 30 0 35 0;
#X connect 31 0 38 2;
#X connect 32 0 8 0;
#X connect 33 0 34 0;
#X connect 34 0 32 0;
#X connect 36 0 8 0;
#X connect 36 1 15 0;
#X connect 36 1 23 0;
#X connect 37 0 36 0;
#X connect 38 0 28 1;
#X connect 39 0 4 0;
#X connect 40 0 44 0;
#X connect 41 0 42 0;
#X connect 42 0 29 1;
#X connect 42 0 28 1;
#X connect 42 0 30 1;
#X connect 43 0 45 0;
#X connect 43 1 19 0;
#X connect 43 2 8 0;
#X connect 43 3 16 0;
#X connect 44 0 39 0;
#X connect 45 0 9 0;
