#N canvas 496 296 469 467 10;
#X text 429 2 pdx;
#X text 3 2 [expscale] - exponentially scale numbers;
#X text 18 21 "exponential scale";
#X text 43 59 This will scale a range of numbers to another range of
numbers. The minimum value must be 0 - the initial maximum \, final
maximum \, and exponent degree can be specified.;
#X text 42 117 127 is the default initial maximum \, 1 is the default
final maximum \, and 1 is the default scaling power.;
#X text 44 151 Inlets:;
#X text 65 168 0 - number to scale;
#X text 219 153 Arguments:;
#X text 65 183 1 - final maximum;
#X text 65 199 2 - power for scaling;
#X text 64 215 3 - previous maximum;
#X text 241 170 0 - final maximum;
#X text 241 185 1 - scaling power;
#X text 240 201 2 - previous maximum;
#X obj 159 297 expscale 500 3;
#X obj 162 254 hsl 128 15 0 127 0 0 empty empty empty -2 -8 0 10 -262144
-1 -1 0 1;
#X floatatom 159 319 5 0 0 0 - - -;
#X floatatom 159 277 5 0 0 0 - - -;
#X obj 52 341 hsl 128 15 0 127 0 0 empty empty empty -2 -8 0 10 -262144
-1 -1 0 1;
#X floatatom 49 406 7 0 0 0 - - -;
#X floatatom 49 364 5 0 0 0 - - -;
#X obj 49 384 expscale -1000 0.5;
#X obj 22 254 hsl 128 15 0 127 0 0 empty empty empty -2 -8 0 10 -262144
-1 -1 0 1;
#X floatatom 19 319 5 0 0 0 - - -;
#X floatatom 19 277 5 0 0 0 - - -;
#X obj 190 341 hsl 256 15 0 255 0 0 empty empty empty -2 -8 0 10 -262144
-1 -1 0 1;
#X floatatom 187 406 7 0 0 0 - - -;
#X floatatom 187 364 5 0 0 0 - - -;
#X obj 187 384 expscale 127 2 255;
#X obj 19 297 expscale;
#X obj 302 254 hsl 128 15 0 127 0 0 empty empty empty -2 -8 0 10 -262144
-1 -1 0 1;
#X floatatom 299 319 5 0 0 0 - - -;
#X floatatom 299 277 5 0 0 0 - - -;
#X obj 299 297 expscale 2032;
#X connect 14 0 16 0;
#X connect 15 0 17 0;
#X connect 17 0 14 0;
#X connect 18 0 20 0;
#X connect 20 0 21 0;
#X connect 21 0 19 0;
#X connect 22 0 24 0;
#X connect 24 0 29 0;
#X connect 25 0 27 0;
#X connect 27 0 28 0;
#X connect 28 0 26 0;
#X connect 29 0 23 0;
#X connect 30 0 32 0;
#X connect 32 0 33 0;
#X connect 33 0 31 0;
