#N canvas 534 321 452 166 10;
#X obj 4 8 inlet;
#X obj 4 39 / 127;
#X obj 4 92 pow;
#X obj 68 3 loadbang;
#X obj 68 26 f \$2;
#X obj 68 46 sel 0;
#X msg 19 63 1;
#X obj 236 3 inlet EXPONENT;
#X obj 4 114 * 1;
#X obj 126 3 inlet NEW_MAXIMUM;
#X obj 328 3 inlet PREVIOUS_MAX;
#X obj 4 136 outlet;
#X obj 121 31 f \$1;
#X obj 121 50 sel 0;
#X msg 122 73 1;
#X obj 169 51 sel 0;
#X obj 169 32 f \$3;
#X msg 170 74 127;
#X connect 0 0 1 0;
#X connect 1 0 2 0;
#X connect 2 0 8 0;
#X connect 3 0 4 0;
#X connect 3 0 12 0;
#X connect 3 0 16 0;
#X connect 4 0 5 0;
#X connect 5 0 6 0;
#X connect 5 1 2 1;
#X connect 6 0 2 1;
#X connect 7 0 5 0;
#X connect 8 0 11 0;
#X connect 9 0 13 0;
#X connect 10 0 15 0;
#X connect 12 0 13 0;
#X connect 13 0 14 0;
#X connect 13 1 8 1;
#X connect 14 0 8 1;
#X connect 15 0 17 0;
#X connect 15 1 1 1;
#X connect 16 0 15 0;
#X connect 17 0 1 1;
