#N canvas 871 255 450 300 10;
#X obj 10 9 inlet;
#X obj 157 9 inlet;
#X obj 200 8 inlet;
#X obj 157 78 f \$2;
#X obj 157 101 t b a;
#X obj 157 125 <;
#X obj 10 54 t b b b;
#X obj 10 143 f \$1;
#X obj 89 77 f \$1;
#X obj 89 8 loadbang;
#X obj 89 53 t b b;
#X obj 157 148 sel 0;
#X msg 157 170 -1;
#X obj 119 261 + 1;
#X obj 97 226 pipe \$3;
#X obj 10 30 route bang;
#X obj 9 168 t a a;
#X obj 66 201 sel \$2;
#X msg 105 171 clear;
#X obj 51 235 t b b;
#X obj 76 267 outlet;
#X obj 19 269 outlet;
#X connect 0 0 15 0;
#X connect 1 0 3 0;
#X connect 2 0 14 1;
#X connect 3 0 4 0;
#X connect 3 0 17 1;
#X connect 4 0 5 0;
#X connect 4 1 5 1;
#X connect 5 0 11 0;
#X connect 6 0 7 0;
#X connect 6 1 18 0;
#X connect 6 2 8 0;
#X connect 7 0 16 0;
#X connect 8 0 5 0;
#X connect 8 0 7 1;
#X connect 9 0 10 0;
#X connect 10 0 8 0;
#X connect 10 1 3 0;
#X connect 11 0 12 0;
#X connect 11 1 13 1;
#X connect 12 0 13 1;
#X connect 13 0 7 0;
#X connect 14 0 13 0;
#X connect 15 0 6 0;
#X connect 15 1 8 1;
#X connect 16 0 17 0;
#X connect 16 1 21 0;
#X connect 17 0 19 0;
#X connect 17 1 14 0;
#X connect 18 0 14 0;
#X connect 19 0 18 0;
#X connect 19 1 20 0;
