#N canvas 258 271 450 300 10;
#X text 420 4 pdx;
#X text 147 105 ...;
#X text 68 32 Left inlet: Gate Selector - begins with 1;
#X text 324 152 Related patches:;
#X obj 336 175 gatemaker 2;
#X obj 336 196 gatemaker~ 3;
#X obj 336 217 switchmaker 4;
#X obj 336 238 switchmaker~ 5;
#X text 69 59 Right Inlet: Signal to send through;
#X obj 98 103 gate2~;
#X obj 173 104 gate8~ ________________;
#X obj 143 186 gate3~;
#X obj 179 152 number~;
#X obj 70 222 view~;
#X obj 133 223 view~;
#X obj 199 223 view~;
#X obj 330 8 pddp/dsp;
#X text 8 3 [gate#~] - signal gate;
#X msg 79 152 1;
#X msg 107 152 2;
#X msg 138 152 3;
#X connect 11 0 13 0;
#X connect 11 1 14 0;
#X connect 11 2 15 0;
#X connect 12 0 11 1;
#X connect 18 0 11 0;
#X connect 19 0 11 0;
#X connect 20 0 11 0;
