#N canvas 0 22 450 300 10;
#X obj 46 48 inlet;
#X obj 117 48 inlet;
#X obj 37 160 == 1;
#X obj 10 185 spigot;
#X obj 10 210 outlet;
#X obj 137 160 == 2;
#X obj 110 185 spigot;
#X obj 110 210 outlet;
#X obj 237 160 == 3;
#X obj 210 185 spigot;
#X obj 210 210 outlet;
#X obj 337 160 == 4;
#X obj 310 185 spigot;
#X obj 310 210 outlet;
#X obj 437 160 == 5;
#X obj 410 185 spigot;
#X obj 410 210 outlet;
#X obj 537 160 == 6;
#X obj 510 185 spigot;
#X obj 510 210 outlet;
#X obj 637 160 == 7;
#X obj 610 185 spigot;
#X obj 610 210 outlet;
#X obj 737 160 == 8;
#X obj 710 185 spigot;
#X obj 710 210 outlet;
#X obj 837 160 == 9;
#X obj 810 185 spigot;
#X obj 810 210 outlet;
#X obj 937 160 == 10;
#X obj 910 185 spigot;
#X obj 910 210 outlet;
#X obj 1037 160 == 11;
#X obj 1010 185 spigot;
#X obj 1010 210 outlet;
#X obj 1137 160 == 12;
#X obj 1110 185 spigot;
#X obj 1110 210 outlet;
#X obj 1237 160 == 13;
#X obj 1210 185 spigot;
#X obj 1210 210 outlet;
#X obj 1337 160 == 14;
#X obj 1310 185 spigot;
#X obj 1310 210 outlet;
#X obj 1437 160 == 15;
#X obj 1410 185 spigot;
#X obj 1410 210 outlet;
#X obj 1537 160 == 16;
#X obj 1510 185 spigot;
#X obj 1510 210 outlet;
#X obj 1637 160 == 17;
#X obj 1610 185 spigot;
#X obj 1610 210 outlet;
#X obj 1737 160 == 18;
#X obj 1710 185 spigot;
#X obj 1710 210 outlet;
#X obj 1837 160 == 19;
#X obj 1810 185 spigot;
#X obj 1810 210 outlet;
#X obj 1937 160 == 20;
#X obj 1910 185 spigot;
#X obj 1910 210 outlet;
#X obj 2037 160 == 21;
#X obj 2010 185 spigot;
#X obj 2010 210 outlet;
#X obj 2137 160 == 22;
#X obj 2110 185 spigot;
#X obj 2110 210 outlet;
#X obj 2237 160 == 23;
#X obj 2210 185 spigot;
#X obj 2210 210 outlet;
#X obj 2337 160 == 24;
#X obj 2310 185 spigot;
#X obj 2310 210 outlet;
#X obj 2437 160 == 25;
#X obj 2410 185 spigot;
#X obj 2410 210 outlet;
#X obj 2537 160 == 26;
#X obj 2510 185 spigot;
#X obj 2510 210 outlet;
#X obj 2637 160 == 27;
#X obj 2610 185 spigot;
#X obj 2610 210 outlet;
#X obj 2737 160 == 28;
#X obj 2710 185 spigot;
#X obj 2710 210 outlet;
#X obj 2837 160 == 29;
#X obj 2810 185 spigot;
#X obj 2810 210 outlet;
#X obj 2937 160 == 30;
#X obj 2910 185 spigot;
#X obj 2910 210 outlet;
#X obj 3037 160 == 31;
#X obj 3010 185 spigot;
#X obj 3010 210 outlet;
#X obj 3137 160 >= 32;
#X obj 3110 185 spigot;
#X obj 3110 210 outlet;
#X connect 0 0 2 0;
#X connect 0 0 5 0;
#X connect 0 0 8 0;
#X connect 0 0 11 0;
#X connect 0 0 14 0;
#X connect 0 0 17 0;
#X connect 0 0 20 0;
#X connect 0 0 23 0;
#X connect 0 0 26 0;
#X connect 0 0 29 0;
#X connect 0 0 32 0;
#X connect 0 0 35 0;
#X connect 0 0 38 0;
#X connect 0 0 41 0;
#X connect 0 0 44 0;
#X connect 0 0 47 0;
#X connect 0 0 50 0;
#X connect 0 0 53 0;
#X connect 0 0 56 0;
#X connect 0 0 59 0;
#X connect 0 0 62 0;
#X connect 0 0 65 0;
#X connect 0 0 68 0;
#X connect 0 0 71 0;
#X connect 0 0 74 0;
#X connect 0 0 77 0;
#X connect 0 0 80 0;
#X connect 0 0 83 0;
#X connect 0 0 86 0;
#X connect 0 0 89 0;
#X connect 0 0 92 0;
#X connect 0 0 95 0;
#X connect 1 0 3 0;
#X connect 1 0 6 0;
#X connect 1 0 9 0;
#X connect 1 0 12 0;
#X connect 1 0 15 0;
#X connect 1 0 18 0;
#X connect 1 0 21 0;
#X connect 1 0 24 0;
#X connect 1 0 27 0;
#X connect 1 0 30 0;
#X connect 1 0 33 0;
#X connect 1 0 36 0;
#X connect 1 0 39 0;
#X connect 1 0 42 0;
#X connect 1 0 45 0;
#X connect 1 0 48 0;
#X connect 1 0 51 0;
#X connect 1 0 54 0;
#X connect 1 0 57 0;
#X connect 1 0 60 0;
#X connect 1 0 63 0;
#X connect 1 0 66 0;
#X connect 1 0 69 0;
#X connect 1 0 72 0;
#X connect 1 0 75 0;
#X connect 1 0 78 0;
#X connect 1 0 81 0;
#X connect 1 0 84 0;
#X connect 1 0 87 0;
#X connect 1 0 90 0;
#X connect 1 0 93 0;
#X connect 1 0 96 0;
#X connect 2 0 3 1;
#X connect 3 0 4 0;
#X connect 5 0 6 1;
#X connect 6 0 7 0;
#X connect 8 0 9 1;
#X connect 9 0 10 0;
#X connect 11 0 12 1;
#X connect 12 0 13 0;
#X connect 14 0 15 1;
#X connect 15 0 16 0;
#X connect 17 0 18 1;
#X connect 18 0 19 0;
#X connect 20 0 21 1;
#X connect 21 0 22 0;
#X connect 23 0 24 1;
#X connect 24 0 25 0;
#X connect 26 0 27 1;
#X connect 27 0 28 0;
#X connect 29 0 30 1;
#X connect 30 0 31 0;
#X connect 32 0 33 1;
#X connect 33 0 34 0;
#X connect 35 0 36 1;
#X connect 36 0 37 0;
#X connect 38 0 39 1;
#X connect 39 0 40 0;
#X connect 41 0 42 1;
#X connect 42 0 43 0;
#X connect 44 0 45 1;
#X connect 45 0 46 0;
#X connect 47 0 48 1;
#X connect 48 0 49 0;
#X connect 50 0 51 1;
#X connect 51 0 52 0;
#X connect 53 0 54 1;
#X connect 54 0 55 0;
#X connect 56 0 57 1;
#X connect 57 0 58 0;
#X connect 59 0 60 1;
#X connect 60 0 61 0;
#X connect 62 0 63 1;
#X connect 63 0 64 0;
#X connect 65 0 66 1;
#X connect 66 0 67 0;
#X connect 68 0 69 1;
#X connect 69 0 70 0;
#X connect 71 0 72 1;
#X connect 72 0 73 0;
#X connect 74 0 75 1;
#X connect 75 0 76 0;
#X connect 77 0 78 1;
#X connect 78 0 79 0;
#X connect 80 0 81 1;
#X connect 81 0 82 0;
#X connect 83 0 84 1;
#X connect 84 0 85 0;
#X connect 86 0 87 1;
#X connect 87 0 88 0;
#X connect 89 0 90 1;
#X connect 90 0 91 0;
#X connect 92 0 93 1;
#X connect 93 0 94 0;
#X connect 95 0 96 1;
#X connect 96 0 97 0;
