#N canvas 178 46 692 250 10;
#N canvas 244 57 848 554 \$0-setup 1;
#X obj -2 -6 inlet;
#X obj -2 64 until;
#X obj 22 84 + 1;
#X obj -2 84 f 1;
#X obj 52 154 - 1;
#X obj 52 174 * 100;
#X obj 14 134 - 1;
#X obj 14 154 * 100;
#X obj 14 174 + 27;
#X obj 90 134 - 1;
#X obj 90 154 * 3;
#X obj 120 134 - 1;
#X obj 120 154 * 3;
#X obj 147 134 - 1;
#X obj 147 154 * 3;
#X obj -2 194 pack 0 0 0 0 0 0;
#X obj -2 104 t f f f f f f;
#X obj 90 174 + 6;
#X obj 120 174 + 7;
#X obj 147 174 + 8;
#X obj -2 384 s \$0-ngate;
#X obj -2 14 pipe 1;
#X msg -2 334 obj \$2 150 == \$1 \, obj \$3 175 spigot \, obj \$3 200
outlet \, connect 3 0 \$5 0 \, connect 2 0 \$4 0 \, connect \$4 0 \$5
1 \, connect \$5 0 \$6 0;
#X obj 49 239 + 1;
#X obj 25 239 f 1;
#X obj -2 216 t a b;
#X obj -2 307 spigot;
#X msg 21 287 0;
#X msg 31 287 1;
#X obj 348 307 spigot;
#X msg 371 287 0;
#X msg 381 287 1;
#X obj 366 256 sel;
#X obj -2 34 t f f;
#X msg 348 334 obj \$2 150 >= \$1 \, obj \$3 175 spigot \, obj \$3
200 outlet \, connect 3 0 \$5 0 \, connect 2 0 \$4 0 \, connect \$4
0 \$5 1 \, connect \$5 0 \$6 0;
#X floatatom 43 -4 5 0 0 0 - - -;
#X connect 0 0 21 0;
#X connect 1 0 3 0;
#X connect 2 0 3 1;
#X connect 3 0 2 0;
#X connect 3 0 16 0;
#X connect 4 0 5 0;
#X connect 5 0 15 2;
#X connect 6 0 7 0;
#X connect 7 0 8 0;
#X connect 8 0 15 1;
#X connect 9 0 10 0;
#X connect 10 0 17 0;
#X connect 11 0 12 0;
#X connect 12 0 18 0;
#X connect 13 0 14 0;
#X connect 14 0 19 0;
#X connect 15 0 25 0;
#X connect 16 0 15 0;
#X connect 16 1 6 0;
#X connect 16 2 4 0;
#X connect 16 3 9 0;
#X connect 16 4 11 0;
#X connect 16 5 13 0;
#X connect 17 0 15 3;
#X connect 18 0 15 4;
#X connect 19 0 15 5;
#X connect 21 0 33 0;
#X connect 22 0 20 0;
#X connect 23 0 24 1;
#X connect 24 0 23 0;
#X connect 24 0 32 0;
#X connect 25 0 26 0;
#X connect 25 0 29 0;
#X connect 25 1 24 0;
#X connect 26 0 22 0;
#X connect 27 0 26 1;
#X connect 28 0 26 1;
#X connect 29 0 34 0;
#X connect 30 0 29 1;
#X connect 31 0 29 1;
#X connect 32 0 31 0;
#X connect 32 0 27 0;
#X connect 32 1 28 0;
#X connect 32 1 30 0;
#X connect 33 0 1 0;
#X connect 33 1 32 1;
#X connect 34 0 20 0;
#X connect 35 0 21 0;
#X restore 267 19 pd \$0-setup;
#X obj 267 -1 f \$1;
#X obj 36 38 inlet;
#X obj 107 38 inlet;
#X obj 121 -13 namecanvas \$0-ngate;
#X obj 267 -21 loadbang;
#X connect 1 0 0 0;
#X connect 5 0 1 0;
