#N canvas 0 22 450 300 10;
#X obj 46 48 inlet;
#X obj 117 48 inlet;
#X obj 37 160 == 1;
#X obj 10 185 spigot;
#X obj 10 210 outlet;
#X obj 137 160 == 2;
#X obj 110 185 spigot;
#X obj 110 210 outlet;
#X obj 237 160 == 3;
#X obj 210 185 spigot;
#X obj 210 210 outlet;
#X obj 337 160 == 4;
#X obj 310 185 spigot;
#X obj 310 210 outlet;
#X obj 437 160 == 5;
#X obj 410 185 spigot;
#X obj 410 210 outlet;
#X obj 537 160 == 6;
#X obj 510 185 spigot;
#X obj 510 210 outlet;
#X obj 637 160 == 7;
#X obj 610 185 spigot;
#X obj 610 210 outlet;
#X obj 737 160 == 8;
#X obj 710 185 spigot;
#X obj 710 210 outlet;
#X obj 837 160 >= 9;
#X obj 810 185 spigot;
#X obj 810 210 outlet;
#X connect 0 0 2 0;
#X connect 0 0 5 0;
#X connect 0 0 8 0;
#X connect 0 0 11 0;
#X connect 0 0 14 0;
#X connect 0 0 17 0;
#X connect 0 0 20 0;
#X connect 0 0 23 0;
#X connect 0 0 26 0;
#X connect 1 0 3 0;
#X connect 1 0 6 0;
#X connect 1 0 9 0;
#X connect 1 0 12 0;
#X connect 1 0 15 0;
#X connect 1 0 18 0;
#X connect 1 0 21 0;
#X connect 1 0 24 0;
#X connect 1 0 27 0;
#X connect 2 0 3 1;
#X connect 3 0 4 0;
#X connect 5 0 6 1;
#X connect 6 0 7 0;
#X connect 8 0 9 1;
#X connect 9 0 10 0;
#X connect 11 0 12 1;
#X connect 12 0 13 0;
#X connect 14 0 15 1;
#X connect 15 0 16 0;
#X connect 17 0 18 1;
#X connect 18 0 19 0;
#X connect 20 0 21 1;
#X connect 21 0 22 0;
#X connect 23 0 24 1;
#X connect 24 0 25 0;
#X connect 26 0 27 1;
#X connect 27 0 28 0;
