#N canvas 258 271 450 300 10;
#X text 8 3 [gate#] - control gate;
#X text 410 4 pdx;
#X obj 103 136 gate2;
#X text 142 138 ...;
#X obj 165 137 gate10;
#X text 211 138 ...;
#X obj 236 136 gate32;
#X text 53 42 Clone of the [gate] in Max/MSP;
#X text 76 71 Left inlet: Gate Selector - begins with 1;
#X text 77 98 Right Inlet: Message to send through;
#X floatatom 130 187 5 0 0 0 - - -;
#X floatatom 195 187 5 0 0 0 - - -;
#X obj 158 218 gate3;
#X floatatom 117 243 5 0 0 0 - - -;
#X floatatom 167 243 5 0 0 0 - - -;
#X floatatom 218 242 5 0 0 0 - - -;
#X text 324 152 Related patches:;
#X obj 336 175 gatemaker 2;
#X obj 336 196 gatemaker~ 3;
#X obj 336 217 switchmaker 4;
#X obj 336 238 switchmaker~ 5;
#X connect 10 0 12 0;
#X connect 11 0 12 1;
#X connect 12 0 13 0;
#X connect 12 1 14 0;
#X connect 12 2 15 0;
