#N canvas 299 277 614 424 10;
#X text 2 0 [gatemaker] - macro to create gate of any size;
#X text 571 2 pdx;
#X obj 35 227 gatemaker 2;
#X obj 259 218 gatemaker 5;
#X obj 353 217 gatemaker 18;
#X obj 53 287 gatemaker 50 _______________________________________________
;
#X obj 212 351 gatemaker 121;
#X text 90 35 [gatemaker] will dynamically create a gate of any size.
;
#X text 119 58 This can't be used in a patch on its own - it will disconnect
itself when reloaded.;
#X text 116 95 Instead \, open the patch \, select all (command-A)
\, and deselect the four objects at the top (so only the inlets \,
spigots \, == \, and outlets are selected).;
#X text 112 150 You can copy & paste this in a pd subpatch to get a
persistent copy of the gate.;
#N canvas 751 517 450 300 gate5 0;
#X obj 46 48 inlet;
#X obj 117 48 inlet;
#X obj 37 160 == 1;
#X obj 10 185 spigot;
#X obj 10 210 outlet;
#X obj 137 160 == 2;
#X obj 110 185 spigot;
#X obj 110 210 outlet;
#X obj 237 160 == 3;
#X obj 210 185 spigot;
#X obj 210 210 outlet;
#X obj 337 160 == 4;
#X obj 310 185 spigot;
#X obj 310 210 outlet;
#X obj 437 160 >= 5;
#X obj 410 185 spigot;
#X obj 410 210 outlet;
#X connect 0 0 2 0;
#X connect 0 0 5 0;
#X connect 0 0 8 0;
#X connect 0 0 11 0;
#X connect 0 0 14 0;
#X connect 1 0 3 0;
#X connect 1 0 6 0;
#X connect 1 0 9 0;
#X connect 1 0 12 0;
#X connect 1 0 15 0;
#X connect 2 0 3 1;
#X connect 3 0 4 0;
#X connect 5 0 6 1;
#X connect 6 0 7 0;
#X connect 8 0 9 1;
#X connect 9 0 10 0;
#X connect 11 0 12 1;
#X connect 12 0 13 0;
#X connect 14 0 15 1;
#X connect 15 0 16 0;
#X restore 262 241 pd gate5;
#N canvas 668 511 450 300 gate2 0;
#X obj 46 48 inlet;
#X obj 117 48 inlet;
#X obj 37 160 == 1;
#X obj 10 185 spigot;
#X obj 10 210 outlet;
#X obj 137 160 >= 2;
#X obj 110 185 spigot;
#X obj 110 210 outlet;
#X connect 0 0 2 0;
#X connect 0 0 5 0;
#X connect 1 0 3 0;
#X connect 1 0 6 0;
#X connect 2 0 3 1;
#X connect 3 0 4 0;
#X connect 5 0 6 1;
#X connect 6 0 7 0;
#X restore 156 234 pd gate2;
#N canvas 745 504 450 300 gate18 0;
#X obj 46 48 inlet;
#X obj 117 48 inlet;
#X obj 37 160 == 1;
#X obj 10 185 spigot;
#X obj 10 210 outlet;
#X obj 137 160 == 2;
#X obj 110 185 spigot;
#X obj 110 210 outlet;
#X obj 237 160 == 3;
#X obj 210 185 spigot;
#X obj 210 210 outlet;
#X obj 337 160 == 4;
#X obj 310 185 spigot;
#X obj 310 210 outlet;
#X obj 437 160 == 5;
#X obj 410 185 spigot;
#X obj 410 210 outlet;
#X obj 537 160 == 6;
#X obj 510 185 spigot;
#X obj 510 210 outlet;
#X obj 637 160 == 7;
#X obj 610 185 spigot;
#X obj 610 210 outlet;
#X obj 737 160 == 8;
#X obj 710 185 spigot;
#X obj 710 210 outlet;
#X obj 837 160 == 9;
#X obj 810 185 spigot;
#X obj 810 210 outlet;
#X obj 937 160 == 10;
#X obj 910 185 spigot;
#X obj 910 210 outlet;
#X obj 1037 160 == 11;
#X obj 1010 185 spigot;
#X obj 1010 210 outlet;
#X obj 1137 160 == 12;
#X obj 1110 185 spigot;
#X obj 1110 210 outlet;
#X obj 1237 160 == 13;
#X obj 1210 185 spigot;
#X obj 1210 210 outlet;
#X obj 1337 160 == 14;
#X obj 1310 185 spigot;
#X obj 1310 210 outlet;
#X obj 1437 160 == 15;
#X obj 1410 185 spigot;
#X obj 1410 210 outlet;
#X obj 1537 160 == 16;
#X obj 1510 185 spigot;
#X obj 1510 210 outlet;
#X obj 1637 160 == 17;
#X obj 1610 185 spigot;
#X obj 1610 210 outlet;
#X obj 1737 160 >= 18;
#X obj 1710 185 spigot;
#X obj 1710 210 outlet;
#X connect 0 0 2 0;
#X connect 0 0 5 0;
#X connect 0 0 8 0;
#X connect 0 0 11 0;
#X connect 0 0 14 0;
#X connect 0 0 17 0;
#X connect 0 0 20 0;
#X connect 0 0 23 0;
#X connect 0 0 26 0;
#X connect 0 0 29 0;
#X connect 0 0 32 0;
#X connect 0 0 35 0;
#X connect 0 0 38 0;
#X connect 0 0 41 0;
#X connect 0 0 44 0;
#X connect 0 0 47 0;
#X connect 0 0 50 0;
#X connect 0 0 53 0;
#X connect 1 0 3 0;
#X connect 1 0 6 0;
#X connect 1 0 9 0;
#X connect 1 0 12 0;
#X connect 1 0 15 0;
#X connect 1 0 18 0;
#X connect 1 0 21 0;
#X connect 1 0 24 0;
#X connect 1 0 27 0;
#X connect 1 0 30 0;
#X connect 1 0 33 0;
#X connect 1 0 36 0;
#X connect 1 0 39 0;
#X connect 1 0 42 0;
#X connect 1 0 45 0;
#X connect 1 0 48 0;
#X connect 1 0 51 0;
#X connect 1 0 54 0;
#X connect 2 0 3 1;
#X connect 3 0 4 0;
#X connect 5 0 6 1;
#X connect 6 0 7 0;
#X connect 8 0 9 1;
#X connect 9 0 10 0;
#X connect 11 0 12 1;
#X connect 12 0 13 0;
#X connect 14 0 15 1;
#X connect 15 0 16 0;
#X connect 17 0 18 1;
#X connect 18 0 19 0;
#X connect 20 0 21 1;
#X connect 21 0 22 0;
#X connect 23 0 24 1;
#X connect 24 0 25 0;
#X connect 26 0 27 1;
#X connect 27 0 28 0;
#X connect 29 0 30 1;
#X connect 30 0 31 0;
#X connect 32 0 33 1;
#X connect 33 0 34 0;
#X connect 35 0 36 1;
#X connect 36 0 37 0;
#X connect 38 0 39 1;
#X connect 39 0 40 0;
#X connect 41 0 42 1;
#X connect 42 0 43 0;
#X connect 44 0 45 1;
#X connect 45 0 46 0;
#X connect 47 0 48 1;
#X connect 48 0 49 0;
#X connect 50 0 51 1;
#X connect 51 0 52 0;
#X connect 53 0 54 1;
#X connect 54 0 55 0;
#X restore 329 241 pd gate18;
#N canvas 633 596 450 300 gate121 0;
#X obj 46 48 inlet;
#X obj 117 48 inlet;
#X obj 37 160 == 1;
#X obj 10 185 spigot;
#X obj 10 210 outlet;
#X obj 137 160 == 2;
#X obj 110 185 spigot;
#X obj 110 210 outlet;
#X obj 237 160 == 3;
#X obj 210 185 spigot;
#X obj 210 210 outlet;
#X obj 337 160 == 4;
#X obj 310 185 spigot;
#X obj 310 210 outlet;
#X obj 437 160 == 5;
#X obj 410 185 spigot;
#X obj 410 210 outlet;
#X obj 537 160 == 6;
#X obj 510 185 spigot;
#X obj 510 210 outlet;
#X obj 637 160 == 7;
#X obj 610 185 spigot;
#X obj 610 210 outlet;
#X obj 737 160 == 8;
#X obj 710 185 spigot;
#X obj 710 210 outlet;
#X obj 837 160 == 9;
#X obj 810 185 spigot;
#X obj 810 210 outlet;
#X obj 937 160 == 10;
#X obj 910 185 spigot;
#X obj 910 210 outlet;
#X obj 1037 160 == 11;
#X obj 1010 185 spigot;
#X obj 1010 210 outlet;
#X obj 1137 160 == 12;
#X obj 1110 185 spigot;
#X obj 1110 210 outlet;
#X obj 1237 160 == 13;
#X obj 1210 185 spigot;
#X obj 1210 210 outlet;
#X obj 1337 160 == 14;
#X obj 1310 185 spigot;
#X obj 1310 210 outlet;
#X obj 1437 160 == 15;
#X obj 1410 185 spigot;
#X obj 1410 210 outlet;
#X obj 1537 160 == 16;
#X obj 1510 185 spigot;
#X obj 1510 210 outlet;
#X obj 1637 160 == 17;
#X obj 1610 185 spigot;
#X obj 1610 210 outlet;
#X obj 1737 160 == 18;
#X obj 1710 185 spigot;
#X obj 1710 210 outlet;
#X obj 1837 160 == 19;
#X obj 1810 185 spigot;
#X obj 1810 210 outlet;
#X obj 1937 160 == 20;
#X obj 1910 185 spigot;
#X obj 1910 210 outlet;
#X obj 2037 160 == 21;
#X obj 2010 185 spigot;
#X obj 2010 210 outlet;
#X obj 2137 160 == 22;
#X obj 2110 185 spigot;
#X obj 2110 210 outlet;
#X obj 2237 160 == 23;
#X obj 2210 185 spigot;
#X obj 2210 210 outlet;
#X obj 2337 160 == 24;
#X obj 2310 185 spigot;
#X obj 2310 210 outlet;
#X obj 2437 160 == 25;
#X obj 2410 185 spigot;
#X obj 2410 210 outlet;
#X obj 2537 160 == 26;
#X obj 2510 185 spigot;
#X obj 2510 210 outlet;
#X obj 2637 160 == 27;
#X obj 2610 185 spigot;
#X obj 2610 210 outlet;
#X obj 2737 160 == 28;
#X obj 2710 185 spigot;
#X obj 2710 210 outlet;
#X obj 2837 160 == 29;
#X obj 2810 185 spigot;
#X obj 2810 210 outlet;
#X obj 2937 160 == 30;
#X obj 2910 185 spigot;
#X obj 2910 210 outlet;
#X obj 3037 160 == 31;
#X obj 3010 185 spigot;
#X obj 3010 210 outlet;
#X obj 3137 160 == 32;
#X obj 3110 185 spigot;
#X obj 3110 210 outlet;
#X obj 3237 160 == 33;
#X obj 3210 185 spigot;
#X obj 3210 210 outlet;
#X obj 3337 160 == 34;
#X obj 3310 185 spigot;
#X obj 3310 210 outlet;
#X obj 3437 160 == 35;
#X obj 3410 185 spigot;
#X obj 3410 210 outlet;
#X obj 3537 160 == 36;
#X obj 3510 185 spigot;
#X obj 3510 210 outlet;
#X obj 3637 160 == 37;
#X obj 3610 185 spigot;
#X obj 3610 210 outlet;
#X obj 3737 160 == 38;
#X obj 3710 185 spigot;
#X obj 3710 210 outlet;
#X obj 3837 160 == 39;
#X obj 3810 185 spigot;
#X obj 3810 210 outlet;
#X obj 3937 160 == 40;
#X obj 3910 185 spigot;
#X obj 3910 210 outlet;
#X obj 4037 160 == 41;
#X obj 4010 185 spigot;
#X obj 4010 210 outlet;
#X obj 4137 160 == 42;
#X obj 4110 185 spigot;
#X obj 4110 210 outlet;
#X obj 4237 160 == 43;
#X obj 4210 185 spigot;
#X obj 4210 210 outlet;
#X obj 4337 160 == 44;
#X obj 4310 185 spigot;
#X obj 4310 210 outlet;
#X obj 4437 160 == 45;
#X obj 4410 185 spigot;
#X obj 4410 210 outlet;
#X obj 4537 160 == 46;
#X obj 4510 185 spigot;
#X obj 4510 210 outlet;
#X obj 4637 160 == 47;
#X obj 4610 185 spigot;
#X obj 4610 210 outlet;
#X obj 4737 160 == 48;
#X obj 4710 185 spigot;
#X obj 4710 210 outlet;
#X obj 4837 160 == 49;
#X obj 4810 185 spigot;
#X obj 4810 210 outlet;
#X obj 4937 160 == 50;
#X obj 4910 185 spigot;
#X obj 4910 210 outlet;
#X obj 5037 160 == 51;
#X obj 5010 185 spigot;
#X obj 5010 210 outlet;
#X obj 5137 160 == 52;
#X obj 5110 185 spigot;
#X obj 5110 210 outlet;
#X obj 5237 160 == 53;
#X obj 5210 185 spigot;
#X obj 5210 210 outlet;
#X obj 5337 160 == 54;
#X obj 5310 185 spigot;
#X obj 5310 210 outlet;
#X obj 5437 160 == 55;
#X obj 5410 185 spigot;
#X obj 5410 210 outlet;
#X obj 5537 160 == 56;
#X obj 5510 185 spigot;
#X obj 5510 210 outlet;
#X obj 5637 160 == 57;
#X obj 5610 185 spigot;
#X obj 5610 210 outlet;
#X obj 5737 160 == 58;
#X obj 5710 185 spigot;
#X obj 5710 210 outlet;
#X obj 5837 160 == 59;
#X obj 5810 185 spigot;
#X obj 5810 210 outlet;
#X obj 5937 160 == 60;
#X obj 5910 185 spigot;
#X obj 5910 210 outlet;
#X obj 6037 160 == 61;
#X obj 6010 185 spigot;
#X obj 6010 210 outlet;
#X obj 6137 160 == 62;
#X obj 6110 185 spigot;
#X obj 6110 210 outlet;
#X obj 6237 160 == 63;
#X obj 6210 185 spigot;
#X obj 6210 210 outlet;
#X obj 6337 160 == 64;
#X obj 6310 185 spigot;
#X obj 6310 210 outlet;
#X obj 6437 160 == 65;
#X obj 6410 185 spigot;
#X obj 6410 210 outlet;
#X obj 6537 160 == 66;
#X obj 6510 185 spigot;
#X obj 6510 210 outlet;
#X obj 6637 160 == 67;
#X obj 6610 185 spigot;
#X obj 6610 210 outlet;
#X obj 6737 160 == 68;
#X obj 6710 185 spigot;
#X obj 6710 210 outlet;
#X obj 6837 160 == 69;
#X obj 6810 185 spigot;
#X obj 6810 210 outlet;
#X obj 6937 160 == 70;
#X obj 6910 185 spigot;
#X obj 6910 210 outlet;
#X obj 7037 160 == 71;
#X obj 7010 185 spigot;
#X obj 7010 210 outlet;
#X obj 7137 160 == 72;
#X obj 7110 185 spigot;
#X obj 7110 210 outlet;
#X obj 7237 160 == 73;
#X obj 7210 185 spigot;
#X obj 7210 210 outlet;
#X obj 7337 160 == 74;
#X obj 7310 185 spigot;
#X obj 7310 210 outlet;
#X obj 7437 160 == 75;
#X obj 7410 185 spigot;
#X obj 7410 210 outlet;
#X obj 7537 160 == 76;
#X obj 7510 185 spigot;
#X obj 7510 210 outlet;
#X obj 7637 160 == 77;
#X obj 7610 185 spigot;
#X obj 7610 210 outlet;
#X obj 7737 160 == 78;
#X obj 7710 185 spigot;
#X obj 7710 210 outlet;
#X obj 7837 160 == 79;
#X obj 7810 185 spigot;
#X obj 7810 210 outlet;
#X obj 7937 160 == 80;
#X obj 7910 185 spigot;
#X obj 7910 210 outlet;
#X obj 8037 160 == 81;
#X obj 8010 185 spigot;
#X obj 8010 210 outlet;
#X obj 8137 160 == 82;
#X obj 8110 185 spigot;
#X obj 8110 210 outlet;
#X obj 8237 160 == 83;
#X obj 8210 185 spigot;
#X obj 8210 210 outlet;
#X obj 8337 160 == 84;
#X obj 8310 185 spigot;
#X obj 8310 210 outlet;
#X obj 8437 160 == 85;
#X obj 8410 185 spigot;
#X obj 8410 210 outlet;
#X obj 8537 160 == 86;
#X obj 8510 185 spigot;
#X obj 8510 210 outlet;
#X obj 8637 160 == 87;
#X obj 8610 185 spigot;
#X obj 8610 210 outlet;
#X obj 8737 160 == 88;
#X obj 8710 185 spigot;
#X obj 8710 210 outlet;
#X obj 8837 160 == 89;
#X obj 8810 185 spigot;
#X obj 8810 210 outlet;
#X obj 8937 160 == 90;
#X obj 8910 185 spigot;
#X obj 8910 210 outlet;
#X obj 9037 160 == 91;
#X obj 9010 185 spigot;
#X obj 9010 210 outlet;
#X obj 9137 160 == 92;
#X obj 9110 185 spigot;
#X obj 9110 210 outlet;
#X obj 9237 160 == 93;
#X obj 9210 185 spigot;
#X obj 9210 210 outlet;
#X obj 9337 160 == 94;
#X obj 9310 185 spigot;
#X obj 9310 210 outlet;
#X obj 9437 160 == 95;
#X obj 9410 185 spigot;
#X obj 9410 210 outlet;
#X obj 9537 160 == 96;
#X obj 9510 185 spigot;
#X obj 9510 210 outlet;
#X obj 9637 160 == 97;
#X obj 9610 185 spigot;
#X obj 9610 210 outlet;
#X obj 9737 160 == 98;
#X obj 9710 185 spigot;
#X obj 9710 210 outlet;
#X obj 9837 160 == 99;
#X obj 9810 185 spigot;
#X obj 9810 210 outlet;
#X obj 9937 160 == 100;
#X obj 9910 185 spigot;
#X obj 9910 210 outlet;
#X obj 10037 160 == 101;
#X obj 10010 185 spigot;
#X obj 10010 210 outlet;
#X obj 10137 160 == 102;
#X obj 10110 185 spigot;
#X obj 10110 210 outlet;
#X obj 10237 160 == 103;
#X obj 10210 185 spigot;
#X obj 10210 210 outlet;
#X obj 10337 160 == 104;
#X obj 10310 185 spigot;
#X obj 10310 210 outlet;
#X obj 10437 160 == 105;
#X obj 10410 185 spigot;
#X obj 10410 210 outlet;
#X obj 10537 160 == 106;
#X obj 10510 185 spigot;
#X obj 10510 210 outlet;
#X obj 10637 160 == 107;
#X obj 10610 185 spigot;
#X obj 10610 210 outlet;
#X obj 10737 160 == 108;
#X obj 10710 185 spigot;
#X obj 10710 210 outlet;
#X obj 10837 160 == 109;
#X obj 10810 185 spigot;
#X obj 10810 210 outlet;
#X obj 10937 160 == 110;
#X obj 10910 185 spigot;
#X obj 10910 210 outlet;
#X obj 11037 160 == 111;
#X obj 11010 185 spigot;
#X obj 11010 210 outlet;
#X obj 11137 160 == 112;
#X obj 11110 185 spigot;
#X obj 11110 210 outlet;
#X obj 11237 160 == 113;
#X obj 11210 185 spigot;
#X obj 11210 210 outlet;
#X obj 11337 160 == 114;
#X obj 11310 185 spigot;
#X obj 11310 210 outlet;
#X obj 11437 160 == 115;
#X obj 11410 185 spigot;
#X obj 11410 210 outlet;
#X obj 11537 160 == 116;
#X obj 11510 185 spigot;
#X obj 11510 210 outlet;
#X obj 11637 160 == 117;
#X obj 11610 185 spigot;
#X obj 11610 210 outlet;
#X obj 11737 160 == 118;
#X obj 11710 185 spigot;
#X obj 11710 210 outlet;
#X obj 11837 160 == 119;
#X obj 11810 185 spigot;
#X obj 11810 210 outlet;
#X obj 11937 160 == 120;
#X obj 11910 185 spigot;
#X obj 11910 210 outlet;
#X obj 12037 160 >= 121;
#X obj 12010 185 spigot;
#X obj 12010 210 outlet;
#X connect 0 0 2 0;
#X connect 0 0 5 0;
#X connect 0 0 8 0;
#X connect 0 0 11 0;
#X connect 0 0 14 0;
#X connect 0 0 17 0;
#X connect 0 0 20 0;
#X connect 0 0 23 0;
#X connect 0 0 26 0;
#X connect 0 0 29 0;
#X connect 0 0 32 0;
#X connect 0 0 35 0;
#X connect 0 0 38 0;
#X connect 0 0 41 0;
#X connect 0 0 44 0;
#X connect 0 0 47 0;
#X connect 0 0 50 0;
#X connect 0 0 53 0;
#X connect 0 0 56 0;
#X connect 0 0 59 0;
#X connect 0 0 62 0;
#X connect 0 0 65 0;
#X connect 0 0 68 0;
#X connect 0 0 71 0;
#X connect 0 0 74 0;
#X connect 0 0 77 0;
#X connect 0 0 80 0;
#X connect 0 0 83 0;
#X connect 0 0 86 0;
#X connect 0 0 89 0;
#X connect 0 0 92 0;
#X connect 0 0 95 0;
#X connect 0 0 98 0;
#X connect 0 0 101 0;
#X connect 0 0 104 0;
#X connect 0 0 107 0;
#X connect 0 0 110 0;
#X connect 0 0 113 0;
#X connect 0 0 116 0;
#X connect 0 0 119 0;
#X connect 0 0 122 0;
#X connect 0 0 125 0;
#X connect 0 0 128 0;
#X connect 0 0 131 0;
#X connect 0 0 134 0;
#X connect 0 0 137 0;
#X connect 0 0 140 0;
#X connect 0 0 143 0;
#X connect 0 0 146 0;
#X connect 0 0 149 0;
#X connect 0 0 152 0;
#X connect 0 0 155 0;
#X connect 0 0 158 0;
#X connect 0 0 161 0;
#X connect 0 0 164 0;
#X connect 0 0 167 0;
#X connect 0 0 170 0;
#X connect 0 0 173 0;
#X connect 0 0 176 0;
#X connect 0 0 179 0;
#X connect 0 0 182 0;
#X connect 0 0 185 0;
#X connect 0 0 188 0;
#X connect 0 0 191 0;
#X connect 0 0 194 0;
#X connect 0 0 197 0;
#X connect 0 0 200 0;
#X connect 0 0 203 0;
#X connect 0 0 206 0;
#X connect 0 0 209 0;
#X connect 0 0 212 0;
#X connect 0 0 215 0;
#X connect 0 0 218 0;
#X connect 0 0 221 0;
#X connect 0 0 224 0;
#X connect 0 0 227 0;
#X connect 0 0 230 0;
#X connect 0 0 233 0;
#X connect 0 0 236 0;
#X connect 0 0 239 0;
#X connect 0 0 242 0;
#X connect 0 0 245 0;
#X connect 0 0 248 0;
#X connect 0 0 251 0;
#X connect 0 0 254 0;
#X connect 0 0 257 0;
#X connect 0 0 260 0;
#X connect 0 0 263 0;
#X connect 0 0 266 0;
#X connect 0 0 269 0;
#X connect 0 0 272 0;
#X connect 0 0 275 0;
#X connect 0 0 278 0;
#X connect 0 0 281 0;
#X connect 0 0 284 0;
#X connect 0 0 287 0;
#X connect 0 0 290 0;
#X connect 0 0 293 0;
#X connect 0 0 296 0;
#X connect 0 0 299 0;
#X connect 0 0 302 0;
#X connect 0 0 305 0;
#X connect 0 0 308 0;
#X connect 0 0 311 0;
#X connect 0 0 314 0;
#X connect 0 0 317 0;
#X connect 0 0 320 0;
#X connect 0 0 323 0;
#X connect 0 0 326 0;
#X connect 0 0 329 0;
#X connect 0 0 332 0;
#X connect 0 0 335 0;
#X connect 0 0 338 0;
#X connect 0 0 341 0;
#X connect 0 0 344 0;
#X connect 0 0 347 0;
#X connect 0 0 350 0;
#X connect 0 0 353 0;
#X connect 0 0 356 0;
#X connect 0 0 359 0;
#X connect 0 0 362 0;
#X connect 1 0 3 0;
#X connect 1 0 6 0;
#X connect 1 0 9 0;
#X connect 1 0 12 0;
#X connect 1 0 15 0;
#X connect 1 0 18 0;
#X connect 1 0 21 0;
#X connect 1 0 24 0;
#X connect 1 0 27 0;
#X connect 1 0 30 0;
#X connect 1 0 33 0;
#X connect 1 0 36 0;
#X connect 1 0 39 0;
#X connect 1 0 42 0;
#X connect 1 0 45 0;
#X connect 1 0 48 0;
#X connect 1 0 51 0;
#X connect 1 0 54 0;
#X connect 1 0 57 0;
#X connect 1 0 60 0;
#X connect 1 0 63 0;
#X connect 1 0 66 0;
#X connect 1 0 69 0;
#X connect 1 0 72 0;
#X connect 1 0 75 0;
#X connect 1 0 78 0;
#X connect 1 0 81 0;
#X connect 1 0 84 0;
#X connect 1 0 87 0;
#X connect 1 0 90 0;
#X connect 1 0 93 0;
#X connect 1 0 96 0;
#X connect 1 0 99 0;
#X connect 1 0 102 0;
#X connect 1 0 105 0;
#X connect 1 0 108 0;
#X connect 1 0 111 0;
#X connect 1 0 114 0;
#X connect 1 0 117 0;
#X connect 1 0 120 0;
#X connect 1 0 123 0;
#X connect 1 0 126 0;
#X connect 1 0 129 0;
#X connect 1 0 132 0;
#X connect 1 0 135 0;
#X connect 1 0 138 0;
#X connect 1 0 141 0;
#X connect 1 0 144 0;
#X connect 1 0 147 0;
#X connect 1 0 150 0;
#X connect 1 0 153 0;
#X connect 1 0 156 0;
#X connect 1 0 159 0;
#X connect 1 0 162 0;
#X connect 1 0 165 0;
#X connect 1 0 168 0;
#X connect 1 0 171 0;
#X connect 1 0 174 0;
#X connect 1 0 177 0;
#X connect 1 0 180 0;
#X connect 1 0 183 0;
#X connect 1 0 186 0;
#X connect 1 0 189 0;
#X connect 1 0 192 0;
#X connect 1 0 195 0;
#X connect 1 0 198 0;
#X connect 1 0 201 0;
#X connect 1 0 204 0;
#X connect 1 0 207 0;
#X connect 1 0 210 0;
#X connect 1 0 213 0;
#X connect 1 0 216 0;
#X connect 1 0 219 0;
#X connect 1 0 222 0;
#X connect 1 0 225 0;
#X connect 1 0 228 0;
#X connect 1 0 231 0;
#X connect 1 0 234 0;
#X connect 1 0 237 0;
#X connect 1 0 240 0;
#X connect 1 0 243 0;
#X connect 1 0 246 0;
#X connect 1 0 249 0;
#X connect 1 0 252 0;
#X connect 1 0 255 0;
#X connect 1 0 258 0;
#X connect 1 0 261 0;
#X connect 1 0 264 0;
#X connect 1 0 267 0;
#X connect 1 0 270 0;
#X connect 1 0 273 0;
#X connect 1 0 276 0;
#X connect 1 0 279 0;
#X connect 1 0 282 0;
#X connect 1 0 285 0;
#X connect 1 0 288 0;
#X connect 1 0 291 0;
#X connect 1 0 294 0;
#X connect 1 0 297 0;
#X connect 1 0 300 0;
#X connect 1 0 303 0;
#X connect 1 0 306 0;
#X connect 1 0 309 0;
#X connect 1 0 312 0;
#X connect 1 0 315 0;
#X connect 1 0 318 0;
#X connect 1 0 321 0;
#X connect 1 0 324 0;
#X connect 1 0 327 0;
#X connect 1 0 330 0;
#X connect 1 0 333 0;
#X connect 1 0 336 0;
#X connect 1 0 339 0;
#X connect 1 0 342 0;
#X connect 1 0 345 0;
#X connect 1 0 348 0;
#X connect 1 0 351 0;
#X connect 1 0 354 0;
#X connect 1 0 357 0;
#X connect 1 0 360 0;
#X connect 1 0 363 0;
#X connect 2 0 3 1;
#X connect 3 0 4 0;
#X connect 5 0 6 1;
#X connect 6 0 7 0;
#X connect 8 0 9 1;
#X connect 9 0 10 0;
#X connect 11 0 12 1;
#X connect 12 0 13 0;
#X connect 14 0 15 1;
#X connect 15 0 16 0;
#X connect 17 0 18 1;
#X connect 18 0 19 0;
#X connect 20 0 21 1;
#X connect 21 0 22 0;
#X connect 23 0 24 1;
#X connect 24 0 25 0;
#X connect 26 0 27 1;
#X connect 27 0 28 0;
#X connect 29 0 30 1;
#X connect 30 0 31 0;
#X connect 32 0 33 1;
#X connect 33 0 34 0;
#X connect 35 0 36 1;
#X connect 36 0 37 0;
#X connect 38 0 39 1;
#X connect 39 0 40 0;
#X connect 41 0 42 1;
#X connect 42 0 43 0;
#X connect 44 0 45 1;
#X connect 45 0 46 0;
#X connect 47 0 48 1;
#X connect 48 0 49 0;
#X connect 50 0 51 1;
#X connect 51 0 52 0;
#X connect 53 0 54 1;
#X connect 54 0 55 0;
#X connect 56 0 57 1;
#X connect 57 0 58 0;
#X connect 59 0 60 1;
#X connect 60 0 61 0;
#X connect 62 0 63 1;
#X connect 63 0 64 0;
#X connect 65 0 66 1;
#X connect 66 0 67 0;
#X connect 68 0 69 1;
#X connect 69 0 70 0;
#X connect 71 0 72 1;
#X connect 72 0 73 0;
#X connect 74 0 75 1;
#X connect 75 0 76 0;
#X connect 77 0 78 1;
#X connect 78 0 79 0;
#X connect 80 0 81 1;
#X connect 81 0 82 0;
#X connect 83 0 84 1;
#X connect 84 0 85 0;
#X connect 86 0 87 1;
#X connect 87 0 88 0;
#X connect 89 0 90 1;
#X connect 90 0 91 0;
#X connect 92 0 93 1;
#X connect 93 0 94 0;
#X connect 95 0 96 1;
#X connect 96 0 97 0;
#X connect 98 0 99 1;
#X connect 99 0 100 0;
#X connect 101 0 102 1;
#X connect 102 0 103 0;
#X connect 104 0 105 1;
#X connect 105 0 106 0;
#X connect 107 0 108 1;
#X connect 108 0 109 0;
#X connect 110 0 111 1;
#X connect 111 0 112 0;
#X connect 113 0 114 1;
#X connect 114 0 115 0;
#X connect 116 0 117 1;
#X connect 117 0 118 0;
#X connect 119 0 120 1;
#X connect 120 0 121 0;
#X connect 122 0 123 1;
#X connect 123 0 124 0;
#X connect 125 0 126 1;
#X connect 126 0 127 0;
#X connect 128 0 129 1;
#X connect 129 0 130 0;
#X connect 131 0 132 1;
#X connect 132 0 133 0;
#X connect 134 0 135 1;
#X connect 135 0 136 0;
#X connect 137 0 138 1;
#X connect 138 0 139 0;
#X connect 140 0 141 1;
#X connect 141 0 142 0;
#X connect 143 0 144 1;
#X connect 144 0 145 0;
#X connect 146 0 147 1;
#X connect 147 0 148 0;
#X connect 149 0 150 1;
#X connect 150 0 151 0;
#X connect 152 0 153 1;
#X connect 153 0 154 0;
#X connect 155 0 156 1;
#X connect 156 0 157 0;
#X connect 158 0 159 1;
#X connect 159 0 160 0;
#X connect 161 0 162 1;
#X connect 162 0 163 0;
#X connect 164 0 165 1;
#X connect 165 0 166 0;
#X connect 167 0 168 1;
#X connect 168 0 169 0;
#X connect 170 0 171 1;
#X connect 171 0 172 0;
#X connect 173 0 174 1;
#X connect 174 0 175 0;
#X connect 176 0 177 1;
#X connect 177 0 178 0;
#X connect 179 0 180 1;
#X connect 180 0 181 0;
#X connect 182 0 183 1;
#X connect 183 0 184 0;
#X connect 185 0 186 1;
#X connect 186 0 187 0;
#X connect 188 0 189 1;
#X connect 189 0 190 0;
#X connect 191 0 192 1;
#X connect 192 0 193 0;
#X connect 194 0 195 1;
#X connect 195 0 196 0;
#X connect 197 0 198 1;
#X connect 198 0 199 0;
#X connect 200 0 201 1;
#X connect 201 0 202 0;
#X connect 203 0 204 1;
#X connect 204 0 205 0;
#X connect 206 0 207 1;
#X connect 207 0 208 0;
#X connect 209 0 210 1;
#X connect 210 0 211 0;
#X connect 212 0 213 1;
#X connect 213 0 214 0;
#X connect 215 0 216 1;
#X connect 216 0 217 0;
#X connect 218 0 219 1;
#X connect 219 0 220 0;
#X connect 221 0 222 1;
#X connect 222 0 223 0;
#X connect 224 0 225 1;
#X connect 225 0 226 0;
#X connect 227 0 228 1;
#X connect 228 0 229 0;
#X connect 230 0 231 1;
#X connect 231 0 232 0;
#X connect 233 0 234 1;
#X connect 234 0 235 0;
#X connect 236 0 237 1;
#X connect 237 0 238 0;
#X connect 239 0 240 1;
#X connect 240 0 241 0;
#X connect 242 0 243 1;
#X connect 243 0 244 0;
#X connect 245 0 246 1;
#X connect 246 0 247 0;
#X connect 248 0 249 1;
#X connect 249 0 250 0;
#X connect 251 0 252 1;
#X connect 252 0 253 0;
#X connect 254 0 255 1;
#X connect 255 0 256 0;
#X connect 257 0 258 1;
#X connect 258 0 259 0;
#X connect 260 0 261 1;
#X connect 261 0 262 0;
#X connect 263 0 264 1;
#X connect 264 0 265 0;
#X connect 266 0 267 1;
#X connect 267 0 268 0;
#X connect 269 0 270 1;
#X connect 270 0 271 0;
#X connect 272 0 273 1;
#X connect 273 0 274 0;
#X connect 275 0 276 1;
#X connect 276 0 277 0;
#X connect 278 0 279 1;
#X connect 279 0 280 0;
#X connect 281 0 282 1;
#X connect 282 0 283 0;
#X connect 284 0 285 1;
#X connect 285 0 286 0;
#X connect 287 0 288 1;
#X connect 288 0 289 0;
#X connect 290 0 291 1;
#X connect 291 0 292 0;
#X connect 293 0 294 1;
#X connect 294 0 295 0;
#X connect 296 0 297 1;
#X connect 297 0 298 0;
#X connect 299 0 300 1;
#X connect 300 0 301 0;
#X connect 302 0 303 1;
#X connect 303 0 304 0;
#X connect 305 0 306 1;
#X connect 306 0 307 0;
#X connect 308 0 309 1;
#X connect 309 0 310 0;
#X connect 311 0 312 1;
#X connect 312 0 313 0;
#X connect 314 0 315 1;
#X connect 315 0 316 0;
#X connect 317 0 318 1;
#X connect 318 0 319 0;
#X connect 320 0 321 1;
#X connect 321 0 322 0;
#X connect 323 0 324 1;
#X connect 324 0 325 0;
#X connect 326 0 327 1;
#X connect 327 0 328 0;
#X connect 329 0 330 1;
#X connect 330 0 331 0;
#X connect 332 0 333 1;
#X connect 333 0 334 0;
#X connect 335 0 336 1;
#X connect 336 0 337 0;
#X connect 338 0 339 1;
#X connect 339 0 340 0;
#X connect 341 0 342 1;
#X connect 342 0 343 0;
#X connect 344 0 345 1;
#X connect 345 0 346 0;
#X connect 347 0 348 1;
#X connect 348 0 349 0;
#X connect 350 0 351 1;
#X connect 351 0 352 0;
#X connect 353 0 354 1;
#X connect 354 0 355 0;
#X connect 356 0 357 1;
#X connect 357 0 358 0;
#X connect 359 0 360 1;
#X connect 360 0 361 0;
#X connect 362 0 363 1;
#X connect 363 0 364 0;
#X restore 315 351 pd gate121;
#N canvas 767 552 450 300 gate50 0;
#X obj 46 48 inlet;
#X obj 117 48 inlet;
#X obj 37 160 == 1;
#X obj 10 185 spigot;
#X obj 10 210 outlet;
#X obj 137 160 == 2;
#X obj 110 185 spigot;
#X obj 110 210 outlet;
#X obj 237 160 == 3;
#X obj 210 185 spigot;
#X obj 210 210 outlet;
#X obj 337 160 == 4;
#X obj 310 185 spigot;
#X obj 310 210 outlet;
#X obj 437 160 == 5;
#X obj 410 185 spigot;
#X obj 410 210 outlet;
#X obj 537 160 == 6;
#X obj 510 185 spigot;
#X obj 510 210 outlet;
#X obj 637 160 == 7;
#X obj 610 185 spigot;
#X obj 610 210 outlet;
#X obj 737 160 == 8;
#X obj 710 185 spigot;
#X obj 710 210 outlet;
#X obj 837 160 == 9;
#X obj 810 185 spigot;
#X obj 810 210 outlet;
#X obj 937 160 == 10;
#X obj 910 185 spigot;
#X obj 910 210 outlet;
#X obj 1037 160 == 11;
#X obj 1010 185 spigot;
#X obj 1010 210 outlet;
#X obj 1137 160 == 12;
#X obj 1110 185 spigot;
#X obj 1110 210 outlet;
#X obj 1237 160 == 13;
#X obj 1210 185 spigot;
#X obj 1210 210 outlet;
#X obj 1337 160 == 14;
#X obj 1310 185 spigot;
#X obj 1310 210 outlet;
#X obj 1437 160 == 15;
#X obj 1410 185 spigot;
#X obj 1410 210 outlet;
#X obj 1537 160 == 16;
#X obj 1510 185 spigot;
#X obj 1510 210 outlet;
#X obj 1637 160 == 17;
#X obj 1610 185 spigot;
#X obj 1610 210 outlet;
#X obj 1737 160 == 18;
#X obj 1710 185 spigot;
#X obj 1710 210 outlet;
#X obj 1837 160 == 19;
#X obj 1810 185 spigot;
#X obj 1810 210 outlet;
#X obj 1937 160 == 20;
#X obj 1910 185 spigot;
#X obj 1910 210 outlet;
#X obj 2037 160 == 21;
#X obj 2010 185 spigot;
#X obj 2010 210 outlet;
#X obj 2137 160 == 22;
#X obj 2110 185 spigot;
#X obj 2110 210 outlet;
#X obj 2237 160 == 23;
#X obj 2210 185 spigot;
#X obj 2210 210 outlet;
#X obj 2337 160 == 24;
#X obj 2310 185 spigot;
#X obj 2310 210 outlet;
#X obj 2437 160 == 25;
#X obj 2410 185 spigot;
#X obj 2410 210 outlet;
#X obj 2537 160 == 26;
#X obj 2510 185 spigot;
#X obj 2510 210 outlet;
#X obj 2637 160 == 27;
#X obj 2610 185 spigot;
#X obj 2610 210 outlet;
#X obj 2737 160 == 28;
#X obj 2710 185 spigot;
#X obj 2710 210 outlet;
#X obj 2837 160 == 29;
#X obj 2810 185 spigot;
#X obj 2810 210 outlet;
#X obj 2937 160 == 30;
#X obj 2910 185 spigot;
#X obj 2910 210 outlet;
#X obj 3037 160 == 31;
#X obj 3010 185 spigot;
#X obj 3010 210 outlet;
#X obj 3137 160 == 32;
#X obj 3110 185 spigot;
#X obj 3110 210 outlet;
#X obj 3237 160 == 33;
#X obj 3210 185 spigot;
#X obj 3210 210 outlet;
#X obj 3337 160 == 34;
#X obj 3310 185 spigot;
#X obj 3310 210 outlet;
#X obj 3437 160 == 35;
#X obj 3410 185 spigot;
#X obj 3410 210 outlet;
#X obj 3537 160 == 36;
#X obj 3510 185 spigot;
#X obj 3510 210 outlet;
#X obj 3637 160 == 37;
#X obj 3610 185 spigot;
#X obj 3610 210 outlet;
#X obj 3737 160 == 38;
#X obj 3710 185 spigot;
#X obj 3710 210 outlet;
#X obj 3837 160 == 39;
#X obj 3810 185 spigot;
#X obj 3810 210 outlet;
#X obj 3937 160 == 40;
#X obj 3910 185 spigot;
#X obj 3910 210 outlet;
#X obj 4037 160 == 41;
#X obj 4010 185 spigot;
#X obj 4010 210 outlet;
#X obj 4137 160 == 42;
#X obj 4110 185 spigot;
#X obj 4110 210 outlet;
#X obj 4237 160 == 43;
#X obj 4210 185 spigot;
#X obj 4210 210 outlet;
#X obj 4337 160 == 44;
#X obj 4310 185 spigot;
#X obj 4310 210 outlet;
#X obj 4437 160 == 45;
#X obj 4410 185 spigot;
#X obj 4410 210 outlet;
#X obj 4537 160 == 46;
#X obj 4510 185 spigot;
#X obj 4510 210 outlet;
#X obj 4637 160 == 47;
#X obj 4610 185 spigot;
#X obj 4610 210 outlet;
#X obj 4737 160 == 48;
#X obj 4710 185 spigot;
#X obj 4710 210 outlet;
#X obj 4837 160 == 49;
#X obj 4810 185 spigot;
#X obj 4810 210 outlet;
#X obj 4937 160 >= 50;
#X obj 4910 185 spigot;
#X obj 4910 210 outlet;
#X connect 0 0 2 0;
#X connect 0 0 5 0;
#X connect 0 0 8 0;
#X connect 0 0 11 0;
#X connect 0 0 14 0;
#X connect 0 0 17 0;
#X connect 0 0 20 0;
#X connect 0 0 23 0;
#X connect 0 0 26 0;
#X connect 0 0 29 0;
#X connect 0 0 32 0;
#X connect 0 0 35 0;
#X connect 0 0 38 0;
#X connect 0 0 41 0;
#X connect 0 0 44 0;
#X connect 0 0 47 0;
#X connect 0 0 50 0;
#X connect 0 0 53 0;
#X connect 0 0 56 0;
#X connect 0 0 59 0;
#X connect 0 0 62 0;
#X connect 0 0 65 0;
#X connect 0 0 68 0;
#X connect 0 0 71 0;
#X connect 0 0 74 0;
#X connect 0 0 77 0;
#X connect 0 0 80 0;
#X connect 0 0 83 0;
#X connect 0 0 86 0;
#X connect 0 0 89 0;
#X connect 0 0 92 0;
#X connect 0 0 95 0;
#X connect 0 0 98 0;
#X connect 0 0 101 0;
#X connect 0 0 104 0;
#X connect 0 0 107 0;
#X connect 0 0 110 0;
#X connect 0 0 113 0;
#X connect 0 0 116 0;
#X connect 0 0 119 0;
#X connect 0 0 122 0;
#X connect 0 0 125 0;
#X connect 0 0 128 0;
#X connect 0 0 131 0;
#X connect 0 0 134 0;
#X connect 0 0 137 0;
#X connect 0 0 140 0;
#X connect 0 0 143 0;
#X connect 0 0 146 0;
#X connect 0 0 149 0;
#X connect 1 0 3 0;
#X connect 1 0 6 0;
#X connect 1 0 9 0;
#X connect 1 0 12 0;
#X connect 1 0 15 0;
#X connect 1 0 18 0;
#X connect 1 0 21 0;
#X connect 1 0 24 0;
#X connect 1 0 27 0;
#X connect 1 0 30 0;
#X connect 1 0 33 0;
#X connect 1 0 36 0;
#X connect 1 0 39 0;
#X connect 1 0 42 0;
#X connect 1 0 45 0;
#X connect 1 0 48 0;
#X connect 1 0 51 0;
#X connect 1 0 54 0;
#X connect 1 0 57 0;
#X connect 1 0 60 0;
#X connect 1 0 63 0;
#X connect 1 0 66 0;
#X connect 1 0 69 0;
#X connect 1 0 72 0;
#X connect 1 0 75 0;
#X connect 1 0 78 0;
#X connect 1 0 81 0;
#X connect 1 0 84 0;
#X connect 1 0 87 0;
#X connect 1 0 90 0;
#X connect 1 0 93 0;
#X connect 1 0 96 0;
#X connect 1 0 99 0;
#X connect 1 0 102 0;
#X connect 1 0 105 0;
#X connect 1 0 108 0;
#X connect 1 0 111 0;
#X connect 1 0 114 0;
#X connect 1 0 117 0;
#X connect 1 0 120 0;
#X connect 1 0 123 0;
#X connect 1 0 126 0;
#X connect 1 0 129 0;
#X connect 1 0 132 0;
#X connect 1 0 135 0;
#X connect 1 0 138 0;
#X connect 1 0 141 0;
#X connect 1 0 144 0;
#X connect 1 0 147 0;
#X connect 1 0 150 0;
#X connect 2 0 3 1;
#X connect 3 0 4 0;
#X connect 5 0 6 1;
#X connect 6 0 7 0;
#X connect 8 0 9 1;
#X connect 9 0 10 0;
#X connect 11 0 12 1;
#X connect 12 0 13 0;
#X connect 14 0 15 1;
#X connect 15 0 16 0;
#X connect 17 0 18 1;
#X connect 18 0 19 0;
#X connect 20 0 21 1;
#X connect 21 0 22 0;
#X connect 23 0 24 1;
#X connect 24 0 25 0;
#X connect 26 0 27 1;
#X connect 27 0 28 0;
#X connect 29 0 30 1;
#X connect 30 0 31 0;
#X connect 32 0 33 1;
#X connect 33 0 34 0;
#X connect 35 0 36 1;
#X connect 36 0 37 0;
#X connect 38 0 39 1;
#X connect 39 0 40 0;
#X connect 41 0 42 1;
#X connect 42 0 43 0;
#X connect 44 0 45 1;
#X connect 45 0 46 0;
#X connect 47 0 48 1;
#X connect 48 0 49 0;
#X connect 50 0 51 1;
#X connect 51 0 52 0;
#X connect 53 0 54 1;
#X connect 54 0 55 0;
#X connect 56 0 57 1;
#X connect 57 0 58 0;
#X connect 59 0 60 1;
#X connect 60 0 61 0;
#X connect 62 0 63 1;
#X connect 63 0 64 0;
#X connect 65 0 66 1;
#X connect 66 0 67 0;
#X connect 68 0 69 1;
#X connect 69 0 70 0;
#X connect 71 0 72 1;
#X connect 72 0 73 0;
#X connect 74 0 75 1;
#X connect 75 0 76 0;
#X connect 77 0 78 1;
#X connect 78 0 79 0;
#X connect 80 0 81 1;
#X connect 81 0 82 0;
#X connect 83 0 84 1;
#X connect 84 0 85 0;
#X connect 86 0 87 1;
#X connect 87 0 88 0;
#X connect 89 0 90 1;
#X connect 90 0 91 0;
#X connect 92 0 93 1;
#X connect 93 0 94 0;
#X connect 95 0 96 1;
#X connect 96 0 97 0;
#X connect 98 0 99 1;
#X connect 99 0 100 0;
#X connect 101 0 102 1;
#X connect 102 0 103 0;
#X connect 104 0 105 1;
#X connect 105 0 106 0;
#X connect 107 0 108 1;
#X connect 108 0 109 0;
#X connect 110 0 111 1;
#X connect 111 0 112 0;
#X connect 113 0 114 1;
#X connect 114 0 115 0;
#X connect 116 0 117 1;
#X connect 117 0 118 0;
#X connect 119 0 120 1;
#X connect 120 0 121 0;
#X connect 122 0 123 1;
#X connect 123 0 124 0;
#X connect 125 0 126 1;
#X connect 126 0 127 0;
#X connect 128 0 129 1;
#X connect 129 0 130 0;
#X connect 131 0 132 1;
#X connect 132 0 133 0;
#X connect 134 0 135 1;
#X connect 135 0 136 0;
#X connect 137 0 138 1;
#X connect 138 0 139 0;
#X connect 140 0 141 1;
#X connect 141 0 142 0;
#X connect 143 0 144 1;
#X connect 144 0 145 0;
#X connect 146 0 147 1;
#X connect 147 0 148 0;
#X connect 149 0 150 1;
#X connect 150 0 151 0;
#X restore 62 315 pd gate50 _______________________________________________
;
#X obj 480 237 switchmaker 4;
#X obj 480 268 gatemaker~ 3;
#X obj 480 297 switchmaker~ 5;
#X msg 139 209 1;
#X msg 155 209 2;
#X floatatom 194 208 5 0 0 0 - - -;
#X floatatom 141 257 5 0 0 0 - - -;
#X floatatom 200 256 5 0 0 0 - - -;
#X connect 12 0 22 0;
#X connect 12 1 23 0;
#X connect 19 0 12 0;
#X connect 20 0 12 0;
#X connect 21 0 12 1;
