#N canvas 0 22 450 300 10;
#X obj 46 48 inlet;
#X obj 117 48 inlet~;
#X obj 37 160 == 1;
#X obj 10 185 transistor~;
#X obj 10 210 outlet~;
#X obj 137 160 >= 2;
#X obj 110 185 transistor~;
#X obj 110 210 outlet~;
#X connect 0 0 2 0;
#X connect 0 0 5 0;
#X connect 1 0 3 0;
#X connect 1 0 6 0;
#X connect 2 0 3 1;
#X connect 3 0 4 0;
#X connect 5 0 6 1;
#X connect 6 0 7 0;
