#N canvas 727 321 242 187 10;
#X obj 161 25 inlet;
#X obj 28 25 inlet;
#X obj 28 92 spigot;
#X obj 28 117 outlet;
#X obj 128 92 spigot;
#X obj 128 117 outlet;
#X obj 61 67 == 0;
#X obj 161 67 == 1;
#X obj 88 22 loadbang;
#X msg 88 42 0;
#X connect 0 0 6 0;
#X connect 0 0 7 0;
#X connect 1 0 2 0;
#X connect 1 0 4 0;
#X connect 2 0 3 0;
#X connect 4 0 5 0;
#X connect 6 0 2 1;
#X connect 7 0 4 1;
#X connect 8 0 9 0;
#X connect 9 0 6 0;
#X connect 9 0 7 0;
