#N canvas 206 126 228 171 10;
#X obj -319 -230 inlet~;
#X obj -259 -122 transistor~;
#X obj -344 -100 outlet~;
#X obj -259 -99 outlet~;
#X obj -278 -231 inlet;
#X obj -344 -123 transistor~;
#X obj -283 -157 == 0;
#X obj -201 -157 == 1;
#X obj -217 -210 loadbang;
#X msg -216 -188 0;
#X connect 0 0 1 0;
#X connect 0 0 5 0;
#X connect 1 0 3 0;
#X connect 4 0 6 0;
#X connect 4 0 7 0;
#X connect 5 0 2 0;
#X connect 6 0 5 1;
#X connect 7 0 1 1;
#X connect 8 0 9 0;
#X connect 9 0 6 0;
#X connect 9 0 7 0;
