#N canvas 577 254 353 166 10;
#X obj -12 -2 inlet~;
#X obj 62 -2 inlet~;
#X obj 162 -1 inlet;
#X obj 35 106 outlet~;
#X obj 62 65 transistor~;
#X obj -12 65 transistor~;
#X msg 70 44 1;
#X msg 84 44 0;
#X msg 108 44 1;
#X msg 122 44 0;
#X obj 157 26 sel 0 1;
#X obj 207 2 loadbang;
#X msg 212 25 0;
#X connect 0 0 5 0;
#X connect 1 0 4 0;
#X connect 2 0 10 0;
#X connect 4 0 3 0;
#X connect 5 0 3 0;
#X connect 6 0 5 1;
#X connect 7 0 5 1;
#X connect 8 0 4 1;
#X connect 9 0 4 1;
#X connect 10 0 6 0;
#X connect 10 0 9 0;
#X connect 10 1 7 0;
#X connect 10 1 8 0;
#X connect 10 2 7 0;
#X connect 10 2 9 0;
#X connect 11 0 12 0;
#X connect 12 0 10 0;
