#N canvas 727 91 181 141 10;
#X obj -261 -128 spigot;
#X obj -301 -151 == 0;
#X obj -334 -218 inlet;
#X obj -214 -218 inlet;
#X obj -287 -105 outlet;
#X obj -334 -129 spigot;
#X obj -261 -218 inlet;
#X obj -228 -180 loadbang;
#X obj -229 -150 == 1;
#X msg -275 -180 0;
#X connect 0 0 4 0;
#X connect 1 0 5 1;
#X connect 2 0 5 0;
#X connect 3 0 1 0;
#X connect 3 0 8 0;
#X connect 5 0 4 0;
#X connect 6 0 0 0;
#X connect 7 0 9 0;
#X connect 8 0 0 1;
#X connect 9 0 1 0;
#X connect 9 0 8 0;
