#N canvas 310 23 487 339 10;
#X obj 104 102 hsl 150 15 2 127 0 1 empty empty Attack 65 8 0 10 -262144
-1 -1 0 1;
#X obj 104 117 hsl 150 15 3 127 0 1 empty empty Decay 68 8 0 10 -249661
-1 -1 14700 1;
#X obj 104 132 hsl 150 15 0 1 0 1 empty empty Sustain 62 8 0 10 -257983
-1 -1 0 1;
#X obj 104 147 hsl 150 15 3 127 0 1 empty empty Release 63 8 0 10 -228856
-1 -1 0 1;
#X obj 97 230 pack 0 0 0 0;
#X obj 105 208 t b f;
#X obj 150 210 t b f;
#X obj 195 206 t b f;
#X obj 98 270 outlet ADSR_list;
#X obj 37 16 inlet;
#X obj 93 72 loadbang;
#X obj 42 36 route adsr attack decay sustain release on;
#X obj 290 119 print GUI_ADSR_ERROR;
#X obj 290 73 bng 15 250 50 0 empty empty empty 17 7 0 10 -262144 -1
-1;
#X obj 290 95 list prepend unknown command;
#X obj 5 99 unpack 0 0 0 0;
#N canvas 384 23 516 300 expscale 0;
#X obj 14 18 inlet;
#X obj 14 39 / 127;
#X obj 14 106 outlet;
#X obj 14 62 pow 2;
#X obj 14 84 * 5000;
#X connect 0 0 1 0;
#X connect 1 0 3 0;
#X connect 3 0 4 0;
#X connect 4 0 2 0;
#X restore 189 182 pd expscale;
#N canvas 384 23 516 300 expscale 0;
#X obj 14 18 inlet;
#X obj 14 39 / 127;
#X obj 14 106 outlet;
#X obj 14 62 pow 2;
#X obj 14 84 * 5000;
#X connect 0 0 1 0;
#X connect 1 0 3 0;
#X connect 3 0 4 0;
#X connect 4 0 2 0;
#X restore 90 169 pd expscale;
#N canvas 384 23 516 300 expscale 0;
#X obj 14 18 inlet;
#X obj 14 39 / 127;
#X obj 14 106 outlet;
#X obj 14 62 pow 2;
#X obj 14 84 * 5000;
#X connect 0 0 1 0;
#X connect 1 0 3 0;
#X connect 3 0 4 0;
#X connect 4 0 2 0;
#X restore 104 189 pd expscale;
#X connect 0 0 17 0;
#X connect 1 0 18 0;
#X connect 2 0 6 0;
#X connect 3 0 16 0;
#X connect 4 0 8 0;
#X connect 5 0 4 0;
#X connect 5 1 4 1;
#X connect 6 0 4 0;
#X connect 6 1 4 2;
#X connect 7 0 4 0;
#X connect 7 1 4 3;
#X connect 9 0 11 0;
#X connect 10 0 0 0;
#X connect 10 0 1 0;
#X connect 10 0 2 0;
#X connect 10 0 3 0;
#X connect 11 0 4 0;
#X connect 11 0 15 0;
#X connect 11 1 0 0;
#X connect 11 2 1 0;
#X connect 11 3 2 0;
#X connect 11 4 3 0;
#X connect 11 6 13 0;
#X connect 13 0 14 0;
#X connect 14 0 12 0;
#X connect 15 0 0 0;
#X connect 15 1 1 0;
#X connect 15 2 2 0;
#X connect 15 3 3 0;
#X connect 16 0 7 0;
#X connect 17 0 4 0;
#X connect 18 0 5 0;
#X coords 0 -1 1 1 157 63 2 100 100;
