#N canvas 21 33 575 535 10;
#X obj 409 13 inlet;
#X obj 391 -3 bng 15 250 50 0 empty empty empty 17 7 0 10 -262144 -1
-1;
#X obj 6 -3 bng 15 250 50 0 empty empty empty 17 7 0 10 -262144 -1
-1;
#X obj 205 241 + 1;
#X floatatom 178 173 5 0 0 0 - - -;
#X text 413 -4 + 1;
#X obj 253 15 inlet;
#X text 248 -3 Set Min;
#X obj 316 14 inlet;
#X text 311 -4 Set Max;
#X floatatom 36 223 5 0 0 0 - - -;
#X obj 205 412 - 1;
#X obj 151 58 int;
#X floatatom 166 35 5 0 0 0 - - -;
#X obj 166 14 inlet;
#X text 135 -3 Set Reset Value;
#X obj 91 15 inlet;
#X text 83 -3 Reset;
#X obj 151 82 t f f;
#X obj 26 15 inlet;
#X obj 35 274 outlet;
#X text 32 291 Counter;
#X text 30 -2 - 1;
#X floatatom 178 128 5 0 0 0 - - -;
#X msg 413 58 2;
#X msg 33 59 2;
#X msg 286 292 1;
#X obj 205 265 t f f b;
#X obj 205 435 t f f b;
#X msg 292 462 1;
#X obj 74 16 bng 15 250 50 0 empty empty empty 17 7 0 10 -262144 -1
-1;
#X obj 6 37 t a b;
#X obj 386 36 t a b;
#X obj 252 59 s \$0-min;
#X obj 213 128 r \$0-min;
#X obj 316 59 s \$0-max;
#X obj 269 128 r \$0-max;
#X obj 191 82 r \$0-num;
#X obj 224 291 s \$0-num;
#X obj 224 461 s \$0-num;
#X obj 205 342 r \$0-d-gate;
#X obj 292 486 s \$0-d-gate;
#X obj 33 81 s \$0-d-gate;
#X obj 214 173 r \$0-u-gate;
#X obj 413 80 s \$0-u-gate;
#X obj 286 317 s \$0-u-gate;
#X obj 6 106 s \$0-num;
#X obj 386 102 s \$0-num;
#X obj 36 149 r \$0-output;
#X obj 205 486 s \$0-output;
#X obj 205 317 s \$0-output;
#X obj 105 107 s \$0-output;
#X obj 47 172 r \$0-min;
#X obj 106 172 r \$0-max;
#X obj 272 250 loadbang;
#X obj 293 414 loadbang;
#X obj 212 197 - 1;
#X obj 203 365 - 1;
#X obj 178 388 spigot;
#X obj 178 150 number;
#X obj 36 200 number;
#X obj 167 219 ggate;
#X connect 0 0 32 0;
#X connect 1 0 32 0;
#X connect 2 0 31 0;
#X connect 3 0 27 0;
#X connect 4 0 61 0;
#X connect 6 0 33 0;
#X connect 8 0 35 0;
#X connect 10 0 20 0;
#X connect 11 0 28 0;
#X connect 12 0 18 0;
#X connect 13 0 12 1;
#X connect 14 0 13 0;
#X connect 16 0 12 0;
#X connect 18 0 51 0;
#X connect 18 1 23 0;
#X connect 19 0 31 0;
#X connect 23 0 59 0;
#X connect 24 0 44 0;
#X connect 25 0 42 0;
#X connect 26 0 45 0;
#X connect 27 0 50 0;
#X connect 27 1 38 0;
#X connect 27 2 26 0;
#X connect 28 0 49 0;
#X connect 28 1 39 0;
#X connect 28 2 29 0;
#X connect 29 0 41 0;
#X connect 30 0 12 0;
#X connect 31 0 46 0;
#X connect 31 1 25 0;
#X connect 32 0 47 0;
#X connect 32 1 24 0;
#X connect 34 0 59 1;
#X connect 36 0 59 2;
#X connect 37 0 23 0;
#X connect 40 0 57 0;
#X connect 43 0 56 0;
#X connect 48 0 60 0;
#X connect 52 0 60 1;
#X connect 53 0 60 2;
#X connect 54 0 26 0;
#X connect 55 0 29 0;
#X connect 56 0 61 1;
#X connect 57 0 58 1;
#X connect 58 0 11 0;
#X connect 59 0 4 0;
#X connect 60 0 10 0;
#X connect 61 0 58 0;
#X connect 61 1 3 0;
