#N canvas 679 190 174 144 10;
#X obj 20 -5 inlet;
#X obj 20 17 t b a;
#X msg 20 39 addcomma;
#X obj 47 59 list prepend add2;
#X obj 47 79 list trim;
#X obj 37 106 outlet;
#X connect 0 0 1 0;
#X connect 1 0 2 0;
#X connect 1 1 3 0;
#X connect 2 0 5 0;
#X connect 3 0 4 0;
#X connect 4 0 5 0;
