#N canvas 0 22 450 300 10;
#X obj 212 -124 t a a;
#X obj 239 -104 list length;
#X obj 206 -62 spigot;
#X obj 206 -40 outlet;
#X obj 212 -146 inlet;
#X obj 239 -84 >= \$1;
#X connect 0 0 2 0;
#X connect 0 1 1 0;
#X connect 1 0 5 0;
#X connect 2 0 3 0;
#X connect 4 0 0 0;
#X connect 5 0 2 1;
