#N canvas 729 203 206 432 10;
#X obj -297 152 list;
#X obj -297 187 list split 1;
#X obj -269 291 lbuilder;
#X obj -263 98 t b a b;
#X obj -371 10 inlet;
#X obj -335 10 inlet;
#X obj -381 406 outlet;
#X obj -297 406 outlet;
#X obj -366 329 t a b;
#X obj -339 406 outlet;
#X obj -290 38 lreverse;
#X obj -254 406 outlet;
#X obj -297 241 t a b;
#X obj -290 64 t b a b;
#X obj -254 356 - 1;
#X obj -254 382 route -1;
#X obj -317 364 list trim;
#X obj -271 327 counter2;
#X connect 0 0 1 0;
#X connect 1 0 12 0;
#X connect 1 1 3 0;
#X connect 2 0 8 0;
#X connect 3 1 0 0;
#X connect 3 2 2 2;
#X connect 4 0 10 0;
#X connect 5 0 2 0;
#X connect 8 0 6 0;
#X connect 8 1 9 0;
#X connect 10 0 13 0;
#X connect 12 0 16 0;
#X connect 12 1 17 2;
#X connect 13 0 2 1;
#X connect 13 1 3 0;
#X connect 13 2 17 1;
#X connect 14 0 15 0;
#X connect 15 1 11 0;
#X connect 16 0 7 0;
#X connect 17 0 14 0;
