#N canvas 432 346 476 221 10;
#X text 420 7 pdx;
#X msg 59 80 foo bar baz;
#X msg 179 66 1;
#X msg 332 87 513;
#X obj 130 140 lset;
#X msg 150 68 2;
#X text 15 5 [lindexset] - set the element at an index of a list;
#X text 49 52 Input list:;
#X text 152 46 Index to replace;
#X text 266 67 Item to put at that index:;
#X obj 167 139 print LINDEXSET_HELP;
#X obj 130 113 lindexset 1;
#X text 81 187 Args: Index to replace;
#X msg 130 161;
#X connect 1 0 11 0;
#X connect 2 0 11 1;
#X connect 3 0 11 2;
#X connect 4 0 13 0;
#X connect 5 0 11 1;
#X connect 11 0 4 0;
#X connect 11 0 10 0;
