#N canvas 388 402 235 318 10;
#X obj 82 -365 list split 1;
#X obj 82 -511 t a a;
#X obj 109 -490 list length;
#X obj 82 -451 t a a;
#X obj 109 -430 list length;
#X obj 95 -322 list;
#X obj 55 -344 t b a;
#X obj 109 -408 swap;
#X obj 109 -387 -;
#X obj 130 -243 outlet INDEX;
#X obj 36 -243 outlet ELEMENT;
#X obj 82 -531 inlet LIST_TO_ITERATE;
#X obj 130 -336 t a a;
#X obj 130 -294 spigot;
#X obj 157 -314 <;
#X obj 36 -281 list trim;
#X connect 0 0 6 0;
#X connect 0 1 5 1;
#X connect 1 0 3 0;
#X connect 1 1 2 0;
#X connect 2 0 7 1;
#X connect 2 0 14 1;
#X connect 3 0 0 0;
#X connect 3 1 4 0;
#X connect 4 0 7 0;
#X connect 5 0 3 0;
#X connect 6 0 5 0;
#X connect 6 1 15 0;
#X connect 7 0 8 0;
#X connect 7 1 8 1;
#X connect 8 0 12 0;
#X connect 11 0 1 0;
#X connect 12 0 13 0;
#X connect 12 1 14 0;
#X connect 13 0 9 0;
#X connect 14 0 13 1;
#X connect 15 0 10 0;
