#N canvas 793 23 168 221 10;
#X obj 21 44 liter;
#X obj 21 104 symbol;
#X obj 21 64 t b a;
#X obj 95 84 list;
#X msg 67 58 symbol;
#X msg 112 59 list;
#X obj 2 24 t b a b;
#X obj 2 144 symbol;
#X obj 2 4 inlet;
#X obj 2 184 outlet;
#X obj 2 164 list trim;
#X msg 96 104 set %s\$1;
#X obj 21 124 makefilename;
#X connect 0 0 2 0;
#X connect 1 0 12 0;
#X connect 2 0 1 0;
#X connect 2 1 3 0;
#X connect 3 0 11 0;
#X connect 4 0 1 1;
#X connect 5 0 3 1;
#X connect 6 0 7 0;
#X connect 6 1 0 0;
#X connect 6 2 5 0;
#X connect 6 2 4 0;
#X connect 7 0 10 0;
#X connect 8 0 6 0;
#X connect 10 0 9 0;
#X connect 11 0 12 0;
#X connect 12 0 1 1;
#X connect 12 0 7 1;
