#N canvas 448 101 87 85 10;
#X obj 8 3 loadbang;
#X obj 8 54 outlet;
#X obj 8 28 f \$1;
#X obj 39 24 inlet;
#X obj 51 46 b;
#X connect 0 0 2 0;
#X connect 2 0 1 0;
#X connect 3 0 4 0;
#X connect 4 0 2 0;
