#N canvas 424 449 499 385 10;
#X obj 154 7 inlet;
#X obj 185 60 list length;
#X obj 188 84 >= 1;
#X obj 161 109 spigot;
#X obj 161 132 list split 1;
#X obj 154 36 t a a b;
#X obj 323 180 list;
#X obj 83 77 sel 0;
#X obj 83 102 t b b;
#X obj 87 44 t f f;
#X obj 163 156 t b b b a;
#N canvas 909 42 450 300 output 0;
#X msg 37 145;
#X obj 37 94 list prepend add2;
#X obj 37 114 list trim;
#X msg 98 114 set;
#X obj 37 42 inlet THRU;
#X obj 183 46 inlet RESET;
#X obj 146 118 bng 15 250 50 0 empty empty empty 17 7 0 10 -262144
-1 -1;
#X obj 107 46 inlet BANG;
#X obj 35 176 outlet;
#X connect 0 0 8 0;
#X connect 1 0 2 0;
#X connect 2 0 0 0;
#X connect 3 0 0 0;
#X connect 4 0 1 0;
#X connect 5 0 3 0;
#X connect 6 0 0 0;
#X connect 7 0 6 0;
#X restore 160 238 pd output;
#X obj 162 265 outlet;
#X obj 202 181 makefilename \$1%s;
#X obj 263 15 inlet;
#X obj 265 40 symbol;
#X msg 265 65 set \$1;
#X connect 0 0 5 0;
#X connect 1 0 9 0;
#X connect 2 0 3 1;
#X connect 3 0 4 0;
#X connect 4 0 10 0;
#X connect 4 1 6 1;
#X connect 5 0 3 0;
#X connect 5 1 1 0;
#X connect 6 0 5 0;
#X connect 7 0 8 0;
#X connect 8 0 11 2;
#X connect 8 1 11 1;
#X connect 9 0 7 0;
#X connect 9 1 2 0;
#X connect 10 0 6 0;
#X connect 10 3 13 0;
#X connect 11 0 12 0;
#X connect 13 0 11 0;
#X connect 14 0 15 0;
#X connect 15 0 16 0;
#X connect 16 0 13 0;
