#N canvas 446 256 450 300 10;
#X obj 193 127 list split 1;
#X obj 193 98 list;
#X obj 174 53 t b a b;
#X obj 177 21 inlet;
#X obj 194 216 outlet;
#N canvas 359 490 450 300 lbuilder 0;
#X obj 57 114 list prepend add2;
#X obj 57 134 list trim;
#X msg 118 134 set;
#X obj 203 66 inlet RESET;
#X obj 166 138 bng 15 250 50 0 empty empty empty 17 7 0 10 -262144
-1 -1;
#X obj 127 66 inlet BANG;
#X obj 55 196 outlet;
#X obj 57 62 inlet add;
#X msg 57 165;
#X connect 0 0 1 0;
#X connect 1 0 8 0;
#X connect 2 0 8 0;
#X connect 3 0 2 0;
#X connect 4 0 8 0;
#X connect 5 0 4 0;
#X connect 7 0 0 0;
#X connect 8 0 6 0;
#X restore 161 174 pd lbuilder;
#X connect 0 0 5 0;
#X connect 0 1 1 0;
#X connect 1 0 0 0;
#X connect 2 0 5 1;
#X connect 2 1 1 0;
#X connect 2 2 5 2;
#X connect 3 0 2 0;
#X connect 5 0 4 0;
