#N canvas 764 397 206 235 10;
#X obj 63 207 outlet;
#X obj 90 94 list prepend set;
#X obj 90 115 list trim;
#X obj 6 5 inlet MESSAGE_TO_SET;
#X obj 6 26 route bang;
#X obj 63 71 t b a;
#X obj 63 163 list prepend set;
#X obj 63 184 list trim;
#X msg 63 142;
#X connect 1 0 2 0;
#X connect 2 0 8 0;
#X connect 3 0 4 0;
#X connect 4 0 8 0;
#X connect 4 1 5 0;
#X connect 5 0 8 0;
#X connect 5 1 1 0;
#X connect 6 0 7 0;
#X connect 7 0 0 0;
#X connect 8 0 6 0;
