#N canvas 324 33 564 340 10;
#X text 520 2 pdx;
#X msg 51 91 List One 1 2 3;
#X msg 122 112 5 35 1939;
#X obj 259 243 list prepend set;
#X obj 259 264 list trim;
#X msg 259 289;
#X msg 219 62 push another list;
#X text 315 152 pop with 2nd inlet or with "pop";
#X obj 295 154 bng 15 250 50 0 empty empty empty 17 7 0 10 -262144
-1 -1;
#X msg 240 90 pop;
#X obj 295 177 bng 15 250 50 0 empty empty empty 17 7 0 10 -262144
-1 -1;
#X msg 257 115 clear;
#X text 314 177 Clear with 3rd inlet or "clear";
#X msg 208 257 set;
#X obj 199 206 lstack;
#X obj 103 253 print STACK;
#X text 6 6 [lstack] - stack of lists;
#X text 52 67 Push with left inlet;
#X text 221 36 These methods also work:;
#X connect 1 0 14 0;
#X connect 2 0 14 0;
#X connect 3 0 4 0;
#X connect 4 0 5 0;
#X connect 6 0 14 0;
#X connect 8 0 14 1;
#X connect 9 0 14 0;
#X connect 10 0 14 2;
#X connect 11 0 14 0;
#X connect 13 0 5 0;
#X connect 14 0 3 0;
#X connect 14 0 15 0;
