#N canvas 933 292 450 300 10;
#N canvas 618 399 471 374 lqueue 0;
#X obj 21 16 inlet PUSH;
#X obj 137 17 inlet POP;
#X obj 251 15 inlet CLEAR;
#X msg 108 174;
#N canvas 739 367 450 300 ladd3 0;
#X obj 30 5 inlet;
#X obj 30 27 t b a;
#X msg 30 49 addcomma;
#X obj 57 69 list prepend add2;
#X obj 57 89 list trim;
#X obj 47 116 outlet;
#X connect 0 0 1 0;
#X connect 1 0 2 0;
#X connect 1 1 3 0;
#X connect 2 0 5 0;
#X connect 3 0 4 0;
#X connect 4 0 5 0;
#X restore 21 38 pd ladd3;
#X msg 88 16 foo bar;
#X msg 230 63 set;
#N canvas 832 498 450 300 ggate 0;
#X obj -128 -161 inlet;
#X obj -261 -161 inlet;
#X obj -261 -94 spigot;
#X obj -261 -69 outlet;
#X obj -161 -94 spigot;
#X obj -161 -69 outlet;
#X obj -228 -119 == 0;
#X obj -128 -119 == 1;
#X obj -201 -164 loadbang;
#X msg -201 -144 0;
#X connect 0 0 6 0;
#X connect 0 0 7 0;
#X connect 1 0 2 0;
#X connect 1 0 4 0;
#X connect 2 0 3 0;
#X connect 4 0 5 0;
#X connect 6 0 2 1;
#X connect 7 0 4 1;
#X connect 8 0 9 0;
#X connect 9 0 6 0;
#X connect 9 0 7 0;
#X restore 108 244 pd ggate;
#X msg 142 223 0;
#X msg 153 223 1;
#N canvas 739 367 450 300 ladd3 0;
#X obj 30 5 inlet;
#X obj 30 27 t b a;
#X msg 30 49 addcomma;
#X obj 57 69 list prepend add2;
#X obj 57 89 list trim;
#X obj 47 116 outlet;
#X connect 0 0 1 0;
#X connect 1 0 2 0;
#X connect 1 1 3 0;
#X connect 2 0 5 0;
#X connect 3 0 4 0;
#X connect 4 0 5 0;
#X restore 222 91 pd ladd3;
#X msg 225 118;
#X msg 88 35 baz fgao;
#X obj 163 44 bng 15 250 50 0 empty empty empty 17 7 0 10 -262144 -1
-1;
#X msg 176 95 set;
#N canvas 898 544 450 300 counter2 0;
#X obj -38 81 f;
#X obj -11 101 + 1;
#X obj -37 102 - 1;
#X obj -11 81 f;
#X msg 33 44 0;
#X obj -38 47 b;
#X obj -11 46 b;
#X obj -38 22 inlet -;
#X obj 10 22 inlet reset;
#X obj 83 22 inlet +;
#X obj -29 124 outlet;
#X obj 33 65 t f f;
#X connect 0 0 2 0;
#X connect 1 0 0 1;
#X connect 1 0 3 1;
#X connect 1 0 10 0;
#X connect 2 0 0 1;
#X connect 2 0 3 1;
#X connect 2 0 10 0;
#X connect 3 0 1 0;
#X connect 4 0 11 0;
#X connect 5 0 0 0;
#X connect 6 0 3 0;
#X connect 7 0 5 0;
#X connect 8 0 4 0;
#X connect 9 0 6 0;
#X connect 11 0 3 1;
#X connect 11 0 0 1;
#X connect 11 1 10 0;
#X restore 51 219 pd counter2;
#X obj 110 195 t b a;
#X obj 121 68 t b b b b;
#X obj 57 245 f;
#X obj 58 268 sel 1;
#X msg 73 66 4 5 3;
#X obj 354 92 t b b;
#X msg 255 164 set;
#N canvas 739 367 450 300 ladd3 0;
#X obj 30 5 inlet;
#X obj 30 27 t b a;
#X msg 30 49 addcomma;
#X obj 57 69 list prepend add2;
#X obj 57 89 list trim;
#X obj 47 116 outlet;
#X connect 0 0 1 0;
#X connect 1 0 2 0;
#X connect 1 1 3 0;
#X connect 2 0 5 0;
#X connect 3 0 4 0;
#X connect 4 0 5 0;
#X restore 219 184 pd ladd3;
#X msg 172 198 foo bar;
#X obj 153 265 t a b;
#X obj 156 290 outlet;
#X obj 326 15 inlet ALL;
#N canvas 898 544 450 300 counter2 0;
#X obj -38 111 f;
#X obj -11 131 + 1;
#X obj -37 132 - 1;
#X obj -11 111 f;
#X msg 33 74 0;
#X obj -38 47 b;
#X obj -11 46 b;
#X obj -38 22 inlet -;
#X obj 10 22 inlet reset;
#X obj 83 22 inlet +;
#X obj -29 154 outlet;
#X obj 33 95 t f f;
#X obj 30 53 b;
#X connect 0 0 2 0;
#X connect 1 0 0 1;
#X connect 1 0 3 1;
#X connect 1 0 10 0;
#X connect 2 0 0 1;
#X connect 2 0 3 1;
#X connect 2 0 10 0;
#X connect 3 0 1 0;
#X connect 4 0 11 0;
#X connect 5 0 0 0;
#X connect 6 0 3 0;
#X connect 7 0 5 0;
#X connect 8 0 12 0;
#X connect 9 0 6 0;
#X connect 11 0 3 1;
#X connect 11 0 0 1;
#X connect 11 1 10 0;
#X connect 12 0 4 0;
#X restore 6 148 pd counter2;
#N canvas 679 432 450 300 uzi 0;
#N canvas 214 258 450 300 countup 0;
#X obj 139 133 + 1;
#X obj 110 73 inlet;
#X obj 163 71 inlet;
#X obj 110 101 b;
#X obj 110 168 outlet;
#X msg 163 92 1;
#X obj 110 132 f 1;
#X connect 0 0 6 1;
#X connect 1 0 3 0;
#X connect 2 0 5 0;
#X connect 3 0 6 0;
#X connect 5 0 6 1;
#X connect 6 0 0 0;
#X connect 6 0 4 0;
#X restore 102 313 pd countup;
#X obj 473 126 inlet;
#X obj 102 61 inlet;
#X obj 102 276 until;
#X obj 102 251 max 0;
#X obj 366 467 outlet;
#X obj 102 431 -;
#X obj 98 551 outlet;
#X obj 153 553 outlet;
#X obj 153 515 select 0;
#X text 230 516 send last bang when we reach 0;
#X text 421 468 nr. of bangs;
#X obj 207 243 b;
#X obj 102 456 t a b a;
#X obj 259 148 b;
#X obj 102 154 t a b;
#X obj 102 95 route bang pause break continue resume;
#X obj 102 337 t float float;
#X text 164 456 store remainder above;
#X obj 102 226 f;
#X text 353 324 from purepd;
#X obj 102 129 f;
#X obj 102 397 swap;
#X connect 0 0 17 0;
#X connect 1 0 21 1;
#X connect 1 0 22 1;
#X connect 2 0 16 0;
#X connect 3 0 0 0;
#X connect 4 0 3 0;
#X connect 6 0 13 0;
#X connect 9 0 8 0;
#X connect 12 0 3 1;
#X connect 13 0 9 0;
#X connect 13 1 7 0;
#X connect 13 2 19 1;
#X connect 14 0 19 0;
#X connect 15 0 19 0;
#X connect 15 1 0 1;
#X connect 16 0 21 0;
#X connect 16 1 12 0;
#X connect 16 2 12 0;
#X connect 16 3 14 0;
#X connect 16 4 14 0;
#X connect 17 0 22 0;
#X connect 17 1 5 0;
#X connect 19 0 4 0;
#X connect 21 0 15 0;
#X connect 22 0 6 0;
#X connect 22 1 6 1;
#X restore 17 181 pd uzi;
#X obj 17 85 bng 15 250 50 0 empty empty empty 17 7 0 10 -262144 -1
-1;
#X connect 0 0 4 0;
#X connect 1 0 17 0;
#X connect 1 0 28 0;
#X connect 2 0 6 0;
#X connect 3 0 16 0;
#X connect 4 0 3 0;
#X connect 4 0 28 2;
#X connect 5 0 4 0;
#X connect 6 0 11 0;
#X connect 6 0 3 0;
#X connect 6 0 28 1;
#X connect 7 0 10 0;
#X connect 7 1 25 0;
#X connect 8 0 7 1;
#X connect 9 0 7 1;
#X connect 10 0 11 0;
#X connect 11 0 23 0;
#X connect 12 0 4 0;
#X connect 13 0 17 0;
#X connect 14 0 11 0;
#X connect 15 0 18 1;
#X connect 16 0 15 2;
#X connect 16 1 7 0;
#X connect 17 0 18 0;
#X connect 17 1 21 0;
#X connect 17 2 3 0;
#X connect 17 3 14 0;
#X connect 17 3 15 1;
#X connect 17 3 9 0;
#X connect 18 0 19 0;
#X connect 19 0 6 0;
#X connect 20 0 4 0;
#X connect 21 0 11 0;
#X connect 21 1 22 0;
#X connect 22 0 3 0;
#X connect 23 0 3 0;
#X connect 24 0 7 0;
#X connect 25 0 26 0;
#X connect 25 1 8 0;
#X connect 27 0 29 0;
#X connect 28 0 29 1;
#X connect 29 0 13 0;
#X connect 30 0 29 0;
#X restore 225 259 pd lqueue;
#X obj 16 5 inlet PUSH;
#X obj 127 5 inlet POP;
#X obj 236 3 inlet CLEAR;
#N canvas 618 399 471 374 lqueue 0;
#X obj 21 16 inlet PUSH;
#X obj 137 17 inlet POP;
#X obj 251 15 inlet CLEAR;
#X msg 108 174;
#N canvas 739 367 450 300 ladd3 0;
#X obj 30 5 inlet;
#X obj 30 27 t b a;
#X msg 30 49 addcomma;
#X obj 57 69 list prepend add2;
#X obj 57 89 list trim;
#X obj 47 116 outlet;
#X connect 0 0 1 0;
#X connect 1 0 2 0;
#X connect 1 1 3 0;
#X connect 2 0 5 0;
#X connect 3 0 4 0;
#X connect 4 0 5 0;
#X restore 21 38 pd ladd3;
#X msg 88 16 foo bar;
#X msg 230 63 set;
#N canvas 832 498 450 300 ggate 0;
#X obj -128 -161 inlet;
#X obj -261 -161 inlet;
#X obj -261 -94 spigot;
#X obj -261 -69 outlet;
#X obj -161 -94 spigot;
#X obj -161 -69 outlet;
#X obj -228 -119 == 0;
#X obj -128 -119 == 1;
#X obj -201 -164 loadbang;
#X msg -201 -144 0;
#X connect 0 0 6 0;
#X connect 0 0 7 0;
#X connect 1 0 2 0;
#X connect 1 0 4 0;
#X connect 2 0 3 0;
#X connect 4 0 5 0;
#X connect 6 0 2 1;
#X connect 7 0 4 1;
#X connect 8 0 9 0;
#X connect 9 0 6 0;
#X connect 9 0 7 0;
#X restore 108 244 pd ggate;
#X msg 142 223 0;
#X msg 153 223 1;
#N canvas 739 367 450 300 ladd3 0;
#X obj 30 5 inlet;
#X obj 30 27 t b a;
#X msg 30 49 addcomma;
#X obj 57 69 list prepend add2;
#X obj 57 89 list trim;
#X obj 47 116 outlet;
#X connect 0 0 1 0;
#X connect 1 0 2 0;
#X connect 1 1 3 0;
#X connect 2 0 5 0;
#X connect 3 0 4 0;
#X connect 4 0 5 0;
#X restore 222 91 pd ladd3;
#X msg 225 118;
#X msg 88 35 baz fgao;
#X obj 163 44 bng 15 250 50 0 empty empty empty 17 7 0 10 -262144 -1
-1;
#X msg 176 95 set;
#N canvas 898 544 450 300 counter2 0;
#X obj -38 81 f;
#X obj -11 101 + 1;
#X obj -37 102 - 1;
#X obj -11 81 f;
#X msg 33 44 0;
#X obj -38 47 b;
#X obj -11 46 b;
#X obj -38 22 inlet -;
#X obj 10 22 inlet reset;
#X obj 83 22 inlet +;
#X obj -29 124 outlet;
#X obj 33 65 t f f;
#X connect 0 0 2 0;
#X connect 1 0 0 1;
#X connect 1 0 3 1;
#X connect 1 0 10 0;
#X connect 2 0 0 1;
#X connect 2 0 3 1;
#X connect 2 0 10 0;
#X connect 3 0 1 0;
#X connect 4 0 11 0;
#X connect 5 0 0 0;
#X connect 6 0 3 0;
#X connect 7 0 5 0;
#X connect 8 0 4 0;
#X connect 9 0 6 0;
#X connect 11 0 3 1;
#X connect 11 0 0 1;
#X connect 11 1 10 0;
#X restore 51 219 pd counter2;
#X obj 110 195 t b a;
#X obj 121 68 t b b b b;
#X obj 57 245 f;
#X obj 58 268 sel 1;
#X msg 73 66 4 5 3;
#X obj 354 92 t b b;
#X msg 255 164 set;
#N canvas 739 367 450 300 ladd3 0;
#X obj 30 5 inlet;
#X obj 30 27 t b a;
#X msg 30 49 addcomma;
#X obj 57 69 list prepend add2;
#X obj 57 89 list trim;
#X obj 47 116 outlet;
#X connect 0 0 1 0;
#X connect 1 0 2 0;
#X connect 1 1 3 0;
#X connect 2 0 5 0;
#X connect 3 0 4 0;
#X connect 4 0 5 0;
#X restore 219 184 pd ladd3;
#X msg 172 198 foo bar;
#X obj 153 265 t a b;
#X obj 156 290 outlet;
#X obj 326 15 inlet ALL;
#N canvas 898 544 450 300 counter2 0;
#X obj -38 111 f;
#X obj -11 131 + 1;
#X obj -37 132 - 1;
#X obj -11 111 f;
#X msg 33 74 0;
#X obj -38 47 b;
#X obj -11 46 b;
#X obj -38 22 inlet -;
#X obj 10 22 inlet reset;
#X obj 83 22 inlet +;
#X obj -29 154 outlet;
#X obj 33 95 t f f;
#X obj 30 53 b;
#X connect 0 0 2 0;
#X connect 1 0 0 1;
#X connect 1 0 3 1;
#X connect 1 0 10 0;
#X connect 2 0 0 1;
#X connect 2 0 3 1;
#X connect 2 0 10 0;
#X connect 3 0 1 0;
#X connect 4 0 11 0;
#X connect 5 0 0 0;
#X connect 6 0 3 0;
#X connect 7 0 5 0;
#X connect 8 0 12 0;
#X connect 9 0 6 0;
#X connect 11 0 3 1;
#X connect 11 0 0 1;
#X connect 11 1 10 0;
#X connect 12 0 4 0;
#X restore 6 148 pd counter2;
#N canvas 462 367 450 300 uzi 0;
#N canvas 214 258 450 300 countup 0;
#X obj 139 133 + 1;
#X obj 110 73 inlet;
#X obj 163 71 inlet;
#X obj 110 101 b;
#X obj 110 168 outlet;
#X msg 163 92 1;
#X obj 110 132 f 1;
#X connect 0 0 6 1;
#X connect 1 0 3 0;
#X connect 2 0 5 0;
#X connect 3 0 6 0;
#X connect 5 0 6 1;
#X connect 6 0 0 0;
#X connect 6 0 4 0;
#X restore 102 313 pd countup;
#X obj 473 126 inlet;
#X obj 102 61 inlet;
#X obj 102 276 until;
#X obj 102 251 max 0;
#X obj 366 467 outlet;
#X obj 102 431 -;
#X obj 98 551 outlet;
#X obj 153 553 outlet;
#X obj 153 515 select 0;
#X text 230 516 send last bang when we reach 0;
#X text 421 468 nr. of bangs;
#X obj 207 243 b;
#X obj 102 456 t a b a;
#X obj 259 148 b;
#X obj 102 154 t a b;
#X obj 102 95 route bang pause break continue resume;
#X obj 102 337 t float float;
#X text 164 456 store remainder above;
#X obj 102 226 f;
#X text 353 324 from purepd;
#X obj 102 129 f;
#X obj 102 397 swap;
#X connect 0 0 17 0;
#X connect 1 0 21 1;
#X connect 1 0 22 1;
#X connect 2 0 16 0;
#X connect 3 0 0 0;
#X connect 4 0 3 0;
#X connect 6 0 13 0;
#X connect 9 0 8 0;
#X connect 12 0 3 1;
#X connect 13 0 9 0;
#X connect 13 1 7 0;
#X connect 13 2 19 1;
#X connect 14 0 19 0;
#X connect 15 0 19 0;
#X connect 15 1 0 1;
#X connect 16 0 21 0;
#X connect 16 1 12 0;
#X connect 16 2 12 0;
#X connect 16 3 14 0;
#X connect 16 4 14 0;
#X connect 17 0 22 0;
#X connect 17 1 5 0;
#X connect 19 0 4 0;
#X connect 21 0 15 0;
#X connect 22 0 6 0;
#X connect 22 1 6 1;
#X restore 17 181 pd uzi;
#X obj 17 85 bng 15 250 50 0 empty empty empty 17 7 0 10 -262144 -1
-1;
#X connect 0 0 4 0;
#X connect 1 0 17 0;
#X connect 1 0 28 0;
#X connect 2 0 6 0;
#X connect 3 0 16 0;
#X connect 4 0 3 0;
#X connect 4 0 28 2;
#X connect 5 0 4 0;
#X connect 6 0 11 0;
#X connect 6 0 3 0;
#X connect 6 0 28 1;
#X connect 7 0 10 0;
#X connect 7 1 25 0;
#X connect 8 0 7 1;
#X connect 9 0 7 1;
#X connect 10 0 11 0;
#X connect 11 0 23 0;
#X connect 12 0 4 0;
#X connect 13 0 17 0;
#X connect 14 0 11 0;
#X connect 15 0 18 1;
#X connect 16 0 15 2;
#X connect 16 1 7 0;
#X connect 17 0 18 0;
#X connect 17 1 21 0;
#X connect 17 2 3 0;
#X connect 17 3 14 0;
#X connect 17 3 15 1;
#X connect 17 3 9 0;
#X connect 18 0 19 0;
#X connect 19 0 6 0;
#X connect 20 0 4 0;
#X connect 21 0 11 0;
#X connect 21 1 22 0;
#X connect 22 0 3 0;
#X connect 23 0 3 0;
#X connect 24 0 7 0;
#X connect 25 0 26 0;
#X connect 25 1 8 0;
#X connect 27 0 29 0;
#X connect 28 0 29 1;
#X connect 29 0 13 0;
#X connect 30 0 29 0;
#X restore 180 187 pd lqueue;
#N canvas 898 544 450 300 counter2 0;
#X obj -38 111 f;
#X obj -11 131 + 1;
#X obj -37 132 - 1;
#X obj -11 111 f;
#X msg 33 74 0;
#X obj -38 47 b;
#X obj -11 46 b;
#X obj -38 22 inlet -;
#X obj 10 22 inlet reset;
#X obj 83 22 inlet +;
#X obj -29 154 outlet;
#X obj 33 95 t f f;
#X obj 30 53 b;
#X connect 0 0 2 0;
#X connect 1 0 0 1;
#X connect 1 0 3 1;
#X connect 1 0 10 0;
#X connect 2 0 0 1;
#X connect 2 0 3 1;
#X connect 2 0 10 0;
#X connect 3 0 1 0;
#X connect 4 0 11 0;
#X connect 5 0 0 0;
#X connect 6 0 3 0;
#X connect 7 0 5 0;
#X connect 8 0 12 0;
#X connect 9 0 6 0;
#X connect 11 0 3 1;
#X connect 11 0 0 1;
#X connect 11 1 10 0;
#X connect 12 0 4 0;
#X restore 36 129 pd counter2;
#N canvas 380 86 694 688 uzi 0;
#N canvas 214 258 450 300 countup 0;
#X obj 139 133 + 1;
#X obj 110 73 inlet;
#X obj 163 71 inlet;
#X obj 110 101 b;
#X obj 110 168 outlet;
#X msg 163 92 1;
#X obj 110 132 f 1;
#X connect 0 0 6 1;
#X connect 1 0 3 0;
#X connect 2 0 5 0;
#X connect 3 0 6 0;
#X connect 5 0 6 1;
#X connect 6 0 0 0;
#X connect 6 0 4 0;
#X restore 102 313 pd countup;
#X obj 473 126 inlet;
#X obj 102 61 inlet;
#X obj 102 276 until;
#X obj 102 251 max 0;
#X obj 366 467 outlet;
#X obj 102 431 -;
#X obj 98 551 outlet;
#X obj 153 553 outlet;
#X obj 153 515 select 0;
#X text 230 516 send last bang when we reach 0;
#X text 421 468 nr. of bangs;
#X obj 207 243 b;
#X obj 102 456 t a b a;
#X obj 259 148 b;
#X obj 102 154 t a b;
#X obj 102 95 route bang pause break continue resume;
#X obj 102 337 t float float;
#X text 164 456 store remainder above;
#X obj 102 226 f;
#X text 353 324 from purepd;
#X obj 102 129 f;
#X obj 102 397 swap;
#X connect 0 0 17 0;
#X connect 1 0 21 1;
#X connect 1 0 22 1;
#X connect 2 0 16 0;
#X connect 3 0 0 0;
#X connect 4 0 3 0;
#X connect 6 0 13 0;
#X connect 9 0 8 0;
#X connect 12 0 3 1;
#X connect 13 0 9 0;
#X connect 13 1 7 0;
#X connect 13 2 19 1;
#X connect 14 0 19 0;
#X connect 15 0 19 0;
#X connect 15 1 0 1;
#X connect 16 0 21 0;
#X connect 16 1 12 0;
#X connect 16 2 12 0;
#X connect 16 3 14 0;
#X connect 16 4 14 0;
#X connect 17 0 22 0;
#X connect 17 1 5 0;
#X connect 19 0 4 0;
#X connect 21 0 15 0;
#X connect 22 0 6 0;
#X connect 22 1 6 1;
#X restore 22 159 pd uzi;
#N canvas 832 498 450 300 ggate 0;
#X obj -128 -161 inlet;
#X obj -261 -161 inlet;
#X obj -261 -94 spigot;
#X obj -261 -69 outlet;
#X obj -161 -94 spigot;
#X obj -161 -69 outlet;
#X obj -228 -119 == 0;
#X obj -128 -119 == 1;
#X obj -201 -164 loadbang;
#X msg -201 -144 0;
#X connect 0 0 6 0;
#X connect 0 0 7 0;
#X connect 1 0 2 0;
#X connect 1 0 4 0;
#X connect 2 0 3 0;
#X connect 4 0 5 0;
#X connect 6 0 2 1;
#X connect 7 0 4 1;
#X connect 8 0 9 0;
#X connect 9 0 6 0;
#X connect 9 0 7 0;
#X restore 180 236 pd ggate;
#X msg 214 215 0;
#X msg 225 215 1;
#X msg 315 67 foo bar;
#X msg 365 66 baz bop;
#X msg 391 88 3 2 1;
#X obj 80 91 t b a;
#X obj 242 87 bng 15 250 50 0 empty empty empty 17 7 0 10 -262144 -1
-1;
#X obj 131 91 t b b b b;
#X obj 123 145 t b b b;
#X obj 195 64 bng 15 250 50 0 empty empty empty 17 7 0 10 -262144 -1
-1;
#X obj 128 279 outlet;
#X obj 27 34 route push pop clear;
#X connect 0 0 4 0;
#X connect 1 0 19 0;
#X connect 2 0 15 0;
#X connect 3 0 14 0;
#X connect 4 0 7 0;
#X connect 5 0 6 1;
#X connect 6 0 4 1;
#X connect 7 0 18 0;
#X connect 7 1 0 0;
#X connect 8 0 7 1;
#X connect 9 0 7 1;
#X connect 10 0 13 0;
#X connect 11 0 13 0;
#X connect 12 0 13 0;
#X connect 13 0 5 2;
#X connect 13 1 4 0;
#X connect 14 0 5 1;
#X connect 14 0 4 2;
#X connect 14 0 0 2;
#X connect 15 0 16 0;
#X connect 15 1 6 0;
#X connect 15 2 5 0;
#X connect 15 3 9 0;
#X connect 16 0 0 3;
#X connect 16 1 4 1;
#X connect 16 2 8 0;
#X connect 17 0 15 0;
#X connect 19 0 13 0;
#X connect 19 1 15 0;
#X connect 19 2 14 0;
#X connect 19 3 13 0;
