#N canvas 247 175 450 300 10;
#X obj 62 28 inlet;
#X obj 62 64 list split 1;
#X obj 61 133 list;
#X obj 61 87 t b a;
#X obj 67 165 list;
#X obj 67 204 outlet;
#X obj 67 184 list trim;
#X connect 0 0 1 0;
#X connect 1 0 3 0;
#X connect 1 1 2 1;
#X connect 2 0 4 0;
#X connect 3 0 2 0;
#X connect 3 1 4 1;
#X connect 4 0 6 0;
#X connect 6 0 5 0;
