#N canvas 1073 247 218 314 10;
#X obj -18 -26 inlet;
#X obj -18 231 outlet;
#N canvas 848 97 152 141 liter 0;
#X obj -4 -432 list split 1;
#X obj -3 -392 list;
#X obj -4 -412 t b a;
#X obj 23 -372 outlet ELEMENT;
#X obj -4 -470 inlet LIST_TO_ITERATE;
#X obj -4 -451 t a;
#X connect 0 0 2 0;
#X connect 0 1 1 1;
#X connect 1 0 5 0;
#X connect 2 0 1 0;
#X connect 2 1 3 0;
#X connect 4 0 5 0;
#X connect 5 0 0 0;
#X restore 1 24 pd liter;
#X obj 1 50 t b a;
#X obj 29 174 makefilename;
#X msg 1 78 32;
#X msg 29 139 set \$1%c;
#X obj -18 207 symbol;
#X msg 100 64 set \$1%s;
#X obj 29 107 makefilename %s;
#X obj -18 -5 t b a b;
#X msg 66 23 set %s;
#X connect 0 0 10 0;
#X connect 2 0 3 0;
#X connect 3 0 5 0;
#X connect 3 1 9 0;
#X connect 4 0 7 1;
#X connect 4 0 8 0;
#X connect 5 0 4 0;
#X connect 6 0 4 0;
#X connect 7 0 1 0;
#X connect 8 0 9 0;
#X connect 9 0 6 0;
#X connect 10 0 7 0;
#X connect 10 1 2 0;
#X connect 10 2 11 0;
#X connect 11 0 9 0;
#X connect 11 0 4 0;
