#N canvas 0 22 748 665 10;
#X obj 210 587 *~ 0.5;
#X obj 210 618 dac~;
#X obj 132 513 *~;
#X obj 87 479 phasor~;
#X obj 154 477 adsr~;
#X obj 122 355 guiadsr;
#X obj 47 415 unpack f f;
#X obj 182 497 tgl 15 0 empty empty empty 17 7 0 10 -262144 -1 -1 0
1;
#X obj 70 451 mtof;
#X obj 92 570 view~;
#X floatatom 46 486 5 0 0 0 - - -;
#X obj 34 92 piano;
#X obj 34 50 loadbang;
#X msg 33 71 legato \$1;
#N canvas 651 23 171 195 lop~ 0;
#X obj 64 10 inlet;
#X obj 13 50 lop~ 1000;
#X obj 13 70 lop~ 1000;
#X obj 13 90 lop~ 1000;
#X obj 13 110 lop~ 1000;
#X obj 13 10 inlet~;
#X obj 13 130 outlet~;
#N canvas 384 23 516 300 expscale 0;
#X obj 14 18 inlet;
#X obj 14 39 / 127;
#X obj 14 106 outlet;
#X obj 14 62 pow 2.5;
#X obj 14 84 * 10000;
#X connect 0 0 1 0;
#X connect 1 0 3 0;
#X connect 3 0 4 0;
#X connect 4 0 2 0;
#X restore 64 30 pd expscale;
#X connect 0 0 7 0;
#X connect 1 0 2 0;
#X connect 2 0 3 0;
#X connect 3 0 4 0;
#X connect 4 0 6 0;
#X connect 5 0 1 0;
#X connect 7 0 1 1;
#X restore 162 535 pd lop~;
#X obj 205 517 hsl 128 15 0 127 0 0 empty empty empty -2 -8 0 10 -262144
-1 -1 0 1;
#X obj 409 39 pddp/dsp;
#X text 689 26 pdx;
#X obj 300 394 number~;
#X obj 403 393 number~;
#X obj 631 396 tgl 15 0 empty empty empty 17 7 0 10 -262144 -1 -1 0
1;
#X text 629 375 On:;
#X text 22 24 [multitremolo~~] - audio rate tremolo effect;
#X text 389 375 Amount (0-1):;
#X obj 526 394 hradio 15 1 0 4 empty empty empty 0 -8 0 10 -262144
-1 -1 0;
#X text 520 375 Shape;
#X obj 210 559 multitremolo~~;
#X text 299 374 Rate (hz);
#X connect 0 0 1 0;
#X connect 0 0 1 1;
#X connect 2 0 9 0;
#X connect 2 0 14 0;
#X connect 3 0 2 0;
#X connect 4 0 2 1;
#X connect 4 1 7 0;
#X connect 5 0 4 1;
#X connect 6 0 8 0;
#X connect 6 0 10 0;
#X connect 6 1 4 0;
#X connect 8 0 3 0;
#X connect 11 0 6 0;
#X connect 12 0 13 0;
#X connect 13 0 11 0;
#X connect 14 0 26 0;
#X connect 15 0 14 1;
#X connect 18 0 26 1;
#X connect 19 0 26 2;
#X connect 20 0 26 4;
#X connect 24 0 26 3;
#X connect 26 0 0 0;
