#N canvas 343 296 543 436 10;
#X obj 28 20 inlet~;
#X obj 45 240 outlet~;
#X obj 45 215 gswitch~;
#X obj 89 125 delwrite~ \$0-delay 20000;
#X obj 70 58 vd~ \$0-delay;
#X obj 81 170 *~;
#X obj 89 94 *~;
#X obj 364 21 inlet ON;
#X obj 70 20 inlet~ TIME;
#X obj 160 59 clip~ 0 1;
#X obj 148 20 inlet~ FEEDBACK;
#X obj 250 19 inlet~ AMOUNT;
#X connect 0 0 2 0;
#X connect 0 0 3 0;
#X connect 0 0 2 1;
#X connect 2 0 1 0;
#X connect 4 0 5 0;
#X connect 4 0 6 0;
#X connect 5 0 2 1;
#X connect 6 0 3 0;
#X connect 7 0 2 2;
#X connect 8 0 4 0;
#X connect 9 0 6 1;
#X connect 10 0 9 0;
#X connect 11 0 5 1;
