#N canvas 214 297 563 406 10;
#X obj 18 10 inlet~;
#X obj 18 336 outlet~;
#X obj 18 311 gswitch~;
#X obj 79 202 delwrite~ \$0-delay 20000;
#X obj 60 135 vd~ \$0-delay;
#X obj 60 10 inlet METHODS;
#X obj 353 50 print ERROR invalid delay method;
#X obj 259 197 - 1;
#X floatatom 259 158 5 0 1 0 - - -;
#X obj 259 177 t f f f;
#X floatatom 359 214 5 0 0 1 Delay_Amount - -;
#X obj 259 217 abs;
#X floatatom 259 297 10 0 0 1 Delay_Time_(ms) - -;
#X floatatom 308 256 5 0 0 1 Delay_Feedback - -;
#X obj 308 216 + 0.05;
#X obj 259 277 + 20;
#X obj 308 197 * 0.93;
#X obj 259 257 * 1300;
#X obj 60 46 route time feedback amount on auto;
#X obj 259 70 t f f;
#X obj 286 91 > 0.1;
#X obj 58 109 line~;
#X obj 259 111 / 127;
#X obj 60 282 *~;
#X obj 102 258 line~;
#X obj 158 158 line~;
#X obj 79 171 *~;
#X obj 157 -5 loadbang;
#X msg 157 16 time 64 \, feedback 64 \, amount 127;
#X obj 308 236 pow 0.6;
#X obj 259 237 pow 2.4;
#X msg 102 236 \$1 15;
#X msg 158 139 \$1 15;
#X obj 359 194 pow 0.35;
#X obj 367 120 change;
#X obj 60 68 expscale 5000 2;
#X obj 171 77 expscale 1;
#X obj 124 104 expscale 1 1.5;
#X msg 58 90 \$1 50;
#X connect 0 0 2 0;
#X connect 0 0 3 0;
#X connect 0 0 2 1;
#X connect 2 0 1 0;
#X connect 4 0 23 0;
#X connect 4 0 26 0;
#X connect 5 0 18 0;
#X connect 7 0 11 0;
#X connect 8 0 9 0;
#X connect 9 0 7 0;
#X connect 9 1 16 0;
#X connect 9 2 33 0;
#X connect 10 0 31 0;
#X connect 11 0 30 0;
#X connect 12 0 38 0;
#X connect 13 0 32 0;
#X connect 14 0 29 0;
#X connect 15 0 12 0;
#X connect 16 0 14 0;
#X connect 17 0 15 0;
#X connect 18 0 35 0;
#X connect 18 1 37 0;
#X connect 18 2 36 0;
#X connect 18 3 2 2;
#X connect 18 4 19 0;
#X connect 18 5 6 0;
#X connect 19 0 22 0;
#X connect 19 1 20 0;
#X connect 20 0 34 0;
#X connect 21 0 4 0;
#X connect 22 0 8 0;
#X connect 23 0 2 1;
#X connect 24 0 23 1;
#X connect 25 0 26 1;
#X connect 26 0 3 0;
#X connect 27 0 28 0;
#X connect 28 0 18 0;
#X connect 29 0 13 0;
#X connect 30 0 17 0;
#X connect 31 0 24 0;
#X connect 32 0 25 0;
#X connect 33 0 10 0;
#X connect 34 0 2 2;
#X connect 35 0 38 0;
#X connect 36 0 31 0;
#X connect 37 0 32 0;
#X connect 38 0 21 0;
