#N canvas 0 22 766 668 10;
#X obj 273 271 vsl 15 128 0 127 0 0 empty empty empty 0 -9 0 10 -262144
-1 -1 0 1;
#X obj 333 271 vsl 15 128 0 127 0 0 empty empty empty 0 -9 0 10 -262144
-1 -1 0 1;
#X obj 485 391 tgl 15 0 empty empty empty 17 7 0 10 -262144 -1 -1 0
1;
#X msg 486 411 on \$1;
#X obj 200 577 *~ 0.5;
#X obj 200 608 dac~;
#X obj 122 503 *~;
#X obj 77 469 phasor~;
#X obj 144 467 adsr~;
#X obj 107 366 guiadsr;
#X obj 37 405 unpack f f;
#X obj 172 487 tgl 15 0 empty empty empty 17 7 0 10 -262144 -1 -1 0
1;
#X obj 60 441 mtof;
#X obj 82 560 view~;
#X floatatom 36 476 5 0 0 0 - - -;
#X obj 24 82 piano;
#X obj 24 40 loadbang;
#N canvas 651 23 171 195 lop~ 0;
#X obj 64 10 inlet;
#X obj 13 50 lop~ 1000;
#X obj 13 70 lop~ 1000;
#X obj 13 90 lop~ 1000;
#X obj 13 110 lop~ 1000;
#X obj 13 10 inlet~;
#X obj 13 130 outlet~;
#N canvas 384 23 516 300 expscale 0;
#X obj 14 18 inlet;
#X obj 14 39 / 127;
#X obj 14 106 outlet;
#X obj 14 62 pow 2.5;
#X obj 14 84 * 10000;
#X connect 0 0 1 0;
#X connect 1 0 3 0;
#X connect 3 0 4 0;
#X connect 4 0 2 0;
#X restore 64 30 pd expscale;
#X connect 0 0 7 0;
#X connect 1 0 2 0;
#X connect 2 0 3 0;
#X connect 3 0 4 0;
#X connect 4 0 6 0;
#X connect 5 0 1 0;
#X connect 7 0 1 1;
#X restore 152 525 pd lop~;
#X obj 195 507 hsl 128 15 0 127 0 0 empty empty empty -2 -8 0 10 -262144
-1 -1 0 1;
#X obj 425 23 pddp/dsp;
#X text 709 8 pdx;
#X text 489 305 All ranges from 0 to 127;
#X text 9 5 [multitremolo~] - control rate tremolo effect;
#X obj 200 549 multitremolo~;
#X msg 273 411 rate \$1;
#X msg 333 411 depth \$1;
#X msg 413 411 shape \$1;
#X msg 23 61 legato 1;
#X obj 408 381 hradio 15 1 0 4 empty empty empty 0 -8 0 10 -262144
-1 -1 0;
#X connect 0 0 24 0;
#X connect 1 0 25 0;
#X connect 2 0 3 0;
#X connect 3 0 23 1;
#X connect 4 0 5 0;
#X connect 4 0 5 1;
#X connect 6 0 13 0;
#X connect 6 0 17 0;
#X connect 7 0 6 0;
#X connect 8 0 6 1;
#X connect 8 1 11 0;
#X connect 9 0 8 1;
#X connect 10 0 12 0;
#X connect 10 0 14 0;
#X connect 10 1 8 0;
#X connect 12 0 7 0;
#X connect 15 0 10 0;
#X connect 16 0 27 0;
#X connect 17 0 23 0;
#X connect 18 0 17 1;
#X connect 23 0 4 0;
#X connect 24 0 23 1;
#X connect 25 0 23 1;
#X connect 26 0 23 1;
#X connect 27 0 15 0;
#X connect 28 0 26 0;
