#N canvas 0 22 775 667 10;
#X obj 200 577 *~ 0.5;
#X obj 200 608 dac~;
#X obj 122 503 *~;
#X obj 77 469 phasor~;
#X obj 144 467 adsr~;
#X obj 107 366 guiadsr;
#X obj 37 405 unpack f f;
#X obj 172 487 tgl 15 0 empty empty empty 17 7 0 10 -262144 -1 -1 0
1;
#X obj 60 441 mtof;
#X obj 82 560 view~;
#X floatatom 36 476 5 0 0 0 - - -;
#X obj 24 82 piano;
#X obj 24 40 loadbang;
#X msg 23 61 legato \$1;
#N canvas 651 23 171 195 lop~ 0;
#X obj 64 10 inlet;
#X obj 13 50 lop~ 1000;
#X obj 13 70 lop~ 1000;
#X obj 13 90 lop~ 1000;
#X obj 13 110 lop~ 1000;
#X obj 13 10 inlet~;
#X obj 13 130 outlet~;
#N canvas 384 23 516 300 expscale 0;
#X obj 14 18 inlet;
#X obj 14 39 / 127;
#X obj 14 106 outlet;
#X obj 14 62 pow 2.5;
#X obj 14 84 * 10000;
#X connect 0 0 1 0;
#X connect 1 0 3 0;
#X connect 3 0 4 0;
#X connect 4 0 2 0;
#X restore 64 30 pd expscale;
#X connect 0 0 7 0;
#X connect 1 0 2 0;
#X connect 2 0 3 0;
#X connect 3 0 4 0;
#X connect 4 0 6 0;
#X connect 5 0 1 0;
#X connect 7 0 1 1;
#X restore 152 525 pd lop~;
#X obj 195 507 hsl 128 15 0 127 0 0 empty empty empty -2 -8 0 10 -262144
-1 -1 0 1;
#X obj 399 29 pddp/dsp;
#X text 709 16 pdx;
#X obj 200 549 multidelay~~;
#X obj 290 384 number~;
#X obj 393 383 number~;
#X obj 503 384 number~;
#X obj 621 386 tgl 15 0 empty empty empty 17 7 0 10 -262144 -1 -1 0
1;
#X text 619 365 On:;
#X text 289 364 Time (ms):;
#X text 366 365 Feedback (0-1):;
#X text 510 365 Amount (0-1):;
#X text 12 14 [multidelay~~] - audio rate delay effect;
#X connect 0 0 1 0;
#X connect 0 0 1 1;
#X connect 2 0 9 0;
#X connect 2 0 14 0;
#X connect 3 0 2 0;
#X connect 4 0 2 1;
#X connect 4 1 7 0;
#X connect 5 0 4 1;
#X connect 6 0 8 0;
#X connect 6 0 10 0;
#X connect 6 1 4 0;
#X connect 8 0 3 0;
#X connect 11 0 6 0;
#X connect 12 0 13 0;
#X connect 13 0 11 0;
#X connect 14 0 18 0;
#X connect 15 0 14 1;
#X connect 18 0 0 0;
#X connect 19 0 18 1;
#X connect 20 0 18 2;
#X connect 21 0 18 3;
#X connect 22 0 18 4;
