#N canvas 0 22 730 659 10;
#X obj 263 261 vsl 15 128 0 127 0 0 empty empty empty 0 -9 0 10 -262144
-1 -1 0 1;
#X msg 263 401 time \$1;
#X obj 323 261 vsl 15 128 0 127 0 0 empty empty empty 0 -9 0 10 -262144
-1 -1 0 1;
#X msg 323 401 feedback \$1;
#X obj 403 261 vsl 15 128 0 127 0 0 empty empty empty 0 -9 0 10 -262144
-1 -1 0 1;
#X msg 403 401 amount \$1;
#X obj 475 381 tgl 15 0 empty empty empty 17 7 0 10 -262144 -1 -1 0
1;
#X msg 476 401 on \$1;
#X obj 190 539 multidelay~;
#X obj 190 567 *~ 0.5;
#X obj 190 598 dac~;
#X obj 112 493 *~;
#X obj 67 459 phasor~;
#X obj 134 457 adsr~;
#X obj 97 356 guiadsr;
#X text 2 4 [multidelay~] - control rate delay effect;
#X obj 27 395 unpack f f;
#X obj 162 477 tgl 15 0 empty empty empty 17 7 0 10 -262144 -1 -1 0
1;
#X obj 50 431 mtof;
#X obj 72 550 view~;
#X floatatom 26 466 5 0 0 0 - - -;
#X obj 14 72 piano;
#X obj 14 30 loadbang;
#X msg 13 51 legato \$1;
#N canvas 651 23 171 195 lop~ 0;
#X obj 64 10 inlet;
#X obj 13 50 lop~ 1000;
#X obj 13 70 lop~ 1000;
#X obj 13 90 lop~ 1000;
#X obj 13 110 lop~ 1000;
#X obj 13 10 inlet~;
#X obj 13 130 outlet~;
#N canvas 384 23 516 300 expscale 0;
#X obj 14 18 inlet;
#X obj 14 39 / 127;
#X obj 14 106 outlet;
#X obj 14 62 pow 2.5;
#X obj 14 84 * 10000;
#X connect 0 0 1 0;
#X connect 1 0 3 0;
#X connect 3 0 4 0;
#X connect 4 0 2 0;
#X restore 64 30 pd expscale;
#X connect 0 0 7 0;
#X connect 1 0 2 0;
#X connect 2 0 3 0;
#X connect 3 0 4 0;
#X connect 4 0 6 0;
#X connect 5 0 1 0;
#X connect 7 0 1 1;
#X restore 142 515 pd lop~;
#X obj 185 497 hsl 128 15 0 127 0 0 empty empty empty -2 -8 0 10 -262144
-1 -1 0 1;
#X obj 389 19 pddp/dsp;
#X text 672 6 pdx;
#X text 479 295 All ranges from 0 to 127;
#X connect 0 0 1 0;
#X connect 1 0 8 1;
#X connect 2 0 3 0;
#X connect 3 0 8 1;
#X connect 4 0 5 0;
#X connect 5 0 8 1;
#X connect 6 0 7 0;
#X connect 7 0 8 1;
#X connect 8 0 9 0;
#X connect 9 0 10 0;
#X connect 9 0 10 1;
#X connect 11 0 19 0;
#X connect 11 0 24 0;
#X connect 12 0 11 0;
#X connect 13 0 11 1;
#X connect 13 1 17 0;
#X connect 14 0 13 1;
#X connect 16 0 18 0;
#X connect 16 0 20 0;
#X connect 16 1 13 0;
#X connect 18 0 12 0;
#X connect 21 0 16 0;
#X connect 22 0 23 0;
#X connect 23 0 21 0;
#X connect 24 0 8 0;
#X connect 25 0 24 1;
