#N canvas 348 260 257 256 10;
#X obj -27 0 inlet;
#X obj -27 106 outlet;
#X obj 14 0 inlet;
#X obj 14 23 bng 15 250 50 0 empty empty empty 17 7 0 10 -262144 -1
-1;
#X msg 14 74 \$1 0;
#X obj 14 50 for++ 127 0;
#X connect 0 0 1 0;
#X connect 2 0 3 0;
#X connect 3 0 5 0;
#X connect 4 0 1 0;
#X connect 5 0 4 0;
