#N canvas 0 22 756 799 10;
#X obj -102 -232 inlet;
#X obj -11 -229 inlet;
#X obj 151 -228 inlet;
#X text -17 -247 Set Min;
#X text 148 -244 Set Max;
#X floatatom -101 -207 5 0 0 0 - - -;
#X obj -11 -187 sel none;
#X obj 151 -186 sel none;
#X text -120 -248 Number Thru;
#X obj 292 -227 inlet;
#X text 289 -243 Toggle float(0)/int(1);
#X obj 292 -202 tgl 15 0 empty empty empty 17 7 0 10 -262144 -1 -1
0 1;
#X obj -4 500 outlet;
#X obj 23 423 r \$0-int;
#X obj 292 -179 s \$0-int;
#X msg -11 -110 0;
#X msg 18 -110 1;
#X msg 30 -229 symbol none;
#X msg 193 -228 symbol none;
#X msg 151 -108 0;
#X msg 180 -108 1;
#X obj 34 -163 t f b;
#X obj 34 -138 s \$0-min;
#X obj 196 -161 t f b;
#X obj 196 -136 s \$0-max;
#X obj -47 24 <;
#X obj -101 -182 t f f;
#X obj -74 -157 s \$0-num;
#X obj -132 131 f;
#X obj -50 131 f;
#X obj -117 103 r \$0-num;
#X obj -35 103 r \$0-min;
#X obj -32 -3 r \$0-min;
#X obj -74 -10 t b f;
#X obj -132 81 b;
#X obj -50 80 b;
#X text -40 -50 <- Toggles min on/off;
#X text 33 446 <-- Toggles int/float;
#X obj -79 389 f;
#X obj 3 389 f;
#X floatatom -37 417 5 0 0 0 - - -;
#X obj -21 248 t b f;
#X obj -79 339 b;
#X obj 3 338 b;
#X text -7 208 <- Toggles max on/off;
#X obj 18 363 r \$0-max;
#X obj 21 248 r \$0-max;
#X floatatom -91 158 5 0 0 0 - - -;
#X obj -91 177 t f f;
#X text -59 54 <- Decides if < min;
#X text -6 312 <- Decides if > max;
#X obj 6 282 >;
#X floatatom 101 105 8 0 0 0 - #0-gui_in #0-gui_out;
#X obj 23 472 int;
#N canvas 839 22 450 300 ggate 0;
#X obj -249 -112 spigot;
#X obj -301 -136 == 0;
#X obj -267 -221 inlet;
#X obj -334 -220 inlet;
#X obj -249 -89 outlet;
#X obj -334 -90 outlet;
#X obj -334 -113 spigot;
#X obj -267 -156 t f f;
#X obj -334 -186 t a a;
#X obj -240 -135 > 0;
#X obj -255 -200 loadbang;
#X msg -259 -178 0;
#X connect 0 0 4 0;
#X connect 1 0 6 1;
#X connect 2 0 7 0;
#X connect 3 0 8 0;
#X connect 6 0 5 0;
#X connect 7 0 1 0;
#X connect 7 1 9 0;
#X connect 8 0 6 0;
#X connect 8 1 0 0;
#X connect 9 0 0 1;
#X connect 10 0 11 0;
#X connect 11 0 7 0;
#X restore -101 -47 pd ggate;
#N canvas 839 22 450 300 ggate 0;
#X obj -249 -112 spigot;
#X obj -301 -136 == 0;
#X obj -267 -221 inlet;
#X obj -334 -220 inlet;
#X obj -249 -89 outlet;
#X obj -334 -90 outlet;
#X obj -334 -113 spigot;
#X obj -267 -156 t f f;
#X obj -334 -186 t a a;
#X obj -240 -135 > 0;
#X obj -255 -200 loadbang;
#X msg -259 -178 0;
#X connect 0 0 4 0;
#X connect 1 0 6 1;
#X connect 2 0 7 0;
#X connect 3 0 8 0;
#X connect 6 0 5 0;
#X connect 7 0 1 0;
#X connect 7 1 9 0;
#X connect 8 0 6 0;
#X connect 8 1 0 0;
#X connect 9 0 0 1;
#X connect 10 0 11 0;
#X connect 11 0 7 0;
#X restore -114 54 pd ggate;
#N canvas 839 22 450 300 ggate 0;
#X obj -249 -112 spigot;
#X obj -301 -136 == 0;
#X obj -267 -221 inlet;
#X obj -334 -220 inlet;
#X obj -249 -89 outlet;
#X obj -334 -90 outlet;
#X obj -334 -113 spigot;
#X obj -267 -156 t f f;
#X obj -334 -186 t a a;
#X obj -240 -135 > 0;
#X obj -255 -200 loadbang;
#X msg -259 -178 0;
#N canvas 839 22 450 300 ggate 0;
#X obj -249 -112 spigot;
#X obj -301 -136 == 0;
#X obj -267 -221 inlet;
#X obj -334 -220 inlet;
#X obj -249 -89 outlet;
#X obj -334 -90 outlet;
#X obj -334 -113 spigot;
#X obj -267 -156 t f f;
#X obj -334 -186 t a a;
#X obj -240 -135 > 0;
#X obj -255 -200 loadbang;
#X msg -259 -178 0;
#X connect 0 0 4 0;
#X connect 1 0 6 1;
#X connect 2 0 7 0;
#X connect 3 0 8 0;
#X connect 6 0 5 0;
#X connect 7 0 1 0;
#X connect 7 1 9 0;
#X connect 8 0 6 0;
#X connect 8 1 0 0;
#X connect 9 0 0 1;
#X connect 10 0 11 0;
#X connect 11 0 7 0;
#X restore 80 199 pd ggate;
#X connect 0 0 4 0;
#X connect 1 0 6 1;
#X connect 2 0 7 0;
#X connect 3 0 8 0;
#X connect 6 0 5 0;
#X connect 7 0 1 0;
#X connect 7 1 9 0;
#X connect 8 0 6 0;
#X connect 8 1 0 0;
#X connect 9 0 0 1;
#X connect 10 0 11 0;
#X connect 11 0 7 0;
#X restore -60 209 pd ggate;
#N canvas 839 22 450 300 ggate 0;
#X obj -249 -112 spigot;
#X obj -301 -136 == 0;
#X obj -267 -221 inlet;
#X obj -334 -220 inlet;
#X obj -249 -89 outlet;
#X obj -334 -90 outlet;
#X obj -334 -113 spigot;
#X obj -267 -156 t f f;
#X obj -334 -186 t a a;
#X obj -240 -135 > 0;
#X obj -255 -200 loadbang;
#X msg -259 -178 0;
#N canvas 839 22 450 300 ggate 0;
#X obj -249 -112 spigot;
#X obj -301 -136 == 0;
#X obj -267 -221 inlet;
#X obj -334 -220 inlet;
#X obj -249 -89 outlet;
#X obj -334 -90 outlet;
#X obj -334 -113 spigot;
#X obj -267 -156 t f f;
#X obj -334 -186 t a a;
#X obj -240 -135 > 0;
#X obj -255 -200 loadbang;
#X msg -259 -178 0;
#X connect 0 0 4 0;
#X connect 1 0 6 1;
#X connect 2 0 7 0;
#X connect 3 0 8 0;
#X connect 6 0 5 0;
#X connect 7 0 1 0;
#X connect 7 1 9 0;
#X connect 8 0 6 0;
#X connect 8 1 0 0;
#X connect 9 0 0 1;
#X connect 10 0 11 0;
#X connect 11 0 7 0;
#X restore 80 199 pd ggate;
#X connect 0 0 4 0;
#X connect 1 0 6 1;
#X connect 2 0 7 0;
#X connect 3 0 8 0;
#X connect 6 0 5 0;
#X connect 7 0 1 0;
#X connect 7 1 9 0;
#X connect 8 0 6 0;
#X connect 8 1 0 0;
#X connect 9 0 0 1;
#X connect 10 0 11 0;
#X connect 11 0 7 0;
#X restore -62 312 pd ggate;
#N canvas 839 22 450 300 ggate 0;
#X obj -249 -112 spigot;
#X obj -301 -136 == 0;
#X obj -267 -221 inlet;
#X obj -334 -220 inlet;
#X obj -249 -89 outlet;
#X obj -334 -90 outlet;
#X obj -334 -113 spigot;
#X obj -267 -156 t f f;
#X obj -334 -186 t a a;
#X obj -240 -135 > 0;
#X obj -255 -200 loadbang;
#X msg -259 -178 0;
#N canvas 839 22 450 300 ggate 0;
#X obj -249 -112 spigot;
#X obj -301 -136 == 0;
#X obj -267 -221 inlet;
#X obj -334 -220 inlet;
#X obj -249 -89 outlet;
#X obj -334 -90 outlet;
#X obj -334 -113 spigot;
#X obj -267 -156 t f f;
#X obj -334 -186 t a a;
#X obj -240 -135 > 0;
#X obj -255 -200 loadbang;
#X msg -259 -178 0;
#X connect 0 0 4 0;
#X connect 1 0 6 1;
#X connect 2 0 7 0;
#X connect 3 0 8 0;
#X connect 6 0 5 0;
#X connect 7 0 1 0;
#X connect 7 1 9 0;
#X connect 8 0 6 0;
#X connect 8 1 0 0;
#X connect 9 0 0 1;
#X connect 10 0 11 0;
#X connect 11 0 7 0;
#X restore 80 199 pd ggate;
#X connect 0 0 4 0;
#X connect 1 0 6 1;
#X connect 2 0 7 0;
#X connect 3 0 8 0;
#X connect 6 0 5 0;
#X connect 7 0 1 0;
#X connect 7 1 9 0;
#X connect 8 0 6 0;
#X connect 8 1 0 0;
#X connect 9 0 0 1;
#X connect 10 0 11 0;
#X connect 11 0 7 0;
#X restore -28 445 pd ggate;
#X obj 196 407 s \$0-gui_in;
#X obj 158 474 r \$0-gui_out;
#X connect 0 0 5 0;
#X connect 1 0 6 0;
#X connect 2 0 7 0;
#X connect 5 0 26 0;
#X connect 6 0 15 0;
#X connect 6 1 21 0;
#X connect 7 0 19 0;
#X connect 7 1 23 0;
#X connect 9 0 11 0;
#X connect 11 0 14 0;
#X connect 13 0 58 1;
#X connect 15 0 54 1;
#X connect 15 0 55 1;
#X connect 16 0 54 1;
#X connect 17 0 6 0;
#X connect 18 0 7 0;
#X connect 19 0 56 1;
#X connect 19 0 57 1;
#X connect 20 0 56 1;
#X connect 21 0 22 0;
#X connect 21 1 16 0;
#X connect 23 0 24 0;
#X connect 23 1 20 0;
#X connect 25 0 55 1;
#X connect 26 0 54 0;
#X connect 26 1 27 0;
#X connect 28 0 47 0;
#X connect 29 0 47 0;
#X connect 30 0 28 1;
#X connect 31 0 29 1;
#X connect 32 0 25 1;
#X connect 33 0 55 0;
#X connect 33 1 25 0;
#X connect 34 0 28 0;
#X connect 35 0 29 0;
#X connect 38 0 40 0;
#X connect 39 0 40 0;
#X connect 40 0 58 0;
#X connect 41 0 57 0;
#X connect 41 1 51 0;
#X connect 42 0 38 0;
#X connect 43 0 39 0;
#X connect 45 0 39 1;
#X connect 46 0 51 1;
#X connect 47 0 48 0;
#X connect 48 0 56 0;
#X connect 48 1 38 1;
#X connect 51 0 57 1;
#X connect 53 0 59 0;
#X connect 54 0 55 0;
#X connect 54 1 33 0;
#X connect 55 0 34 0;
#X connect 55 1 35 0;
#X connect 56 0 57 0;
#X connect 56 1 41 0;
#X connect 57 0 42 0;
#X connect 57 1 43 0;
#X connect 58 0 59 0;
#X connect 58 1 53 0;
#X connect 60 0 12 0;
#X coords 0 -1 1 1 53 25 2 100 100;
