#N canvas 0 22 379 355 10;
#X obj 5 -56 inlet~;
#X obj 5 250 outlet~;
#X obj 51 -56 inlet~;
#X obj 55 250 outlet~;
#X obj 214 43 tgl 15 0 empty empty empty 17 7 0 10 -262144 -1 -1 0
1;
#X obj 103 112 +~ 1;
#X obj 103 133 /~ 2;
#X obj 5 228 *~;
#X obj 55 228 *~;
#X obj 103 58 osc~;
#X obj 127 160 -~;
#X obj 127 181 abs~;
#X obj 105 201 gswitch~;
#X obj 47 201 gswitch~;
#X obj 102 -59 inlet~ RATE;
#X obj 255 -59 inlet on;
#X obj 103 83 *~;
#X obj 177 -59 inlet~ DEPTH;
#X obj 47 145 sig~ 1;
#X connect 0 0 7 0;
#X connect 2 0 8 0;
#X connect 4 0 12 2;
#X connect 4 0 13 2;
#X connect 5 0 6 0;
#X connect 6 0 10 1;
#X connect 6 0 13 1;
#X connect 7 0 1 0;
#X connect 8 0 3 0;
#X connect 9 0 16 0;
#X connect 10 0 11 0;
#X connect 11 0 12 1;
#X connect 12 0 8 1;
#X connect 13 0 7 1;
#X connect 14 0 9 0;
#X connect 15 0 4 0;
#X connect 16 0 5 0;
#X connect 17 0 16 1;
#X connect 18 0 10 0;
#X connect 18 0 12 0;
#X connect 18 0 13 0;
