#N canvas 714 258 502 373 10;
#X obj -5 -66 inlet~;
#X obj -5 240 outlet~;
#X obj 41 -66 inlet~;
#X obj 45 240 outlet~;
#X obj 204 33 tgl 15 0 empty empty empty 17 7 0 10 -262144 -1 -1 1
1;
#X obj 93 102 +~ 1;
#X obj 93 123 /~ 2;
#X obj 93 73 *~ 1;
#X obj -5 218 *~;
#X obj 45 218 *~;
#X obj 37 135 line~;
#X obj 93 48 osc~;
#X obj 117 150 -~;
#X obj 117 171 abs~;
#X obj 95 191 gswitch~;
#X obj 37 191 gswitch~;
#X obj 14 102 loadfloat 1;
#X obj 92 -69 inlet rate;
#X obj 97 -39 route rate depth on;
#X obj 216 -14 print ERROR - invalid panner~ method;
#X obj 136 15 expscale;
#X obj 80 -9 expscale 300 2.5;
#X connect 0 0 8 0;
#X connect 2 0 9 0;
#X connect 4 0 14 2;
#X connect 4 0 15 2;
#X connect 5 0 6 0;
#X connect 6 0 12 1;
#X connect 6 0 15 1;
#X connect 7 0 5 0;
#X connect 8 0 1 0;
#X connect 9 0 3 0;
#X connect 10 0 12 0;
#X connect 10 0 14 0;
#X connect 10 0 15 0;
#X connect 11 0 7 0;
#X connect 12 0 13 0;
#X connect 13 0 14 1;
#X connect 14 0 9 1;
#X connect 15 0 8 1;
#X connect 16 0 10 0;
#X connect 17 0 18 0;
#X connect 18 0 21 0;
#X connect 18 1 20 0;
#X connect 18 2 4 0;
#X connect 18 3 19 0;
#X connect 20 0 7 1;
#X connect 21 0 11 0;
