#N canvas 506 429 315 177 10;
#X obj 14 7 inlet~;
#X obj 32 111 pitchshifter~;
#X obj 180 6 inlet;
#X obj 79 25 loadbang;
#X msg 68 72 delay 0;
#X msg 172 82 transpose \$1;
#X obj 31 141 outlet~;
#X obj 180 27 * 2;
#X obj 180 47 - 126;
#X msg 86 50 window 128;
#X connect 0 0 1 0;
#X connect 1 0 6 0;
#X connect 2 0 7 0;
#X connect 3 0 9 0;
#X connect 3 0 4 0;
#X connect 4 0 1 1;
#X connect 5 0 1 1;
#X connect 7 0 8 0;
#X connect 8 0 5 0;
#X connect 9 0 1 1;
