#N canvas 724 360 459 316 10;
#X obj 123 209 channels~;
#X msg 123 129 init \$1 stereo subtractive_synth;
#X obj 8 134 pack 0 0 0;
#X obj 342 85 t b a;
#X obj 348 128 list;
#X obj 348 148 list trim;
#X obj 8 -7 inlet notes;
#X obj 103 -6 inlet #_of_voices;
#X obj 103 51 t f b;
#X obj 342 -7 inlet methods;
#X msg 150 166 reset;
#X obj 123 247 outlet~ L;
#X obj 174 271 outlet~ R;
#X obj 90 86 t b f;
#X msg 35 185 view;
#X obj 238 -6 loadbang;
#X obj 8 111 dpoly 8;
#X obj 90 109 uzi 8;
#X obj 315 107 uzi 8;
#X msg 238 17 8;
#X connect 0 0 11 0;
#X connect 0 1 12 0;
#X connect 1 0 0 0;
#X connect 2 0 0 0;
#X connect 3 0 18 0;
#X connect 3 1 4 1;
#X connect 4 0 5 0;
#X connect 5 0 0 0;
#X connect 6 0 16 0;
#X connect 7 0 8 0;
#X connect 8 0 13 0;
#X connect 8 0 16 1;
#X connect 8 0 18 1;
#X connect 8 1 10 0;
#X connect 9 0 3 0;
#X connect 10 0 0 0;
#X connect 13 0 17 0;
#X connect 13 1 17 1;
#X connect 14 0 0 0;
#X connect 15 0 19 0;
#X connect 16 0 2 0;
#X connect 16 1 2 1;
#X connect 16 2 2 2;
#X connect 17 2 1 0;
#X connect 18 2 4 0;
#X connect 19 0 8 0;
