#N canvas 660 365 224 453 10;
#X obj 31 259 *~ 0.125;
#X obj 31 282 rzero~ -1;
#X obj 31 305 rzero~ -1;
#X obj 31 328 rzero~ -1;
#X obj 30 156 rpole~ 0.87467;
#X obj 30 133 *~ 0.12532;
#X obj 30 179 *~ 0.01668;
#X obj 30 202 cpole~ 0.9293 0.10812;
#X obj 30 228 cpole~ 0.9293 -0.10812;
#X obj 97 387 block~ 1024 1 16;
#X obj 30 22 inlet~;
#X obj 78 21 inlet~;
#X obj 126 21 inlet;
#X obj 30 103 >=~;
#X obj 78 73 wrap~;
#X obj 30 63 phasor~;
#X obj 31 376 *~ 2;
#X obj 31 421 outlet~;
#X obj 31 354 *~ 14;
#X obj 31 398 -~ 0.8;
#X connect 0 0 1 0;
#X connect 1 0 2 0;
#X connect 2 0 3 0;
#X connect 3 0 18 0;
#X connect 4 0 6 0;
#X connect 5 0 4 0;
#X connect 6 0 7 0;
#X connect 7 0 8 0;
#X connect 7 1 8 1;
#X connect 8 0 0 0;
#X connect 10 0 15 0;
#X connect 11 0 14 0;
#X connect 12 0 15 1;
#X connect 13 0 5 0;
#X connect 14 0 13 1;
#X connect 15 0 13 0;
#X connect 16 0 19 0;
#X connect 18 0 16 0;
#X connect 19 0 17 0;
