#N canvas 719 138 289 213 10;
#X obj 15 14 inlet~;
#X obj 15 178 outlet~;
#X obj 37 132 *~;
#X obj 52 46 osc~;
#X obj 52 91 +~ 1;
#X obj 52 112 /~ 2;
#X obj 15 156 gswitch~;
#X obj 62 14 inlet~ RATE;
#X obj 52 70 *~;
#X obj 89 45 clip~ 0 1;
#X obj 138 12 inlet~ DEPTH;
#X obj 223 12 inlet on;
#X connect 0 0 2 0;
#X connect 0 0 6 0;
#X connect 2 0 6 1;
#X connect 3 0 8 0;
#X connect 4 0 5 0;
#X connect 5 0 2 1;
#X connect 6 0 1 0;
#X connect 7 0 3 0;
#X connect 8 0 4 0;
#X connect 9 0 8 1;
#X connect 10 0 9 0;
#X connect 11 0 6 2;
