#N canvas 799 257 265 289 10;
#X obj 43 132 symbol;
#X obj 43 89 t b a;
#X obj 118 115 list;
#X msg 145 78 list;
#X msg 94 77 symbol;
#X obj 43 177 list prepend set;
#X obj 43 197 list trim;
#X msg 71 220;
#X obj 106 22 inlet ADD;
#X obj 34 22 inlet BANG;
#X obj 174 21 inlet RESET;
#X obj 175 42 b;
#X obj 71 261 outlet;
#X obj 43 156 makefilename;
#X msg 118 134 set %s\$1;
#X obj 71 240 symbol;
#X msg 182 93 set;
#X msg 200 117 symbol;
#X connect 0 0 13 0;
#X connect 1 0 0 0;
#X connect 1 1 2 0;
#X connect 2 0 14 0;
#X connect 3 0 2 1;
#X connect 4 0 0 1;
#X connect 5 0 6 0;
#X connect 6 0 7 0;
#X connect 7 0 15 0;
#X connect 8 0 1 0;
#X connect 9 0 7 0;
#X connect 10 0 11 0;
#X connect 11 0 3 0;
#X connect 11 0 4 0;
#X connect 11 0 16 0;
#X connect 11 0 17 0;
#X connect 13 0 0 1;
#X connect 13 0 5 0;
#X connect 14 0 13 0;
#X connect 15 0 12 0;
#X connect 16 0 7 0;
#X connect 17 0 12 0;
