#N canvas 0 22 450 300 10;
#X obj 313 21 inlet SCALE;
#X obj 47 20 inlet SCALE_POSITION;
#X obj 149 77 t b f;
#X obj 149 121 list;
#X obj 149 150 liter;
#X obj 176 182 ==;
#X obj 149 208 spigot;
#X obj 149 241 outlet NOTE;
#X obj 67 45 - 1;
#X connect 0 0 3 1;
#X connect 1 0 8 0;
#X connect 2 0 3 0;
#X connect 2 1 5 1;
#X connect 3 0 4 0;
#X connect 4 0 6 0;
#X connect 4 1 5 0;
#X connect 5 0 6 1;
#X connect 6 0 7 0;
#X connect 8 0 2 0;
