#N canvas 451 110 675 532 10;
#X text 5 2 [scalePlayer] - play notes in a scale;
#X text 642 2 pdx;
#X obj 337 281 scales;
#X msg 317 164 2 2 3 2 3;
#X msg 406 162 2 2 1 2 2 2 1;
#X text 313 144 Pentatonic:;
#X text 410 142 Major:;
#X obj 139 317 scalePlayer;
#X msg 22 167 1;
#X msg 64 168 2;
#X msg 104 168 3;
#X msg 142 168 4;
#X msg 177 168 5;
#X msg 401 218 up;
#X msg 435 218 down;
#X obj 370 303 lset;
#X msg 370 324 C5 D5 E5 F5 G5 A5 B5 C6;
#X msg 488 222 root 60;
#X obj 337 324 lset;
#X msg 337 345 60 62 64 65 67 69 71 72;
#X text 547 337 <- Current Scale;
#X msg 209 168 6;
#X obj 139 346 t b f;
#X obj 165 408 adsr~;
#X obj 199 360 loadbang;
#X obj 121 407 osc~;
#X obj 144 442 *~;
#X obj 144 473 dac~;
#X floatatom 24 345 5 0 0 0 - - -;
#X obj 24 366 number2note;
#X symbolatom 24 387 10 0 0 0 - - -;
#X obj 121 383 mtof;
#X text 130 32 This takes in a scale (as a list of MIDI notes) in its
right inlet \, then outputs a note in that scale when a scale position
is sent to the left inlet.;
#X text 131 89 It works well with the [scales] object.;
#X text 39 141 Play scale position:;
#X msg 240 168 7;
#X msg 270 168 8;
#X obj 482 139 loadbang;
#X text 398 199 Mode Up/Down:;
#X msg 547 225 mode 0;
#X msg 460 264 root up;
#X msg 520 264 octave up;
#X msg 586 264 octave down;
#X msg 199 382 5 500 0 0;
#X connect 2 0 7 1;
#X connect 2 0 18 0;
#X connect 2 1 15 0;
#X connect 3 0 2 0;
#X connect 4 0 2 0;
#X connect 7 0 22 0;
#X connect 7 0 28 0;
#X connect 8 0 7 0;
#X connect 9 0 7 0;
#X connect 10 0 7 0;
#X connect 11 0 7 0;
#X connect 12 0 7 0;
#X connect 13 0 2 0;
#X connect 14 0 2 0;
#X connect 15 0 16 0;
#X connect 17 0 2 0;
#X connect 18 0 19 0;
#X connect 21 0 7 0;
#X connect 22 0 23 0;
#X connect 22 1 31 0;
#X connect 23 0 26 1;
#X connect 24 0 43 0;
#X connect 25 0 26 0;
#X connect 26 0 27 0;
#X connect 26 0 27 1;
#X connect 28 0 29 0;
#X connect 29 0 30 0;
#X connect 31 0 25 0;
#X connect 35 0 7 0;
#X connect 36 0 7 0;
#X connect 37 0 4 0;
#X connect 39 0 2 0;
#X connect 40 0 2 0;
#X connect 41 0 2 0;
#X connect 42 0 2 0;
#X connect 43 0 23 1;
