#N canvas 589 23 649 655 10;
#X obj 31 507 f;
#X obj 31 487 +;
#X obj 31 437 list prepend 0;
#X obj 31 407 t a b;
#X msg 31 567;
#X msg 168 547 set;
#X obj 89 548 bng 15 250 50 0 empty empty empty 17 7 0 10 -262144 -1
-1;
#X obj 89 527 r \$0-output;
#X obj 168 527 r \$0-clear;
#X obj 31 67 r \$0-intervals;
#X obj 126 407 r \$0-root;
#X obj 31 27 inlet;
#N canvas 986 23 174 451 tests 0;
#X obj -6 370 outlet;
#X msg 17 -17 set 2 2 1 2 2 2 1;
#X msg 24 3 mode up;
#X msg 30 23 mode down;
#X floatatom 37 43 5 0 0 0 - - -;
#X msg 37 62 mode \$1;
#X floatatom 57 123 5 0 0 0 - - -;
#X msg 44 83 octave up;
#X msg 50 103 octave down;
#X msg 57 142 octave \$1;
#X floatatom 77 203 5 0 0 0 - - -;
#X msg 64 163 root up;
#X msg 70 183 root down;
#X msg 77 222 root \$1;
#X msg 80 242 up;
#X msg 84 262 down;
#X msg 89 282 reset;
#X msg 94 302 methods;
#X msg 99 322 help;
#X connect 1 0 0 0;
#X connect 2 0 0 0;
#X connect 3 0 0 0;
#X connect 4 0 5 0;
#X connect 5 0 0 0;
#X connect 6 0 9 0;
#X connect 7 0 0 0;
#X connect 8 0 0 0;
#X connect 9 0 0 0;
#X connect 10 0 13 0;
#X connect 11 0 0 0;
#X connect 12 0 0 0;
#X connect 13 0 0 0;
#X connect 14 0 0 0;
#X connect 15 0 0 0;
#X connect 16 0 0 0;
#X connect 17 0 0 0;
#X connect 18 0 0 0;
#X restore 68 27 pd tests;
#N canvas 188 53 791 730 \$0-methods 0;
#X obj 313 32 print ERROR - invalid scalegenerator method;
#X obj -2 1564 t b a b;
#X obj 37 1584 s \$0-clear;
#X obj -2 1624 s \$0-output;
#X obj -2 -8 inlet;
#X obj 33 1092 route up down;
#X obj 17 1604 s \$0-intervals;
#X obj 72 1504 s \$0-clear;
#X obj 33 1544 s \$0-output;
#X obj 52 1524 s \$0-mode.up;
#X obj 109 1424 s \$0-clear;
#X obj 70 1464 s \$0-output;
#X obj 89 1444 s \$0-mode.down;
#X obj 108 1112 route float;
#X obj 171 1132 print ERROR - invalid mode method;
#X obj 142 1284 s \$0-intervals;
#X obj 152 1344 s \$0-clear;
#X obj 125 1304 until;
#X obj 125 1324 t b b;
#X obj 125 1364 s \$0-mode.up;
#X obj 108 1384 s \$0-output;
#X obj 108 1244 t b f b b;
#X obj 159 1264 s \$0-clear;
#X obj 108 1132 t f f;
#X obj 141 1152 < 0;
#X obj 108 1204 spigot;
#X obj 158 1204 spigot;
#X obj 141 1182 == 0;
#X obj 191 1182 == 1;
#X obj 68 752 route up down;
#X obj 143 772 route float;
#X obj 119 1012 s \$0-clear;
#X obj 68 1072 s \$0-output;
#X obj 102 1032 s \$0-octave.up;
#X obj 70 1404 t b b b;
#X obj 33 1484 t b b b;
#X obj 68 992 t b b b b;
#X obj 85 1052 s \$0-current;
#X obj 156 912 s \$0-clear;
#X obj 105 972 s \$0-output;
#X obj 105 892 t b b b b;
#X obj 122 952 s \$0-current;
#X obj 194 812 s \$0-clear;
#X obj 143 872 s \$0-output;
#X obj 160 852 s \$0-current;
#X obj 139 932 s \$0-octave.down;
#X obj 177 832 s \$0-octave.set;
#X obj 143 792 t b b f b;
#X obj 206 792 print ERROR - invalid octave method;
#X obj 158 1224 print ERROR - mode number must be greater than or equal
to 0;
#X obj 103 412 route up down;
#X obj 154 672 s \$0-clear;
#X obj 103 732 s \$0-output;
#X obj 103 652 t b b b b;
#X obj 120 712 s \$0-current;
#X obj 191 572 s \$0-clear;
#X obj 140 632 s \$0-output;
#X obj 140 552 t b b b b;
#X obj 157 612 s \$0-current;
#X obj 137 692 s \$0-root.up;
#X obj 174 592 s \$0-root.down;
#X obj 229 472 s \$0-clear;
#X obj 178 532 s \$0-output;
#X obj 195 512 s \$0-current;
#X obj 212 492 s \$0-root;
#X obj 178 452 t b b f b;
#X text 48 1564 set;
#X text 81 1484 mode up;
#X text 118 1404 mode down;
#X text 169 1243 mode set;
#X text 130 993 octave up;
#X text 166 891 octave down;
#X text 216 774 octave set;
#X text 165 653 root up;
#X text 202 552 root down;
#X obj 201 312 s \$0-mode.up;
#X obj 185 332 s \$0-up;
#X obj 169 352 s \$0-clear;
#X obj 153 372 s \$0-current;
#X obj 138 392 s \$0-output;
#X obj 138 292 t b b b b b;
#X obj 204 232 s \$0-clear;
#X obj 188 252 s \$0-current;
#X obj 173 272 s \$0-output;
#X obj 173 172 t b b b b b;
#X obj 220 212 s \$0-down;
#X obj 236 192 s \$0-mode.down;
#X obj 178 432 route float;
#X text 251 434 root set;
#X obj 241 452 print ERROR - invalid root method;
#X obj 225 132 s \$0-intervals;
#X obj 242 112 s \$0-root;
#X msg 242 92 60;
#X obj 259 72 s \$0-clear;
#X obj 208 52 t b b b b;
#X obj 208 152 s \$0-output;
#X obj -2 12 route set mode octave root up down reset methods help
;
#N canvas 612 222 450 409 help 0;
#X obj 14 28 b;
#X obj 14 8 inlet;
#X obj 14 342 print HELP;
#X msg 14 48 ----------------------- scales.pd -----------------------
\, ------------------------------------------------------------------------
\, --------------- Generate Musical Scales --------------- \, ----
\, ---- Inlets: \, ---------- 0: Methods \, ---- \, ---- Outlets: \,
---------- 0: List of MIDI notes \, ---------- 1: List of note symbols
\, ---- \, ---- Methods (sent to inlet 0): \, ---------- set <list>:
set the scale intervals \, ---------- mode up: increase mode while
keeping the root \, ---------- mode down: decrease mode while keeping
the root \, ---------- mode <float>: set the mode (must be >= 0) while
keeping the root \, ---------- octave up: increase octave \, ----------
octave down: decrease octave \, ---------- octave <float>: set the
octave \, ---------- root up: increase the root by 1 \, ----------
root down: decrease the root by 1 \, ---------- root <float>: set the
root note \, ---------- up: increase scale position \, ---------- down:
decrease scale position \, ---------- reset: reset mode and set root
to 60 (C5) \, ---------- methods: print available [scales] methods
\, ---------- help: print help info to the console \, ------------------------------------------------------------------------
\, ----------------------- scales.pd ----------------------- \,;
#X connect 0 0 3 0;
#X connect 1 0 0 0;
#X connect 3 0 2 0;
#X restore 278 52 pd help;
#N canvas 595 217 313 99 methods 0;
#X obj -4 -1 inlet;
#X obj -4 19 b;
#X msg -4 39 set mode octave root up down reset methods help;
#X obj -4 59 print SCALES-METHODS;
#X connect 0 0 1 0;
#X connect 1 0 2 0;
#X connect 2 0 3 0;
#X restore 243 32 pd methods;
#X connect 1 0 3 0;
#X connect 1 1 6 0;
#X connect 1 2 2 0;
#X connect 4 0 96 0;
#X connect 5 0 35 0;
#X connect 5 1 34 0;
#X connect 5 2 13 0;
#X connect 13 0 23 0;
#X connect 13 1 14 0;
#X connect 17 0 18 0;
#X connect 18 0 19 0;
#X connect 18 1 16 0;
#X connect 21 0 20 0;
#X connect 21 1 17 0;
#X connect 21 2 15 0;
#X connect 21 3 22 0;
#X connect 23 0 26 0;
#X connect 23 0 25 0;
#X connect 23 1 24 0;
#X connect 24 0 28 0;
#X connect 24 0 27 0;
#X connect 25 0 21 0;
#X connect 26 0 49 0;
#X connect 27 0 25 1;
#X connect 28 0 26 1;
#X connect 29 0 36 0;
#X connect 29 1 40 0;
#X connect 29 2 30 0;
#X connect 30 0 47 0;
#X connect 30 1 48 0;
#X connect 34 0 11 0;
#X connect 34 1 12 0;
#X connect 34 2 10 0;
#X connect 35 0 8 0;
#X connect 35 1 9 0;
#X connect 35 2 7 0;
#X connect 36 0 32 0;
#X connect 36 1 37 0;
#X connect 36 2 33 0;
#X connect 36 3 31 0;
#X connect 40 0 39 0;
#X connect 40 1 41 0;
#X connect 40 2 45 0;
#X connect 40 3 38 0;
#X connect 47 0 43 0;
#X connect 47 1 44 0;
#X connect 47 2 46 0;
#X connect 47 3 42 0;
#X connect 50 0 53 0;
#X connect 50 1 57 0;
#X connect 50 2 87 0;
#X connect 53 0 52 0;
#X connect 53 1 54 0;
#X connect 53 2 59 0;
#X connect 53 3 51 0;
#X connect 57 0 56 0;
#X connect 57 1 58 0;
#X connect 57 2 60 0;
#X connect 57 3 55 0;
#X connect 65 0 62 0;
#X connect 65 1 63 0;
#X connect 65 2 64 0;
#X connect 65 3 61 0;
#X connect 80 0 79 0;
#X connect 80 1 78 0;
#X connect 80 2 77 0;
#X connect 80 3 76 0;
#X connect 80 4 75 0;
#X connect 84 0 83 0;
#X connect 84 1 82 0;
#X connect 84 2 81 0;
#X connect 84 3 85 0;
#X connect 84 4 86 0;
#X connect 87 0 65 0;
#X connect 87 1 89 0;
#X connect 92 0 91 0;
#X connect 94 0 95 0;
#X connect 94 1 90 0;
#X connect 94 2 92 0;
#X connect 94 3 93 0;
#X connect 96 0 1 0;
#X connect 96 1 5 0;
#X connect 96 2 29 0;
#X connect 96 3 50 0;
#X connect 96 4 80 0;
#X connect 96 5 84 0;
#X connect 96 6 94 0;
#X connect 96 7 98 0;
#X connect 96 8 97 0;
#X connect 96 9 0 0;
#X restore 31 47 pd \$0-methods;
#N canvas 848 97 152 141 liter 0;
#X obj -4 -432 list split 1;
#X obj -3 -392 list;
#X obj -4 -412 t b a;
#X obj 23 -372 outlet ELEMENT;
#X obj -4 -470 inlet LIST_TO_ITERATE;
#X obj -4 -451 t a;
#X connect 0 0 2 0;
#X connect 0 1 1 1;
#X connect 1 0 5 0;
#X connect 2 0 1 0;
#X connect 2 1 3 0;
#X connect 4 0 5 0;
#X connect 5 0 0 0;
#X restore 31 457 pd liter;
#X msg 31 527 add2 \$1;
#N canvas 329 142 273 247 circularlist 0;
#X obj 116 4 inlet L;
#X obj 165 4 inlet R;
#X obj 6 105 list;
#X obj 6 125 list split 1;
#X obj 191 64 list length;
#X obj 86 105 list;
#X obj 164 44 t a a;
#X obj 191 84 - 1;
#X obj 86 125 list split;
#X obj 86 165 list prepend;
#X obj 19 175 list;
#X obj 6 145 t b a;
#X obj 19 195 list append;
#X obj 6 44 b;
#X obj 55 44 b;
#X obj 19 215 outlet;
#X obj 7 4 inlet SET/RESET;
#X obj 107 24 route bang;
#X obj 88 61 list;
#X connect 0 0 13 0;
#X connect 1 0 14 0;
#X connect 2 0 3 0;
#X connect 3 0 11 0;
#X connect 3 1 10 1;
#X connect 4 0 7 0;
#X connect 5 0 8 0;
#X connect 6 0 5 1;
#X connect 6 0 2 1;
#X connect 6 0 18 1;
#X connect 6 0 15 0;
#X connect 6 1 4 0;
#X connect 7 0 8 1;
#X connect 8 0 9 0;
#X connect 8 1 9 1;
#X connect 9 0 2 1;
#X connect 9 0 5 1;
#X connect 9 0 15 0;
#X connect 10 0 12 0;
#X connect 11 0 10 0;
#X connect 11 1 12 1;
#X connect 12 0 2 1;
#X connect 12 0 5 1;
#X connect 12 0 15 0;
#X connect 13 0 2 0;
#X connect 14 0 5 0;
#X connect 16 0 17 0;
#X connect 17 0 18 0;
#X connect 17 1 6 0;
#X connect 18 0 5 1;
#X connect 18 0 2 1;
#X connect 18 0 15 0;
#X restore 31 127 pd circularlist;
#X obj 218 437 f;
#X obj 268 437 f;
#X obj 218 457 - 12;
#X obj 268 457 + 12;
#X obj 218 477 s \$0-root;
#X obj 218 367 r \$0-octave.down;
#X obj 218 387 b;
#X obj 268 407 b;
#X obj 268 387 r \$0-octave.up;
#X obj 364 387 r \$0-octave.set;
#X obj 379 437 % 12;
#X obj 364 407 * 12;
#X obj 364 457 +;
#X obj 68 387 list;
#X obj 31 347 t a a;
#X obj 68 347 r \$0-current;
#X obj 68 367 b;
#X obj 126 437 f;
#X obj 157 437 loadbang;
#X msg 157 457 60;
#X obj 467 437 f;
#X obj 517 437 f;
#X obj 467 387 b;
#X obj 517 407 b;
#X obj 467 367 r \$0-root.down;
#X obj 517 387 r \$0-root.up;
#X obj 467 457 - 1;
#X obj 517 457 + 1;
#X obj 107 164 list length;
#X obj 50 227 list split;
#X obj 107 187 - 1;
#X obj 120 227 list split 1;
#X obj 31 147 t a a a;
#N canvas 219 65 645 642 uzi 0;
#N canvas 214 258 450 300 countup 0;
#X obj 139 133 + 1;
#X obj 110 73 inlet;
#X obj 163 71 inlet;
#X obj 110 101 b;
#X obj 110 168 outlet;
#X msg 163 92 1;
#X obj 110 132 f 1;
#X connect 0 0 6 1;
#X connect 1 0 3 0;
#X connect 2 0 5 0;
#X connect 3 0 6 0;
#X connect 5 0 6 1;
#X connect 6 0 0 0;
#X connect 6 0 4 0;
#X restore 102 313 pd countup;
#X obj 473 126 inlet;
#X obj 102 61 inlet;
#X obj 102 276 until;
#X obj 102 251 max 0;
#X obj 366 467 outlet;
#X obj 102 431 -;
#X obj 98 551 outlet;
#X obj 153 553 outlet;
#X obj 153 515 select 0;
#X text 230 516 send last bang when we reach 0;
#X text 421 468 nr. of bangs;
#X obj 207 243 b;
#X obj 102 456 t a b a;
#X obj 259 148 b;
#X obj 102 154 t a b;
#X obj 102 95 route bang pause break continue resume;
#X obj 102 337 t float float;
#X text 164 456 store remainder above;
#X obj 102 226 f;
#X text 395 282 from purepd;
#X obj 102 397 swap;
#X obj 102 129 f;
#X connect 0 0 17 0;
#X connect 1 0 21 1;
#X connect 1 0 22 1;
#X connect 2 0 16 0;
#X connect 3 0 0 0;
#X connect 4 0 3 0;
#X connect 6 0 13 0;
#X connect 9 0 8 0;
#X connect 12 0 3 1;
#X connect 13 0 9 0;
#X connect 13 1 7 0;
#X connect 13 2 19 1;
#X connect 14 0 19 0;
#X connect 15 0 19 0;
#X connect 15 1 0 1;
#X connect 16 0 22 0;
#X connect 16 1 12 0;
#X connect 16 2 12 0;
#X connect 16 3 14 0;
#X connect 16 4 14 0;
#X connect 17 0 21 0;
#X connect 17 1 5 0;
#X connect 19 0 4 0;
#X connect 21 0 6 0;
#X connect 21 1 6 1;
#X connect 22 0 15 0;
#X restore 45 287 pd uzi;
#N canvas 219 65 645 642 uzi 0;
#N canvas 214 258 450 300 countup 0;
#X obj 139 133 + 1;
#X obj 110 73 inlet;
#X obj 163 71 inlet;
#X obj 110 101 b;
#X obj 110 168 outlet;
#X msg 163 92 1;
#X obj 110 132 f 1;
#X connect 0 0 6 1;
#X connect 1 0 3 0;
#X connect 2 0 5 0;
#X connect 3 0 6 0;
#X connect 5 0 6 1;
#X connect 6 0 0 0;
#X connect 6 0 4 0;
#X restore 102 313 pd countup;
#X obj 473 126 inlet;
#X obj 102 61 inlet;
#X obj 102 276 until;
#X obj 102 251 max 0;
#X obj 366 467 outlet;
#X obj 102 431 -;
#X obj 98 551 outlet;
#X obj 153 553 outlet;
#X obj 153 515 select 0;
#X text 230 516 send last bang when we reach 0;
#X text 421 468 nr. of bangs;
#X obj 207 243 b;
#X obj 102 456 t a b a;
#X obj 259 148 b;
#X obj 102 154 t a b;
#X obj 102 95 route bang pause break continue resume;
#X obj 102 337 t float float;
#X text 164 456 store remainder above;
#X obj 102 226 f;
#X text 386 301 from purepd;
#X obj 102 129 f;
#X obj 102 397 swap;
#X connect 0 0 17 0;
#X connect 1 0 21 1;
#X connect 1 0 22 1;
#X connect 2 0 16 0;
#X connect 3 0 0 0;
#X connect 4 0 3 0;
#X connect 6 0 13 0;
#X connect 9 0 8 0;
#X connect 12 0 3 1;
#X connect 13 0 9 0;
#X connect 13 1 7 0;
#X connect 13 2 19 1;
#X connect 14 0 19 0;
#X connect 15 0 19 0;
#X connect 15 1 0 1;
#X connect 16 0 21 0;
#X connect 16 1 12 0;
#X connect 16 2 12 0;
#X connect 16 3 14 0;
#X connect 16 4 14 0;
#X connect 17 0 22 0;
#X connect 17 1 5 0;
#X connect 19 0 4 0;
#X connect 21 0 15 0;
#X connect 22 0 6 0;
#X connect 22 1 6 1;
#X restore 87 287 pd uzi;
#X obj 74 87 r \$0-mode.up;
#X obj 118 107 r \$0-mode.down;
#X obj 50 187 t a a;
#X obj 45 247 r \$0-up;
#X obj 87 267 r \$0-down;
#X obj 45 307 s \$0-root.up;
#X obj 87 327 s \$0-root.down;
#X obj 31 587 outlet NOTES;
#X msg 254 546 add2 \$1;
#X msg 254 566;
#X obj 254 586 outlet SYMBOLS;
#N canvas 279 125 731 322 number2note 0;
#X obj 100 -127 inlet;
#X obj 100 -47 % 12;
#X floatatom 100 -107 5 0 0 0 - - -;
#X obj 100 -26 + 1;
#X symbolatom 97 83 10 0 0 0 - - -;
#X msg -102 51 symbol D;
#X msg -223 51 symbol C;
#X msg -165 51 symbol C#;
#X msg -44 51 symbol D#;
#X msg 76 51 symbol F;
#X msg 133 51 symbol F#;
#X msg 196 51 symbol G;
#X msg 253 51 symbol G#;
#X msg 316 51 symbol A;
#X msg 373 51 symbol A#;
#X msg 436 51 symbol B;
#X obj 97 155 outlet;
#X msg 19 51 symbol E;
#X obj 100 -5 t b f;
#X obj 134 -48 / 12;
#X obj 134 -27 int;
#N canvas 507 64 849 260 gate12_____________________________ 0;
#X obj 46 48 inlet;
#X obj 117 48 inlet;
#X obj 37 160 == 1;
#X obj 10 185 spigot;
#X obj 10 210 outlet;
#X obj 137 160 == 2;
#X obj 110 185 spigot;
#X obj 110 210 outlet;
#X obj 237 160 == 3;
#X obj 210 185 spigot;
#X obj 210 210 outlet;
#X obj 337 160 == 4;
#X obj 310 185 spigot;
#X obj 310 210 outlet;
#X obj 437 160 == 5;
#X obj 410 185 spigot;
#X obj 410 210 outlet;
#X obj 537 160 == 6;
#X obj 510 185 spigot;
#X obj 510 210 outlet;
#X obj 637 160 == 7;
#X obj 610 185 spigot;
#X obj 610 210 outlet;
#X obj 737 160 == 8;
#X obj 710 185 spigot;
#X obj 710 210 outlet;
#X obj 837 160 == 9;
#X obj 810 185 spigot;
#X obj 810 210 outlet;
#X obj 937 160 == 10;
#X obj 910 185 spigot;
#X obj 910 210 outlet;
#X obj 1037 160 == 11;
#X obj 1010 185 spigot;
#X obj 1010 210 outlet;
#X obj 1137 160 >= 12;
#X obj 1110 185 spigot;
#X obj 1110 210 outlet;
#X connect 0 0 2 0;
#X connect 0 0 5 0;
#X connect 0 0 8 0;
#X connect 0 0 11 0;
#X connect 0 0 14 0;
#X connect 0 0 17 0;
#X connect 0 0 20 0;
#X connect 0 0 23 0;
#X connect 0 0 26 0;
#X connect 0 0 29 0;
#X connect 0 0 32 0;
#X connect 0 0 35 0;
#X connect 1 0 3 0;
#X connect 1 0 6 0;
#X connect 1 0 9 0;
#X connect 1 0 12 0;
#X connect 1 0 15 0;
#X connect 1 0 18 0;
#X connect 1 0 21 0;
#X connect 1 0 24 0;
#X connect 1 0 27 0;
#X connect 1 0 30 0;
#X connect 1 0 33 0;
#X connect 1 0 36 0;
#X connect 2 0 3 1;
#X connect 3 0 4 0;
#X connect 5 0 6 1;
#X connect 6 0 7 0;
#X connect 8 0 9 1;
#X connect 9 0 10 0;
#X connect 11 0 12 1;
#X connect 12 0 13 0;
#X connect 14 0 15 1;
#X connect 15 0 16 0;
#X connect 17 0 18 1;
#X connect 18 0 19 0;
#X connect 20 0 21 1;
#X connect 21 0 22 0;
#X connect 23 0 24 1;
#X connect 24 0 25 0;
#X connect 26 0 27 1;
#X connect 27 0 28 0;
#X connect 29 0 30 1;
#X connect 30 0 31 0;
#X connect 32 0 33 1;
#X connect 33 0 34 0;
#X connect 35 0 36 1;
#X connect 36 0 37 0;
#X restore 33 18 pd gate12_____________________________;
#X obj 100 -75 t f f;
#X obj 97 131 makefilename;
#X msg 134 110 set %s\$1;
#X connect 0 0 2 0;
#X connect 1 0 3 0;
#X connect 2 0 22 0;
#X connect 3 0 18 0;
#X connect 4 0 23 0;
#X connect 5 0 4 0;
#X connect 6 0 4 0;
#X connect 7 0 4 0;
#X connect 8 0 4 0;
#X connect 9 0 4 0;
#X connect 10 0 4 0;
#X connect 11 0 4 0;
#X connect 12 0 4 0;
#X connect 13 0 4 0;
#X connect 14 0 4 0;
#X connect 15 0 4 0;
#X connect 17 0 4 0;
#X connect 18 0 21 1;
#X connect 18 1 21 0;
#X connect 19 0 20 0;
#X connect 20 0 24 0;
#X connect 21 0 6 0;
#X connect 21 1 7 0;
#X connect 21 2 5 0;
#X connect 21 3 8 0;
#X connect 21 4 17 0;
#X connect 21 5 9 0;
#X connect 21 6 10 0;
#X connect 21 7 11 0;
#X connect 21 8 12 0;
#X connect 21 9 13 0;
#X connect 21 10 14 0;
#X connect 21 11 15 0;
#X connect 22 0 1 0;
#X connect 22 1 19 0;
#X connect 23 0 16 0;
#X connect 24 0 23 0;
#X restore 254 527 pd number2note;
#X connect 0 0 1 1;
#X connect 0 0 15 0;
#X connect 0 0 63 0;
#X connect 1 0 0 0;
#X connect 2 0 14 0;
#X connect 3 0 2 0;
#X connect 3 1 34 0;
#X connect 4 0 59 0;
#X connect 5 0 4 0;
#X connect 5 0 61 0;
#X connect 6 0 4 0;
#X connect 6 0 61 0;
#X connect 7 0 6 0;
#X connect 8 0 5 0;
#X connect 9 0 16 0;
#X connect 10 0 17 1;
#X connect 10 0 18 1;
#X connect 10 0 27 0;
#X connect 10 0 34 0;
#X connect 10 0 37 1;
#X connect 10 0 38 1;
#X connect 11 0 13 0;
#X connect 12 0 13 0;
#X connect 14 0 1 0;
#X connect 15 0 4 0;
#X connect 16 0 49 0;
#X connect 17 0 19 0;
#X connect 18 0 20 0;
#X connect 19 0 21 0;
#X connect 20 0 21 0;
#X connect 22 0 23 0;
#X connect 23 0 17 0;
#X connect 24 0 18 0;
#X connect 25 0 24 0;
#X connect 26 0 28 0;
#X connect 27 0 29 1;
#X connect 28 0 29 0;
#X connect 29 0 21 0;
#X connect 30 0 3 0;
#X connect 31 0 3 0;
#X connect 31 1 30 1;
#X connect 32 0 33 0;
#X connect 33 0 30 0;
#X connect 34 0 1 1;
#X connect 35 0 36 0;
#X connect 36 0 21 0;
#X connect 37 0 43 0;
#X connect 38 0 44 0;
#X connect 39 0 37 0;
#X connect 40 0 38 0;
#X connect 41 0 39 0;
#X connect 42 0 40 0;
#X connect 43 0 21 0;
#X connect 44 0 21 0;
#X connect 45 0 47 0;
#X connect 46 1 50 1;
#X connect 47 0 46 1;
#X connect 48 0 51 1;
#X connect 49 0 31 0;
#X connect 49 1 54 0;
#X connect 49 2 45 0;
#X connect 50 0 57 0;
#X connect 51 0 58 0;
#X connect 52 0 16 1;
#X connect 53 0 16 2;
#X connect 54 0 46 0;
#X connect 54 0 48 0;
#X connect 54 1 46 0;
#X connect 54 1 48 0;
#X connect 55 0 50 0;
#X connect 56 0 51 0;
#X connect 60 0 61 0;
#X connect 61 0 62 0;
#X connect 63 0 60 0;
