#N canvas 135 176 450 300 10;
#X obj 166 91 swap 1;
#X obj 166 36 inlet;
#X obj 165 123 /;
#N canvas 872 502 450 300 cosh 0;
#X obj 88 94 exp;
#X obj 118 94 exp;
#X obj 99 132 +;
#X obj 99 153 / 2;
#X obj 117 71 * -1;
#X obj 89 20 inlet;
#X obj 90 41 t f f;
#X obj 98 178 outlet;
#X connect 0 0 2 0;
#X connect 1 0 2 1;
#X connect 2 0 3 0;
#X connect 3 0 7 0;
#X connect 4 0 1 0;
#X connect 5 0 6 0;
#X connect 6 0 0 0;
#X connect 6 1 4 0;
#X restore 166 64 pd cosh;
#X obj 165 150 outlet;
#X connect 0 0 2 0;
#X connect 0 1 2 1;
#X connect 1 0 3 0;
#X connect 2 0 4 0;
#X connect 3 0 0 0;
