#N canvas 0 22 450 300 10;
#X obj 183 61 inlet~;
#X obj 141 95 sig~ 1;
#X obj 180 124 /~;
#X obj 183 165 outlet~;
#X obj 195 97 cos~;
#X connect 0 0 4 0;
#X connect 1 0 2 0;
#X connect 2 0 3 0;
#X connect 4 0 2 1;
