#N canvas 576 366 186 225 10;
#X obj 43 51 exp~;
#X obj 57 92 -~;
#X obj 89 65 exp~;
#X obj 88 46 *~ -1;
#X obj 57 127 /~ 2;
#X obj 41 22 inlet~;
#X obj 56 151 outlet~;
#X connect 0 0 1 0;
#X connect 1 0 4 0;
#X connect 2 0 1 1;
#X connect 3 0 2 0;
#X connect 4 0 6 0;
#X connect 5 0 0 0;
#X connect 5 0 3 0;
