#N canvas 329 333 450 344 10;
#X text 11 7 [switchmaker] - macro to create switch of any size;
#X text 411 6 pdx;
#X text 58 72 This can't be used in a patch on its own - it will disconnect
itself when reloaded.;
#X text 55 109 Instead \, open the patch \, select all (command-A)
\, and deselect the four objects at the top (so only the inlets \,
spigots \, == \, and outlets are selected).;
#X text 29 49 [switchmaker] will dynamically create a switch of any
size.;
#X text 57 164 You can copy & paste this in a pd subpatch to get a
persistent copy of the switch.;
#X floatatom 158 238 5 0 0 0 - - -;
#X floatatom 199 238 5 0 0 0 - - -;
#X floatatom 241 239 5 0 0 0 - - -;
#X floatatom 89 238 5 0 0 0 - - -;
#X floatatom 137 290 5 0 0 0 - - -;
#X obj 31 266 switchmaker 3;
#N canvas 539 577 450 300 switch3 0;
#X obj -93 98 inlet;
#X obj -11 331 outlet;
#X obj 37 160 == 1;
#X obj 10 185 spigot;
#X obj 10 110 inlet;
#X obj 137 160 == 2;
#X obj 110 185 spigot;
#X obj 110 110 inlet;
#X obj 237 160 >= 3;
#X obj 210 185 spigot;
#X obj 210 110 inlet;
#X connect 0 0 2 0;
#X connect 0 0 5 0;
#X connect 0 0 8 0;
#X connect 2 0 3 1;
#X connect 3 0 1 0;
#X connect 4 0 3 0;
#X connect 5 0 6 1;
#X connect 6 0 1 0;
#X connect 7 0 6 0;
#X connect 8 0 9 1;
#X connect 9 0 1 0;
#X connect 10 0 9 0;
#X restore 137 264 pd switch3;
#X obj 314 200 switchmaker 14;
#N canvas 659 562 450 300 switch14 0;
#X obj -93 98 inlet;
#X obj -11 331 outlet;
#X obj 37 160 == 1;
#X obj 10 185 spigot;
#X obj 10 110 inlet;
#X obj 137 160 == 2;
#X obj 110 185 spigot;
#X obj 110 110 inlet;
#X obj 237 160 == 3;
#X obj 210 185 spigot;
#X obj 210 110 inlet;
#X obj 337 160 == 4;
#X obj 310 185 spigot;
#X obj 310 110 inlet;
#X obj 437 160 == 5;
#X obj 410 185 spigot;
#X obj 410 110 inlet;
#X obj 537 160 == 6;
#X obj 510 185 spigot;
#X obj 510 110 inlet;
#X obj 637 160 == 7;
#X obj 610 185 spigot;
#X obj 610 110 inlet;
#X obj 737 160 == 8;
#X obj 710 185 spigot;
#X obj 710 110 inlet;
#X obj 837 160 == 9;
#X obj 810 185 spigot;
#X obj 810 110 inlet;
#X obj 937 160 == 10;
#X obj 910 185 spigot;
#X obj 910 110 inlet;
#X obj 1037 160 == 11;
#X obj 1010 185 spigot;
#X obj 1010 110 inlet;
#X obj 1137 160 == 12;
#X obj 1110 185 spigot;
#X obj 1110 110 inlet;
#X obj 1237 160 == 13;
#X obj 1210 185 spigot;
#X obj 1210 110 inlet;
#X obj 1337 160 >= 14;
#X obj 1310 185 spigot;
#X obj 1310 110 inlet;
#X connect 0 0 2 0;
#X connect 0 0 5 0;
#X connect 0 0 8 0;
#X connect 0 0 11 0;
#X connect 0 0 14 0;
#X connect 0 0 17 0;
#X connect 0 0 20 0;
#X connect 0 0 23 0;
#X connect 0 0 26 0;
#X connect 0 0 29 0;
#X connect 0 0 32 0;
#X connect 0 0 35 0;
#X connect 0 0 38 0;
#X connect 0 0 41 0;
#X connect 2 0 3 1;
#X connect 3 0 1 0;
#X connect 4 0 3 0;
#X connect 5 0 6 1;
#X connect 6 0 1 0;
#X connect 7 0 6 0;
#X connect 8 0 9 1;
#X connect 9 0 1 0;
#X connect 10 0 9 0;
#X connect 11 0 12 1;
#X connect 12 0 1 0;
#X connect 13 0 12 0;
#X connect 14 0 15 1;
#X connect 15 0 1 0;
#X connect 16 0 15 0;
#X connect 17 0 18 1;
#X connect 18 0 1 0;
#X connect 19 0 18 0;
#X connect 20 0 21 1;
#X connect 21 0 1 0;
#X connect 22 0 21 0;
#X connect 23 0 24 1;
#X connect 24 0 1 0;
#X connect 25 0 24 0;
#X connect 26 0 27 1;
#X connect 27 0 1 0;
#X connect 28 0 27 0;
#X connect 29 0 30 1;
#X connect 30 0 1 0;
#X connect 31 0 30 0;
#X connect 32 0 33 1;
#X connect 33 0 1 0;
#X connect 34 0 33 0;
#X connect 35 0 36 1;
#X connect 36 0 1 0;
#X connect 37 0 36 0;
#X connect 38 0 39 1;
#X connect 39 0 1 0;
#X connect 40 0 39 0;
#X connect 41 0 42 1;
#X connect 42 0 1 0;
#X connect 43 0 42 0;
#X restore 324 220 pd switch14;
#X obj 318 248 switchmaker 140;
#X obj 318 272 gatemaker 4;
#X obj 318 293 gatemaker~ 6;
#X obj 318 316 switchmaker~ 3;
#X text 62 199 Left inlet sets the active inlet;
#X msg 49 218 1;
#X msg 68 217 2;
#X msg 100 216 3;
#X connect 6 0 12 1;
#X connect 7 0 12 2;
#X connect 8 0 12 3;
#X connect 9 0 12 0;
#X connect 12 0 10 0;
#X connect 20 0 9 0;
#X connect 21 0 9 0;
#X connect 22 0 9 0;
