#N canvas 0 22 450 300 10;
#X obj -93 98 inlet;
#X obj -11 331 outlet;
#X obj 37 160 == 1;
#X obj 10 185 spigot;
#X obj 10 110 inlet;
#X obj 137 160 == 2;
#X obj 110 185 spigot;
#X obj 110 110 inlet;
#X obj 237 160 == 3;
#X obj 210 185 spigot;
#X obj 210 110 inlet;
#X obj 337 160 == 4;
#X obj 310 185 spigot;
#X obj 310 110 inlet;
#X obj 437 160 == 5;
#X obj 410 185 spigot;
#X obj 410 110 inlet;
#X obj 537 160 == 6;
#X obj 510 185 spigot;
#X obj 510 110 inlet;
#X obj 637 160 == 7;
#X obj 610 185 spigot;
#X obj 610 110 inlet;
#X obj 737 160 == 8;
#X obj 710 185 spigot;
#X obj 710 110 inlet;
#X obj 837 160 == 9;
#X obj 810 185 spigot;
#X obj 810 110 inlet;
#X obj 937 160 == 10;
#X obj 910 185 spigot;
#X obj 910 110 inlet;
#X obj 1037 160 == 11;
#X obj 1010 185 spigot;
#X obj 1010 110 inlet;
#X obj 1137 160 == 12;
#X obj 1110 185 spigot;
#X obj 1110 110 inlet;
#X obj 1237 160 == 13;
#X obj 1210 185 spigot;
#X obj 1210 110 inlet;
#X obj 1337 160 == 14;
#X obj 1310 185 spigot;
#X obj 1310 110 inlet;
#X obj 1437 160 == 15;
#X obj 1410 185 spigot;
#X obj 1410 110 inlet;
#X obj 1537 160 == 16;
#X obj 1510 185 spigot;
#X obj 1510 110 inlet;
#X obj 1637 160 == 17;
#X obj 1610 185 spigot;
#X obj 1610 110 inlet;
#X obj 1737 160 == 18;
#X obj 1710 185 spigot;
#X obj 1710 110 inlet;
#X obj 1837 160 == 19;
#X obj 1810 185 spigot;
#X obj 1810 110 inlet;
#X obj 1937 160 == 20;
#X obj 1910 185 spigot;
#X obj 1910 110 inlet;
#X obj 2037 160 == 21;
#X obj 2010 185 spigot;
#X obj 2010 110 inlet;
#X obj 2137 160 == 22;
#X obj 2110 185 spigot;
#X obj 2110 110 inlet;
#X obj 2237 160 >= 23;
#X obj 2210 185 spigot;
#X obj 2210 110 inlet;
#X connect 0 0 2 0;
#X connect 0 0 5 0;
#X connect 0 0 8 0;
#X connect 0 0 11 0;
#X connect 0 0 14 0;
#X connect 0 0 17 0;
#X connect 0 0 20 0;
#X connect 0 0 23 0;
#X connect 0 0 26 0;
#X connect 0 0 29 0;
#X connect 0 0 32 0;
#X connect 0 0 35 0;
#X connect 0 0 38 0;
#X connect 0 0 41 0;
#X connect 0 0 44 0;
#X connect 0 0 47 0;
#X connect 0 0 50 0;
#X connect 0 0 53 0;
#X connect 0 0 56 0;
#X connect 0 0 59 0;
#X connect 0 0 62 0;
#X connect 0 0 65 0;
#X connect 0 0 68 0;
#X connect 2 0 3 1;
#X connect 3 0 1 0;
#X connect 4 0 3 0;
#X connect 5 0 6 1;
#X connect 6 0 1 0;
#X connect 7 0 6 0;
#X connect 8 0 9 1;
#X connect 9 0 1 0;
#X connect 10 0 9 0;
#X connect 11 0 12 1;
#X connect 12 0 1 0;
#X connect 13 0 12 0;
#X connect 14 0 15 1;
#X connect 15 0 1 0;
#X connect 16 0 15 0;
#X connect 17 0 18 1;
#X connect 18 0 1 0;
#X connect 19 0 18 0;
#X connect 20 0 21 1;
#X connect 21 0 1 0;
#X connect 22 0 21 0;
#X connect 23 0 24 1;
#X connect 24 0 1 0;
#X connect 25 0 24 0;
#X connect 26 0 27 1;
#X connect 27 0 1 0;
#X connect 28 0 27 0;
#X connect 29 0 30 1;
#X connect 30 0 1 0;
#X connect 31 0 30 0;
#X connect 32 0 33 1;
#X connect 33 0 1 0;
#X connect 34 0 33 0;
#X connect 35 0 36 1;
#X connect 36 0 1 0;
#X connect 37 0 36 0;
#X connect 38 0 39 1;
#X connect 39 0 1 0;
#X connect 40 0 39 0;
#X connect 41 0 42 1;
#X connect 42 0 1 0;
#X connect 43 0 42 0;
#X connect 44 0 45 1;
#X connect 45 0 1 0;
#X connect 46 0 45 0;
#X connect 47 0 48 1;
#X connect 48 0 1 0;
#X connect 49 0 48 0;
#X connect 50 0 51 1;
#X connect 51 0 1 0;
#X connect 52 0 51 0;
#X connect 53 0 54 1;
#X connect 54 0 1 0;
#X connect 55 0 54 0;
#X connect 56 0 57 1;
#X connect 57 0 1 0;
#X connect 58 0 57 0;
#X connect 59 0 60 1;
#X connect 60 0 1 0;
#X connect 61 0 60 0;
#X connect 62 0 63 1;
#X connect 63 0 1 0;
#X connect 64 0 63 0;
#X connect 65 0 66 1;
#X connect 66 0 1 0;
#X connect 67 0 66 0;
#X connect 68 0 69 1;
#X connect 69 0 1 0;
#X connect 70 0 69 0;
