#N canvas 115 23 1256 363 10;
#N canvas 118 421 744 416 \$0-setup 0;
#X obj -2 -6 inlet;
#X obj -2 64 until;
#X obj 22 84 + 1;
#X obj -2 84 f 1;
#X obj 52 154 - 1;
#X obj 52 174 * 100;
#X obj 14 134 - 1;
#X obj 14 154 * 100;
#X obj 14 174 + 27;
#X obj 90 134 - 1;
#X obj 90 154 * 3;
#X obj 120 134 - 1;
#X obj 120 154 * 3;
#X obj 147 134 - 1;
#X obj 147 154 * 3;
#X obj -2 194 pack 0 0 0 0 0 0;
#X obj -2 104 t f f f f f f;
#X obj 90 174 + 6;
#X obj 120 174 + 7;
#X obj 147 174 + 8;
#X obj -2 14 pipe 1;
#X obj 49 239 + 1;
#X obj 25 239 f 1;
#X obj -2 216 t a b;
#X obj -2 307 spigot;
#X msg 21 287 0;
#X msg 31 287 1;
#X obj 368 307 spigot;
#X msg 391 287 0;
#X msg 401 287 1;
#X obj 386 256 sel;
#X obj -2 34 t f f;
#X msg -2 334 obj \$2 150 == \$1 \, obj \$3 175 spigot \, obj \$3 100
inlet \, connect 4 0 \$4 0 \, connect \$4 0 \$5 1 \, connect \$6 0
\$5 0 \, connect \$5 0 5 0 \,;
#X floatatom 59 -9 5 0 0 0 - - -;
#X obj -2 384 s \$0-nswitch;
#X msg 368 334 obj \$2 150 >= \$1 \, obj \$3 175 spigot \, obj \$3
100 inlet \, connect 4 0 \$4 0 \, connect \$4 0 \$5 1 \, connect \$6
0 \$5 0 \, connect \$5 0 5 0 \,;
#X connect 0 0 20 0;
#X connect 1 0 3 0;
#X connect 2 0 3 1;
#X connect 3 0 2 0;
#X connect 3 0 16 0;
#X connect 4 0 5 0;
#X connect 5 0 15 2;
#X connect 6 0 7 0;
#X connect 7 0 8 0;
#X connect 8 0 15 1;
#X connect 9 0 10 0;
#X connect 10 0 17 0;
#X connect 11 0 12 0;
#X connect 12 0 18 0;
#X connect 13 0 14 0;
#X connect 14 0 19 0;
#X connect 15 0 23 0;
#X connect 16 0 15 0;
#X connect 16 1 6 0;
#X connect 16 2 4 0;
#X connect 16 3 9 0;
#X connect 16 4 11 0;
#X connect 16 5 13 0;
#X connect 17 0 15 3;
#X connect 18 0 15 4;
#X connect 19 0 15 5;
#X connect 20 0 31 0;
#X connect 21 0 22 1;
#X connect 22 0 21 0;
#X connect 22 0 30 0;
#X connect 23 0 24 0;
#X connect 23 0 27 0;
#X connect 23 1 22 0;
#X connect 24 0 32 0;
#X connect 25 0 24 1;
#X connect 26 0 24 1;
#X connect 27 0 35 0;
#X connect 28 0 27 1;
#X connect 29 0 27 1;
#X connect 30 0 29 0;
#X connect 30 0 25 0;
#X connect 30 1 26 0;
#X connect 30 1 28 0;
#X connect 31 0 1 0;
#X connect 31 1 30 1;
#X connect 32 0 34 0;
#X connect 33 0 20 0;
#X connect 35 0 34 0;
#X restore 287 39 pd \$0-setup;
#X obj 287 19 f \$1;
#X obj 287 -1 loadbang;
#X obj 141 7 namecanvas \$0-nswitch;
#X obj -103 88 inlet;
#X obj -21 321 outlet;
#X obj 27 150 == 1;
#X obj 0 175 spigot;
#X obj 0 100 inlet;
#X obj 127 150 == 2;
#X obj 100 175 spigot;
#X obj 100 100 inlet;
#X obj 227 150 == 3;
#X obj 200 175 spigot;
#X obj 200 100 inlet;
#X obj 327 150 == 4;
#X obj 300 175 spigot;
#X obj 300 100 inlet;
#X obj 427 150 == 5;
#X obj 400 175 spigot;
#X obj 400 100 inlet;
#X obj 527 150 == 6;
#X obj 500 175 spigot;
#X obj 500 100 inlet;
#X obj 627 150 == 7;
#X obj 600 175 spigot;
#X obj 600 100 inlet;
#X obj 727 150 == 8;
#X obj 700 175 spigot;
#X obj 700 100 inlet;
#X obj 827 150 == 9;
#X obj 800 175 spigot;
#X obj 800 100 inlet;
#X obj 927 150 == 10;
#X obj 900 175 spigot;
#X obj 900 100 inlet;
#X obj 1027 150 == 11;
#X obj 1000 175 spigot;
#X obj 1000 100 inlet;
#X obj 1127 150 >= 12;
#X obj 1100 175 spigot;
#X obj 1100 100 inlet;
#X connect 1 0 0 0;
#X connect 2 0 1 0;
#X connect 4 0 6 0;
#X connect 4 0 9 0;
#X connect 4 0 12 0;
#X connect 4 0 15 0;
#X connect 4 0 18 0;
#X connect 4 0 21 0;
#X connect 4 0 24 0;
#X connect 4 0 27 0;
#X connect 4 0 30 0;
#X connect 4 0 33 0;
#X connect 4 0 36 0;
#X connect 4 0 39 0;
#X connect 6 0 7 1;
#X connect 7 0 5 0;
#X connect 8 0 7 0;
#X connect 9 0 10 1;
#X connect 10 0 5 0;
#X connect 11 0 10 0;
#X connect 12 0 13 1;
#X connect 13 0 5 0;
#X connect 14 0 13 0;
#X connect 15 0 16 1;
#X connect 16 0 5 0;
#X connect 17 0 16 0;
#X connect 18 0 19 1;
#X connect 19 0 5 0;
#X connect 20 0 19 0;
#X connect 21 0 22 1;
#X connect 22 0 5 0;
#X connect 23 0 22 0;
#X connect 24 0 25 1;
#X connect 25 0 5 0;
#X connect 26 0 25 0;
#X connect 27 0 28 1;
#X connect 28 0 5 0;
#X connect 29 0 28 0;
#X connect 30 0 31 1;
#X connect 31 0 5 0;
#X connect 32 0 31 0;
#X connect 33 0 34 1;
#X connect 34 0 5 0;
#X connect 35 0 34 0;
#X connect 36 0 37 1;
#X connect 37 0 5 0;
#X connect 38 0 37 0;
#X connect 39 0 40 1;
#X connect 40 0 5 0;
#X connect 41 0 40 0;
