#N canvas 258 271 450 300 10;
#X text 416 1 pdx;
#X text 147 105 ...;
#X text 320 185 Related patches:;
#X obj 332 208 gatemaker 2;
#X obj 332 229 gatemaker~ 3;
#X obj 332 250 switchmaker 4;
#X obj 332 271 switchmaker~ 5;
#X obj 138 146 number~;
#X obj 135 223 view~;
#X obj 331 6 pddp/dsp;
#X msg 44 147 1;
#X msg 72 147 2;
#X msg 103 147 3;
#X text 8 3 [switch#~ - signal switch;
#X text 68 33 Left inlet: Switch Selector - begins with 1;
#X text 69 59 Right Inlets: Signals to switch between;
#X obj 173 104 switch8~ ________________;
#X obj 90 103 switch2~;
#X obj 138 190 switch3~;
#X obj 208 146 number~;
#X obj 281 145 number~;
#X connect 7 0 18 1;
#X connect 10 0 18 0;
#X connect 11 0 18 0;
#X connect 12 0 18 0;
#X connect 18 0 8 0;
#X connect 19 0 18 2;
#X connect 20 0 18 3;
