#N canvas 0 22 450 300 10;
#X obj -93 98 inlet;
#X obj -11 331 outlet;
#X obj 37 160 == 1;
#X obj 10 185 spigot;
#X obj 10 110 inlet;
#X obj 137 160 >= 2;
#X obj 110 185 spigot;
#X obj 110 110 inlet;
#X connect 0 0 2 0;
#X connect 0 0 5 0;
#X connect 2 0 3 1;
#X connect 3 0 1 0;
#X connect 4 0 3 0;
#X connect 5 0 6 1;
#X connect 6 0 1 0;
#X connect 7 0 6 0;
