#N canvas 330 129 529 403 10;
#X text 483 10 pdx;
#X text 68 82 This can't be used in a patch on its own - it will disconnect
itself when reloaded.;
#X text 65 119 Instead \, open the patch \, select all (command-A)
\, and deselect the four objects at the top (so only the inlets \,
spigots \, == \, and outlets are selected).;
#X text 67 174 You can copy & paste this in a pd subpatch to get a
persistent copy of the switch.;
#X floatatom 55 289 5 0 0 0 - - -;
#N canvas 539 577 450 300 switch3 0;
#X obj -93 98 inlet;
#X obj -11 331 outlet~;
#X obj 37 160 == 1;
#X obj 10 185 transistor~;
#X obj 10 110 inlet~;
#X obj 137 160 == 2;
#X obj 110 185 transistor~;
#X obj 110 110 inlet~;
#X obj 237 160 >= 3;
#X obj 210 185 transistor~;
#X obj 210 110 inlet~;
#X connect 0 0 2 0;
#X connect 0 0 5 0;
#X connect 0 0 8 0;
#X connect 2 0 3 1;
#X connect 3 0 1 0;
#X connect 4 0 3 0;
#X connect 5 0 6 1;
#X connect 6 0 1 0;
#X connect 7 0 6 0;
#X connect 8 0 9 1;
#X connect 9 0 1 0;
#X connect 10 0 9 0;
#X restore 103 315 pd switch3;
#X obj 349 282 gatemaker 4;
#X obj 349 303 gatemaker~ 6;
#X text 72 209 Left inlet sets the active inlet;
#X text 21 17 [switchmaker~] - macro to create switch of any size;
#X text 39 59 [switchmaker~] will dynamically create a switch of any
size.;
#N canvas 659 562 450 300 switch10 0;
#X obj -93 98 inlet;
#X obj -11 331 outlet~;
#X obj 37 160 == 1;
#X obj 10 185 transistor~;
#X obj 10 110 inlet~;
#X obj 137 160 == 2;
#X obj 110 185 transistor~;
#X obj 110 110 inlet~;
#X obj 237 160 == 3;
#X obj 210 185 transistor~;
#X obj 210 110 inlet~;
#X obj 337 160 == 4;
#X obj 310 185 transistor~;
#X obj 310 110 inlet~;
#X obj 437 160 == 5;
#X obj 410 185 transistor~;
#X obj 410 110 inlet~;
#X obj 537 160 == 6;
#X obj 510 185 transistor~;
#X obj 510 110 inlet~;
#X obj 637 160 == 7;
#X obj 610 185 transistor~;
#X obj 610 110 inlet~;
#X obj 737 160 == 8;
#X obj 710 185 transistor~;
#X obj 710 110 inlet~;
#X obj 837 160 == 9;
#X obj 810 185 transistor~;
#X obj 810 110 inlet~;
#X obj 937 160 >= 10;
#X obj 910 185 transistor~;
#X obj 910 110 inlet~;
#X connect 0 0 2 0;
#X connect 0 0 5 0;
#X connect 0 0 8 0;
#X connect 0 0 11 0;
#X connect 0 0 14 0;
#X connect 0 0 17 0;
#X connect 0 0 20 0;
#X connect 0 0 23 0;
#X connect 0 0 26 0;
#X connect 0 0 29 0;
#X connect 2 0 3 1;
#X connect 3 0 1 0;
#X connect 4 0 3 0;
#X connect 5 0 6 1;
#X connect 6 0 1 0;
#X connect 7 0 6 0;
#X connect 8 0 9 1;
#X connect 9 0 1 0;
#X connect 10 0 9 0;
#X connect 11 0 12 1;
#X connect 12 0 1 0;
#X connect 13 0 12 0;
#X connect 14 0 15 1;
#X connect 15 0 1 0;
#X connect 16 0 15 0;
#X connect 17 0 18 1;
#X connect 18 0 1 0;
#X connect 19 0 18 0;
#X connect 20 0 21 1;
#X connect 21 0 1 0;
#X connect 22 0 21 0;
#X connect 23 0 24 1;
#X connect 24 0 1 0;
#X connect 25 0 24 0;
#X connect 26 0 27 1;
#X connect 27 0 1 0;
#X connect 28 0 27 0;
#X connect 29 0 30 1;
#X connect 30 0 1 0;
#X connect 31 0 30 0;
#X restore 355 230 pd switch10 _________;
#X obj 345 210 switchmaker~ 10 _______;
#X obj 349 258 switchmaker~ 2;
#X obj 349 326 switchmaker 3;
#X obj 106 232 switchmaker~ 3;
#X obj 170 273 number~;
#X obj 103 341 view~;
#X obj 101 273 number~;
#X obj 240 273 number~;
#X msg 7 261 1;
#X msg 36 261 2;
#X msg 62 261 3;
#X obj 396 13 pddp/dsp;
#X connect 4 0 5 0;
#X connect 5 0 17 0;
#X connect 16 0 5 2;
#X connect 18 0 5 1;
#X connect 19 0 5 3;
#X connect 20 0 4 0;
#X connect 21 0 4 0;
#X connect 22 0 4 0;
