#N canvas 0 22 1340 540 10;
#X obj -89 46 inlet;
#X obj -89 330 +~;
#X obj -89 354 +~;
#X obj -89 377 +~;
#X obj 276 513 outlet~;
#X floatatom 1043 419 5 0 0 0 - - -;
#N canvas 853 377 180 232 4_|| 0;
#X obj 15 18 inlet;
#X obj 54 18 inlet;
#X obj 93 18 inlet;
#X obj 132 18 inlet;
#X obj 17 126 ||;
#X obj 54 103 t b f;
#X obj 83 153 ||;
#X obj 93 130 t b f;
#X obj 122 179 ||;
#X obj 132 156 t b f;
#X obj 122 204 outlet;
#X connect 0 0 4 0;
#X connect 1 0 5 0;
#X connect 2 0 7 0;
#X connect 3 0 9 0;
#X connect 4 0 6 0;
#X connect 5 0 4 0;
#X connect 5 1 4 1;
#X connect 6 0 8 0;
#X connect 7 0 6 0;
#X connect 7 1 6 1;
#X connect 8 0 10 0;
#X connect 9 0 8 0;
#X connect 9 1 8 1;
#X restore 1119 325 pd 4_||;
#N canvas 757 411 184 232 4_+ 0;
#X obj -8 15 inlet;
#X obj 31 15 inlet;
#X obj 70 15 inlet;
#X obj 109 15 inlet;
#X obj 31 100 t b f;
#X obj 70 127 t b f;
#X obj 109 153 t b f;
#X obj 99 201 outlet;
#X obj -6 123 +;
#X obj 60 150 +;
#X obj 99 176 +;
#X connect 0 0 8 0;
#X connect 1 0 4 0;
#X connect 2 0 5 0;
#X connect 3 0 6 0;
#X connect 4 0 8 0;
#X connect 4 1 8 1;
#X connect 5 0 9 0;
#X connect 5 1 9 1;
#X connect 6 0 10 0;
#X connect 6 1 10 1;
#X connect 8 0 9 0;
#X connect 9 0 10 0;
#X connect 10 0 7 0;
#X restore 839 325 pd 4_+;
#X floatatom 839 423 5 0 0 0 - - -;
#X obj -89 426 +~;
#X obj -89 450 +~;
#X obj -89 473 +~;
#N canvas 853 377 180 232 4_|| 0;
#X obj 15 18 inlet;
#X obj 54 18 inlet;
#X obj 93 18 inlet;
#X obj 132 18 inlet;
#X obj 17 126 ||;
#X obj 54 103 t b f;
#X obj 83 153 ||;
#X obj 93 130 t b f;
#X obj 122 179 ||;
#X obj 132 156 t b f;
#X obj 122 204 outlet;
#X connect 0 0 4 0;
#X connect 1 0 5 0;
#X connect 2 0 7 0;
#X connect 3 0 9 0;
#X connect 4 0 6 0;
#X connect 5 0 4 0;
#X connect 5 1 4 1;
#X connect 6 0 8 0;
#X connect 7 0 6 0;
#X connect 7 1 6 1;
#X connect 8 0 10 0;
#X connect 9 0 8 0;
#X connect 9 1 8 1;
#X restore 1169 325 pd 4_||;
#N canvas 757 411 184 232 4_+ 0;
#X obj -8 15 inlet;
#X obj 31 15 inlet;
#X obj 70 15 inlet;
#X obj 109 15 inlet;
#X obj 31 100 t b f;
#X obj 70 127 t b f;
#X obj 109 153 t b f;
#X obj 99 201 outlet;
#X obj -6 123 +;
#X obj 60 150 +;
#X obj 99 176 +;
#X connect 0 0 8 0;
#X connect 1 0 4 0;
#X connect 2 0 5 0;
#X connect 3 0 6 0;
#X connect 4 0 8 0;
#X connect 4 1 8 1;
#X connect 5 0 9 0;
#X connect 5 1 9 1;
#X connect 6 0 10 0;
#X connect 6 1 10 1;
#X connect 8 0 9 0;
#X connect 9 0 10 0;
#X connect 10 0 7 0;
#X restore 883 325 pd 4_+;
#X obj 839 362 +;
#X obj 883 345 t b f;
#X obj 874 422 outlet ACTIVE_VOICES;
#X obj 1119 363 ||;
#X obj 1077 418 outlet ON_OFF;
#X obj 1169 345 t b f;
#X obj -89 401 +~;
#X obj 276 491 +~;
#X obj 343 330 +~;
#X obj 343 354 +~;
#X obj 343 377 +~;
#N canvas 853 377 180 232 4_|| 0;
#X obj 15 18 inlet;
#X obj 54 18 inlet;
#X obj 93 18 inlet;
#X obj 132 18 inlet;
#X obj 17 126 ||;
#X obj 54 103 t b f;
#X obj 83 153 ||;
#X obj 93 130 t b f;
#X obj 122 179 ||;
#X obj 132 156 t b f;
#X obj 122 204 outlet;
#X connect 0 0 4 0;
#X connect 1 0 5 0;
#X connect 2 0 7 0;
#X connect 3 0 9 0;
#X connect 4 0 6 0;
#X connect 5 0 4 0;
#X connect 5 1 4 1;
#X connect 6 0 8 0;
#X connect 7 0 6 0;
#X connect 7 1 6 1;
#X connect 8 0 10 0;
#X connect 9 0 8 0;
#X connect 9 1 8 1;
#X restore 1014 325 pd 4_||;
#N canvas 757 411 184 232 4_+ 0;
#X obj -8 15 inlet;
#X obj 31 15 inlet;
#X obj 70 15 inlet;
#X obj 109 15 inlet;
#X obj 31 100 t b f;
#X obj 70 127 t b f;
#X obj 109 153 t b f;
#X obj 99 201 outlet;
#X obj -6 123 +;
#X obj 60 150 +;
#X obj 99 176 +;
#X connect 0 0 8 0;
#X connect 1 0 4 0;
#X connect 2 0 5 0;
#X connect 3 0 6 0;
#X connect 4 0 8 0;
#X connect 4 1 8 1;
#X connect 5 0 9 0;
#X connect 5 1 9 1;
#X connect 6 0 10 0;
#X connect 6 1 10 1;
#X connect 8 0 9 0;
#X connect 9 0 10 0;
#X connect 10 0 7 0;
#X restore 926 325 pd 4_+;
#X obj 343 426 +~;
#X obj 343 450 +~;
#X obj 343 473 +~;
#N canvas 853 377 180 232 4_|| 0;
#X obj 15 18 inlet;
#X obj 54 18 inlet;
#X obj 93 18 inlet;
#X obj 132 18 inlet;
#X obj 17 126 ||;
#X obj 54 103 t b f;
#X obj 83 153 ||;
#X obj 93 130 t b f;
#X obj 122 179 ||;
#X obj 132 156 t b f;
#X obj 122 204 outlet;
#X connect 0 0 4 0;
#X connect 1 0 5 0;
#X connect 2 0 7 0;
#X connect 3 0 9 0;
#X connect 4 0 6 0;
#X connect 5 0 4 0;
#X connect 5 1 4 1;
#X connect 6 0 8 0;
#X connect 7 0 6 0;
#X connect 7 1 6 1;
#X connect 8 0 10 0;
#X connect 9 0 8 0;
#X connect 9 1 8 1;
#X restore 1063 325 pd 4_||;
#N canvas 757 411 184 232 4_+ 0;
#X obj -8 15 inlet;
#X obj 31 15 inlet;
#X obj 70 15 inlet;
#X obj 109 15 inlet;
#X obj 31 100 t b f;
#X obj 70 127 t b f;
#X obj 109 153 t b f;
#X obj 99 201 outlet;
#X obj -6 123 +;
#X obj 60 150 +;
#X obj 99 176 +;
#X connect 0 0 8 0;
#X connect 1 0 4 0;
#X connect 2 0 5 0;
#X connect 3 0 6 0;
#X connect 4 0 8 0;
#X connect 4 1 8 1;
#X connect 5 0 9 0;
#X connect 5 1 9 1;
#X connect 6 0 10 0;
#X connect 6 1 10 1;
#X connect 8 0 9 0;
#X connect 9 0 10 0;
#X connect 10 0 7 0;
#X restore 970 325 pd 4_+;
#X obj 926 362 +;
#X obj 970 345 t b f;
#X obj 1014 362 ||;
#X obj 1063 345 t b f;
#X obj 343 401 +~;
#X obj 874 400 +;
#X obj 926 383 t b f;
#X obj 1053 397 ||;
#X obj 1081 380 t b f;
#X obj -89 173 route 1 2 3 4 5 6 7 8 9 10 11 12 13 14 15 16;
#X obj -89 103 poly 16 1;
#X obj -89 126 pack 0 0 0;
#X obj 688 343 tgl 15 0 empty empty empty 17 7 0 10 -262144 -1 -1 0
1;
#X obj 748 343 tgl 15 0 empty empty empty 17 7 0 10 -262144 -1 -1 0
1;
#X obj 808 344 tgl 15 0 empty empty empty 17 7 0 10 -262144 -1 -1 0
1;
#X obj 568 343 tgl 15 0 empty empty empty 17 7 0 10 -262144 -1 -1 0
1;
#X obj 628 343 tgl 15 0 empty empty empty 17 7 0 10 -262144 -1 -1 0
1;
#X obj 508 346 tgl 15 0 empty empty empty 17 7 0 10 -262144 -1 -1 0
1;
#X obj 205 344 tgl 15 0 empty empty empty 17 7 0 10 -262144 -1 -1 0
1;
#X obj 265 344 tgl 15 0 empty empty empty 17 7 0 10 -262144 -1 -1 0
1;
#X obj 325 346 tgl 15 0 empty empty empty 17 7 0 10 -262144 -1 -1 0
1;
#X obj 85 344 tgl 15 0 empty empty empty 17 7 0 10 -262144 -1 -1 0
1;
#X obj 145 344 tgl 15 0 empty empty empty 17 7 0 10 -262144 -1 -1 0
1;
#X obj 54 345 tgl 15 0 empty empty empty 17 7 0 10 -262144 -1 -1 0
1;
#X obj -49 349 tgl 15 0 empty empty empty 17 7 0 10 -262144 -1 -1 0
1;
#X obj 8 348 tgl 15 0 empty empty empty 17 7 0 10 -262144 -1 -1 0 1
;
#X obj 385 345 tgl 15 0 empty empty empty 17 7 0 10 -262144 -1 -1 0
1;
#X obj 447 344 tgl 15 0 empty empty empty 17 7 0 10 -262144 -1 -1 0
1;
#X obj -89 73 route note;
#X obj 181 308 voice~ 6;
#X obj 808 95 t a;
#X obj -89 308 voice~ 1;
#X obj -35 308 voice~ 2;
#X obj 73 308 voice~ 4;
#X obj 457 308 voice~ 11;
#X obj 397 308 voice~ 10;
#X obj 19 308 voice~ 3;
#X obj 127 308 voice~ 5;
#X obj 289 308 voice~ 8;
#X obj 517 308 voice~ 12;
#X obj 637 308 voice~ 14;
#X obj 757 308 voice~ 16;
#X obj 343 308 voice~ 9;
#X obj 235 308 voice~ 7;
#X obj 577 308 voice~ 13;
#X obj 697 308 voice~ 15;
#X connect 0 0 60 0;
#X connect 1 0 2 0;
#X connect 2 0 3 0;
#X connect 3 0 20 0;
#X connect 6 0 17 0;
#X connect 7 0 14 0;
#X connect 9 0 10 0;
#X connect 10 0 11 0;
#X connect 11 0 21 0;
#X connect 12 0 19 0;
#X connect 13 0 15 0;
#X connect 14 0 37 0;
#X connect 15 0 14 0;
#X connect 15 1 14 1;
#X connect 17 0 40 0;
#X connect 19 0 17 0;
#X connect 19 1 17 1;
#X connect 20 0 9 0;
#X connect 21 0 4 0;
#X connect 22 0 23 0;
#X connect 23 0 24 0;
#X connect 24 0 36 0;
#X connect 25 0 34 0;
#X connect 26 0 32 0;
#X connect 27 0 28 0;
#X connect 28 0 29 0;
#X connect 29 0 21 1;
#X connect 30 0 35 0;
#X connect 31 0 33 0;
#X connect 32 0 38 0;
#X connect 33 0 32 0;
#X connect 33 1 32 1;
#X connect 34 0 39 0;
#X connect 35 0 34 0;
#X connect 35 1 34 1;
#X connect 36 0 27 0;
#X connect 37 0 16 0;
#X connect 37 0 8 0;
#X connect 38 0 37 0;
#X connect 38 1 37 1;
#X connect 39 0 18 0;
#X connect 39 0 5 0;
#X connect 40 0 39 0;
#X connect 40 1 39 1;
#X connect 41 0 63 0;
#X connect 41 1 64 0;
#X connect 41 2 68 0;
#X connect 41 3 65 0;
#X connect 41 4 69 0;
#X connect 41 5 61 0;
#X connect 41 6 75 0;
#X connect 41 7 70 0;
#X connect 41 8 74 0;
#X connect 41 9 67 0;
#X connect 41 10 66 0;
#X connect 41 11 71 0;
#X connect 41 12 76 0;
#X connect 41 13 72 0;
#X connect 41 14 77 0;
#X connect 41 15 73 0;
#X connect 42 0 43 0;
#X connect 42 1 43 1;
#X connect 42 2 43 2;
#X connect 43 0 41 0;
#X connect 60 0 42 0;
#X connect 60 1 62 0;
#X connect 61 0 9 1;
#X connect 61 1 12 1;
#X connect 61 1 13 1;
#X connect 61 1 50 0;
#X connect 62 0 61 1;
#X connect 62 0 63 1;
#X connect 62 0 64 1;
#X connect 62 0 65 1;
#X connect 62 0 66 1;
#X connect 62 0 67 1;
#X connect 62 0 68 1;
#X connect 62 0 69 1;
#X connect 62 0 70 1;
#X connect 62 0 71 1;
#X connect 62 0 72 1;
#X connect 62 0 73 1;
#X connect 62 0 74 1;
#X connect 62 0 75 1;
#X connect 62 0 76 1;
#X connect 62 0 77 1;
#X connect 63 0 1 0;
#X connect 63 1 6 0;
#X connect 63 1 7 0;
#X connect 63 1 56 0;
#X connect 64 0 1 1;
#X connect 64 1 6 1;
#X connect 64 1 7 1;
#X connect 64 1 57 0;
#X connect 65 0 3 1;
#X connect 65 1 6 3;
#X connect 65 1 7 3;
#X connect 65 1 53 0;
#X connect 66 0 23 1;
#X connect 66 1 25 2;
#X connect 66 1 26 2;
#X connect 66 1 49 0;
#X connect 67 0 22 1;
#X connect 67 1 25 1;
#X connect 67 1 26 1;
#X connect 67 1 59 0;
#X connect 68 0 2 1;
#X connect 68 1 6 2;
#X connect 68 1 7 2;
#X connect 68 1 55 0;
#X connect 69 0 20 1;
#X connect 69 1 12 0;
#X connect 69 1 13 0;
#X connect 69 1 54 0;
#X connect 70 0 11 1;
#X connect 70 1 12 3;
#X connect 70 1 13 3;
#X connect 70 1 52 0;
#X connect 71 0 24 1;
#X connect 71 1 25 3;
#X connect 71 1 26 3;
#X connect 71 1 47 0;
#X connect 72 0 27 1;
#X connect 72 1 30 1;
#X connect 72 1 31 1;
#X connect 72 1 44 0;
#X connect 73 0 29 1;
#X connect 73 1 30 3;
#X connect 73 1 31 3;
#X connect 73 1 46 0;
#X connect 74 0 22 0;
#X connect 74 1 25 0;
#X connect 74 1 26 0;
#X connect 74 1 58 0;
#X connect 75 0 10 1;
#X connect 75 1 12 2;
#X connect 75 1 13 2;
#X connect 75 1 51 0;
#X connect 76 0 36 1;
#X connect 76 1 30 0;
#X connect 76 1 31 0;
#X connect 76 1 48 0;
#X connect 77 0 28 1;
#X connect 77 1 30 2;
#X connect 77 1 31 2;
#X connect 77 1 45 0;
