#N canvas 299 23 893 842 10;
#X obj -81 238 bng 15 250 50 0 empty empty Note_Flush 17 7 0 10 -262144
-1 -1;
#X obj -81 214 r \$0-flush;
#X obj -308 146 r \$0-note;
#X floatatom -444 122 5 0 0 0 - - -;
#X obj -444 96 r \$0-wave;
#X obj 41 96 vsl 30 150 0 127 0 0 empty empty empty 0 -9 0 10 -59444
-262144 -1 7509 1;
#X floatatom 76 233 5 0 0 0 - - -;
#X obj 41 69 r \$0-pitchbend;
#X obj 76 208 r \$0-pitchbend_range;
#X msg 41 363 64;
#X msg -279 188 60 5;
#X msg -261 212 60 0;
#X floatatom -286 332 5 0 0 1 Number_of_voices_in_use - -;
#X obj -35 341 sel 0;
#X text -301 170 Test Tones:;
#X obj 206 210 r \$0-print;
#X obj 206 234 tgl 15 0 empty empty empty 17 7 0 10 -262144 -1 -1 1
1;
#X obj -308 542 *~;
#X obj -308 572 outlet~ L;
#X obj -241 571 outlet~ R;
#X obj -46 422 t f f;
#X obj -106 521 line~;
#X msg -208 256 adsr \$1 \$2 \$3 \$4;
#X msg -81 257 flush;
#X msg -9 256 pitchbend \$1;
#X msg 76 256 range \$1;
#X msg 206 257 print \$1;
#X msg -444 292 wave \$1;
#X msg -308 252 note \$1 \$2;
#X obj -106 326 tgl 15 0 empty empty empty 17 7 0 10 -262144 -1 -1
1 1;
#X obj -106 421 t f f;
#X obj -106 465 pipe 5;
#X obj -308 309 synth16~;
#X obj -208 234 r \$0-adsr;
#X obj -348 -82 inlet;
#X obj -348 64 s \$0-note;
#X obj -316 85 s \$0-wave;
#X obj -276 107 s \$0-adsr;
#X obj -250 44 s \$0-flush;
#X obj -218 65 s \$0-pitchbend;
#X obj -185 88 s \$0-range;
#X obj -152 42 s \$0-print;
#X obj -120 67 s \$0-volume;
#X obj -444 175 sine_table;
#X obj -413 215 sawtooth_table;
#X obj -397 235 square_table;
#X obj -429 195 triangle_table;
#X obj -444 260 symbol;
#X obj -444 147 sel 0 1 2 3;
#X obj -429 -243 loadbang;
#X obj -106 344 t a a;
#X obj -106 394 ggate;
#X obj -79 368 == 0;
#X obj -277 -202 piano;
#X msg -311 -24 note \$1 \$2;
#X msg -87 118 play;
#X obj -87 92 b;
#X msg -106 495 \$1 5;
#X obj -46 459 pipe 5;
#X msg -429 -222 pitchbend 64 \, range 12 \, adsr 6 21 13 70 \, print
1 \, wave 0;
#X obj -348 2 route note wave adsr flush pitchbend range print volume
play piano;
#X obj -45 140 s \$0-piano;
#X obj -74 -221 r \$0-piano;
#X obj -46 492 switch~;
#X msg 2 -222 keys 0;
#X obj 0 -241 loadbang;
#X connect 0 0 23 0;
#X connect 1 0 0 0;
#X connect 2 0 28 0;
#X connect 3 0 48 0;
#X connect 4 0 3 0;
#X connect 5 0 24 0;
#X connect 6 0 25 0;
#X connect 7 0 5 0;
#X connect 8 0 6 0;
#X connect 9 0 5 0;
#X connect 10 0 28 0;
#X connect 11 0 28 0;
#X connect 13 0 9 0;
#X connect 15 0 16 0;
#X connect 16 0 26 0;
#X connect 17 0 18 0;
#X connect 17 0 19 0;
#X connect 20 0 58 0;
#X connect 20 1 57 0;
#X connect 21 0 17 1;
#X connect 22 0 32 0;
#X connect 23 0 32 0;
#X connect 24 0 32 0;
#X connect 25 0 32 0;
#X connect 26 0 32 0;
#X connect 27 0 32 0;
#X connect 28 0 32 0;
#X connect 29 0 13 0;
#X connect 29 0 50 0;
#X connect 30 0 31 0;
#X connect 30 1 63 0;
#X connect 31 0 57 0;
#X connect 32 0 17 0;
#X connect 32 1 12 0;
#X connect 32 2 29 0;
#X connect 33 0 22 0;
#X connect 34 0 60 0;
#X connect 43 0 47 0;
#X connect 44 0 47 0;
#X connect 45 0 47 0;
#X connect 46 0 47 0;
#X connect 47 0 27 0;
#X connect 48 0 43 0;
#X connect 48 1 46 0;
#X connect 48 2 44 0;
#X connect 48 3 45 0;
#X connect 49 0 59 0;
#X connect 50 0 51 0;
#X connect 50 1 52 0;
#X connect 51 0 30 0;
#X connect 51 1 20 0;
#X connect 52 0 51 1;
#X connect 53 0 54 0;
#X connect 54 0 60 0;
#X connect 55 0 61 0;
#X connect 56 0 55 0;
#X connect 57 0 21 0;
#X connect 58 0 63 0;
#X connect 59 0 60 0;
#X connect 60 0 35 0;
#X connect 60 1 36 0;
#X connect 60 2 37 0;
#X connect 60 3 38 0;
#X connect 60 4 39 0;
#X connect 60 5 40 0;
#X connect 60 6 41 0;
#X connect 60 7 42 0;
#X connect 60 8 56 0;
#X connect 60 9 61 0;
#X connect 62 0 53 0;
#X connect 64 0 53 0;
#X connect 65 0 64 0;
