#N canvas 0 22 450 300 10;
#X obj 120 40 inlet~;
#X obj 131 127 /~;
#X obj 131 156 outlet~;
#X obj 99 76 sinh~;
#X obj 142 75 cosh~;
#X connect 0 0 3 0;
#X connect 0 0 4 0;
#X connect 1 0 2 0;
#X connect 3 0 1 0;
#X connect 4 0 1 1;
