#N canvas 0 22 450 300 10;
#X obj 130 50 inlet~;
#X obj 141 137 /~;
#X obj 141 166 outlet~;
#X obj 109 86 sin~;
#X obj 152 85 cos~;
#X connect 0 0 3 0;
#X connect 0 0 4 0;
#X connect 1 0 2 0;
#X connect 3 0 1 0;
#X connect 4 0 1 1;
