#N canvas 699 306 117 152 10;
#X obj -10 4 inlet~;
#X obj -10 127 outlet~;
#X obj -10 101 *~;
#X obj 38 4 inlet;
#X obj 43 24 loadbang;
#X obj 5 80 line~;
#X msg 5 60 \$1 2;
#X msg 43 43 0;
#X connect 0 0 2 0;
#X connect 2 0 1 0;
#X connect 3 0 6 0;
#X connect 4 0 7 0;
#X connect 5 0 2 1;
#X connect 6 0 5 0;
#X connect 7 0 6 0;
