#N canvas 777 140 284 208 10;
#X obj 93 54 phasor~ 0.1;
#X obj 38 55 sig~ 1;
#X obj 78 87 -~;
#X obj 78 108 -~ 0.5;
#X obj 78 129 abs~;
#X obj 78 150 outlet~;
#X obj 93 3 inlet~ FREQUENCY;
#X obj 156 27 inlet phase;
#X connect 0 0 2 1;
#X connect 1 0 2 0;
#X connect 2 0 3 0;
#X connect 3 0 4 0;
#X connect 4 0 5 0;
#X connect 6 0 0 0;
#X connect 7 0 0 1;
