#N canvas 42 67 260 439 10;
#X obj 20 25 inlet;
#X obj 20 49 b;
#X obj 20 73 f \$1;
#X obj 20 95 t a b;
#X obj 20 139 max 0;
#X obj 20 161 until;
#X obj 49 206 + 1;
#X obj 20 184 b;
#X msg 47 184 1;
#X obj 20 205 f 1;
#X obj 20 228 t f f;
#X obj 20 252 swap \$1;
#X obj 20 282 -;
#X obj 104 23 inlet;
#X obj 109 378 outlet;
#X obj 20 305 t a b a;
#X obj 61 346 sel 0;
#X obj 18 378 outlet;
#X obj 61 378 outlet;
#X obj 20 117 f;
#X connect 0 0 1 0;
#X connect 1 0 2 0;
#X connect 2 0 3 0;
#X connect 3 0 19 0;
#X connect 3 1 8 0;
#X connect 4 0 5 0;
#X connect 5 0 7 0;
#X connect 6 0 9 1;
#X connect 7 0 9 0;
#X connect 8 0 9 1;
#X connect 9 0 6 0;
#X connect 9 0 10 0;
#X connect 10 0 11 0;
#X connect 10 1 14 0;
#X connect 11 0 12 0;
#X connect 11 1 12 1;
#X connect 12 0 15 0;
#X connect 13 0 2 1;
#X connect 13 0 11 1;
#X connect 15 0 16 0;
#X connect 15 1 17 0;
#X connect 15 2 19 1;
#X connect 16 0 18 0;
#X connect 19 0 4 0;
