#N canvas 293 23 698 720 10;
#X obj -1 658 outlet~;
#X obj -1 102 mtof;
#X obj 334 345 bng 15 250 50 0 empty empty empty 17 7 0 10 -262144
-1 -1;
#X obj -1 80 +;
#X obj 394 53 - 64;
#X obj 393 74 / 64;
#X obj 393 96 * 12;
#X obj 393 119 s \$0-pitch_bend;
#X obj 7 29 r \$0-pitch_bend;
#X obj 7 51 t b f;
#X obj 270 72 list prepend set;
#X obj 270 94 list trim;
#X obj -1 1 unpack 0 0;
#X msg 430 161 print \$1;
#X msg 334 369 kill;
#X obj 270 -17 inlet METHODS;
#X obj 334 457 adsr~ -----------;
#X obj -1 155 phasor~;
#X obj -1 213 *~ 2051;
#X obj 115 154 phasor~;
#X obj 115 259 *~ 2051;
#X obj 115 235 wrap~;
#X obj 591 92 s \$0-note;
#X obj 100 374 *~;
#X obj -1 451 transistor~;
#X obj 100 451 transistor~;
#X obj 199 451 transistor~;
#X obj 199 376 -~;
#X obj 262 388 r \$0-mode;
#X obj 62 419 == 0;
#X obj 163 419 == 1;
#X obj 262 415 == 2;
#X obj 537 55 loadbang;
#X msg 537 74 0;
#X obj 494 97 s \$0-mode;
#X obj 462 140 s \$0-phase;
#X obj 174 124 r \$0-phase;
#X obj 433 533 sel 0;
#X msg 394 556 64;
#X obj 115 208 +~ 0;
#X obj 174 150 / 127;
#N canvas 108 287 250 177 lowpass 0;
#X obj 3 -18 lop~;
#X obj 3 -41 inlet~;
#X obj 3 2 lop~;
#X obj 3 22 lop~;
#X obj 3 42 lop~;
#X obj 3 62 lop~;
#X obj 3 84 outlet~;
#X obj 59 -52 inlet;
#X msg 59 -4 \$1 1 1;
#X obj 59 22 line;
#X obj 59 -27 expscale 22050 2;
#X connect 0 0 2 0;
#X connect 1 0 0 0;
#X connect 2 0 3 0;
#X connect 3 0 4 0;
#X connect 4 0 5 0;
#X connect 5 0 6 0;
#X connect 7 0 10 0;
#X connect 8 0 9 0;
#X connect 9 0 0 1;
#X connect 9 0 2 1;
#X connect 9 0 3 1;
#X connect 9 0 4 1;
#X connect 9 0 5 1;
#X connect 10 0 8 0;
#X restore -1 532 pd lowpass;
#X obj 56 499 r \$0-filter;
#X obj 526 210 s \$0-filter;
#X obj 20 567 r \$0-volume;
#X obj -1 619 *~ 1;
#X obj 433 289 unpack 0 0 0 0;
#X obj 433 405 pack 0 0 0 0;
#X obj -1 476 *~;
#X obj 146 494 loadbang;
#X obj 558 166 s \$0-volume;
#X obj 433 265 list trim;
#X obj 20 592 expscale;
#X obj 115 291 tabread~;
#X obj -1 249 tabread~;
#X obj 460 507 outlet;
#X obj 433 314 expscale 10000 3;
#X obj 456 334 expscale 10000 3;
#X obj 122 18 s \$0-velocity;
#X obj 311 312 r \$0-velocity;
#X obj 479 354 expscale;
#X obj 502 374 expscale 10000 3;
#X msg 146 515 64;
#X obj 553 499 tgl 15 0 empty empty empty 17 7 0 10 -262144 -1 -1 0
1;
#X obj 433 482 t f f;
#X obj 270 10 route wave adsr flush pitchbend range print phase mode
filter volume;
#X msg 68 -21 50 0;
#X obj 103 -21 inlet NOTE;
#X obj -1 -22 r \$0-note;
#X connect 1 0 17 0;
#X connect 1 0 19 0;
#X connect 2 0 14 0;
#X connect 3 0 1 0;
#X connect 4 0 5 0;
#X connect 5 0 6 0;
#X connect 6 0 7 0;
#X connect 8 0 9 0;
#X connect 9 0 3 0;
#X connect 9 1 3 1;
#X connect 10 0 11 0;
#X connect 11 0 53 0;
#X connect 11 0 54 0;
#X connect 12 0 3 0;
#X connect 12 1 58 0;
#X connect 13 0 16 0;
#X connect 14 0 16 0;
#X connect 15 0 65 0;
#X connect 16 0 48 1;
#X connect 16 1 64 0;
#X connect 17 0 18 0;
#X connect 18 0 54 0;
#X connect 19 0 39 0;
#X connect 20 0 53 0;
#X connect 21 0 20 0;
#X connect 23 0 25 0;
#X connect 24 0 48 0;
#X connect 25 0 48 0;
#X connect 26 0 48 0;
#X connect 27 0 26 0;
#X connect 28 0 29 0;
#X connect 28 0 30 0;
#X connect 28 0 31 0;
#X connect 29 0 24 1;
#X connect 30 0 25 1;
#X connect 31 0 26 1;
#X connect 32 0 33 0;
#X connect 33 0 34 0;
#X connect 36 0 40 0;
#X connect 37 0 38 0;
#X connect 38 0 4 0;
#X connect 39 0 21 0;
#X connect 40 0 39 1;
#X connect 41 0 45 0;
#X connect 42 0 41 1;
#X connect 44 0 52 0;
#X connect 45 0 0 0;
#X connect 46 0 56 0;
#X connect 46 1 57 0;
#X connect 46 2 60 0;
#X connect 46 3 61 0;
#X connect 47 0 16 1;
#X connect 48 0 41 0;
#X connect 49 0 62 0;
#X connect 51 0 46 0;
#X connect 52 0 45 1;
#X connect 53 0 23 1;
#X connect 53 0 27 1;
#X connect 54 0 23 0;
#X connect 54 0 27 0;
#X connect 54 0 24 0;
#X connect 56 0 47 0;
#X connect 57 0 47 1;
#X connect 59 0 16 0;
#X connect 60 0 47 2;
#X connect 61 0 47 3;
#X connect 62 0 41 1;
#X connect 64 0 37 0;
#X connect 64 1 55 0;
#X connect 64 1 63 0;
#X connect 65 0 10 0;
#X connect 65 1 51 0;
#X connect 65 2 2 0;
#X connect 65 3 4 0;
#X connect 65 4 6 1;
#X connect 65 5 13 0;
#X connect 65 6 35 0;
#X connect 65 7 34 0;
#X connect 65 8 43 0;
#X connect 65 9 50 0;
#X connect 65 10 22 0;
#X connect 66 0 12 0;
#X connect 67 0 12 0;
#X connect 68 0 12 0;
