#N canvas 50 40 689 545 10;
#X obj 6 496 cnv 15 660 20 empty \$0-pddp.cnv.footer empty 20 12 0
14 -228856 -66577 0;
#X obj 5 -12 cnv 15 660 40 empty \$0-pddp.cnv.header volume~ 3 12 0
18 -204280 -1 0;
#X obj 4 244 cnv 3 660 3 empty \$0-pddp.cnv.inlets inlets 15 12 0 13
-228856 -1 0;
#N canvas 468 603 388 245 META 0;
#X text 11 23 LICENSE SIBSD;
#X text 11 63 INLET_0 signal;
#X text 11 77 INLET_1 float;
#X text 11 90 INLET_2 float;
#X text 11 102 INLET_3 float;
#X text 11 116 INLET_4 signal;
#X text 12 162 LIBRARY IntrinsicAudio;
#X text 12 180 AUTHOR;
#X text 13 197 RELEASE_DATE 2014;
#X text 13 217 HELP_PATCH_AUTHORS;
#X text 10 5 Created by;
#X text 11 43 DESCRIPTION volume - Easy stereo gain/panning controls
;
#X text 12 133 OUTLET_0 signal;
#X text 12 146 OUTLET_1 signal;
#X restore 617 498 pd META;
#X obj 4 372 cnv 3 660 3 empty empty outlet 15 12 0 13 -228856 -1 0
;
#X obj 4 444 cnv 3 660 3 empty empty argument 15 12 0 13 -228856 -1
0;
#X obj 73 264 cnv 17 3 20 empty empty 0 5 9 0 16 -228856 -162280 0
;
#X obj 451 -4 pddp/dsp;
#X text 10 9 Allows easy gain/panning controls for stereo audio;
#X floatatom 205 154 5 0 1 1 Left_Gain - -;
#X floatatom 104 150 5 0 1 0 Right_Gain - -;
#X obj 138 215 dac~;
#X floatatom 205 124 5 0 100 1 Pan_%_(0-100) - -;
#X floatatom 104 121 5 0 1 0 Stereo_Gain - -;
#X obj 156 98 osc~;
#X msg 170 48 0;
#X floatatom 102 82 5 0 0 0 Frequency - -;
#X msg 140 48 350;
#X text 103 263 SIGNAL - Left Input Signal;
#X obj 73 284 cnv 17 3 20 empty empty 1 5 9 0 16 -228856 -162280 0
;
#X obj 73 304 cnv 17 3 20 empty empty 2 5 9 0 16 -228856 -162280 0
;
#X obj 73 324 cnv 17 3 20 empty empty 3 5 9 0 16 -228856 -162280 0
;
#X obj 73 344 cnv 17 3 20 empty empty 4 5 9 0 16 -228856 -162280 0
;
#X text 103 342 SIGNAL - Right Input Signal;
#X obj 74 397 cnv 17 3 20 empty empty 0 5 9 0 16 -228856 -162280 0
;
#X obj 74 417 cnv 17 3 20 empty empty 1 5 9 0 16 -228856 -162280 0
;
#X text 104 396 SIGNAL - Left Output Signal;
#X text 104 416 SIGNAL - Right Output Signal;
#X text 77 469 None;
#X text 103 283 FLOAT - Left Gain (0-1);
#X text 103 323 FLOAT - Right Gain (0-1);
#X obj 124 50 cnv 15 13 13 empty \$0-pddp.cnv.header ON 2 8 0 10 -135143
-1 0;
#X obj 197 50 cnv 15 19 13 empty \$0-pddp.cnv.header OFF 2 8 0 10 -259868
-1 0;
#X obj 445 209 dac~;
#X floatatom 494 166 5 0 100 1 Pan_%_(0-100) - -;
#X floatatom 406 166 5 0 1 0 Stereo_Gain - -;
#X text 420 139 Simple Interface:;
#X obj 135 188 volume~;
#X obj 442 182 volume~;
#X text 332 93 Volume Controls at Left-middle & right-middle inlets.
;
#X text 331 78 Pan control (0 - 100% \, 50% = center) in center inlet.
;
#X text 331 64 Signal input at Left & Right inlets.;
#X text 309 45 Stereo Volume Controls:;
#X text 304 256 This patch uses non-signal controls \, so tremolo or
panner;
#X text 103 303 FLOAT - Pan % (0-100) 50 = center;
#X text 305 269 effects are limited to non-signal frequencies. For
more;
#X text 306 283 accurate tremolo or panner effects \, use the proper
plugins:;
#X obj 397 318 multitremolo~;
#X obj 536 317 panner~;
#X text 104 497 See also:;
#X obj 168 498 multitremolo~;
#X obj 259 498 panner~;
#X obj 361 498 adsr~;
#X obj 406 498 remove_dc_offset~;
#X obj 522 498 normalize~;
#X obj 599 -6 volume~;
#X obj 205 97 loadfloat 50;
#X text 543 -6 pdx;
#X connect 9 0 37 3;
#X connect 10 0 37 1;
#X connect 12 0 37 2;
#X connect 13 0 10 0;
#X connect 13 0 9 0;
#X connect 14 0 37 0;
#X connect 14 0 37 4;
#X connect 15 0 14 0;
#X connect 16 0 14 0;
#X connect 17 0 14 0;
#X connect 34 0 38 2;
#X connect 35 0 38 1;
#X connect 35 0 38 3;
#X connect 37 0 11 0;
#X connect 37 1 11 1;
#X connect 38 0 33 0;
#X connect 38 1 33 1;
#X connect 56 0 12 0;
