#N canvas 121 196 201 255 10;
#X obj 7 12 inlet~;
#X obj 97 12 inlet~;
#X obj 57 190 outlet~;
#X obj 7 92 clip~ 0 1e-38;
#X obj 7 112 /~ 1e-38;
#X obj 7 52 -~ 1;
#X obj 97 92 clip~ 0 1e-38;
#X obj 97 112 /~ 1e-38;
#X obj 97 52 -~ 1;
#X obj 97 32 abs~;
#X obj 7 32 abs~;
#X obj 57 150 +~;
#X obj 57 170 clip~ 0 1;
#X obj 7 72 +~ 1e-38;
#X obj 97 72 +~ 1e-38;
#X connect 0 0 10 0;
#X connect 1 0 9 0;
#X connect 3 0 4 0;
#X connect 4 0 11 0;
#X connect 5 0 13 0;
#X connect 6 0 7 0;
#X connect 7 0 11 1;
#X connect 8 0 14 0;
#X connect 9 0 8 0;
#X connect 10 0 5 0;
#X connect 11 0 12 0;
#X connect 12 0 2 0;
#X connect 13 0 3 0;
#X connect 14 0 6 0;
