#N canvas 554 693 796 440 10;
#X obj 268 21 cnv 15 15 15 empty empty Synth_Tools 20 12 1 32 -262144
-66577 0;
#X obj 405 115 bng 60 250 50 0 empty empty empty 17 7 0 10 -260449
-86277 -1;
#X obj 204 243 cnv 15 15 15 empty empty Audio_Effects_--> 20 12 1 22
-262144 -66577 0;
#X msg 405 175 vis 1;
#X obj 405 225 bng 60 250 50 0 empty empty empty 17 7 0 10 -260449
-86277 -1;
#X obj 186 133 cnv 15 15 15 empty empty Building_Blocks_--> 20 12 1
22 -262144 -66577 0;
#X msg 405 285 vis 1;
#X text 6 8 Page 9;
#X obj 405 192 s pd-@@@@@@@@-synthbuildingblocks;
#X obj 405 302 s pd-@@@@@@@@-audioeffects;
#X connect 1 0 3 0;
#X connect 3 0 8 0;
#X connect 4 0 6 0;
#X connect 6 0 9 0;
#X coords 0 -1 1 1 750 400 2 0 0;
